<svg width="168" height="172" viewBox="0 0 168 172" fill="none" xmlns="http://www.w3.org/2000/svg">
<path d="M103.104 0L168 59.5686L148.876 145.569L64.8957 172L0 112.431L19.1239 26.4314L103.104 0Z" fill="#9F1F24"/>
<path fill-rule="evenodd" clip-rule="evenodd" d="M81.5 79.75C81.5 78.5994 82.4327 77.6667 83.5833 77.6667C84.7339 77.6667 85.6667 78.5994 85.6667 79.75V90.1667H96.5V79.75C96.5 78.5994 97.4327 77.6667 98.5833 77.6667C99.7339 77.6667 100.667 78.5994 100.667 79.75V90.1667H109.833C111.674 90.1667 113.167 91.6591 113.167 93.5V102.667H118.167C120.008 102.667 121.5 104.159 121.5 106V124.333C121.5 126.174 120.008 127.667 118.167 127.667H49.8333C47.9924 127.667 46.5 126.174 46.5 124.333V106C46.5 104.159 47.9924 102.667 49.8333 102.667H54.8333V93.5C54.8333 91.6591 56.3257 90.1667 58.1667 90.1667H67.3333V80.5833C67.3333 79.4327 68.2661 78.5 69.4167 78.5C70.5673 78.5 71.5 79.4327 71.5 80.5833V90.1667H81.5V79.75Z" fill="#9F1F24"/>
<path fill-rule="evenodd" clip-rule="evenodd" d="M77.333 79.75C77.333 76.2982 80.1312 73.5 83.583 73.5C87.0348 73.5 89.833 76.2982 89.833 79.75V86H92.333V79.75C92.333 76.2982 95.1312 73.5 98.583 73.5C102.035 73.5 104.833 76.2982 104.833 79.75V86H109.833C113.975 86 117.333 89.3579 117.333 93.5V98.5H118.166C122.308 98.5 125.666 101.858 125.666 106V124.333C125.666 128.475 122.308 131.833 118.166 131.833H49.833C45.6909 131.833 42.333 128.475 42.333 124.333V106C42.333 101.858 45.6909 98.5 49.833 98.5H50.6663V93.5C50.6663 89.3579 54.0242 86 58.1663 86H63.1663V80.5833C63.1663 77.1316 65.9646 74.3333 69.4163 74.3333C72.8681 74.3333 75.6663 77.1316 75.6663 80.5833V86H77.333V79.75ZM100.666 90.1667V79.75C100.666 78.5994 99.7336 77.6667 98.583 77.6667C97.4324 77.6667 96.4997 78.5994 96.4997 79.75V90.1667H85.6663V79.75C85.6663 78.5994 84.7336 77.6667 83.583 77.6667C82.4324 77.6667 81.4997 78.5994 81.4997 79.75V90.1667H71.4997V80.5833C71.4997 79.4327 70.5669 78.5 69.4163 78.5C68.2657 78.5 67.333 79.4327 67.333 80.5833V90.1667H58.1663C56.3254 90.1667 54.833 91.6591 54.833 93.5V102.667H49.833C47.9921 102.667 46.4997 104.159 46.4997 106V124.333C46.4997 126.174 47.9921 127.667 49.833 127.667H118.166C120.007 127.667 121.5 126.174 121.5 124.333V106C121.5 104.159 120.007 102.667 118.166 102.667H113.166V93.5C113.166 91.6591 111.674 90.1667 109.833 90.1667H100.666Z" fill="white"/>
<path d="M94.0003 71.4167C94.0003 77.6299 89.3366 77.6667 83.5837 77.6667C77.8307 77.6667 73.167 77.6299 73.167 71.4167C73.167 65.2035 80.1114 57.6667 85.8985 52.6667C83.5837 57.6667 94.0003 65.2035 94.0003 71.4167Z" fill="white"/>
<path d="M89.0003 71C89.0003 74.3137 86.5752 74.3333 83.5837 74.3333C80.5921 74.3333 78.167 74.3137 78.167 71C78.167 67.6863 81.7781 63.6667 84.7874 61C83.5837 63.6667 89.0003 67.6863 89.0003 71Z" fill="#9F1F24"/>
<path d="M81.917 42.25C81.917 41.0994 82.8497 40.1667 84.0003 40.1667C85.1509 40.1667 86.0837 41.0994 86.0837 42.25V46.4167C86.0837 47.5673 85.1509 48.5 84.0003 48.5C82.8497 48.5 81.917 47.5673 81.917 46.4167V42.25Z" fill="#9F1F24"/>
<path fill-rule="evenodd" clip-rule="evenodd" d="M77.75 46.4167V42.25C77.75 38.7982 80.5482 36 84 36C87.4518 36 90.25 38.7982 90.25 42.25V46.4167C90.25 49.8684 87.4518 52.6667 84 52.6667C80.5482 52.6667 77.75 49.8684 77.75 46.4167ZM86.0833 42.25C86.0833 41.0994 85.1506 40.1667 84 40.1667C82.8494 40.1667 81.9167 41.0994 81.9167 42.25V46.4167C81.9167 47.5673 82.8494 48.5 84 48.5C85.1506 48.5 86.0833 47.5673 86.0833 46.4167V42.25Z" fill="white"/>
<path d="M103.029 46.7906C103.604 45.7942 104.878 45.4528 105.875 46.0281C106.871 46.6034 107.212 47.8775 106.637 48.8739L104.554 52.4824C103.978 53.4788 102.704 53.8202 101.708 53.2449C100.711 52.6696 100.37 51.3955 100.945 50.399L103.029 46.7906Z" fill="#9F1F24"/>
<path fill-rule="evenodd" clip-rule="evenodd" d="M97.3376 48.3157L99.4209 44.7073C101.147 41.7179 104.969 40.6937 107.959 42.4196C110.948 44.1455 111.972 47.9679 110.246 50.9573L108.163 54.5657C106.437 57.555 102.615 58.5793 99.6252 56.8534C96.6359 55.1275 95.6117 51.305 97.3376 48.3157ZM106.638 48.8739C107.213 47.8775 106.872 46.6034 105.875 46.0281C104.879 45.4528 103.605 45.7942 103.029 46.7906L100.946 50.399C100.371 51.3955 100.712 52.6696 101.709 53.2449C102.705 53.8202 103.979 53.4788 104.554 52.4824L106.638 48.8739Z" fill="white"/>
<path d="M119.042 61.2791C120.039 60.7038 121.313 61.0452 121.888 62.0417C122.464 63.0381 122.122 64.3123 121.126 64.8876L117.517 66.9709C116.521 67.5462 115.247 67.2048 114.671 66.2083C114.096 65.2119 114.438 63.9378 115.434 63.3625L119.042 61.2791Z" fill="#9F1F24"/>
<path fill-rule="evenodd" clip-rule="evenodd" d="M113.351 59.754L116.959 57.6707C119.949 55.9448 123.771 56.969 125.497 59.9583C127.223 62.9477 126.199 66.7701 123.209 68.496L119.601 70.5793C116.612 72.3052 112.789 71.281 111.063 68.2917C109.337 65.3023 110.362 61.4799 113.351 59.754ZM121.126 64.8876C122.123 64.3123 122.464 63.0381 121.889 62.0417C121.313 61.0452 120.039 60.7038 119.043 61.2791L115.434 63.3625C114.438 63.9378 114.096 65.2119 114.672 66.2083C115.247 67.2048 116.521 67.5462 117.518 66.9709L121.126 64.8876Z" fill="white"/>
<path d="M64.9714 46.7906C64.3961 45.7942 63.1219 45.4528 62.1255 46.0281C61.129 46.6034 60.7876 47.8775 61.3629 48.8739L63.4462 52.4824C64.0215 53.4788 65.2957 53.8202 66.2921 53.2449C67.2886 52.6696 67.63 51.3955 67.0547 50.399L64.9714 46.7906Z" fill="#9F1F24"/>
<path fill-rule="evenodd" clip-rule="evenodd" d="M70.6624 48.3157L68.5791 44.7073C66.8532 41.7179 63.0308 40.6937 60.0414 42.4196C57.0521 44.1455 56.0279 47.9679 57.7538 50.9573L59.8371 54.5657C61.563 57.555 65.3854 58.5793 68.3748 56.8534C71.3641 55.1275 72.3883 51.305 70.6624 48.3157ZM61.3622 48.8739C60.7869 47.8775 61.1283 46.6034 62.1248 46.0281C63.1212 45.4528 64.3954 45.7942 64.9707 46.7906L67.054 50.399C67.6293 51.3955 67.2879 52.6696 66.2914 53.2449C65.295 53.8202 64.0209 53.4788 63.4456 52.4824L61.3622 48.8739Z" fill="white"/>
<path d="M48.9575 61.2791C47.9611 60.7038 46.687 61.0452 46.1117 62.0417C45.5364 63.0381 45.8778 64.3123 46.8742 64.8876L50.4826 66.9709C51.4791 67.5462 52.7532 67.2048 53.3285 66.2083C53.9038 65.2119 53.5624 63.9378 52.566 63.3625L48.9575 61.2791Z" fill="#9F1F24"/>
<path fill-rule="evenodd" clip-rule="evenodd" d="M54.649 59.754L51.0406 57.6707C48.0513 55.9448 44.2288 56.969 42.5029 59.9583C40.777 62.9477 41.8013 66.7701 44.7906 68.496L48.399 70.5793C51.3884 72.3052 55.2108 71.281 56.9367 68.2917C58.6626 65.3023 57.6384 61.4799 54.649 59.754ZM46.8739 64.8876C45.8775 64.3123 45.5361 63.0381 46.1114 62.0417C46.6867 61.0452 47.9608 60.7038 48.9573 61.2791L52.5657 63.3625C53.5621 63.9378 53.9035 65.2119 53.3282 66.2083C52.753 67.2048 51.4788 67.5462 50.4824 66.9709L46.8739 64.8876Z" fill="white"/>
</svg>
