<svg width="168" height="172" viewBox="0 0 168 172" fill="none" xmlns="http://www.w3.org/2000/svg">
<path d="M103.104 0L168 59.5686L148.876 145.569L64.8957 172L0 112.431L19.1239 26.4314L103.104 0Z" fill="#9F1F24"/>
<path fill-rule="evenodd" clip-rule="evenodd" d="M53.4703 45.6149C53.2919 44.8637 52.6209 44.3333 51.8488 44.3333H42.7748C41.6987 44.3333 40.9046 45.3381 41.1533 46.3851L56.1949 109.718C56.3734 110.47 57.0444 111 57.8165 111H68.9993H113.507C114.283 111 114.956 110.464 115.131 109.708L126.862 58.8748C127.103 57.8304 126.309 56.8333 125.238 56.8333H57.4519C56.6798 56.8333 56.0088 56.303 55.8304 55.5518L53.4703 45.6149Z" fill="#9F1F24"/>
<path fill-rule="evenodd" clip-rule="evenodd" d="M42.7754 40.1667H51.8494C54.5518 40.1667 56.9004 42.0228 57.5248 44.6521L59.4283 52.6667H125.238C128.99 52.6667 131.766 56.1564 130.922 59.8117L119.191 110.645C118.581 113.292 116.224 115.167 113.507 115.167H57.8171C55.1147 115.167 52.7661 113.311 52.1416 110.681L37.1 47.3479C36.2296 43.6832 39.0088 40.1667 42.7754 40.1667ZM51.8494 44.3333C52.6215 44.3333 53.2925 44.8637 53.4709 45.6149L55.831 55.5518C56.0094 56.303 56.6804 56.8333 57.4525 56.8333H125.238C126.31 56.8333 127.103 57.8304 126.862 58.8748L115.131 109.708C114.957 110.464 114.283 111 113.507 111H57.8171C57.045 111 56.374 110.47 56.1955 109.718L41.1539 46.3851C40.9052 45.3381 41.6992 44.3333 42.7754 44.3333H51.8494Z" fill="white"/>
<path fill-rule="evenodd" clip-rule="evenodd" d="M84.8327 71.4167C81.4052 71.4167 78.5827 74.237 78.5827 77.7708C78.5827 78.9214 77.6499 79.8542 76.4993 79.8542C75.3488 79.8542 74.416 78.9214 74.416 77.7708C74.416 71.9848 79.0554 67.25 84.8327 67.25C90.61 67.25 95.2493 71.9848 95.2493 77.7708C95.2493 80.2577 94.6235 82.1278 93.5546 83.6123C92.5484 85.0098 91.234 85.9278 90.2253 86.6324L90.1924 86.6553C89.0939 87.4227 88.3451 87.9559 87.7985 88.6811C87.3181 89.3185 86.916 90.224 86.916 91.8333C86.916 92.9839 85.9833 93.9167 84.8327 93.9167C83.6821 93.9167 82.7493 92.9839 82.7493 91.8333C82.7493 89.4188 83.3889 87.6091 84.471 86.1733C85.4383 84.8898 86.6945 84.0144 87.6626 83.3397C87.7113 83.3058 87.7592 83.2724 87.8063 83.2395C88.8768 82.4918 89.6279 81.9351 90.1733 81.1777C90.6669 80.4921 91.0827 79.5016 91.0827 77.7708C91.0827 74.237 88.2601 71.4167 84.8327 71.4167Z" fill="white"/>
<path d="M87.7493 98.9167C87.7493 100.527 86.4435 101.833 84.8327 101.833C83.2219 101.833 81.916 100.527 81.916 98.9167C81.916 97.3058 83.2219 96 84.8327 96C86.4435 96 87.7493 97.3058 87.7493 98.9167Z" fill="white"/>
<path fill-rule="evenodd" clip-rule="evenodd" d="M84.8327 101C85.9833 101 86.916 100.067 86.916 98.9167C86.916 97.7661 85.9833 96.8333 84.8327 96.8333C83.6821 96.8333 82.7493 97.7661 82.7493 98.9167C82.7493 100.067 83.6821 101 84.8327 101ZM84.8327 101.833C86.4435 101.833 87.7493 100.527 87.7493 98.9167C87.7493 97.3058 86.4435 96 84.8327 96C83.2219 96 81.916 97.3058 81.916 98.9167C81.916 100.527 83.2219 101.833 84.8327 101.833Z" fill="white"/>
<path d="M69 121.417C69 124.868 66.2018 127.667 62.75 127.667C59.2982 127.667 56.5 124.868 56.5 121.417C56.5 117.965 59.2982 115.167 62.75 115.167C66.2018 115.167 69 117.965 69 121.417Z" fill="#9F1F24"/>
<path fill-rule="evenodd" clip-rule="evenodd" d="M73.1673 121.417C73.1673 127.17 68.5036 131.833 62.7507 131.833C56.9977 131.833 52.334 127.17 52.334 121.417C52.334 115.664 56.9977 111 62.7507 111C68.5036 111 73.1673 115.664 73.1673 121.417ZM62.7507 127.667C66.2024 127.667 69.0007 124.868 69.0007 121.417C69.0007 117.965 66.2024 115.167 62.7507 115.167C59.2989 115.167 56.5007 117.965 56.5007 121.417C56.5007 124.868 59.2989 127.667 62.7507 127.667Z" fill="white"/>
<path d="M114.834 121.417C114.834 124.868 112.036 127.667 108.584 127.667C105.132 127.667 102.334 124.868 102.334 121.417C102.334 117.965 105.132 115.167 108.584 115.167C112.036 115.167 114.834 117.965 114.834 121.417Z" fill="#9F1F24"/>
<path fill-rule="evenodd" clip-rule="evenodd" d="M118.999 121.417C118.999 127.17 114.336 131.833 108.583 131.833C102.83 131.833 98.166 127.17 98.166 121.417C98.166 115.664 102.83 111 108.583 111C114.336 111 118.999 115.664 118.999 121.417ZM108.583 127.667C112.034 127.667 114.833 124.868 114.833 121.417C114.833 117.965 112.034 115.167 108.583 115.167C105.131 115.167 102.333 117.965 102.333 121.417C102.333 124.868 105.131 127.667 108.583 127.667Z" fill="white"/>
</svg>
