<svg width="168" height="172" viewBox="0 0 168 172" fill="none" xmlns="http://www.w3.org/2000/svg">
<path d="M103.104 0L168 59.5686L148.876 145.569L64.8957 172L0 112.431L19.1239 26.4314L103.104 0Z" fill="#9F1F24"/>
<path fill-rule="evenodd" clip-rule="evenodd" d="M83.6721 77.8074C83.8817 77.7175 84.119 77.7175 84.3286 77.8074L105.704 86.9681C107.37 87.682 106.86 90.1667 105.047 90.1667H97.7904C96.9133 90.1667 96.6315 91.3475 97.4142 91.7436L112.768 99.5129C114.333 100.305 113.77 102.667 112.015 102.667L101.393 102.667C100.572 102.667 100.245 103.727 100.924 104.189L118.696 116.289C120.052 117.212 119.398 119.333 117.758 119.333H95.667C95.2068 119.333 94.8337 119.706 94.8337 120.167V128.5C94.8337 130.341 93.3413 131.833 91.5003 131.833H77.3337C75.4927 131.833 74.0003 130.341 74.0003 128.5V120.167C74.0003 119.706 73.6272 119.333 73.167 119.333H50.243C48.6024 119.333 47.9489 117.212 49.305 116.289L67.0771 104.189C67.7552 103.727 67.4285 102.667 66.6082 102.667L56.8186 102.667C55.0643 102.667 54.5008 100.305 56.0661 99.5129L71.4198 91.7436C72.2025 91.3475 71.9207 90.1667 71.0436 90.1667H62.9535C61.1411 90.1667 60.6311 87.682 62.297 86.9681L83.6721 77.8074Z" fill="#9F1F24"/>
<path fill-rule="evenodd" clip-rule="evenodd" d="M85.9696 73.9776L107.345 83.1383C111.7 85.0049 111.806 90.3297 108.937 92.9046L114.649 95.7951C120.07 98.5384 118.196 106.661 112.207 106.831L121.04 112.845C125.787 116.076 123.499 123.5 117.757 123.5L99 123.5V128.5C99 132.642 95.6421 136 91.5 136H77.3333C73.1912 136 69.8333 132.642 69.8333 128.5V123.5L50.2426 123.5C44.5005 123.5 42.2132 116.076 46.9597 112.845L55.8865 106.767C50.4915 105.981 48.9932 98.422 54.1845 95.7951L59.3784 93.1668C56.1918 90.7101 56.146 85.0709 60.6553 83.1383L82.0304 73.9776C83.2881 73.4385 84.7118 73.4385 85.9696 73.9776ZM71.0432 90.1667C71.9204 90.1667 72.2021 91.3475 71.4194 91.7436L56.0658 99.5129C54.5004 100.305 55.0639 102.667 56.8183 102.667H66.6078C67.4281 102.667 67.7548 103.727 67.0768 104.189L49.3047 116.289C47.9485 117.212 48.602 119.333 50.2426 119.333L73.1666 119.333C73.6269 119.333 74 119.706 74 120.167V128.5C74 130.341 75.4923 131.833 77.3333 131.833H91.5C93.3409 131.833 94.8333 130.341 94.8333 128.5V120.167C94.8333 119.706 95.2064 119.333 95.6666 119.333L117.757 119.333C119.398 119.333 120.051 117.212 118.695 116.289L100.923 104.189C100.245 103.727 100.572 102.667 101.392 102.667H112.015C113.769 102.667 114.333 100.305 112.768 99.5129L97.4138 91.7436C96.6311 91.3475 96.9129 90.1667 97.7901 90.1667H105.047C106.859 90.1667 107.369 87.682 105.703 86.9681L84.3282 77.8073C84.1186 77.7175 83.8813 77.7175 83.6717 77.8073L62.2966 86.9681C60.6308 87.682 61.1407 90.1667 62.9532 90.1667H71.0432Z" fill="white"/>
<path d="M83.2529 60.0142C83.5586 59.3948 84.4418 59.3948 84.7474 60.0142L86.2554 63.0696C86.3768 63.3155 86.6114 63.486 86.8828 63.5254L90.2547 64.0154C90.9382 64.1147 91.2111 64.9547 90.7165 65.4368L88.2766 67.8151C88.0802 68.0065 87.9906 68.2824 88.037 68.5527L88.6129 71.9109C88.7297 72.5917 88.0152 73.1108 87.4038 72.7894L84.3879 71.2039C84.1452 71.0762 83.8551 71.0762 83.6124 71.2039L80.5965 72.7894C79.9852 73.1108 79.2706 72.5917 79.3874 71.9109L79.9634 68.5527C80.0097 68.2824 79.9201 68.0065 79.7237 67.8151L77.2838 65.4368C76.7892 64.9547 77.0621 64.1147 77.7457 64.0154L81.1175 63.5254C81.3889 63.486 81.6236 63.3155 81.745 63.0696L83.2529 60.0142Z" fill="#9F1F24"/>
<path fill-rule="evenodd" clip-rule="evenodd" d="M81.7453 63.0696C81.7237 63.1133 81.6986 63.1546 81.6703 63.1932C81.5676 63.3333 81.4236 63.438 81.2586 63.4923C81.2131 63.5073 81.1661 63.5184 81.1178 63.5254L77.746 64.0154C77.0625 64.1147 76.7895 64.9547 77.2841 65.4368L79.724 67.8151C79.7589 67.8491 79.7905 67.8858 79.8185 67.9247C79.92 68.0656 79.975 68.2349 79.9757 68.4086C79.9759 68.4565 79.9719 68.5047 79.9637 68.5527L79.3877 71.9109C79.271 72.5917 79.9855 73.1108 80.5968 72.7894L83.6127 71.2039C83.6558 71.1812 83.7005 71.1625 83.7461 71.1479C83.9115 71.0949 84.0895 71.0949 84.2549 71.1479C84.3005 71.1625 84.3451 71.1812 84.3883 71.2039L87.4041 72.7894C88.0155 73.1108 88.73 72.5917 88.6133 71.9109L88.0373 68.5527C88.029 68.5047 88.0251 68.4565 88.0253 68.4086C88.026 68.2349 88.081 68.0656 88.1825 67.9247C88.2105 67.8858 88.242 67.8491 88.2769 67.8151L90.7168 65.4368C91.2114 64.9547 90.9385 64.1147 90.255 64.0154L86.8831 63.5254C86.8349 63.5184 86.7878 63.5073 86.7423 63.4923C86.5774 63.438 86.4333 63.3333 86.3307 63.1932C86.3024 63.1546 86.2773 63.1133 86.2557 63.0696L84.7478 60.0142C84.4421 59.3948 83.5589 59.3948 83.2532 60.0142L81.7453 63.0696ZM89.2165 59.6541L90.8541 59.892C94.9553 60.488 96.5928 65.5278 93.6252 68.4205L92.4402 69.5756L92.72 71.2066C93.4205 75.2911 89.1333 78.4059 85.4652 76.4775L84.0005 75.7074L82.5358 76.4775C78.8676 78.4059 74.5805 75.2911 75.281 71.2066L75.5607 69.5756L74.3758 68.4205C71.4082 65.5278 73.0457 60.488 77.1468 59.892L78.7844 59.6541L79.5168 58.1701C81.3509 54.4539 86.6501 54.4539 88.4842 58.1701L89.2165 59.6541Z" fill="white"/>
<path d="M81.917 42.25C81.917 41.0994 82.8497 40.1667 84.0003 40.1667C85.1509 40.1667 86.0837 41.0994 86.0837 42.25V46.4167C86.0837 47.5673 85.1509 48.5 84.0003 48.5C82.8497 48.5 81.917 47.5673 81.917 46.4167V42.25Z" fill="#9F1F24"/>
<path fill-rule="evenodd" clip-rule="evenodd" d="M77.75 46.4167V42.25C77.75 38.7982 80.5482 36 84 36C87.4518 36 90.25 38.7982 90.25 42.25V46.4167C90.25 49.8684 87.4518 52.6667 84 52.6667C80.5482 52.6667 77.75 49.8684 77.75 46.4167ZM86.0833 42.25C86.0833 41.0994 85.1506 40.1667 84 40.1667C82.8494 40.1667 81.9167 41.0994 81.9167 42.25V46.4167C81.9167 47.5673 82.8494 48.5 84 48.5C85.1506 48.5 86.0833 47.5673 86.0833 46.4167V42.25Z" fill="white"/>
<path d="M103.029 46.7906C103.604 45.7942 104.878 45.4528 105.875 46.0281C106.871 46.6034 107.212 47.8775 106.637 48.8739L104.554 52.4824C103.978 53.4788 102.704 53.8202 101.708 53.2449C100.711 52.6696 100.37 51.3955 100.945 50.399L103.029 46.7906Z" fill="#9F1F24"/>
<path fill-rule="evenodd" clip-rule="evenodd" d="M97.3376 48.3157L99.4209 44.7073C101.147 41.7179 104.969 40.6937 107.959 42.4196C110.948 44.1455 111.972 47.9679 110.246 50.9573L108.163 54.5657C106.437 57.555 102.615 58.5793 99.6252 56.8534C96.6359 55.1275 95.6117 51.305 97.3376 48.3157ZM106.638 48.8739C107.213 47.8775 106.872 46.6034 105.875 46.0281C104.879 45.4528 103.605 45.7942 103.029 46.7906L100.946 50.399C100.371 51.3955 100.712 52.6696 101.709 53.2449C102.705 53.8202 103.979 53.4788 104.554 52.4824L106.638 48.8739Z" fill="white"/>
<path d="M119.042 61.2791C120.039 60.7038 121.313 61.0452 121.888 62.0417C122.464 63.0381 122.122 64.3123 121.126 64.8876L117.517 66.9709C116.521 67.5462 115.247 67.2048 114.671 66.2083C114.096 65.2119 114.438 63.9378 115.434 63.3625L119.042 61.2791Z" fill="#9F1F24"/>
<path fill-rule="evenodd" clip-rule="evenodd" d="M113.351 59.754L116.959 57.6707C119.949 55.9448 123.771 56.969 125.497 59.9583C127.223 62.9477 126.199 66.7701 123.209 68.496L119.601 70.5793C116.612 72.3052 112.789 71.281 111.063 68.2917C109.337 65.3023 110.362 61.4799 113.351 59.754ZM121.126 64.8876C122.123 64.3123 122.464 63.0381 121.889 62.0417C121.313 61.0452 120.039 60.7038 119.043 61.2791L115.434 63.3625C114.438 63.9378 114.096 65.2119 114.672 66.2083C115.247 67.2048 116.521 67.5462 117.518 66.9709L121.126 64.8876Z" fill="white"/>
<path d="M64.9714 46.7906C64.3961 45.7942 63.1219 45.4528 62.1255 46.0281C61.129 46.6034 60.7876 47.8775 61.3629 48.8739L63.4462 52.4824C64.0215 53.4788 65.2957 53.8202 66.2921 53.2449C67.2886 52.6696 67.63 51.3955 67.0547 50.399L64.9714 46.7906Z" fill="#9F1F24"/>
<path fill-rule="evenodd" clip-rule="evenodd" d="M70.6624 48.3157L68.5791 44.7073C66.8532 41.7179 63.0308 40.6937 60.0414 42.4196C57.0521 44.1455 56.0279 47.9679 57.7538 50.9573L59.8371 54.5657C61.563 57.555 65.3854 58.5793 68.3748 56.8534C71.3641 55.1275 72.3883 51.305 70.6624 48.3157ZM61.3622 48.8739C60.7869 47.8775 61.1283 46.6034 62.1248 46.0281C63.1212 45.4528 64.3954 45.7942 64.9707 46.7906L67.054 50.399C67.6293 51.3955 67.2879 52.6696 66.2914 53.2449C65.295 53.8202 64.0209 53.4788 63.4456 52.4824L61.3622 48.8739Z" fill="white"/>
<path d="M48.9575 61.2791C47.9611 60.7038 46.687 61.0452 46.1117 62.0417C45.5364 63.0381 45.8778 64.3123 46.8742 64.8876L50.4826 66.9709C51.4791 67.5462 52.7532 67.2048 53.3285 66.2083C53.9038 65.2119 53.5624 63.9378 52.566 63.3625L48.9575 61.2791Z" fill="#9F1F24"/>
<path fill-rule="evenodd" clip-rule="evenodd" d="M54.649 59.754L51.0406 57.6707C48.0513 55.9448 44.2288 56.969 42.5029 59.9583C40.777 62.9477 41.8013 66.7701 44.7906 68.496L48.399 70.5793C51.3884 72.3052 55.2108 71.281 56.9367 68.2917C58.6626 65.3023 57.6384 61.4799 54.649 59.754ZM46.8739 64.8876C45.8775 64.3123 45.5361 63.0381 46.1114 62.0417C46.6867 61.0452 47.9608 60.7038 48.9573 61.2791L52.5657 63.3625C53.5621 63.9378 53.9035 65.2119 53.3282 66.2083C52.753 67.2048 51.4788 67.5462 50.4824 66.9709L46.8739 64.8876Z" fill="white"/>
</svg>
