<svg width="168" height="172" viewBox="0 0 168 172" fill="none" xmlns="http://www.w3.org/2000/svg">
<path d="M103.104 0L168 59.5686L148.876 145.569L64.8957 172L0 112.431L19.1239 26.4314L103.104 0Z" fill="#9F1F24"/>
<g clip-path="url(#clip0_707_8932)">
<path d="M79.0003 120.762C79.0003 127.667 71.5384 127.667 62.3337 127.667C53.1289 127.667 45.667 127.667 45.667 120.762C45.667 111.228 53.1289 103.5 62.3337 103.5C71.5384 103.5 79.0003 111.228 79.0003 120.762Z" fill="#9F1F24"/>
<path fill-rule="evenodd" clip-rule="evenodd" d="M62.7644 131.833C62.6202 131.833 62.4765 131.833 62.3333 131.833C62.1901 131.833 62.0464 131.833 61.9023 131.833C57.6494 131.835 52.9888 131.836 49.4019 130.809C47.4497 130.251 45.3912 129.283 43.8307 127.486C42.2046 125.614 41.5 123.285 41.5 120.762C41.5 109.066 50.6908 99.3333 62.3333 99.3333C73.9759 99.3333 83.1667 109.066 83.1667 120.762C83.1667 123.285 82.4621 125.614 80.836 127.486C79.2754 129.283 77.217 130.251 75.2648 130.809C71.6778 131.836 67.0173 131.835 62.7644 131.833ZM62.3333 127.667C71.5381 127.667 79 127.667 79 120.762C79 111.228 71.5381 103.5 62.3333 103.5C53.1286 103.5 45.6667 111.228 45.6667 120.762C45.6667 127.667 53.1286 127.667 62.3333 127.667Z" fill="white"/>
<path d="M122.333 120.762C122.333 127.667 114.871 127.667 105.667 127.667C96.4619 127.667 89 127.667 89 120.762C89 111.228 96.4619 103.5 105.667 103.5C114.871 103.5 122.333 111.228 122.333 120.762Z" fill="#9F1F24"/>
<path fill-rule="evenodd" clip-rule="evenodd" d="M106.097 131.833C105.953 131.833 105.81 131.833 105.666 131.833C105.523 131.833 105.379 131.833 105.235 131.833C100.982 131.835 96.3218 131.836 92.7349 130.809C90.7827 130.251 88.7242 129.283 87.1637 127.486C85.5376 125.614 84.833 123.285 84.833 120.762C84.833 109.066 94.0238 99.3333 105.666 99.3333C117.309 99.3333 126.5 109.066 126.5 120.762C126.5 123.285 125.795 125.614 124.169 127.486C122.608 129.283 120.55 130.251 118.598 130.809C115.011 131.836 110.35 131.835 106.097 131.833ZM105.666 127.667C114.871 127.667 122.333 127.667 122.333 120.762C122.333 111.228 114.871 103.5 105.666 103.5C96.4616 103.5 88.9997 111.228 88.9997 120.762C88.9997 127.667 96.4616 127.667 105.666 127.667Z" fill="white"/>
<path d="M69.8333 91C69.8333 95.6024 66.2889 99.3333 61.9167 99.3333C57.5444 99.3333 54 95.6024 54 91C54 86.3976 57.5444 82.6667 61.9167 82.6667C66.2889 82.6667 69.8333 86.3976 69.8333 91Z" fill="#9F1F24"/>
<path fill-rule="evenodd" clip-rule="evenodd" d="M73.9997 91C73.9997 97.6996 68.7886 103.5 61.9163 103.5C55.0441 103.5 49.833 97.6996 49.833 91C49.833 84.3004 55.0441 78.5 61.9163 78.5C68.7886 78.5 73.9997 84.3004 73.9997 91ZM61.9163 99.3333C66.2886 99.3333 69.833 95.6024 69.833 91C69.833 86.3976 66.2886 82.6667 61.9163 82.6667C57.5441 82.6667 53.9997 86.3976 53.9997 91C53.9997 95.6024 57.5441 99.3333 61.9163 99.3333Z" fill="white"/>
<path d="M114 91C114 95.6024 110.456 99.3333 106.084 99.3333C101.711 99.3333 98.167 95.6024 98.167 91C98.167 86.3976 101.711 82.6667 106.084 82.6667C110.456 82.6667 114 86.3976 114 91Z" fill="#9F1F24"/>
<path fill-rule="evenodd" clip-rule="evenodd" d="M118.167 91C118.167 97.6996 112.956 103.5 106.083 103.5C99.2111 103.5 94 97.6996 94 91C94 84.3004 99.2111 78.5 106.083 78.5C112.956 78.5 118.167 84.3004 118.167 91ZM106.083 99.3333C110.456 99.3333 114 95.6024 114 91C114 86.3976 110.456 82.6667 106.083 82.6667C101.711 82.6667 98.1667 86.3976 98.1667 91C98.1667 95.6024 101.711 99.3333 106.083 99.3333Z" fill="white"/>
<path d="M104.834 123.5C104.834 131.833 95.5063 131.833 84.0003 131.833C72.4944 131.833 63.167 131.833 63.167 123.5C63.167 111.994 72.4944 102.667 84.0003 102.667C95.5063 102.667 104.834 111.994 104.834 123.5Z" fill="#9F1F24"/>
<path fill-rule="evenodd" clip-rule="evenodd" d="M84.4476 136C84.2982 136 84.149 136 84 136C83.851 136 83.7018 136 83.5524 136C78.1597 136.001 72.4807 136.002 68.1589 134.808C65.8504 134.17 63.4884 133.086 61.7062 131.104C59.8438 129.034 59 126.418 59 123.5C59 109.693 70.1929 98.5 84 98.5C97.8071 98.5 109 109.693 109 123.5C109 126.418 108.156 129.034 106.294 131.104C104.512 133.086 102.15 134.17 99.8411 134.808C95.5193 136.002 89.8403 136.001 84.4476 136ZM84 131.833C95.5059 131.833 104.833 131.833 104.833 123.5C104.833 111.994 95.5059 102.667 84 102.667C72.4941 102.667 63.1667 111.994 63.1667 123.5C63.1667 131.833 72.4941 131.833 84 131.833Z" fill="white"/>
<path d="M94 88.5C94 94.0228 89.5228 98.5 84 98.5C78.4772 98.5 74 94.0228 74 88.5C74 82.9772 78.4772 78.5 84 78.5C89.5228 78.5 94 82.9772 94 88.5Z" fill="#9F1F24"/>
<path fill-rule="evenodd" clip-rule="evenodd" d="M98.1663 88.5C98.1663 96.324 91.8237 102.667 83.9997 102.667C76.1756 102.667 69.833 96.324 69.833 88.5C69.833 80.676 76.1756 74.3333 83.9997 74.3333C91.8237 74.3333 98.1663 80.676 98.1663 88.5ZM83.9997 98.5C89.5225 98.5 93.9997 94.0228 93.9997 88.5C93.9997 82.9771 89.5225 78.5 83.9997 78.5C78.4768 78.5 73.9997 82.9771 73.9997 88.5C73.9997 94.0228 78.4768 98.5 83.9997 98.5Z" fill="white"/>
<path d="M81.917 42.25C81.917 41.0994 82.8497 40.1667 84.0003 40.1667C85.1509 40.1667 86.0837 41.0994 86.0837 42.25V46.4167C86.0837 47.5673 85.1509 48.5 84.0003 48.5C82.8497 48.5 81.917 47.5673 81.917 46.4167V42.25Z" fill="#9F1F24"/>
<path fill-rule="evenodd" clip-rule="evenodd" d="M77.75 46.4167V42.25C77.75 38.7982 80.5482 36 84 36C87.4518 36 90.25 38.7982 90.25 42.25V46.4167C90.25 49.8684 87.4518 52.6667 84 52.6667C80.5482 52.6667 77.75 49.8684 77.75 46.4167ZM86.0833 42.25C86.0833 41.0994 85.1506 40.1667 84 40.1667C82.8494 40.1667 81.9167 41.0994 81.9167 42.25V46.4167C81.9167 47.5673 82.8494 48.5 84 48.5C85.1506 48.5 86.0833 47.5673 86.0833 46.4167V42.25Z" fill="white"/>
<path d="M103.029 46.7906C103.604 45.7942 104.878 45.4528 105.875 46.0281C106.871 46.6034 107.212 47.8775 106.637 48.8739L104.554 52.4824C103.978 53.4788 102.704 53.8202 101.708 53.2449C100.711 52.6696 100.37 51.3955 100.945 50.399L103.029 46.7906Z" fill="#9F1F24"/>
<path fill-rule="evenodd" clip-rule="evenodd" d="M97.3376 48.3157L99.4209 44.7073C101.147 41.7179 104.969 40.6937 107.959 42.4196C110.948 44.1455 111.972 47.9679 110.246 50.9573L108.163 54.5657C106.437 57.555 102.615 58.5793 99.6252 56.8534C96.6359 55.1275 95.6117 51.305 97.3376 48.3157ZM106.638 48.8739C107.213 47.8775 106.872 46.6034 105.875 46.0281C104.879 45.4528 103.605 45.7942 103.029 46.7906L100.946 50.399C100.371 51.3955 100.712 52.6696 101.709 53.2449C102.705 53.8202 103.979 53.4788 104.554 52.4824L106.638 48.8739Z" fill="white"/>
<path d="M119.042 61.2791C120.039 60.7038 121.313 61.0452 121.888 62.0417C122.464 63.0381 122.122 64.3123 121.126 64.8876L117.517 66.9709C116.521 67.5462 115.247 67.2048 114.671 66.2083C114.096 65.2119 114.438 63.9378 115.434 63.3625L119.042 61.2791Z" fill="#9F1F24"/>
<path fill-rule="evenodd" clip-rule="evenodd" d="M113.351 59.754L116.959 57.6707C119.949 55.9448 123.771 56.969 125.497 59.9583C127.223 62.9477 126.199 66.7701 123.209 68.496L119.601 70.5793C116.612 72.3052 112.789 71.281 111.063 68.2917C109.337 65.3023 110.362 61.4799 113.351 59.754ZM121.126 64.8876C122.123 64.3123 122.464 63.0381 121.889 62.0417C121.313 61.0452 120.039 60.7038 119.043 61.2791L115.434 63.3625C114.438 63.9378 114.096 65.2119 114.672 66.2083C115.247 67.2048 116.521 67.5462 117.518 66.9709L121.126 64.8876Z" fill="white"/>
<path d="M64.9714 46.7906C64.3961 45.7942 63.1219 45.4528 62.1255 46.0281C61.129 46.6034 60.7876 47.8775 61.3629 48.8739L63.4462 52.4824C64.0215 53.4788 65.2957 53.8202 66.2921 53.2449C67.2886 52.6696 67.63 51.3955 67.0547 50.399L64.9714 46.7906Z" fill="#9F1F24"/>
<path fill-rule="evenodd" clip-rule="evenodd" d="M70.6624 48.3157L68.5791 44.7073C66.8532 41.7179 63.0308 40.6937 60.0414 42.4196C57.0521 44.1455 56.0279 47.9679 57.7538 50.9573L59.8371 54.5657C61.563 57.555 65.3854 58.5793 68.3748 56.8534C71.3641 55.1275 72.3883 51.305 70.6624 48.3157ZM61.3622 48.8739C60.7869 47.8775 61.1283 46.6034 62.1248 46.0281C63.1212 45.4528 64.3954 45.7942 64.9707 46.7906L67.054 50.399C67.6293 51.3955 67.2879 52.6696 66.2914 53.2449C65.295 53.8202 64.0209 53.4788 63.4456 52.4824L61.3622 48.8739Z" fill="white"/>
<path d="M48.9575 61.2791C47.9611 60.7038 46.687 61.0452 46.1117 62.0417C45.5364 63.0381 45.8778 64.3123 46.8742 64.8876L50.4826 66.9709C51.4791 67.5462 52.7532 67.2048 53.3285 66.2083C53.9038 65.2119 53.5624 63.9378 52.566 63.3625L48.9575 61.2791Z" fill="#9F1F24"/>
<path fill-rule="evenodd" clip-rule="evenodd" d="M54.649 59.754L51.0406 57.6707C48.0513 55.9448 44.2288 56.969 42.5029 59.9583C40.777 62.9477 41.8013 66.7701 44.7906 68.496L48.399 70.5793C51.3884 72.3052 55.2108 71.281 56.9367 68.2917C58.6626 65.3023 57.6384 61.4799 54.649 59.754ZM46.8739 64.8876C45.8775 64.3123 45.5361 63.0381 46.1114 62.0417C46.6867 61.0452 47.9608 60.7038 48.9573 61.2791L52.5657 63.3625C53.5621 63.9378 53.9035 65.2119 53.3282 66.2083C52.753 67.2048 51.4788 67.5462 50.4824 66.9709L46.8739 64.8876Z" fill="white"/>
<path d="M72.9225 74.5774L83.4107 64.0893C83.7361 63.7638 84.2637 63.7638 84.5892 64.0893L95.0773 74.5774C95.6023 75.1024 95.2305 76 94.4881 76H73.5118C72.7693 76 72.3975 75.1024 72.9225 74.5774Z" fill="#9F1F24"/>
<path fill-rule="evenodd" clip-rule="evenodd" d="M83.9995 66.4463L76.5291 73.9167H91.4699L83.9995 66.4463ZM84.8826 65.5632L84.8834 65.5624L83.9995 64.6785L84.8834 65.5624C84.8831 65.5627 84.8829 65.563 84.8826 65.5632ZM86.0619 62.6161L84.5888 64.0893L86.0619 62.6161L96.5501 73.1043C98.3875 74.9417 97.0862 78.0833 94.4877 78.0833H73.5114C70.9129 78.0833 69.6116 74.9417 71.449 73.1043L81.9371 62.6161C83.0762 61.4771 84.9229 61.4771 86.0619 62.6161Z" fill="white"/>
</g>
<defs>
<clipPath id="clip0_707_8932">
<rect width="100" height="100" fill="white" transform="translate(34 36)"/>
</clipPath>
</defs>
</svg>
