<svg width="66" height="277" viewBox="0 0 66 277" fill="none" xmlns="http://www.w3.org/2000/svg">
<path d="M27.6759 49.92C28.2199 50.1547 28.6359 50.512 28.9239 50.992C29.2225 51.4613 29.3719 52.0213 29.3719 52.672C29.3719 53.3547 29.1959 53.9627 28.8439 54.496C28.4919 55.0187 27.9905 55.4293 27.3399 55.728C26.6999 56.016 25.9532 56.16 25.0999 56.16C24.2999 56.16 23.5799 56.0427 22.9399 55.808C22.3105 55.5627 21.8145 55.2267 21.4519 54.8C21.0892 54.3627 20.9079 53.8613 20.9079 53.296C20.9079 52.8267 21.0465 52.4427 21.3239 52.144C21.6119 51.8453 21.9799 51.696 22.4279 51.696C22.8865 51.696 23.2492 51.824 23.5159 52.08C23.7932 52.3253 23.9319 52.6507 23.9319 53.056C23.9319 53.2693 23.8999 53.456 23.8359 53.616C24.0812 53.8933 24.5185 54.032 25.1479 54.032C25.6705 54.032 26.0705 53.904 26.3479 53.648C26.6252 53.392 26.7639 53.024 26.7639 52.544C26.7639 52.128 26.6359 51.824 26.3799 51.632C26.1239 51.44 25.7239 51.344 25.1799 51.344H24.6679C24.4439 51.344 24.2572 51.2693 24.1079 51.12C23.9585 50.96 23.8839 50.7733 23.8839 50.56V50C23.8839 49.776 23.9585 49.5893 24.1079 49.44C24.2572 49.2907 24.4439 49.216 24.6679 49.216H25.1159C25.5425 49.216 25.8519 49.1253 26.0439 48.944C26.2465 48.752 26.3479 48.4427 26.3479 48.016C26.3479 47.6533 26.2199 47.3547 25.9639 47.12C25.7185 46.8853 25.3772 46.768 24.9399 46.768C24.4385 46.768 24.0865 46.8747 23.8839 47.088C23.9799 47.28 24.0279 47.4987 24.0279 47.744C24.0279 48.1493 23.8892 48.48 23.6119 48.736C23.3345 48.9813 22.9665 49.104 22.5079 49.104C22.0599 49.104 21.6972 48.9547 21.4199 48.656C21.1425 48.3573 21.0039 47.9733 21.0039 47.504C21.0039 46.96 21.1745 46.4693 21.5159 46.032C21.8572 45.5947 22.3265 45.2533 22.9239 45.008C23.5212 44.7627 24.1932 44.64 24.9399 44.64C25.7612 44.64 26.4759 44.768 27.0839 45.024C27.6919 45.2693 28.1559 45.6213 28.4759 46.08C28.8065 46.528 28.9719 47.0507 28.9719 47.648C28.9719 48.1387 28.8599 48.5813 28.6359 48.976C28.4119 49.36 28.0919 49.6747 27.6759 49.92ZM34.397 53.312C34.7277 53.6107 34.893 54.0053 34.893 54.496C34.893 54.9867 34.7277 55.3867 34.397 55.696C34.077 56.0053 33.6663 56.16 33.165 56.16C32.6637 56.16 32.2477 56.0053 31.917 55.696C31.5863 55.3867 31.421 54.9867 31.421 54.496C31.421 54.0053 31.5863 53.6107 31.917 53.312C32.2477 53.0027 32.6637 52.848 33.165 52.848C33.6663 52.848 34.077 53.0027 34.397 53.312ZM41.2111 48.576C42.4591 48.576 43.4085 48.9013 44.0591 49.552C44.7205 50.2027 45.0511 51.104 45.0511 52.256C45.0511 53.0347 44.8698 53.7227 44.5071 54.32C44.1551 54.9067 43.6538 55.36 43.0031 55.68C42.3525 56 41.5951 56.16 40.7311 56.16C40.0165 56.16 39.3711 56.0587 38.7951 55.856C38.2298 55.6427 37.7871 55.3493 37.4671 54.976C37.1471 54.6027 36.9871 54.1867 36.9871 53.728C36.9871 53.2587 37.1258 52.8747 37.4031 52.576C37.6911 52.2773 38.0591 52.128 38.5071 52.128C38.9658 52.128 39.3285 52.256 39.5951 52.512C39.8725 52.7573 40.0111 53.0827 40.0111 53.488C40.0111 53.6267 39.9951 53.76 39.9631 53.888C40.1338 53.984 40.3951 54.032 40.7471 54.032C41.2698 54.032 41.6805 53.8827 41.9791 53.584C42.2885 53.2747 42.4431 52.864 42.4431 52.352C42.4431 51.8293 42.2831 51.424 41.9631 51.136C41.6431 50.848 41.1845 50.704 40.5871 50.704C40.1178 50.704 39.6485 50.816 39.1791 51.04C38.8271 51.1787 38.5498 51.248 38.3471 51.248C38.0271 51.248 37.7978 51.1893 37.6591 51.072C37.5205 50.9547 37.4511 50.7733 37.4511 50.528C37.4511 50.144 37.5365 48.608 37.7071 45.92C37.7605 45.1733 38.1445 44.8 38.8591 44.8H43.8191C44.0858 44.8 44.3098 44.8853 44.4911 45.056C44.6725 45.2267 44.7631 45.44 44.7631 45.696V46.032C44.7631 46.2987 44.6725 46.5173 44.4911 46.688C44.3205 46.8587 44.0965 46.944 43.8191 46.944L40.1391 46.912L40.0271 48.752C40.4005 48.6347 40.7951 48.576 41.2111 48.576Z" fill="white"/>
<path d="M5.43034 73.14C4.553 73.14 3.79234 72.944 3.14834 72.552C2.51367 72.1507 2.02367 71.5813 1.67834 70.844C1.333 70.0973 1.16034 69.2247 1.16034 68.226C1.16034 67.19 1.34234 66.2847 1.70634 65.51C2.07034 64.726 2.58834 64.124 3.26034 63.704C3.93234 63.2747 4.71634 63.06 5.61234 63.06C6.48034 63.06 7.23634 63.2607 7.88034 63.662C8.52434 64.054 9.019 64.6187 9.36434 65.356C9.70967 66.0933 9.88234 66.9613 9.88234 67.96C9.88234 69.0053 9.70034 69.92 9.33634 70.704C8.97234 71.4787 8.45434 72.0807 7.78234 72.51C7.11034 72.93 6.32634 73.14 5.43034 73.14ZM5.44434 72.034C6.443 72.034 7.21767 71.6793 7.76834 70.97C8.319 70.2607 8.59434 69.262 8.59434 67.974C8.59434 66.742 8.33767 65.7993 7.82434 65.146C7.311 64.4927 6.569 64.166 5.59834 64.166C4.59967 64.166 3.825 64.5207 3.27434 65.23C2.72367 65.93 2.44834 66.924 2.44834 68.212C2.44834 69.4533 2.705 70.4007 3.21834 71.054C3.73167 71.7073 4.47367 72.034 5.44434 72.034ZM19.9171 63.2C20.2251 63.2 20.3791 63.326 20.3791 63.578V63.928C20.3791 64.18 20.2251 64.306 19.9171 64.306H19.5531V68.968C19.5531 70.3213 19.2451 71.3573 18.6291 72.076C18.0224 72.7853 17.1311 73.14 15.9551 73.14C14.7884 73.14 13.8971 72.7993 13.2811 72.118C12.6651 71.4273 12.3571 70.4427 12.3571 69.164V64.306H11.9931C11.6851 64.306 11.5311 64.18 11.5311 63.928V63.578C11.5311 63.326 11.6851 63.2 11.9931 63.2H13.9811C14.2891 63.2 14.4431 63.326 14.4431 63.578V63.928C14.4431 64.18 14.2891 64.306 13.9811 64.306H13.6171V69.15C13.6171 70.13 13.8037 70.858 14.1771 71.334C14.5597 71.8007 15.1524 72.034 15.9551 72.034C16.7577 72.034 17.3457 71.7867 17.7191 71.292C18.1017 70.788 18.2931 70.0133 18.2931 68.968V64.306H17.9291C17.6211 64.306 17.4671 64.18 17.4671 63.928V63.578C17.4671 63.326 17.6211 63.2 17.9291 63.2H19.9171ZM28.953 63.2C29.1116 63.2 29.2423 63.256 29.345 63.368C29.457 63.4707 29.513 63.6013 29.513 63.76V65.258C29.513 65.566 29.387 65.72 29.135 65.72H28.785C28.533 65.72 28.407 65.566 28.407 65.258V64.306H26.293V71.894H26.657C26.965 71.894 27.119 72.02 27.119 72.272V72.622C27.119 72.874 26.965 73 26.657 73H24.669C24.3703 73 24.221 72.874 24.221 72.622V72.272C24.221 72.02 24.3703 71.894 24.669 71.894H25.033V64.306H22.919V65.258C22.919 65.566 22.793 65.72 22.541 65.72H22.191C21.939 65.72 21.813 65.566 21.813 65.258V63.76C21.813 63.6013 21.8643 63.4707 21.967 63.368C22.0696 63.256 22.2003 63.2 22.359 63.2H28.953ZM39.3229 73.14C38.4456 73.14 37.6849 72.944 37.0409 72.552C36.4062 72.1507 35.9162 71.5813 35.5709 70.844C35.2256 70.0973 35.0529 69.2247 35.0529 68.226C35.0529 67.19 35.2349 66.2847 35.5989 65.51C35.9629 64.726 36.4809 64.124 37.1529 63.704C37.8249 63.2747 38.6089 63.06 39.5049 63.06C40.3729 63.06 41.1289 63.2607 41.7729 63.662C42.4169 64.054 42.9116 64.6187 43.2569 65.356C43.6022 66.0933 43.7749 66.9613 43.7749 67.96C43.7749 69.0053 43.5929 69.92 43.2289 70.704C42.8649 71.4787 42.3469 72.0807 41.6749 72.51C41.0029 72.93 40.2189 73.14 39.3229 73.14ZM39.3369 72.034C40.3356 72.034 41.1102 71.6793 41.6609 70.97C42.2116 70.2607 42.4869 69.262 42.4869 67.974C42.4869 66.742 42.2302 65.7993 41.7169 65.146C41.2036 64.4927 40.4616 64.166 39.4909 64.166C38.4922 64.166 37.7176 64.5207 37.1669 65.23C36.6162 65.93 36.3409 66.924 36.3409 68.212C36.3409 69.4533 36.5976 70.4007 37.1109 71.054C37.6242 71.7073 38.3662 72.034 39.3369 72.034ZM52.2136 63.2C52.3723 63.2 52.503 63.256 52.6056 63.368C52.7083 63.4707 52.7596 63.6013 52.7596 63.76V65.062C52.7596 65.37 52.6383 65.524 52.3956 65.524H52.0316C51.789 65.524 51.6676 65.37 51.6676 65.062V64.306H47.6776V67.54H50.7576C50.8696 67.54 50.963 67.582 51.0376 67.666C51.1216 67.7407 51.1636 67.834 51.1636 67.946V68.24C51.1636 68.352 51.1216 68.45 51.0376 68.534C50.963 68.6087 50.8696 68.646 50.7576 68.646H47.6776V71.894H48.7976C49.0963 71.894 49.2456 72.02 49.2456 72.272V72.622C49.2456 72.874 49.0963 73 48.7976 73H46.0536C45.7456 73 45.5916 72.874 45.5916 72.622V72.272C45.5916 72.02 45.7456 71.894 46.0536 71.894H46.4176V64.306H46.0536C45.7456 64.306 45.5916 64.18 45.5916 63.928V63.578C45.5916 63.326 45.7456 63.2 46.0536 63.2H52.2136ZM61.7258 66.574C62.3791 66.574 62.9484 66.7093 63.4338 66.98C63.9284 67.2413 64.3064 67.6147 64.5678 68.1C64.8384 68.5853 64.9738 69.15 64.9738 69.794C64.9738 70.4567 64.8244 71.04 64.5258 71.544C64.2364 72.048 63.8211 72.44 63.2798 72.72C62.7478 73 62.1364 73.14 61.4458 73.14C60.8204 73.14 60.2558 73.0373 59.7518 72.832C59.2478 72.6173 58.8511 72.328 58.5618 71.964C58.2818 71.6 58.1418 71.194 58.1418 70.746C58.1418 70.438 58.2164 70.1953 58.3658 70.018C58.5244 69.8407 58.7391 69.752 59.0098 69.752C59.2524 69.752 59.4484 69.8267 59.5978 69.976C59.7564 70.1253 59.8358 70.312 59.8358 70.536C59.8358 70.8067 59.7424 71.0213 59.5558 71.18C59.6958 71.4507 59.9291 71.6607 60.2558 71.81C60.5824 71.9593 60.9744 72.034 61.4318 72.034C62.1318 72.034 62.6824 71.838 63.0838 71.446C63.4851 71.054 63.6858 70.5127 63.6858 69.822C63.6858 69.15 63.4851 68.6273 63.0838 68.254C62.6918 67.8713 62.1458 67.68 61.4458 67.68C61.0444 67.68 60.7084 67.736 60.4378 67.848C60.1671 67.96 59.8824 68.114 59.5838 68.31C59.4438 68.394 59.3364 68.4547 59.2618 68.492C59.1871 68.52 59.1124 68.534 59.0378 68.534C58.8978 68.534 58.7951 68.506 58.7298 68.45C58.6738 68.394 58.6458 68.3053 58.6458 68.184C58.6458 68.1653 58.7158 66.9147 58.8558 64.432L58.8978 63.746C58.9164 63.578 58.9724 63.4473 59.0658 63.354C59.1684 63.2513 59.3084 63.2 59.4858 63.2H64.1478C64.2691 63.2 64.3718 63.242 64.4558 63.326C64.5491 63.41 64.5958 63.5127 64.5958 63.634V63.872C64.5958 63.9933 64.5538 64.096 64.4698 64.18C64.3858 64.264 64.2784 64.306 64.1478 64.306H60.0878L59.9198 67.05C60.4331 66.7327 61.0351 66.574 61.7258 66.574Z" fill="#DEDEE0"/>
<path d="M17.1795 9.79603L34 0.57027L50.8205 9.79603V28.204L34 37.4297L17.1795 28.204V9.79603Z" stroke="#DEDEE0"/>
<path fill-rule="evenodd" clip-rule="evenodd" d="M34 11.5C32.1591 11.5 30.6667 12.9924 30.6667 14.8334V15.6667H37.3334V14.8334C37.3334 12.9924 35.841 11.5 34 11.5ZM29 14.8334V15.6667H26.5926C25.5733 15.6667 24.8334 16.5299 24.8334 17.4849V25.5152C24.8334 26.4692 25.5719 27.3317 26.5896 27.3334L26.5926 27.3334H41.4074L41.4104 27.3334C42.4282 27.3317 43.1667 26.4692 43.1667 25.5152V17.4849C43.1667 16.5299 42.4267 15.6667 41.4074 15.6667H39V14.8334C39 12.0719 36.7614 9.83337 34 9.83337C31.2386 9.83337 29 12.0719 29 14.8334ZM28.1667 20.3096C28.1667 20.0466 27.7936 19.8334 27.3334 19.8334C26.8731 19.8334 26.5 20.0466 26.5 20.3096V22.6905C26.5 22.9535 26.8731 23.1667 27.3334 23.1667C27.7936 23.1667 28.1667 22.9535 28.1667 22.6905V20.3096ZM30.6667 19.8334C31.1269 19.8334 31.5 20.0466 31.5 20.3096V22.6905C31.5 22.9535 31.1269 23.1667 30.6667 23.1667C30.2065 23.1667 29.8334 22.9535 29.8334 22.6905V20.3096C29.8334 20.0466 30.2065 19.8334 30.6667 19.8334ZM34.8334 20.3096C34.8334 20.0466 34.4603 19.8334 34 19.8334C33.5398 19.8334 33.1667 20.0466 33.1667 20.3096V22.6905C33.1667 22.9535 33.5398 23.1667 34 23.1667C34.4603 23.1667 34.8334 22.9535 34.8334 22.6905V20.3096ZM37.3334 19.8334C37.7936 19.8334 38.1667 20.0466 38.1667 20.3096V22.6905C38.1667 22.9535 37.7936 23.1667 37.3334 23.1667C36.8731 23.1667 36.5 22.9535 36.5 22.6905V20.3096C36.5 20.0466 36.8731 19.8334 37.3334 19.8334ZM41.5 20.3096C41.5 20.0466 41.1269 19.8334 40.6667 19.8334C40.2065 19.8334 39.8334 20.0466 39.8334 20.3096V22.6905C39.8334 22.9535 40.2065 23.1667 40.6667 23.1667C41.1269 23.1667 41.5 22.9535 41.5 22.6905V20.3096Z" fill="#DEDEE0"/>
<path d="M27.1672 150.832C27.3912 150.832 27.5779 150.907 27.7272 151.056C27.8765 151.205 27.9512 151.392 27.9512 151.616V152.176C27.9512 152.4 27.8765 152.587 27.7272 152.736C27.5779 152.885 27.3912 152.96 27.1672 152.96H26.1592V153.872H26.3992C26.6232 153.872 26.8045 153.931 26.9432 154.048C27.0819 154.165 27.1512 154.347 27.1512 154.592V155.296C27.1512 155.541 27.0819 155.723 26.9432 155.84C26.8045 155.947 26.6232 156 26.3992 156H23.3592C23.1245 156 22.9379 155.947 22.7992 155.84C22.6605 155.723 22.5912 155.541 22.5912 155.296V154.592C22.5912 154.347 22.6605 154.165 22.7992 154.048C22.9379 153.931 23.1245 153.872 23.3592 153.872H23.5992V152.96H19.6312C19.4072 152.96 19.2205 152.885 19.0712 152.736C18.9219 152.587 18.8472 152.4 18.8472 152.176V151.712C18.8472 151.445 18.8739 151.232 18.9272 151.072C18.9912 150.912 19.0925 150.731 19.2312 150.528L22.6872 145.424C22.8365 145.2 22.9912 145.04 23.1512 144.944C23.3112 144.848 23.5032 144.8 23.7272 144.8H25.3592C25.5832 144.8 25.7699 144.875 25.9192 145.024C26.0792 145.173 26.1592 145.365 26.1592 145.6V150.832H27.1672ZM23.5992 150.832V147.28L21.1832 150.832H23.5992ZM30.2853 151.936C30.0506 151.936 29.8586 151.861 29.7093 151.712C29.56 151.563 29.4853 151.376 29.4853 151.152V150.608C29.4853 150.384 29.56 150.197 29.7093 150.048C29.8586 149.899 30.0506 149.824 30.2853 149.824H35.5973C35.832 149.824 36.024 149.899 36.1733 150.048C36.3226 150.197 36.3973 150.384 36.3973 150.608V151.152C36.3973 151.376 36.3226 151.563 36.1733 151.712C36.024 151.861 35.832 151.936 35.5973 151.936H30.2853ZM45.0617 150.016C45.6484 150.251 46.0964 150.608 46.4057 151.088C46.715 151.557 46.8697 152.117 46.8697 152.768C46.8697 153.429 46.6884 154.016 46.3257 154.528C45.963 155.04 45.451 155.44 44.7897 155.728C44.139 156.016 43.387 156.16 42.5337 156.16C41.6804 156.16 40.923 156.016 40.2617 155.728C39.611 155.44 39.1044 155.04 38.7417 154.528C38.379 154.016 38.1977 153.429 38.1977 152.768C38.1977 152.117 38.3524 151.557 38.6617 151.088C38.971 150.608 39.419 150.251 40.0057 150.016C39.5044 149.771 39.1364 149.461 38.9017 149.088C38.667 148.715 38.5497 148.251 38.5497 147.696C38.5497 147.12 38.7204 146.597 39.0617 146.128C39.403 145.659 39.8724 145.296 40.4697 145.04C41.0777 144.773 41.7657 144.64 42.5337 144.64C43.3017 144.64 43.9844 144.773 44.5817 145.04C45.1897 145.296 45.6644 145.659 46.0057 146.128C46.347 146.597 46.5177 147.12 46.5177 147.696C46.5177 148.251 46.4004 148.715 46.1657 149.088C45.931 149.461 45.563 149.771 45.0617 150.016ZM42.5337 146.768C42.107 146.768 41.771 146.885 41.5257 147.12C41.291 147.344 41.1737 147.643 41.1737 148.016C41.1737 148.4 41.291 148.699 41.5257 148.912C41.7604 149.115 42.0964 149.216 42.5337 149.216C42.9817 149.216 43.3177 149.115 43.5417 148.912C43.7764 148.709 43.8937 148.411 43.8937 148.016C43.8937 147.643 43.771 147.344 43.5257 147.12C43.2804 146.885 42.9497 146.768 42.5337 146.768ZM42.5337 154.032C43.0777 154.032 43.499 153.915 43.7977 153.68C44.0964 153.435 44.2457 153.099 44.2457 152.672C44.2457 152.235 44.0964 151.904 43.7977 151.68C43.5097 151.456 43.0884 151.344 42.5337 151.344C41.9684 151.344 41.5364 151.456 41.2377 151.68C40.9497 151.904 40.8057 152.235 40.8057 152.672C40.8057 153.099 40.955 153.435 41.2537 153.68C41.563 153.915 41.9897 154.032 42.5337 154.032Z" fill="white"/>
<path d="M9.93117 163.2C11.1352 163.2 12.0452 163.443 12.6612 163.928C13.2772 164.404 13.5852 165.113 13.5852 166.056C13.5852 167.017 13.2445 167.769 12.5632 168.31C11.8912 168.842 10.9485 169.108 9.73517 169.108H8.40517V171.894H8.76917C9.07717 171.894 9.23117 172.02 9.23117 172.272V172.622C9.23117 172.874 9.07717 173 8.76917 173H6.78117C6.47317 173 6.31917 172.874 6.31917 172.622V172.272C6.31917 172.02 6.47317 171.894 6.78117 171.894H7.14517V164.306H6.78117C6.47317 164.306 6.31917 164.18 6.31917 163.928V163.578C6.31917 163.326 6.47317 163.2 6.78117 163.2H9.93117ZM9.63717 168.002C10.5798 168.002 11.2565 167.853 11.6672 167.554C12.0872 167.246 12.2972 166.756 12.2972 166.084C12.2972 165.468 12.1058 165.02 11.7232 164.74C11.3405 164.451 10.7292 164.306 9.88917 164.306H8.40517V168.002H9.63717ZM22.1072 170.41C22.2286 170.41 22.3219 170.452 22.3872 170.536C22.4526 170.611 22.4852 170.723 22.4852 170.872V172.454C22.4852 172.603 22.4292 172.734 22.3172 172.846C22.2146 172.949 22.0839 173 21.9252 173H15.6952C15.3872 173 15.2332 172.874 15.2332 172.622V172.272C15.2332 172.02 15.3872 171.894 15.6952 171.894H16.0592V164.306H15.6952C15.3872 164.306 15.2332 164.18 15.2332 163.928V163.578C15.2332 163.326 15.3872 163.2 15.6952 163.2H21.8552C22.0139 163.2 22.1446 163.256 22.2472 163.368C22.3499 163.471 22.4012 163.601 22.4012 163.76V165.062C22.4012 165.37 22.2799 165.524 22.0372 165.524H21.6732C21.4306 165.524 21.3092 165.37 21.3092 165.062V164.306H17.3192V167.372H20.3992C20.5112 167.372 20.6046 167.414 20.6792 167.498C20.7632 167.573 20.8052 167.666 20.8052 167.778V168.072C20.8052 168.184 20.7632 168.282 20.6792 168.366C20.6046 168.441 20.5112 168.478 20.3992 168.478H17.3192V171.894H21.3792V170.872C21.3792 170.564 21.5052 170.41 21.7572 170.41H22.1072ZM28.6383 173.14C27.761 173.14 27.0003 172.944 26.3563 172.552C25.7217 172.151 25.2317 171.581 24.8863 170.844C24.541 170.097 24.3683 169.225 24.3683 168.226C24.3683 167.19 24.5503 166.285 24.9143 165.51C25.2783 164.726 25.7963 164.124 26.4683 163.704C27.1403 163.275 27.9243 163.06 28.8203 163.06C29.6883 163.06 30.4443 163.261 31.0883 163.662C31.7323 164.054 32.227 164.619 32.5723 165.356C32.9177 166.093 33.0903 166.961 33.0903 167.96C33.0903 169.005 32.9083 169.92 32.5443 170.704C32.1803 171.479 31.6623 172.081 30.9903 172.51C30.3183 172.93 29.5343 173.14 28.6383 173.14ZM28.6523 172.034C29.651 172.034 30.4257 171.679 30.9763 170.97C31.527 170.261 31.8023 169.262 31.8023 167.974C31.8023 166.742 31.5457 165.799 31.0323 165.146C30.519 164.493 29.777 164.166 28.8063 164.166C27.8077 164.166 27.033 164.521 26.4823 165.23C25.9317 165.93 25.6563 166.924 25.6563 168.212C25.6563 169.453 25.913 170.401 26.4263 171.054C26.9397 171.707 27.6817 172.034 28.6523 172.034ZM38.5191 163.2C39.7231 163.2 40.6331 163.443 41.2491 163.928C41.8651 164.404 42.1731 165.113 42.1731 166.056C42.1731 167.017 41.8324 167.769 41.1511 168.31C40.4791 168.842 39.5364 169.108 38.3231 169.108H36.9931V171.894H37.3571C37.6651 171.894 37.8191 172.02 37.8191 172.272V172.622C37.8191 172.874 37.6651 173 37.3571 173H35.3691C35.0611 173 34.9071 172.874 34.9071 172.622V172.272C34.9071 172.02 35.0611 171.894 35.3691 171.894H35.7331V164.306H35.3691C35.0611 164.306 34.9071 164.18 34.9071 163.928V163.578C34.9071 163.326 35.0611 163.2 35.3691 163.2H38.5191ZM38.2251 168.002C39.1677 168.002 39.8444 167.853 40.2551 167.554C40.6751 167.246 40.8851 166.756 40.8851 166.084C40.8851 165.468 40.6937 165.02 40.3111 164.74C39.9284 164.451 39.3171 164.306 38.4771 164.306H36.9931V168.002H38.2251ZM50.3311 170.424C50.4525 170.424 50.5458 170.466 50.6111 170.55C50.6765 170.625 50.7091 170.737 50.7091 170.886V172.454C50.7091 172.603 50.6531 172.734 50.5411 172.846C50.4385 172.949 50.3078 173 50.1491 173H44.2831C43.9751 173 43.8211 172.874 43.8211 172.622V172.272C43.8211 172.02 43.9751 171.894 44.2831 171.894H44.6471V164.306H44.2831C43.9751 164.306 43.8211 164.18 43.8211 163.928V163.578C43.8211 163.326 43.9751 163.2 44.2831 163.2H46.9151C47.2231 163.2 47.3771 163.326 47.3771 163.578V163.928C47.3771 164.18 47.2231 164.306 46.9151 164.306H45.9071V171.894H49.6031V170.886C49.6031 170.578 49.7291 170.424 49.9811 170.424H50.3311ZM59.1854 170.41C59.3067 170.41 59.4 170.452 59.4654 170.536C59.5307 170.611 59.5634 170.723 59.5634 170.872V172.454C59.5634 172.603 59.5074 172.734 59.3954 172.846C59.2927 172.949 59.162 173 59.0034 173H52.7734C52.4654 173 52.3114 172.874 52.3114 172.622V172.272C52.3114 172.02 52.4654 171.894 52.7734 171.894H53.1374V164.306H52.7734C52.4654 164.306 52.3114 164.18 52.3114 163.928V163.578C52.3114 163.326 52.4654 163.2 52.7734 163.2H58.9334C59.092 163.2 59.2227 163.256 59.3254 163.368C59.428 163.471 59.4794 163.601 59.4794 163.76V165.062C59.4794 165.37 59.358 165.524 59.1154 165.524H58.7514C58.5087 165.524 58.3874 165.37 58.3874 165.062V164.306H54.3974V167.372H57.4774C57.5894 167.372 57.6827 167.414 57.7574 167.498C57.8414 167.573 57.8834 167.666 57.8834 167.778V168.072C57.8834 168.184 57.8414 168.282 57.7574 168.366C57.6827 168.441 57.5894 168.478 57.4774 168.478H54.3974V171.894H58.4574V170.872C58.4574 170.564 58.5834 170.41 58.8354 170.41H59.1854Z" fill="#DEDEE0"/>
<path d="M16.1795 110.796L33 101.57L49.8205 110.796V129.204L33 138.43L16.1795 129.204V110.796Z" stroke="#DEDEE0"/>
<path d="M30.7273 110.833C31.8384 110.833 32.9179 111.2 33.7955 111.875C34.673 112.55 35.2986 113.496 35.5734 114.563C35.8481 115.63 35.7565 116.757 35.3129 117.767C34.8693 118.776 34.099 119.61 33.1236 120.138C36.2182 120.917 38.4545 123.123 38.4545 125.363C38.4545 127.5 33.9091 127.5 30.7273 127.5C26.6364 127.5 23 127.5 23 125.659C23 123.338 25.2282 120.888 28.3182 120.13C27.3461 119.6 26.5795 118.765 26.139 117.755C25.6985 116.746 25.6093 115.621 25.8852 114.556C26.1612 113.491 26.7867 112.547 27.6633 111.873C28.5399 111.199 29.6178 110.834 30.7273 110.833ZM37.0909 112.635C39.2027 112.635 40.9145 114.387 40.9145 116.547C40.9145 118.029 40.1091 119.318 38.9218 119.982C41.2891 120.596 43 122.338 43 124.105C43 124.988 41.7427 125.592 40.0445 125.903C40.0745 125.73 40.0909 125.55 40.0909 125.362L40.0864 125.152C39.9973 122.99 38.53 121.001 36.3464 119.714L36.1382 119.596L36.2336 119.46C36.9712 118.375 37.3647 117.097 37.3636 115.788C37.3636 114.66 37.0773 113.599 36.5727 112.671C36.7444 112.648 36.9176 112.635 37.0909 112.635Z" fill="#DEDEE0"/>
<path d="M27.4576 248.912C28.1189 248.912 28.7002 249.056 29.2016 249.344C29.7136 249.632 30.1029 250.043 30.3696 250.576C30.6469 251.099 30.7856 251.707 30.7856 252.4C30.7856 253.147 30.6202 253.803 30.2896 254.368C29.9589 254.933 29.4896 255.376 28.8816 255.696C28.2842 256.005 27.5962 256.16 26.8176 256.16C25.3882 256.16 24.3056 255.723 23.5696 254.848C22.8336 253.973 22.4656 252.688 22.4656 250.992C22.4656 246.757 24.0656 244.64 27.2656 244.64C28.2149 244.64 28.9776 244.827 29.5536 245.2C30.1296 245.563 30.4176 246.048 30.4176 246.656C30.4176 247.125 30.2736 247.509 29.9856 247.808C29.7082 248.107 29.3456 248.256 28.8976 248.256C28.4389 248.256 28.0709 248.133 27.7936 247.888C27.5269 247.632 27.3936 247.301 27.3936 246.896V246.784C27.3509 246.773 27.2762 246.768 27.1696 246.768C26.4549 246.768 25.9376 247.013 25.6176 247.504C25.2976 247.995 25.1216 248.816 25.0896 249.968C25.3776 249.595 25.7136 249.328 26.0976 249.168C26.4816 248.997 26.9349 248.912 27.4576 248.912ZM26.6416 254.032C27.1109 254.032 27.4789 253.904 27.7456 253.648C28.0229 253.381 28.1616 253.008 28.1616 252.528C28.1616 252.048 28.0282 251.68 27.7616 251.424C27.4949 251.168 27.1216 251.04 26.6416 251.04C26.1616 251.04 25.7829 251.168 25.5056 251.424C25.2282 251.68 25.0896 252.043 25.0896 252.512C25.0896 252.981 25.2336 253.355 25.5216 253.632C25.8096 253.899 26.1829 254.032 26.6416 254.032ZM36.9787 256.16C36.0187 256.16 35.192 255.936 34.4987 255.488C33.816 255.029 33.288 254.379 32.9147 253.536C32.552 252.693 32.3707 251.696 32.3707 250.544C32.3707 249.317 32.552 248.261 32.9147 247.376C33.2774 246.491 33.8 245.813 34.4827 245.344C35.176 244.875 36.008 244.64 36.9787 244.64C37.9387 244.64 38.76 244.869 39.4427 245.328C40.136 245.776 40.664 246.421 41.0267 247.264C41.4 248.107 41.5867 249.104 41.5867 250.256C41.5867 251.483 41.4054 252.539 41.0427 253.424C40.68 254.309 40.152 254.987 39.4587 255.456C38.776 255.925 37.9494 256.16 36.9787 256.16ZM36.9787 254.032C37.672 254.032 38.1734 253.733 38.4827 253.136C38.8027 252.528 38.9627 251.579 38.9627 250.288C38.9627 249.104 38.8027 248.224 38.4827 247.648C38.1627 247.061 37.6614 246.768 36.9787 246.768C36.2854 246.768 35.7787 247.072 35.4587 247.68C35.1387 248.288 34.9787 249.232 34.9787 250.512C34.9787 251.696 35.1387 252.581 35.4587 253.168C35.7894 253.744 36.296 254.032 36.9787 254.032Z" fill="white"/>
<path d="M28.8783 264.306V271.894H29.2423C29.5409 271.894 29.6903 272.02 29.6903 272.272V272.622C29.6903 272.874 29.5409 273 29.2423 273H27.2543C26.9463 273 26.7923 272.874 26.7923 272.622V272.272C26.7923 272.02 26.9463 271.894 27.2543 271.894H27.6183V264.95L24.9023 270.088C24.8183 270.265 24.6829 270.354 24.4963 270.354H24.2443C24.0576 270.354 23.9223 270.265 23.8383 270.088L21.1223 264.95V271.894H21.4863C21.7943 271.894 21.9483 272.02 21.9483 272.272V272.622C21.9483 272.874 21.7943 273 21.4863 273H19.6103C19.3023 273 19.1483 272.874 19.1483 272.622V272.272C19.1483 272.02 19.3023 271.894 19.6103 271.894H19.9743V264.306H19.6103C19.3023 264.306 19.1483 264.18 19.1483 263.928V263.578C19.1483 263.326 19.3023 263.2 19.6103 263.2H21.2343C21.4303 263.2 21.5703 263.289 21.6543 263.466L24.4403 268.744L27.2123 263.466C27.2963 263.289 27.4316 263.2 27.6183 263.2H29.2423C29.5409 263.2 29.6903 263.326 29.6903 263.578V263.928C29.6903 264.18 29.5409 264.306 29.2423 264.306H28.8783ZM31.9013 273C31.5933 273 31.4393 272.874 31.4393 272.622V272.272C31.4393 272.02 31.5933 271.894 31.9013 271.894H32.2653V264.306H31.9013C31.5933 264.306 31.4393 264.18 31.4393 263.928V263.578C31.4393 263.326 31.5933 263.2 31.9013 263.2H33.8893C34.1973 263.2 34.3513 263.326 34.3513 263.578V263.928C34.3513 264.18 34.1973 264.306 33.8893 264.306H33.5253V271.894H33.8893C34.1973 271.894 34.3513 272.02 34.3513 272.272V272.622C34.3513 272.874 34.1973 273 33.8893 273H31.9013ZM44.5017 263.2C44.8004 263.2 44.9497 263.326 44.9497 263.578V263.928C44.9497 264.18 44.8004 264.306 44.5017 264.306H44.1377V272.482C44.1377 272.631 44.0911 272.757 43.9977 272.86C43.9044 272.953 43.7831 273 43.6337 273H43.1577C43.0177 273 42.8964 272.935 42.7937 272.804L38.0617 265.37V271.894H38.4257C38.7337 271.894 38.8877 272.02 38.8877 272.272V272.622C38.8877 272.874 38.7337 273 38.4257 273H36.5497C36.2417 273 36.0877 272.874 36.0877 272.622V272.272C36.0877 272.02 36.2417 271.894 36.5497 271.894H36.9137V264.306H36.5497C36.2417 264.306 36.0877 264.18 36.0877 263.928V263.578C36.0877 263.326 36.2417 263.2 36.5497 263.2H37.8797C38.0291 263.2 38.1551 263.265 38.2577 263.396L42.9897 270.83V264.306H42.6117C42.3131 264.306 42.1637 264.18 42.1637 263.928V263.578C42.1637 263.326 42.3131 263.2 42.6117 263.2H44.5017Z" fill="#DEDEE0"/>
<path d="M16.1795 210.796L33 201.57L49.8205 210.796V229.204L33 238.43L16.1795 229.204V210.796Z" stroke="#DEDEE0"/>
<path fill-rule="evenodd" clip-rule="evenodd" d="M27.1228 210.833C26.6868 210.833 26.3334 211.206 26.3334 211.667C26.3334 212.127 26.6868 212.5 27.1228 212.5H27.76C28.8817 217.498 30.6284 219.998 33 220C35.3718 220.002 37.1185 217.502 38.2402 212.5H38.8772C39.3132 212.5 39.6667 212.127 39.6667 211.667C39.6667 211.206 39.3132 210.833 38.8772 210.833H27.1228ZM27.1228 227.5C26.6868 227.5 26.3334 227.873 26.3334 228.333C26.3334 228.793 26.6868 229.167 27.1228 229.167H38.8772C39.3132 229.167 39.6667 228.793 39.6667 228.333C39.6667 227.873 39.3132 227.5 38.8772 227.5H38.2401C37.1184 222.502 35.3717 220.002 33 220C30.6283 219.998 28.8816 222.498 27.7598 227.5H27.1228Z" fill="#DEDEE0"/>
</svg>
