<svg width="285" height="254" viewBox="0 0 285 254" fill="none" xmlns="http://www.w3.org/2000/svg">
<path d="M170.218 0L266 87.9843L237.782 214.984L113.782 254L18 166.016L46.2179 39.0157L170.218 0Z" fill="#9F1F24"/>
<path d="M87 87C87 84.7909 88.7909 83 91 83H193C195.209 83 197 84.7909 197 87V161C197 163.209 195.209 165 193 165H91C88.7909 165 87 163.209 87 161V87Z" fill="#9F1F24"/>
<path fill-rule="evenodd" clip-rule="evenodd" d="M91 78H193C197.971 78 202 82.0294 202 87V161C202 165.971 197.971 170 193 170H91C86.0294 170 82 165.971 82 161V87C82 82.0294 86.0294 78 91 78ZM91 83C88.7909 83 87 84.7909 87 87V161C87 163.209 88.7909 165 91 165H193C195.209 165 197 163.209 197 161V87C197 84.7909 195.209 83 193 83H91Z" fill="white"/>
<path d="M131 109C131 114.523 126.523 119 121 119C115.477 119 111 114.523 111 109C111 103.477 115.477 99 121 99C126.523 99 131 103.477 131 109Z" fill="#9F1F24"/>
<path fill-rule="evenodd" clip-rule="evenodd" d="M136 109C136 117.284 129.284 124 121 124C112.716 124 106 117.284 106 109C106 100.716 112.716 94 121 94C129.284 94 136 100.716 136 109ZM121 119C126.523 119 131 114.523 131 109C131 103.477 126.523 99 121 99C115.477 99 111 103.477 111 109C111 114.523 115.477 119 121 119Z" fill="white"/>
<path d="M141 144C141 148 132.046 148 121 148C109.954 148 101 148 101 144C101 132.954 109.954 124 121 124C132.046 124 141 132.954 141 144Z" fill="#9F1F24"/>
<path fill-rule="evenodd" clip-rule="evenodd" d="M121.31 153H120.69C115.413 153 110.136 153 106.174 152.453C104.192 152.179 101.981 151.705 100.143 150.683C98.0921 149.543 96 147.366 96 144C96 130.193 107.193 119 121 119C134.807 119 146 130.193 146 144C146 147.366 143.908 149.543 141.857 150.683C140.019 151.705 137.808 152.179 135.826 152.453C131.864 153 126.587 153 121.31 153ZM121 148C132.046 148 141 148 141 144C141 132.954 132.046 124 121 124C109.954 124 101 132.954 101 144C101 148 109.954 148 121 148Z" fill="white"/>
<path d="M152 99C152 97.8954 152.895 97 154 97H175C176.105 97 177 97.8954 177 99V100C177 101.105 176.105 102 175 102H154C152.895 102 152 101.105 152 100V99Z" fill="white"/>
<path d="M152 109C152 107.895 152.895 107 154 107H185C186.105 107 187 107.895 187 109V110C187 111.105 186.105 112 185 112H154C152.895 112 152 111.105 152 110V109Z" fill="white"/>
<path d="M152 119C152 117.895 152.895 117 154 117H180C181.105 117 182 117.895 182 119V120C182 121.105 181.105 122 180 122H154C152.895 122 152 121.105 152 120V119Z" fill="white"/>
<path d="M152 129C152 127.895 152.895 127 154 127H185C186.105 127 187 127.895 187 129V130C187 131.105 186.105 132 185 132H154C152.895 132 152 131.105 152 130V129Z" fill="white"/>
<path d="M152 139C152 137.895 152.895 137 154 137H180C181.105 137 182 137.895 182 139V140C182 141.105 181.105 142 180 142H154C152.895 142 152 141.105 152 140V139Z" fill="white"/>
<path d="M152 149C152 147.895 152.895 147 154 147H160C161.105 147 162 147.895 162 149V150C162 151.105 161.105 152 160 152H154C152.895 152 152 151.105 152 150V149Z" fill="white"/>
</svg>
