<svg width="48" height="48" viewBox="0 0 48 48" fill="none" xmlns="http://www.w3.org/2000/svg">
<path fill-rule="evenodd" clip-rule="evenodd" d="M24 6C19.5818 6 16 9.58173 16 14V16H32V14C32 9.58173 28.4182 6 24 6ZM12 14V16H6.22222C3.77591 16 2 18.0717 2 20.3636V39.6364C2 41.9283 3.77591 44 6.22222 44H41.7778C44.2241 44 46 41.9283 46 39.6364V20.3636C46 18.0717 44.2241 16 41.7778 16H36V14C36 7.37257 30.6274 2 24 2C17.3726 2 12 7.37257 12 14ZM10 27.1429C10 26.5117 9.10457 26 8 26C6.89543 26 6 26.5117 6 27.1429V32.8571C6 33.4883 6.89543 34 8 34C9.10457 34 10 33.4883 10 32.8571V27.1429ZM16 26C17.1046 26 18 26.5117 18 27.1429V32.8571C18 33.4883 17.1046 34 16 34C14.8954 34 14 33.4883 14 32.8571V27.1429C14 26.5117 14.8954 26 16 26ZM26 27.1429C26 26.5117 25.1046 26 24 26C22.8954 26 22 26.5117 22 27.1429V32.8571C22 33.4883 22.8954 34 24 34C25.1046 34 26 33.4883 26 32.8571V27.1429ZM32 26C33.1046 26 34 26.5117 34 27.1429V32.8571C34 33.4883 33.1046 34 32 34C30.8954 34 30 33.4883 30 32.8571V27.1429C30 26.5117 30.8954 26 32 26ZM42 27.1429C42 26.5117 41.1046 26 40 26C38.8954 26 38 26.5117 38 27.1429V32.8571C38 33.4883 38.8954 34 40 34C41.1046 34 42 33.4883 42 32.8571V27.1429Z" fill="#9F1F24"/>
</svg>
