<svg width="168" height="172" viewBox="0 0 168 172" fill="none" xmlns="http://www.w3.org/2000/svg">
<path d="M103.104 0L168 59.5686L148.876 145.569L64.8957 172L0 112.431L19.1239 26.4314L103.104 0Z" fill="#9F1F24"/>
<path d="M129.834 75.1667C129.834 73.3257 128.342 71.8333 126.501 71.8333H66.5006C64.6597 71.8333 63.1673 73.3257 63.1673 75.1667V114.333C63.1673 116.174 64.6597 117.667 66.5006 117.667H99.5562C100.277 117.667 100.979 117.901 101.556 118.333L116.001 129.167C116.55 129.579 117.334 129.187 117.334 128.5V119.333C117.334 118.413 118.08 117.667 119.001 117.667H126.501C128.342 117.667 129.834 116.174 129.834 114.333V75.1667Z" fill="#9F1F24"/>
<path fill-rule="evenodd" clip-rule="evenodd" d="M117.333 119.333C117.333 118.413 118.08 117.667 119 117.667H126.5C128.341 117.667 129.833 116.174 129.833 114.333V75.1667C129.833 73.3257 128.341 71.8333 126.5 71.8333H66.5C64.6591 71.8333 63.1667 73.3257 63.1667 75.1667V114.333C63.1667 116.174 64.6591 117.667 66.5 117.667H99.5556C100.277 117.667 100.979 117.901 101.556 118.333L116 129.167C116.549 129.579 117.333 129.187 117.333 128.5V119.333ZM126.5 67.6667H66.5C62.3579 67.6667 59 71.0245 59 75.1667V114.333C59 118.475 62.3579 121.833 66.5 121.833H99.2778L113.5 132.5C116.796 134.972 121.5 132.62 121.5 128.5V121.833H126.5C130.642 121.833 134 118.475 134 114.333V75.1667C134 71.0245 130.642 67.6667 126.5 67.6667Z" fill="white"/>
<path d="M38.166 51.8333C38.166 49.9924 39.6584 48.5 41.4993 48.5H109.833C111.674 48.5 113.166 49.9924 113.166 51.8333V95.1667C113.166 97.0076 111.674 98.5 109.833 98.5H68.4438C67.7226 98.5 67.0208 98.7339 66.4438 99.1667L51.9993 110C51.45 110.412 50.666 110.02 50.666 109.333V100.167C50.666 99.2462 49.9198 98.5 48.9993 98.5H41.4993C39.6584 98.5 38.166 97.0076 38.166 95.1667V51.8333Z" fill="#9F1F24"/>
<path fill-rule="evenodd" clip-rule="evenodd" d="M50.6667 100.167C50.6667 99.2462 49.9205 98.5 49 98.5H41.5C39.6591 98.5 38.1667 97.0076 38.1667 95.1667V51.8333C38.1667 49.9924 39.6591 48.5 41.5 48.5H109.833C111.674 48.5 113.167 49.9924 113.167 51.8333V95.1667C113.167 97.0076 111.674 98.5 109.833 98.5H68.4444C67.7232 98.5 67.0214 98.7339 66.4444 99.1667L52 110C51.4506 110.412 50.6667 110.02 50.6667 109.333V100.167ZM41.5 44.3333H109.833C113.975 44.3333 117.333 47.6912 117.333 51.8333V95.1667C117.333 99.3088 113.975 102.667 109.833 102.667H68.7222L54.5 113.333C51.2038 115.805 46.5 113.454 46.5 109.333V102.667H41.5C37.3579 102.667 34 99.3088 34 95.1667V51.8333C34 47.6912 37.3579 44.3333 41.5 44.3333Z" fill="white"/>
<path fill-rule="evenodd" clip-rule="evenodd" d="M75.6667 60.5833C72.2392 60.5833 69.4167 63.4037 69.4167 66.9375C69.4167 68.0881 68.4839 69.0208 67.3333 69.0208C66.1827 69.0208 65.25 68.0881 65.25 66.9375C65.25 61.1515 69.8894 56.4167 75.6667 56.4167C81.444 56.4167 86.0833 61.1515 86.0833 66.9375C86.0833 69.4244 85.4575 71.2945 84.3886 72.779C83.3824 74.1764 82.068 75.0945 81.0593 75.799L81.0264 75.822C79.9278 76.5894 79.1791 77.1225 78.6325 77.8478C78.1521 78.4852 77.75 79.3907 77.75 81C77.75 82.1506 76.8173 83.0833 75.6667 83.0833C74.5161 83.0833 73.5833 82.1506 73.5833 81C73.5833 78.5855 74.2229 76.7757 75.305 75.3399C76.2723 74.0565 77.5285 73.1811 78.4966 72.5064C78.5453 72.4725 78.5932 72.4391 78.6403 72.4062C79.7108 71.6584 80.4619 71.1018 81.0072 70.3444C81.5008 69.6588 81.9167 68.6682 81.9167 66.9375C81.9167 63.4037 79.0941 60.5833 75.6667 60.5833Z" fill="white"/>
<path d="M78.5833 88.0833C78.5833 89.6942 77.2775 91 75.6667 91C74.0558 91 72.75 89.6942 72.75 88.0833C72.75 86.4725 74.0558 85.1667 75.6667 85.1667C77.2775 85.1667 78.5833 86.4725 78.5833 88.0833Z" fill="white"/>
<path fill-rule="evenodd" clip-rule="evenodd" d="M75.6667 90.1667C76.8173 90.1667 77.75 89.2339 77.75 88.0833C77.75 86.9327 76.8173 86 75.6667 86C74.5161 86 73.5833 86.9327 73.5833 88.0833C73.5833 89.2339 74.5161 90.1667 75.6667 90.1667ZM75.6667 91C77.2775 91 78.5833 89.6942 78.5833 88.0833C78.5833 86.4725 77.2775 85.1667 75.6667 85.1667C74.0558 85.1667 72.75 86.4725 72.75 88.0833C72.75 89.6942 74.0558 91 75.6667 91Z" fill="white"/>
</svg>
