<svg width="285" height="254" viewBox="0 0 285 254" fill="none" xmlns="http://www.w3.org/2000/svg">
<path d="M170.218 0L266 87.9843L237.782 214.984L113.782 254L18 166.016L46.2179 39.0157L170.218 0Z" fill="#9F1F24"/>
<path d="M87 103C87 100.791 88.7909 99 91 99H193C195.209 99 197 100.791 197 103V165C197 167.209 195.209 169 193 169H178.403C177.495 169 176.614 168.691 175.904 168.123L153.096 149.877C152.386 149.309 151.505 149 150.597 149H133.403C132.495 149 131.614 149.309 130.904 149.877L108.096 168.123C107.386 168.691 106.505 169 105.597 169H91C88.7909 169 87 167.209 87 165V103Z" fill="#9F1F24"/>
<path fill-rule="evenodd" clip-rule="evenodd" d="M91 94H193C197.971 94 202 98.0294 202 103V165C202 169.971 197.971 174 193 174H178.403C176.359 174 174.377 173.304 172.781 172.028L150.246 154H133.754L111.219 172.028C109.623 173.304 107.641 174 105.597 174H91C86.0294 174 82 169.971 82 165V103C82 98.0294 86.0294 94 91 94ZM91 99C88.7909 99 87 100.791 87 103V165C87 167.209 88.7909 169 91 169H105.597C106.505 169 107.386 168.691 108.096 168.123L130.904 149.877C131.614 149.309 132.495 149 133.403 149H150.597C151.505 149 152.386 149.309 153.096 149.877L175.904 168.123C176.614 168.691 177.495 169 178.403 169H193C195.209 169 197 167.209 197 165V103C197 100.791 195.209 99 193 99H91Z" fill="white"/>
<path d="M117.763 81.2902C117.482 80.445 118.362 79.6811 119.159 80.0796L126.428 83.7137C126.777 83.8882 127.195 83.8439 127.5 83.6002L138.875 74.4996C139.24 74.2075 139.759 74.2075 140.125 74.4996L151.5 83.6002C151.805 83.8439 152.223 83.8882 152.572 83.7138L159.841 80.0796C160.637 79.6811 161.518 80.445 161.237 81.2902L157.228 93.3161C157.092 93.7245 156.71 93.9999 156.279 93.9999H122.721C122.29 93.9999 121.908 93.7245 121.772 93.3161L117.763 81.2902Z" fill="#9F1F24"/>
<path fill-rule="evenodd" clip-rule="evenodd" d="M152.572 83.7138C152.223 83.8882 151.805 83.8439 151.5 83.6002L140.125 74.4996C139.759 74.2075 139.241 74.2075 138.875 74.4996L127.5 83.6002C127.195 83.8439 126.777 83.8882 126.428 83.7137L119.159 80.0796C118.363 79.6811 117.482 80.445 117.763 81.2902L121.772 93.3161C121.908 93.7245 122.29 93.9999 122.721 93.9999H156.279C156.71 93.9999 157.092 93.7245 157.228 93.3161L161.237 81.2902C161.518 80.445 160.638 79.6811 159.841 80.0796L152.572 83.7138ZM165.98 82.8714L161.971 94.8973C161.155 97.3473 158.862 98.9999 156.279 98.9999H122.721C120.138 98.9999 117.845 97.3473 117.029 94.8973L113.02 82.8714C111.33 77.8002 116.614 73.2169 121.395 75.6074L126.375 78.097L135.752 70.5953C137.943 68.8423 141.057 68.8422 143.248 70.5953L152.625 78.097L157.605 75.6074C162.386 73.2169 167.67 77.8002 165.98 82.8714Z" fill="white"/>
<path fill-rule="evenodd" clip-rule="evenodd" d="M127 115V117H129C132.314 117 135 119.686 135 123V131C135 134.314 132.314 137 129 137H127V138C127 141.314 124.314 144 121 144H113C109.686 144 107 141.314 107 138V137H106C102.686 137 100 134.314 100 131V123C100 119.686 102.686 117 106 117H107V115C107 111.686 109.686 109 113 109H121C124.314 109 127 111.686 127 115ZM122 121C122 121.552 122.448 122 123 122H129C129.552 122 130 122.448 130 123V131C130 131.552 129.552 132 129 132H123C122.448 132 122 132.448 122 133V138C122 138.552 121.552 139 121 139H113C112.448 139 112 138.552 112 138V133C112 132.448 111.552 132 111 132H106C105.448 132 105 131.552 105 131V123C105 122.448 105.448 122 106 122H111C111.552 122 112 121.552 112 121L112 115C112 114.448 112.448 114 113 114H121C121.552 114 122 114.448 122 115V121Z" fill="white"/>
<path d="M179 126.5C179 133.404 173.404 139 166.5 139C159.596 139 154 133.404 154 126.5C154 119.596 159.596 114 166.5 114C173.404 114 179 119.596 179 126.5Z" fill="#9F1F24"/>
<path fill-rule="evenodd" clip-rule="evenodd" d="M184 126.5C184 136.165 176.165 144 166.5 144C156.835 144 149 136.165 149 126.5C149 116.835 156.835 109 166.5 109C176.165 109 184 116.835 184 126.5ZM166.5 139C173.404 139 179 133.404 179 126.5C179 119.596 173.404 114 166.5 114C159.596 114 154 119.596 154 126.5C154 133.404 159.596 139 166.5 139Z" fill="white"/>
</svg>
