<svg width="285" height="254" viewBox="0 0 285 254" fill="none" xmlns="http://www.w3.org/2000/svg">
<path d="M170.218 0L266 87.9843L237.782 214.984L113.782 254L18 166.016L46.2179 39.0157L170.218 0Z" fill="#9F1F24"/>
<path d="M87 86.4699C87 86.1878 87.1765 85.9357 87.4417 85.8393L-nan -nanL87.4417 85.8393C104.921 79.4833 124.288 79.5592 141.767 85.9152L-nan -nanL141.767 85.9152C141.916 85.9695 142.084 85.9695 142.233 85.9152L-nan -nanL142.233 85.9152C159.712 79.5592 179.079 79.4833 196.558 85.8393L-nan -nanL196.558 85.8393C196.823 85.9357 197 86.1878 197 86.4699V170.058C197 170.516 196.545 170.834 196.114 170.678L-nan -nanL196.114 170.678C178.922 164.426 160.078 164.426 142.886 170.678L142.231 170.916C142.082 170.97 141.918 170.97 141.769 170.916L141.114 170.678C123.922 164.426 105.078 164.426 87.8855 170.678L-nan -nanL87.8855 170.678C87.4551 170.834 87 170.516 87 170.058V86.4699Z" fill="#9F1F24"/>
<path fill-rule="evenodd" clip-rule="evenodd" d="M87 86.4699C87 86.1878 87.1765 85.9357 87.4417 85.8393C104.921 79.4833 124.288 79.5592 141.767 85.9152C141.916 85.9695 142.084 85.9695 142.233 85.9152C159.712 79.5592 179.079 79.4833 196.558 85.8393C196.823 85.9357 197 86.1878 197 86.4699V170.058C197 170.516 196.545 170.834 196.114 170.678C195.526 170.464 194.935 170.257 194.343 170.058C193.585 169.803 192.824 169.559 192.06 169.328C192.04 169.322 192.02 169.316 192 169.31C175.948 164.465 158.716 164.921 142.886 170.678L142.231 170.916C142.082 170.97 141.918 170.97 141.769 170.916L141.114 170.678C125.284 164.921 108.052 164.465 92 169.31C91.98 169.316 91.96 169.322 91.94 169.328C91.1764 169.559 90.4154 169.803 89.6574 170.058C89.0649 170.257 88.4743 170.464 87.8855 170.678C87.4551 170.834 87 170.516 87 170.058V86.4699ZM202 86.4699V170.058C202 173.985 198.097 176.719 194.406 175.377C178.317 169.527 160.683 169.527 144.594 175.377L143.94 175.615C142.687 176.071 141.313 176.071 140.06 175.615L139.406 175.377C123.317 169.527 105.683 169.527 89.5942 175.377C85.9029 176.719 82 173.985 82 170.058V86.4699C82 84.0852 83.4918 81.9553 85.733 81.1403C103.838 74.5566 123.821 74.4641 142 80.6951C160.179 74.4641 180.162 74.5566 198.267 81.1403C200.508 81.9553 202 84.0852 202 86.4699Z" fill="white"/>
<path d="M97 95.4054V156.222C97 156.603 97.3753 156.871 97.7361 156.748C108.602 153.022 120.398 153.022 131.264 156.748C131.625 156.871 132 156.603 132 156.222V95.4054C132 95.163 131.846 94.9473 131.617 94.8686C120.522 91.0649 108.478 91.0649 97.3834 94.8686C97.1541 94.9473 97 95.163 97 95.4054Z" fill="#9F1F24"/>
<path fill-rule="evenodd" clip-rule="evenodd" d="M99.3576 161.477C95.7516 162.714 92 160.034 92 156.222V95.4054C92 93.0265 93.5115 90.9104 95.7618 90.1389C107.907 85.9749 121.093 85.9749 133.238 90.1389C135.489 90.9104 137 93.0265 137 95.4054V156.222C137 160.034 133.248 162.714 129.642 161.477L131.264 156.748C131.625 156.871 132 156.603 132 156.222V95.4054C132 95.163 131.846 94.9473 131.617 94.8686C120.522 91.0649 108.478 91.0649 97.3834 94.8686C97.1541 94.9473 97 95.163 97 95.4054V156.222C97 156.603 97.3753 156.871 97.7361 156.748C98.2738 156.563 98.8139 156.388 99.356 156.222C100.213 155.959 101.076 155.719 101.943 155.502C101.962 155.497 101.981 155.493 102 155.488C110.207 153.442 118.793 153.442 127 155.488C127.019 155.493 127.038 155.497 127.057 155.502C127.924 155.719 128.787 155.959 129.644 156.222C130.186 156.388 130.726 156.563 131.264 156.748L129.642 161.477C119.828 158.113 109.172 158.113 99.3576 161.477Z" fill="white"/>
<path d="M187 95.4054V156.222C187 156.603 186.625 156.871 186.264 156.748C175.398 153.022 163.602 153.022 152.736 156.748C152.375 156.871 152 156.603 152 156.222V95.4054C152 95.163 152.154 94.9473 152.383 94.8686C163.478 91.0649 175.522 91.0649 186.617 94.8686C186.846 94.9473 187 95.163 187 95.4054Z" fill="#9F1F24"/>
<path fill-rule="evenodd" clip-rule="evenodd" d="M184.642 161.477C188.248 162.714 192 160.034 192 156.222V95.4054C192 93.0265 190.489 90.9104 188.238 90.1389C176.093 85.9749 162.907 85.9749 150.762 90.1389C148.511 90.9104 147 93.0265 147 95.4054V156.222C147 160.034 150.752 162.714 154.358 161.477L152.736 156.748C152.375 156.871 152 156.603 152 156.222V95.4054C152 95.163 152.154 94.9473 152.383 94.8686C163.478 91.0649 175.522 91.0649 186.617 94.8686C186.846 94.9473 187 95.163 187 95.4054V156.222C187 156.603 186.625 156.871 186.264 156.748C185.726 156.563 185.186 156.388 184.644 156.222C183.787 155.959 182.924 155.719 182.057 155.502C182.038 155.497 182.019 155.493 182 155.488C173.793 153.442 165.207 153.442 157 155.488C156.981 155.493 156.962 155.497 156.943 155.502C156.076 155.719 155.213 155.959 154.356 156.222C153.814 156.388 153.274 156.563 152.736 156.748L154.358 161.477C164.172 158.113 174.828 158.113 184.642 161.477Z" fill="white"/>
<path fill-rule="evenodd" clip-rule="evenodd" d="M123.282 107.394C117.227 105.578 110.773 105.578 104.718 107.394C103.396 107.791 102.002 107.041 101.605 105.718C101.209 104.396 101.959 103.002 103.282 102.605C110.273 100.508 117.727 100.508 124.718 102.605C126.041 103.002 126.791 104.396 126.394 105.718C125.998 107.041 124.604 107.791 123.282 107.394Z" fill="white"/>
<path fill-rule="evenodd" clip-rule="evenodd" d="M123.282 125.394C117.227 123.578 110.773 123.578 104.718 125.394C103.396 125.791 102.002 125.041 101.605 123.718C101.209 122.396 101.959 121.002 103.282 120.605C110.273 118.508 117.727 118.508 124.718 120.605C126.041 121.002 126.791 122.396 126.394 123.718C125.998 125.041 124.604 125.791 123.282 125.394Z" fill="white"/>
<path fill-rule="evenodd" clip-rule="evenodd" d="M123.282 143.394C117.227 141.578 110.773 141.578 104.718 143.394C103.396 143.791 102.002 143.041 101.605 141.718C101.209 140.396 101.959 139.002 103.282 138.605C110.273 136.508 117.727 136.508 124.718 138.605C126.041 139.002 126.791 140.396 126.394 141.718C125.998 143.041 124.604 143.791 123.282 143.394Z" fill="white"/>
<path fill-rule="evenodd" clip-rule="evenodd" d="M179.282 107.394C173.227 105.578 166.773 105.578 160.718 107.394C159.396 107.791 158.002 107.041 157.605 105.718C157.209 104.396 157.959 103.002 159.282 102.605C166.273 100.508 173.727 100.508 180.718 102.605C182.041 103.002 182.791 104.396 182.394 105.718C181.998 107.041 180.604 107.791 179.282 107.394Z" fill="white"/>
<path fill-rule="evenodd" clip-rule="evenodd" d="M179.282 125.394C173.227 123.578 166.773 123.578 160.718 125.394C159.396 125.791 158.002 125.041 157.605 123.718C157.209 122.396 157.959 121.002 159.282 120.605C166.273 118.508 173.727 118.508 180.718 120.605C182.041 121.002 182.791 122.396 182.394 123.718C181.998 125.041 180.604 125.791 179.282 125.394Z" fill="white"/>
<path fill-rule="evenodd" clip-rule="evenodd" d="M179.282 143.394C173.227 141.578 166.773 141.578 160.718 143.394C159.396 143.791 158.002 143.041 157.605 141.718C157.209 140.396 157.959 139.002 159.282 138.605C166.273 136.508 173.727 136.508 180.718 138.605C182.041 139.002 182.791 140.396 182.394 141.718C181.998 143.041 180.604 143.791 179.282 143.394Z" fill="white"/>
</svg>
