<?xml version="1.0" encoding="utf-8"?>
<!-- Generator: Adobe Illustrator 25.2.3, SVG Export Plug-In . SVG Version: 6.00 Build 0)  -->
<svg version="1.1" xmlns="http://www.w3.org/2000/svg" xmlns:xlink="http://www.w3.org/1999/xlink" x="0px" y="0px"
	 viewBox="0 0 34.7 35.6" style="enable-background:new 0 0 34.7 35.6;" xml:space="preserve">
<style type="text/css">
	.st0{fill:#FFFFFF;}
	.st1{fill:#9F1F24;}
</style>
<g id="图层_2">
	<polyline class="st0" points="7.21,4.52 21.4,0 34.7,12.3 31.42,27.71 15.96,29.9 5.58,16.95 7.29,5.12 	"/>
</g>
<g id="图层_1">
	<g id="图层_2_1_">
		<g>
			<path class="st1" d="M7.7,5.2C7.1,6.6,7,7.9,7,8.5c-0.1,1.4,0,2.4,0.1,2.7c0,0.1,0,0.3,0.1,0.6c0.5,2.2,1.6,4.3,1.7,4.5
				c0.3,0.6,0.9,1.7,1.9,2.9c0.8,0.9,1.5,1.6,2.1,2.1c0.9,1,2.4,2.4,4.6,3.1c1.1,0.4,2.2,0.5,2.6,0.5c1.4,0.1,2.5,0,3.2-0.1
				c0.9-0.2,1.6-0.4,2.1-0.6c0.5-0.1,1.2-0.2,1.9-0.4c0,0,0.6-0.2,1.2-0.4c2.2-0.8,4.3-2.7,4.4-2.6c0,0,0,0,0,0.1c0,0,0,0,0,0.1
				s-2,9.2-2.1,9.3l-17.4,5.3L0,23.3L4,5.5c1.4-0.4,2.9-0.9,4.3-1.3C8.1,4.3,7.9,4.7,7.7,5.2z"/>
			<path class="st1" d="M33.9,11.5c0.3,0.3,0.6,0.5,0.8,0.8c-0.5,2.2-1,4.4-1.5,6.7c-0.1,0.1-0.3,0.3-0.6,0.5
				c-0.1,0.1-0.3,0.3-0.6,0.5c-0.7,0.5-1.3,0.9-1.4,1c-0.3,0.2-0.7,0.5-1.2,0.7c0.2-0.2,0.6-0.5,0.9-0.9c0.1-0.1,0.4-0.4,0.8-0.9
				c0.7-0.9,1.2-1.7,1.4-2.1s0.5-0.9,0.8-1.6c0.2-0.4,0.4-1,0.5-1.7c0.1-0.5,0.2-1.3,0.2-2.3C34,12,34,11.7,33.9,11.5z"/>
			<path class="st1" d="M29.5,7.5c1.1,1,2.1,2,3.2,2.9c0.2,0.7,0.2,1.4,0.2,1.8c0,0.4,0,1.3-0.2,2.3c-0.1,0.3-0.2,0.7-0.4,1.3
				c-0.2,0.6-0.8,1.8-1.8,3.3c-0.3,0.4-0.7,0.9-1.3,1.5c-1,1-1.9,1.5-2.2,1.7c-0.5,0.3-1.1,0.6-1.9,0.8c-0.3,0-0.6,0.1-1,0.1
				c-0.6,0.1-1.2,0.1-1.7,0c0.5-0.1,1.1-0.3,1.9-0.6c1.5-0.6,2.4-1.4,2.9-1.9c1.7-1.5,2.5-3.1,2.7-3.4c1-2,1.1-3.8,1.1-4.4
				c0.1-1.5-0.2-2.6-0.3-2.9C30.5,9,29.9,8.1,29.5,7.5z"/>
			<path class="st1" d="M22,0.6c-0.2-0.2-0.4-0.4-0.6-0.6c-4,1.2-7.8,2.4-11.7,3.6C9.3,4.2,8.8,5.1,8.5,6.1C8.3,6.6,7.9,8,8,9.7
				c0.1,1.4,0.4,2.4,0.7,3.2c0.4,1.2,0.9,2.2,1.2,2.8c-0.2-0.4-0.3-1-0.4-1.8c0-0.2-0.2-1.3,0-2.6s0.6-2.4,0.8-2.9
				c0.3-0.8,0.7-1.3,1.1-1.8c1.2-1.8,2.5-2.9,3-3.3c0.6-0.5,1.3-1.1,2.4-1.6c1-0.5,1.8-0.7,2.4-0.8S20.8,0.6,22,0.6z"/>
			<path class="st1" d="M12.9,6.3c0,0,0.4-0.5,0.9-1c0.8-0.9,1.5-1.4,1.6-1.5c0.4-0.3,0.9-0.7,1.6-1c0.5-0.2,0.8-0.4,1.1-0.5
				c0.3-0.1,1-0.3,2-0.5c0.2,0,0.4-0.1,0.5-0.1c-0.1,0-0.3,0.1-0.6,0.2c-0.6,0.2-1.1,0.4-1.5,0.6c-0.3,0.1-0.6,0.3-1,0.5
				c-0.6,0.3-1,0.6-1.4,0.8c-0.3,0.2-0.7,0.5-1.3,0.9C14.4,5,14,5.3,13.5,5.8C13.2,6.1,12.9,6.3,12.9,6.3z"/>
			<path class="st1" d="M23.7,2.1c1.1,1,2.1,1.9,3.2,2.9c-0.1,0-0.2-0.1-0.3-0.2c0,0-0.4-0.2-0.8-0.4c-0.8-0.3-1.7-0.5-1.9-0.5
				c-0.3,0-0.7-0.1-1.3-0.1c-0.7,0-1.2,0.1-1.5,0.2c-0.7,0.1-1.3,0.3-1.7,0.5c-0.3,0.1-0.8,0.3-1.3,0.5c-1.2,0.6-2,1.2-2.3,1.5
				c-0.4,0.3-0.8,0.6-1.3,1.2c-0.2,0.2-0.6,0.9-1,1.8c-0.1,0.2-0.5,1.2-0.6,2.5c0,0.2-0.1,0.8,0,1.5c0.1,0.6,0.2,1.6,0.7,2.8
				c0.2,0.5,0.5,1.2,1.2,1.9c0.9,0.9,1.8,1.3,2.1,1.5c1.2,0.5,2.2,0.4,2.7,0.4c0.6,0,2-0.2,3.4-1.2c1-0.7,1.5-1.4,1.8-1.9
				c0.2-0.4,0.7-1.1,0.9-2.1c0.1-0.4,0.3-1.4,0.1-2.7c-0.2-0.9-0.5-1.6-0.6-1.9c-0.2-0.4-0.6-1.1-1.4-1.9c-0.3-0.3-1.1-1-2.2-1.4
				c-0.4-0.1-1.1-0.4-2.1-0.4c-0.3,0-1.1,0-2.2,0.5c-1.3,0.6-2,1.5-2.3,2c-0.4,0.7-0.6,1.3-0.8,1.7c0-0.1,0.1-0.3,0.1-0.5
				c0,0,0.2-0.5,0.4-0.9c0.4-0.7,1-1.4,1.1-1.5c1-1.1,2.1-1.6,2.6-1.9c0,0,1-0.5,2.4-0.8c0.3-0.1,0.6-0.1,0.7-0.1
				C22.1,5,22.6,5,22.8,5c0.3,0,1,0,1.9,0.3c1.1,0.3,1.8,0.8,2.1,1c0.5,0.3,1.4,1.1,2.2,2.3c0.1,0.1,0.6,1.1,0.9,2.2
				c0.1,0.4,0.1,0.7,0.1,0.8c0.1,0.6,0.1,1.1,0.1,1.3c0,1-0.2,1.8-0.3,2.1c0,0.1-0.2,0.7-0.5,1.4c-0.1,0.3-0.6,1.4-1.6,2.6
				c-0.8,1-1.6,1.6-1.9,1.7c-0.5,0.3-1.4,1-2.7,1.4c-0.4,0.1-1.2,0.3-2.3,0.4c-1.1,0-2-0.2-2.2-0.2c-0.7-0.2-1.1-0.4-1.5-0.5
				c-0.2-0.1-1-0.4-1.9-1.1c-0.5-0.4-1.5-1-2.5-2.1c-0.5-0.5-0.8-1-1-1.4c-0.1-0.2-0.1-0.4-0.2-0.5s-0.1-0.3-0.2-0.6
				c-0.1-0.2-0.2-0.6-0.2-1.1C11,14.5,11,14.2,11,13.8c0-0.5,0-1,0.1-1.6s0.2-1.1,0.3-1.2c0.1-0.3,0.4-1.2,1-2.2s1.3-1.6,2-2.2
				c0.8-0.8,1.6-1.2,2-1.5c1.6-1.1,3-1.6,3.7-1.9c1.2-0.4,2.1-0.6,2.4-0.7C22.9,2.2,23.4,2.2,23.7,2.1z"/>
			<path class="st1" d="M18.5,11.9c0.2-0.3,0.3-0.6,0.5-0.9c0.1,0.1,0.3,0.2,0.5,0.3c0.4,0.3,0.4,0.3,0.5,0.4
				c0.3,0.3,0.5,0.6,0.6,0.7c0.1,0.3,0.3,0.5,0.2,0.8c0,0.3-0.2,0.5-0.2,0.6c-0.3,0.4-0.6,0.5-0.9,0.5c-0.6,0.2-1.1,0.1-1.3,0
				c-0.1,0-0.6-0.1-1.1-0.4c-0.3-0.2-0.7-0.4-1-0.8c-0.6-0.8-0.5-1.7-0.4-2c0.2-1,0.8-1.6,1.2-1.9C17.3,9,18,8.4,19,8.3
				c0.2,0,0.9-0.1,1.8,0.2c1.3,0.5,1.9,1.7,2.1,1.9c0.1,0.3,0.2,0.5,0.3,0.7c0.1,0.4,0.3,1,0.3,1.9c0,0.3,0,1.1-0.3,1.9
				c-0.3,1-0.9,1.6-1.1,1.9c-0.3,0.4-0.9,1-1.8,1.3c-0.4,0.1-1,0.3-1.8,0.3c-0.2,0-1.2-0.1-2.2-0.7c-0.6-0.4-1-0.8-1.2-1.1
				c0.1,0.1,0.2,0.3,0.3,0.5c0.2,0.3,0.4,0.4,0.5,0.5c0.2,0.2,0.4,0.4,0.8,0.7c0.1,0,0.4,0.2,0.8,0.4c0.2,0.1,0.7,0.3,1.5,0.3
				c0.2,0,0.9,0.1,1.7-0.1c1-0.2,1.7-0.7,2-0.9c0.6-0.4,1.5-1.2,2-2.5c0.1-0.3,0.5-1.4,0.4-2.8C24.9,11,24,9.8,23.8,9.6
				c-0.3-0.4-1.4-1.6-3.2-1.9c-1.3-0.2-2.2,0.2-2.4,0.3c-0.8,0.3-1.4,0.9-1.7,1.2c-0.3,0.3-1,1-1.3,2.2c-0.2,0.5-0.4,1.4-0.2,2.4
				c0.2,1.1,0.8,1.8,1.1,2.1c0.3,0.4,0.7,0.8,1.3,1.1c0.3,0.2,0.9,0.4,1.6,0.3c1.5-0.1,2.3-1.3,2.6-1.6c0.8-1.1,0.9-2.1,0.9-2.5
				c0.1-1.3-0.4-2.3-0.5-2.5c-0.2-0.3-0.4-0.7-0.9-1.1c-0.9-0.6-1.9-0.4-2-0.4s-0.9,0.2-1.5,0.9c-0.2,0.2-0.5,0.6-0.5,1.1
				c0,0.1,0,0.4,0.1,0.7c0.1,0.4,0.3,0.6,0.5,0.7c0.4,0.4,0.8,0.5,1,0.5c0.4,0.1,1.3,0.1,1.4-0.2C19.9,12.8,18.6,12,18.5,11.9z"/>
		</g>
	</g>
</g>
</svg>
