<svg width="149" height="36" viewBox="0 0 149 36" fill="none" xmlns="http://www.w3.org/2000/svg">
<g clip-path="url(#clip0_1_7789)">
<path d="M21.6303 0.0562744L35.1003 12.4875L31.132 30.4313L13.6936 35.9438L0.223572 23.5125L4.19192 5.56877L21.6303 0.0562744Z" fill="#9F1F24"/>
<path d="M8.71918 4.10626C8.5515 4.38751 8.38382 4.78126 8.16025 5.23126C7.88079 5.96251 7.76901 6.52501 7.65722 6.91876C7.48955 7.65001 7.43365 8.26876 7.43365 8.49376C7.32187 9.56251 7.43365 10.35 7.43365 10.6313C7.48955 11.25 7.60133 11.7563 7.71312 12.15C7.76901 12.375 7.88079 12.8813 8.10436 13.5563C8.49561 14.6813 8.88685 15.4688 9.16631 16.0875C9.38988 16.5375 9.61345 16.9875 10.0047 17.55C10.2283 17.8875 10.7313 18.675 11.4579 19.5188C12.0168 20.1938 12.6316 20.7563 13.1906 21.2625C13.4141 21.4875 13.5818 21.6563 13.6936 21.825C13.8613 21.9938 14.1407 22.275 14.532 22.6125C14.8114 22.8375 14.9791 22.95 15.035 23.0063C15.035 23.0063 15.3703 23.2313 15.6498 23.4C16.3764 23.85 17.2707 24.1875 17.3825 24.2438C17.6619 24.3563 18.5003 24.6375 19.674 24.8063C20.4006 24.9188 21.0155 24.9188 21.4067 24.9188C21.7421 24.9188 22.301 24.9188 23.0276 24.8063C23.3629 24.75 23.7542 24.6938 24.3131 24.5813C24.8161 24.4688 25.2633 24.3 25.5986 24.1875C25.7104 24.1875 25.8222 24.1313 25.9899 24.1313C26.4929 24.075 27.3872 23.85 28.3932 23.5125C29.008 23.2875 29.567 23.0063 30.0141 22.7813C30.5171 22.5 30.9084 22.275 31.2437 22.05C31.7468 21.7125 32.5292 21.2063 33.2558 20.5875C33.3676 20.1375 33.4794 19.6313 33.5912 19.125C33.5353 19.1813 33.3117 19.4063 33.2 19.5188C33.0882 19.6313 32.8087 19.9125 32.3616 20.1938C32.138 20.3625 31.9144 20.5313 31.4673 20.8688C31.0761 21.15 30.9084 21.2625 30.6848 21.4313C30.1818 21.7688 29.7346 21.9938 29.6787 22.05C29.3993 22.2188 29.1757 22.3313 28.9521 22.3875C29.0639 22.275 29.2316 22.1625 29.3993 21.9938C29.567 21.8813 29.7905 21.6563 30.07 21.375C30.4053 21.0375 30.6289 20.8125 30.8525 20.5313C31.0761 20.25 31.4114 19.8 31.8585 19.1813C32.0262 18.9563 32.4734 18.2813 32.9205 17.325C33.0882 16.9875 33.3117 16.4813 33.5353 15.8063C33.6471 15.4125 33.8148 15.0188 33.9266 14.4C33.9824 14.0625 34.0942 13.5563 34.0942 12.8813C34.0942 12.3188 34.0942 11.8688 34.0383 11.475C33.703 11.1938 33.3676 10.8563 33.0323 10.575C33.0882 10.7438 33.1441 11.025 33.1441 11.3625C33.1441 11.5313 33.2 11.9813 33.2558 12.5438C33.2558 12.9938 33.2558 13.3313 33.2558 13.4438C33.2558 13.6125 33.2 13.95 33.1441 14.3438C33.0323 14.85 32.9205 15.1875 32.8087 15.5813C32.5851 16.2 32.3616 16.65 32.2498 16.9875C31.9144 17.6625 31.6909 18.1125 31.5791 18.225C31.4673 18.45 31.1878 18.8438 30.8525 19.2938C30.573 19.6313 30.1818 20.25 29.5111 20.925C28.9521 21.4875 28.4491 21.8813 28.1697 22.05C27.5548 22.5 26.9959 22.7813 26.7165 22.95C26.2134 23.2313 25.7663 23.4 25.375 23.5125C24.9838 23.5688 24.6484 23.625 24.4249 23.625C24.0336 23.6813 23.6983 23.6813 23.4188 23.6813C23.1953 23.6813 22.9158 23.6813 22.5245 23.6813C22.1892 23.6813 21.8538 23.6813 21.6303 23.625C21.8538 23.625 22.0774 23.5688 22.3569 23.5125C22.8599 23.4563 23.2511 23.3438 23.4188 23.2875C23.6983 23.2313 24.0895 23.0625 24.5367 22.8938C24.6484 22.8375 25.0956 22.6688 25.6545 22.3313C25.8781 22.2188 26.7724 21.7125 27.7784 20.7C27.8902 20.5875 28.2814 20.1938 28.7286 19.6875C28.8963 19.4625 29.2316 19.125 29.567 18.5625C30.1818 17.6625 30.5171 16.8188 30.6289 16.425C30.9084 15.6375 31.0202 15.0188 31.076 14.7938C31.3555 13.4438 31.2437 12.3188 31.1319 11.5313C30.9643 10.4063 30.6848 9.61876 30.573 9.45001C30.1818 8.49376 29.6787 7.76251 29.3434 7.31251C28.7286 6.75001 28.1138 6.18751 27.5548 5.62501C27.3872 5.51251 27.1077 5.34376 26.8282 5.17501C26.7724 5.17501 26.3811 4.95001 25.934 4.72501C24.8161 4.27501 23.6983 4.16251 23.5306 4.16251C23.307 4.16251 22.4128 4.10626 21.2949 4.27501C20.6242 4.38751 20.1212 4.55626 19.7858 4.66876C19.4505 4.78126 18.8916 4.95001 18.165 5.34376C17.7178 5.56876 16.9353 5.96251 16.0969 6.75001C15.8175 7.03126 15.2586 7.53751 14.6996 8.32501C14.4202 8.71876 14.0289 9.39376 13.7495 10.2938C13.47 11.1375 13.4141 11.7563 13.4141 12.15C13.3023 13.4438 13.47 14.4 13.5259 14.7375C13.6377 15.1875 13.8054 16.0313 14.3084 16.9875C14.4761 17.3813 14.8114 17.8875 15.3703 18.5063C15.9852 19.125 16.6 19.4625 16.7676 19.575C16.9353 19.6313 17.5501 19.9688 18.5562 20.1375C18.9474 20.1938 19.9535 20.3063 21.239 20.025C23.0835 19.5188 24.1454 18.45 24.369 18.225C24.5367 18 25.2633 17.2688 25.7104 16.0875C25.934 15.4688 26.2134 14.4563 26.1575 13.2188C26.1016 12.0375 25.7104 11.1938 25.5427 10.8C25.375 10.4063 24.8161 9.39376 23.7542 8.49376C22.9158 7.81876 22.1892 7.53751 21.9656 7.48126C21.1831 7.20001 20.5683 7.14376 20.4565 7.14376C20.1212 7.14376 19.2269 7.08751 18.2208 7.48126C17.4384 7.76251 16.9353 8.15626 16.7118 8.38126C16.5441 8.49376 15.8175 9.11251 15.2027 10.125C14.8114 10.7438 14.6437 11.25 14.532 11.5313C14.3643 11.9813 14.3084 12.4313 14.2525 12.7688C14.2525 12.4313 14.3084 11.925 14.4202 11.3625C14.4761 11.1375 14.532 10.8 14.6996 10.35C14.7555 10.1813 15.035 9.50626 15.5939 8.71876C16.2087 7.87501 16.8235 7.42501 17.1589 7.14376C17.9414 6.52501 18.668 6.24376 19.2269 6.01876C19.674 5.85001 20.4006 5.51251 21.4626 5.34376C21.7979 5.28751 22.301 5.17501 22.9717 5.23126C24.0336 5.23126 24.872 5.51251 25.2074 5.62501C25.7104 5.79376 26.5488 6.13126 27.499 6.86251C27.8902 7.20001 28.3932 7.65001 28.8963 8.26876C29.1198 8.55001 29.567 9.22501 29.9582 10.2375C30.4053 11.4188 30.4053 12.375 30.4612 12.9375C30.4612 13.5563 30.4612 14.6813 30.07 15.975C29.6229 17.4938 28.8404 18.5063 28.4491 19.0125C28.2255 19.35 27.7225 19.9125 27.0518 20.5875C26.2134 21.3188 25.5427 21.7688 25.375 21.825C24.3131 22.4438 23.4188 22.6688 23.1394 22.7813C22.6922 22.8938 21.8538 23.0625 20.8478 23.0625C18.9474 23.0625 17.5501 22.4438 16.9353 22.1625C16.0411 21.7688 15.4262 21.3188 14.9791 20.9813C13.8613 20.1375 13.1905 19.4063 13.0229 19.2375C12.5198 18.675 12.1286 18.1125 11.8491 17.7188C11.7932 17.55 11.6815 17.325 11.6256 16.9875C11.4579 16.425 11.3461 15.975 11.3461 15.75C11.2902 15.4125 11.2343 15.1875 11.2343 14.85C11.2343 14.6813 11.2343 14.625 11.2343 14.2875C11.2343 13.8938 11.2343 13.6125 11.2343 13.5C11.2343 12.9375 11.3461 12.0938 11.5697 11.3625C11.8491 10.4625 12.1845 9.78751 12.3522 9.50626C12.9111 8.49376 13.5259 7.87501 13.973 7.36876C14.7555 6.58126 15.3703 6.07501 16.0411 5.62501C17.4942 4.55626 18.7798 3.99376 19.1151 3.82501C20.4565 3.20626 21.5185 2.92501 21.9656 2.81251C22.7481 2.64376 23.4188 2.47501 23.9218 2.41876C23.4188 1.96876 22.9158 1.51876 22.4128 1.01251C22.1333 1.01251 21.7979 1.06876 21.4626 1.06876C21.1831 1.12501 20.5683 1.18126 19.8976 1.29376C19.5064 1.35001 18.7798 1.51876 17.9414 1.85626C17.6619 1.68751 16.7118 2.02501 15.6498 2.81251C14.9232 3.31876 14.4202 3.82501 13.973 4.21876C12.8552 5.28751 12.1845 6.24376 11.9609 6.52501C11.2902 7.48126 10.9549 8.21251 10.8431 8.38126C10.5077 9.05626 10.34 9.56251 10.2842 9.73126C10.1165 10.35 10.0047 10.8 9.9488 11.1375C9.78113 11.9813 9.78113 12.7125 9.78113 12.9375C9.78113 13.5563 9.83702 14.0625 9.89291 14.3438C9.9488 14.5688 10.0047 15.1313 10.2842 15.8625C10.4518 16.3688 10.7313 17.0438 11.1784 17.775C10.9549 17.4938 10.7313 17.1 10.4518 16.7063C10.1724 16.2 9.9488 15.8063 9.83702 15.525C9.61345 15.075 9.33399 14.4563 9.05453 13.6688C8.77507 12.8813 8.60739 12.3188 8.60739 12.0938C8.49561 11.7 8.38382 11.1938 8.32793 10.575C8.32793 10.35 8.21614 9.56251 8.32793 8.55001C8.38382 7.53751 8.60739 6.75001 8.71918 6.46876C8.99864 5.56876 9.2781 4.95001 9.38988 4.72501C9.61345 4.33126 9.78113 3.99376 9.9488 3.76876C9.50167 3.88126 9.11042 3.99376 8.71918 4.10626Z" fill="white"/>
<path d="M16.7677 3.03751C16.9912 2.86876 17.4384 2.64376 17.9973 2.41876C18.4444 2.25001 18.7798 2.13751 19.2269 2.02501C19.3946 1.96876 19.8417 1.85626 20.4565 1.74376C20.9037 1.68751 21.4626 1.57501 22.1333 1.57501C21.9097 1.63126 21.6303 1.68751 21.3508 1.80001C20.6242 2.02501 20.1212 2.19376 20.0094 2.25001C19.4505 2.41876 19.0592 2.64376 18.7239 2.75626C18.3885 2.92501 17.8296 3.20626 17.103 3.60001C16.8794 3.71251 16.3764 4.05001 15.7057 4.50001C14.9791 5.00626 14.4761 5.45626 14.2525 5.62501C13.9172 5.90626 13.5818 6.18751 13.1347 6.63751C12.5757 7.20001 12.2404 7.65001 12.1845 7.76251C11.9609 8.04376 11.7933 8.32501 11.7374 8.49376C11.9609 8.10001 12.2404 7.59376 12.6316 7.03126C12.967 6.52501 13.2465 6.18751 13.5259 5.90626C13.8054 5.56876 14.2525 5.06251 14.9791 4.44376C15.6498 3.82501 16.1528 3.48751 16.3205 3.37501C16.4882 3.20626 16.6559 3.09376 16.7677 3.03751Z" fill="#9F1F24"/>
<path d="M25.3192 13.95C25.3192 14.175 25.2074 14.9625 24.872 15.8625C24.7603 16.2 24.4249 16.875 23.8101 17.55C23.6424 17.775 22.8599 18.5625 21.6303 19.0125C20.0094 19.575 18.668 19.2938 18.3885 19.2375C18.0532 19.1813 17.3266 18.9563 16.5441 18.3938C15.5939 17.7188 15.1468 16.8188 14.9232 16.3125C14.6997 15.8625 14.5879 15.525 14.532 15.2438C14.6997 15.6375 14.9791 16.2 15.4822 16.8188C15.7057 17.1 16.0411 17.4938 16.5441 17.8313C16.8236 18 17.5502 18.5063 18.5562 18.5625C19.9535 18.675 21.0155 18 21.2949 17.775C21.9656 17.2688 22.3569 16.7063 22.5805 16.3688C23.0276 15.6375 23.2512 15.0188 23.3071 14.85C23.7542 13.3313 23.4188 12.0375 23.3629 11.7563C23.1953 11.25 22.9158 10.2938 22.0215 9.50627C21.798 9.28127 21.1832 8.77502 20.2889 8.60627C20.0094 8.55002 19.171 8.43752 18.3327 8.83127C17.7737 9.11252 17.4943 9.28127 17.1589 9.61877C16.9353 9.84377 16.6559 10.1813 16.4882 10.5188C16.4323 10.575 16.2646 11.025 16.2087 11.5875C16.2087 11.8125 16.1529 12.2063 16.3205 12.6563C16.3764 12.7688 16.4882 13.1625 16.8795 13.5563C17.103 13.7813 17.3266 13.95 17.4943 14.0063C17.9973 14.2875 18.4444 14.4 18.7239 14.4563C18.8357 14.4563 19.2269 14.5125 19.6741 14.4563C20.0094 14.4 20.2889 14.4 20.5683 14.175C20.6801 14.1188 20.8478 14.0063 20.9596 13.7813C21.0714 13.5 21.0714 13.275 21.0155 13.1625C20.9596 12.825 20.7919 12.5438 20.6242 12.3188C20.4007 12.0375 20.1771 11.8688 19.8976 11.6438C19.6741 11.475 19.4505 11.3063 19.3387 11.25C19.2269 11.475 19.0593 11.7563 18.9475 11.9813C19.0593 12.0375 19.171 12.0938 19.3387 12.2625C19.6182 12.4875 19.7858 12.6563 19.8976 12.7125C19.8976 12.7125 20.0653 12.9375 20.233 13.2188C20.233 13.275 20.2889 13.3313 20.233 13.3875C20.1771 13.5 20.0653 13.5 20.0094 13.5563C19.5623 13.6688 19.2828 13.6688 19.2828 13.6688C19.1151 13.6688 18.7798 13.6688 18.3327 13.5C18.1091 13.3875 17.8296 13.275 17.5502 12.9938C17.4384 12.8813 17.2148 12.6563 17.1589 12.2625C17.103 11.9813 17.103 11.7 17.1589 11.5313C17.2148 11.1938 17.3266 10.9125 17.3825 10.8C17.4943 10.5188 17.6619 10.35 17.8296 10.1813C17.9414 10.0688 18.2209 9.84377 18.5562 9.67502C18.7239 9.56252 19.171 9.33752 19.8417 9.33752C19.9535 9.33752 20.5124 9.33752 21.1273 9.67502C21.8539 10.0688 22.1892 10.6875 22.3569 11.025C22.6363 11.5313 22.6922 11.9813 22.7481 12.2625C22.9158 13.2188 22.804 14.0063 22.7481 14.175C22.6922 14.5125 22.4687 15.5813 21.5744 16.4813C21.239 16.8188 20.4007 17.6625 19.1151 17.7188C17.9973 17.775 17.2148 17.1563 16.9353 16.9875C16.4323 16.5938 16.097 16.1438 15.9293 15.8063C15.7616 15.525 15.3704 14.9063 15.2027 14.1188C14.9232 12.8813 15.3145 11.8688 15.4822 11.3625C15.5939 11.025 15.9293 10.2375 16.6559 9.50627C17.0471 9.11252 17.7737 8.26877 19.0592 7.93127C20.3448 7.59377 21.4626 7.93127 21.8539 8.10002C23.6424 8.71877 24.4808 10.125 24.7603 10.5188C25.2074 11.3063 25.431 12.0938 25.4869 12.5438C25.3751 13.1625 25.3192 13.6688 25.3192 13.95Z" fill="#9F1F24"/>
<path d="M47.0053 9.16876V17.4938H48.8497C49.3527 17.4938 49.744 17.6063 49.9117 17.775C50.1352 17.9438 50.247 18.2813 50.247 18.675C50.247 19.125 50.1352 19.4063 49.9117 19.6313C49.6881 19.8563 49.3527 19.9125 48.8497 19.9125H42.3103C41.8073 19.9125 41.4161 19.8 41.2484 19.6313C41.0248 19.4063 40.913 19.125 40.913 18.675C40.913 18.225 41.0248 17.9438 41.2484 17.7188C41.472 17.55 41.8073 17.4375 42.3103 17.4375H44.1548V9.11251H42.3103C41.8073 9.11251 41.4161 9.00001 41.2484 8.83126C41.0248 8.60626 40.913 8.32501 40.913 7.87501C40.913 7.42501 41.0248 7.08751 41.2484 6.91876C41.472 6.75001 41.8073 6.63751 42.3103 6.63751H48.9056C49.4086 6.63751 49.7999 6.75001 50.0235 6.91876C50.247 7.08751 50.3588 7.42501 50.3588 7.87501C50.3588 8.32501 50.247 8.60626 50.0235 8.83126C49.7999 9.05626 49.4645 9.11251 48.9615 9.11251L47.0053 9.16876Z" fill="#F8F8F8"/>
<path d="M62.7669 7.03124C62.9346 6.74999 63.0463 6.58124 63.214 6.46874C63.3817 6.35624 63.5494 6.29999 63.7729 6.29999C64.1083 6.29999 64.3878 6.41249 64.5554 6.58124C64.7231 6.74999 64.779 7.08749 64.779 7.59374L64.8349 10.5187C64.8349 11.025 64.7231 11.3625 64.5554 11.5312C64.3878 11.7 64.1083 11.8125 63.6612 11.8125C63.3258 11.8125 63.1022 11.7 62.9346 11.5875C62.7669 11.4187 62.5992 11.1375 62.4874 10.7437C62.2639 10.0125 61.9844 9.50624 61.5373 9.22499C61.0901 8.94374 60.5312 8.77499 59.8046 8.77499C58.6868 8.77499 57.7925 9.16874 57.1777 9.95624C56.5629 10.7437 56.2834 11.8687 56.2834 13.3312C56.2834 14.7937 56.6187 15.9187 57.2336 16.7062C57.8484 17.4937 58.7426 17.8875 59.8605 17.8875C60.643 17.8875 61.4814 17.6062 62.4315 17.1C63.3817 16.5937 63.9406 16.3125 64.2201 16.3125C64.4995 16.3125 64.7231 16.425 64.9467 16.7062C65.1702 16.9312 65.2261 17.2687 65.2261 17.6062C65.2261 18.225 64.6672 18.8437 63.4935 19.4625C62.3756 20.025 61.0342 20.3625 59.581 20.3625C57.6248 20.3625 56.0598 19.7437 54.8861 18.45C53.7123 17.1562 53.0975 15.4687 53.0975 13.3875C53.0975 11.3625 53.7123 9.73124 54.8861 8.38124C56.1157 7.03124 57.6248 6.35624 59.5251 6.35624C60.0282 6.35624 60.5871 6.41249 61.0901 6.52499C61.5931 6.58124 62.208 6.80624 62.7669 7.03124Z" fill="#F8F8F8"/>
<path d="M76.1251 9.05623H70.983V11.925H72.9392V11.7562C72.9392 11.3625 73.051 11.025 73.2187 10.8C73.3864 10.575 73.6658 10.4625 74.0571 10.4625C74.3924 10.4625 74.6719 10.575 74.8955 10.7437C75.119 10.9125 75.2308 11.1937 75.2308 11.475C75.2308 11.5312 75.2308 11.5312 75.2308 11.6437C75.2308 11.7562 75.2308 11.8125 75.2308 11.8687V14.175C75.2308 14.6812 75.119 15.0187 74.9514 15.2437C74.7837 15.4687 74.5042 15.5812 74.0571 15.5812C73.6658 15.5812 73.3864 15.4687 73.2187 15.3C72.9951 15.075 72.9392 14.7937 72.9392 14.4V14.175H70.983V17.4937H76.181V16.1437C76.181 15.6375 76.2928 15.3 76.4605 15.075C76.684 14.85 76.9635 14.7375 77.4106 14.7375C77.8019 14.7375 78.1372 14.85 78.3049 15.075C78.4726 15.3 78.5844 15.6375 78.5844 16.1437V18.8437C78.5844 19.2375 78.4726 19.5187 78.3608 19.6312C78.1931 19.7437 77.9136 19.8562 77.4106 19.8562H68.3002C67.7972 19.8562 67.4618 19.7437 67.2382 19.575C67.0147 19.4062 66.9029 19.0687 66.9029 18.6187C66.9029 18.225 67.0147 17.8875 67.1824 17.7187C67.4059 17.4937 67.6854 17.4375 68.0766 17.4375H68.2443V9.16873H68.0766C67.6854 9.16873 67.4059 9.05623 67.1824 8.83123C66.9588 8.60623 66.9029 8.32498 66.9029 7.93123C66.9029 7.48123 67.0147 7.19998 67.2382 6.97498C67.4618 6.74998 67.7972 6.69373 68.3002 6.69373H77.4106C77.8578 6.69373 78.1931 6.74998 78.3049 6.91873C78.4726 7.08748 78.5285 7.31248 78.5285 7.76248V10.2375C78.5285 10.7437 78.4167 11.1375 78.249 11.3062C78.0813 11.5312 77.746 11.6437 77.3547 11.6437C76.9076 11.6437 76.6281 11.5312 76.4046 11.3062C76.181 11.0812 76.1251 10.7437 76.1251 10.2375V9.05623Z" fill="#F8F8F8"/>
<path d="M90.3217 12.9375C91.1601 13.2187 91.719 13.6687 92.1103 14.175C92.5015 14.6812 92.6692 15.3562 92.6692 16.2C92.6692 16.875 92.5015 17.4937 92.1662 18.0562C91.8308 18.6187 91.3837 19.0687 90.7689 19.4625C90.4335 19.6875 89.9864 19.8 89.5951 19.9125C89.148 20.025 88.5332 20.0812 87.7507 20.0812H86.8005H81.9379C81.4349 20.0812 81.0995 19.9687 80.8759 19.8C80.6524 19.6312 80.5406 19.2937 80.5406 18.8437C80.5406 18.45 80.6524 18.1125 80.82 17.9437C81.0436 17.7187 81.3231 17.6625 81.7143 17.6625H81.9379V9.16873H81.7143C81.3231 9.16873 81.0436 9.05623 80.82 8.83123C80.5965 8.60623 80.5406 8.32498 80.5406 7.93123C80.5406 7.48123 80.6524 7.19998 80.8759 6.97498C81.0995 6.74998 81.4349 6.69373 81.9379 6.69373H87.0241C88.5891 6.69373 89.7628 6.97498 90.6012 7.59373C91.4396 8.21248 91.8308 9.11248 91.8308 10.2937C91.8308 10.8562 91.719 11.3625 91.4396 11.8125C91.216 12.2625 90.8247 12.6 90.3217 12.9375ZM84.6766 9.05623V11.8687H86.1857C87.08 11.8687 87.7507 11.7562 88.086 11.5312C88.4773 11.3062 88.645 10.9687 88.645 10.4625C88.645 9.95623 88.4773 9.61873 88.1419 9.39373C87.8066 9.16873 87.2476 9.05623 86.5211 9.05623H84.6766ZM84.6766 14.175V17.6062H86.3534C87.5271 17.6062 88.3655 17.4937 88.8126 17.2125C89.3157 16.9312 89.5392 16.4812 89.5392 15.8625C89.5392 15.2437 89.3157 14.7937 88.8126 14.5125C88.3655 14.2312 87.583 14.1187 86.4093 14.1187L84.6766 14.175Z" fill="#F8F8F8"/>
<path d="M103.065 13.8375C103.289 13.95 103.456 14.175 103.624 14.4562C103.68 14.5125 103.68 14.5687 103.736 14.5687L105.524 17.4375H105.636H105.86C106.307 17.4375 106.642 17.55 106.81 17.7187C107.033 17.9437 107.145 18.225 107.145 18.6187C107.145 19.0687 107.033 19.4062 106.81 19.575C106.586 19.8 106.251 19.8562 105.748 19.8562H104.351C103.848 19.8562 103.456 19.6312 103.177 19.2375L103.121 19.1812L100.382 14.9625C100.271 14.7937 100.159 14.6812 100.047 14.5687C99.9352 14.4562 99.7675 14.4562 99.6557 14.4562H98.5937V17.4375H98.7614C99.1527 17.4375 99.488 17.55 99.6557 17.7187C99.8793 17.9437 99.9352 18.225 99.9352 18.6187C99.9352 19.0687 99.8234 19.4062 99.5998 19.575C99.3762 19.7437 99.0409 19.8562 98.5378 19.8562H95.6873C95.1843 19.8562 94.849 19.7437 94.6254 19.575C94.4018 19.35 94.29 19.0687 94.29 18.6187C94.29 18.225 94.4018 17.8875 94.5695 17.7187C94.7372 17.55 95.0725 17.4375 95.4638 17.4375H95.6315V9.16873H95.5756C95.1843 9.16873 94.9049 9.05623 94.6813 8.83123C94.4577 8.60623 94.3459 8.32498 94.3459 7.93123C94.3459 7.48123 94.4577 7.19998 94.6813 6.97498C94.9049 6.74998 95.2402 6.69373 95.7432 6.69373H100.885C102.45 6.69373 103.68 6.97498 104.462 7.59373C105.301 8.21248 105.692 9.11248 105.692 10.35C105.692 11.1937 105.468 11.925 105.021 12.5437C104.518 13.1062 103.903 13.5562 103.065 13.8375ZM98.482 9.05623V12.2062H99.991C100.941 12.2062 101.556 12.0937 101.947 11.8687C102.339 11.6437 102.506 11.25 102.506 10.6875C102.506 10.125 102.339 9.73123 102.003 9.50623C101.668 9.22498 101.109 9.11248 100.382 9.11248L98.482 9.05623Z" fill="#F8F8F8"/>
<path d="M117.15 9.05623H111.952V11.925H113.908V11.7562C113.908 11.3625 114.02 11.025 114.188 10.8C114.411 10.575 114.635 10.4625 115.026 10.4625C115.361 10.4625 115.641 10.575 115.864 10.7437C116.088 10.9125 116.2 11.1937 116.2 11.475C116.2 11.5312 116.2 11.5312 116.2 11.6437C116.2 11.7562 116.2 11.8125 116.2 11.8687V14.175C116.2 14.6812 116.088 15.0187 115.92 15.2437C115.753 15.4687 115.473 15.5812 115.026 15.5812C114.635 15.5812 114.355 15.4687 114.188 15.3C114.02 15.075 113.908 14.7937 113.908 14.4V14.175H111.952V17.4937H117.15V16.1437C117.15 15.6375 117.262 15.3 117.429 15.075C117.653 14.85 117.932 14.7375 118.38 14.7375C118.771 14.7375 119.106 14.85 119.274 15.075C119.442 15.3 119.553 15.6375 119.553 16.1437V18.8437C119.553 19.2375 119.442 19.5187 119.33 19.6312C119.162 19.7437 118.883 19.8562 118.38 19.8562H109.269C108.766 19.8562 108.431 19.7437 108.207 19.575C107.984 19.35 107.872 19.0687 107.872 18.6187C107.872 18.225 107.984 17.8875 108.151 17.7187C108.375 17.4937 108.654 17.4375 109.046 17.4375H109.213V9.16873H109.046C108.654 9.16873 108.375 9.05623 108.151 8.83123C107.928 8.60623 107.872 8.32498 107.872 7.93123C107.872 7.48123 107.984 7.19998 108.207 6.97498C108.431 6.74998 108.766 6.69373 109.269 6.69373H118.38C118.827 6.69373 119.162 6.74998 119.274 6.91873C119.442 7.08748 119.497 7.31248 119.497 7.76248V10.2375C119.497 10.7437 119.386 11.1375 119.218 11.3062C119.05 11.5312 118.715 11.6437 118.324 11.6437C117.877 11.6437 117.597 11.5312 117.374 11.3062C117.15 11.0812 117.094 10.7437 117.094 10.2375V9.05623H117.15Z" fill="#F8F8F8"/>
<path d="M133.247 17.4938H133.415C133.806 17.4938 134.141 17.6063 134.309 17.775C134.477 17.9438 134.644 18.2813 134.644 18.675C134.644 19.125 134.532 19.4625 134.309 19.6313C134.085 19.8 133.75 19.9125 133.247 19.9125H129.893C129.39 19.9125 128.999 19.8 128.831 19.6313C128.608 19.4625 128.496 19.125 128.496 18.675C128.496 18.225 128.608 17.9438 128.831 17.7188C129.055 17.4938 129.39 17.4375 129.893 17.4375H130.285L129.837 16.0875H125.031L124.584 17.4375H124.975C125.478 17.4375 125.869 17.55 126.037 17.7188C126.26 17.8875 126.372 18.225 126.372 18.6188C126.372 19.0688 126.26 19.4063 126.037 19.575C125.813 19.8 125.478 19.8563 124.975 19.8563H122.124C121.621 19.8563 121.23 19.7438 121.062 19.575C120.895 19.4063 120.727 19.0688 120.727 18.6188C120.727 18.225 120.839 17.8875 121.062 17.7188C121.286 17.55 121.565 17.4375 121.957 17.4375H122.124L125.087 9.11251H124.192C123.689 9.11251 123.298 9.00001 123.13 8.83126C122.963 8.66251 122.795 8.32501 122.795 7.87501C122.795 7.42501 122.907 7.08751 123.13 6.91876C123.354 6.69376 123.689 6.63751 124.192 6.63751H128.384C129.055 6.63751 129.502 6.97501 129.782 7.70626V7.76251L133.247 17.4938ZM127.434 9.16876L125.813 13.8938H128.999L127.434 9.16876Z" fill="#F8F8F8"/>
<path d="M139.507 9.16874V12.5437L142.972 9.05624C142.581 8.99999 142.357 8.88749 142.134 8.71874C141.966 8.54999 141.91 8.26874 141.91 7.87499C141.91 7.42499 142.022 7.08749 142.246 6.91874C142.469 6.69374 142.804 6.63749 143.307 6.63749H146.046C146.549 6.63749 146.94 6.74999 147.108 6.91874C147.332 7.14374 147.444 7.42499 147.444 7.87499C147.444 8.26874 147.332 8.60624 147.108 8.77499C146.885 8.99999 146.605 9.05624 146.158 9.05624H145.879L142.637 12.2625C143.252 12.7125 143.755 13.275 144.258 14.0062C144.761 14.7375 145.32 15.8625 145.99 17.3812H146.158H146.382C146.829 17.3812 147.164 17.4937 147.388 17.6625C147.611 17.8875 147.723 18.1687 147.723 18.5625C147.723 19.0125 147.611 19.35 147.388 19.5187C147.164 19.7437 146.829 19.8 146.326 19.8H144.928C144.314 19.8 143.866 19.4062 143.475 18.5625C143.419 18.3937 143.363 18.2812 143.307 18.225C142.804 17.1562 142.357 16.3687 141.966 15.8062C141.575 15.2437 141.072 14.7375 140.513 14.2312L139.451 15.2437V17.4375H139.619C140.01 17.4375 140.345 17.55 140.513 17.7187C140.736 17.9437 140.848 18.225 140.848 18.6187C140.848 19.0687 140.736 19.4062 140.513 19.575C140.289 19.8 139.954 19.8562 139.451 19.8562H136.6C136.097 19.8562 135.706 19.7437 135.538 19.575C135.315 19.4062 135.203 19.0687 135.203 18.6187C135.203 18.225 135.315 17.8875 135.538 17.7187C135.762 17.55 136.042 17.4375 136.433 17.4375H136.6V9.05624H136.433C136.042 9.05624 135.706 8.94374 135.538 8.71874C135.371 8.49374 135.259 8.21249 135.259 7.81874C135.259 7.36874 135.371 7.03124 135.594 6.86249C135.818 6.63749 136.153 6.58124 136.656 6.58124H139.507C140.01 6.58124 140.345 6.69374 140.569 6.86249C140.792 7.03124 140.904 7.36874 140.904 7.81874C140.904 8.21249 140.792 8.54999 140.569 8.71874C140.345 8.94374 140.066 9.05624 139.675 9.05624H139.451V9.16874H139.507Z" fill="#F8F8F8"/>
<path d="M44.4342 24.975H41.5278V26.6062H42.6457V26.4937C42.6457 26.2687 42.7016 26.1 42.8134 25.9875C42.9252 25.875 43.0928 25.8187 43.2605 25.8187C43.4282 25.8187 43.5959 25.875 43.7076 25.9875C43.8194 26.1 43.8753 26.2125 43.8753 26.3812C43.8753 26.3812 43.8753 26.4375 43.8753 26.4937C43.8753 26.55 43.8753 26.6062 43.8753 26.6625V27.9562C43.8753 28.2375 43.8194 28.4062 43.7076 28.575C43.5959 28.6875 43.4282 28.7437 43.2046 28.7437C42.981 28.7437 42.8134 28.6875 42.7016 28.575C42.5898 28.4625 42.5339 28.2937 42.5339 28.0687V27.9562H41.4161V29.8125H44.3225V29.0812C44.3225 28.8 44.3783 28.6312 44.4901 28.4625C44.6019 28.35 44.7696 28.2937 44.9932 28.2937C45.2167 28.2937 45.3844 28.35 45.4962 28.4625C45.608 28.575 45.6639 28.8 45.6639 29.0812V30.6C45.6639 30.825 45.608 30.9937 45.4962 31.05C45.3844 31.1062 45.2167 31.1625 44.9932 31.1625H39.9629C39.6834 31.1625 39.5157 31.1062 39.4039 30.9937C39.2922 30.8812 39.2363 30.7125 39.2363 30.4875C39.2363 30.2625 39.2922 30.0937 39.4039 29.9812C39.5157 29.8687 39.6834 29.8125 39.907 29.8125H40.0188V25.0875H39.907C39.6834 25.0875 39.5157 25.0312 39.4039 24.9187C39.2922 24.8062 39.2363 24.6375 39.2363 24.4125C39.2363 24.1875 39.2922 24.0187 39.4039 23.9062C39.5157 23.7937 39.7393 23.7375 39.9629 23.7375H45.1049C45.3844 23.7375 45.5521 23.7937 45.608 23.85C45.7198 23.9625 45.7757 24.075 45.7757 24.3V25.7062C45.7757 25.9875 45.7198 26.2125 45.608 26.325C45.4962 26.4375 45.3285 26.4937 45.1049 26.4937C44.8814 26.4937 44.7137 26.4375 44.6019 26.325C44.4901 26.2125 44.4342 25.9875 44.4342 25.7062V25.0875V24.975Z" fill="#F8F8F8"/>
<path d="M51.4767 31.05C51.3649 31.1625 51.2531 31.2187 51.1413 31.275C51.0295 31.3312 50.9177 31.3312 50.8059 31.3312C50.6383 31.3312 50.5265 31.275 50.4147 31.1625C50.3029 31.05 50.3029 30.8812 50.3029 30.6562V29.8125C50.3029 29.5312 50.3588 29.3625 50.4706 29.25C50.5824 29.1375 50.7501 29.0812 50.9177 29.0812C51.1413 29.0812 51.3649 29.1937 51.5325 29.4187C51.6443 29.5312 51.7002 29.6437 51.7561 29.7C51.9797 29.8687 52.2033 30.0375 52.4827 30.0937C52.7622 30.2062 53.0416 30.2625 53.4329 30.2625C53.7123 30.2625 53.9918 30.2062 54.1595 30.0937C54.3272 29.9812 54.4389 29.8125 54.4389 29.6437C54.4389 29.3062 53.9359 29.0812 52.9857 28.9125C52.7622 28.8562 52.5945 28.8562 52.4827 28.8562C51.7561 28.7437 51.2531 28.575 50.8618 28.2937C50.5265 28.0125 50.3588 27.5625 50.3588 27.1125C50.3588 26.55 50.5824 26.0437 50.9736 25.7062C51.4208 25.3687 51.9797 25.2 52.8181 25.2C53.0975 25.2 53.377 25.2562 53.6564 25.2562C53.9359 25.3125 54.2154 25.3687 54.5507 25.4812C54.6625 25.3687 54.7184 25.3125 54.8302 25.2562C54.942 25.2 55.0538 25.1437 55.1655 25.1437C55.3332 25.1437 55.445 25.2 55.5568 25.3125C55.6686 25.425 55.7245 25.5937 55.7245 25.7625V26.4375C55.7245 26.6062 55.6686 26.775 55.5568 26.8312C55.445 26.9437 55.3332 27 55.1655 27C54.9979 27 54.7184 26.8312 54.2713 26.55C53.8241 26.2687 53.4329 26.1 53.0416 26.1C52.7063 26.1 52.4827 26.1562 52.2591 26.2687C52.0915 26.3812 51.9797 26.55 51.9797 26.7187C51.9797 27 52.3709 27.225 53.0975 27.2812C53.3211 27.3375 53.4888 27.3375 53.6006 27.3375C54.5507 27.5062 55.2214 27.675 55.5568 27.9562C55.8921 28.2375 56.0598 28.6312 56.0598 29.1937C56.0598 29.8125 55.8362 30.3187 55.3332 30.6562C54.8861 30.9937 54.2154 31.1625 53.3211 31.1625C52.9857 31.1625 52.7063 31.1062 52.3709 31.1062C52.0915 31.1625 51.7561 31.1062 51.4767 31.05Z" fill="#F8F8F8"/>
<path d="M65.5056 25.5937C65.5615 25.425 65.6174 25.3125 65.7292 25.2C65.841 25.0875 65.9527 25.0875 66.1204 25.0875C66.344 25.0875 66.5117 25.1437 66.6234 25.3125C66.7352 25.4812 66.7911 25.7062 66.7911 26.0437V27.0562C66.7911 27.3375 66.7352 27.5062 66.6234 27.6187C66.5117 27.7312 66.344 27.7875 66.1204 27.7875C65.9527 27.7875 65.841 27.7313 65.7292 27.675C65.6174 27.6188 65.5056 27.45 65.3938 27.2812C65.2261 27 65.0026 26.775 64.7231 26.6625C64.4437 26.4938 64.1083 26.4375 63.7171 26.4375C63.214 26.4375 62.8228 26.6062 62.5433 26.8875C62.208 27.225 62.0962 27.6187 62.0962 28.125C62.0962 28.6312 62.2639 29.0812 62.5992 29.3625C62.9346 29.7 63.3817 29.8125 63.8847 29.8125C64.3878 29.8125 64.8908 29.6437 65.3379 29.4187C65.841 29.1375 66.1204 29.025 66.2322 29.025C66.3999 29.025 66.5117 29.0813 66.6234 29.1938C66.7352 29.3063 66.7911 29.475 66.7911 29.6437C66.7911 30.0375 66.5117 30.375 65.8969 30.7125C65.282 31.05 64.5554 31.1625 63.7729 31.1625C62.7669 31.1625 61.9285 30.8813 61.3137 30.3188C60.6989 29.7563 60.3635 28.9687 60.3635 28.125C60.3635 27.2812 60.6989 26.4937 61.3137 25.9312C61.9285 25.3687 62.7669 25.0312 63.6612 25.0312C63.9965 25.0312 64.276 25.0875 64.6113 25.1438C64.8908 25.3125 65.2261 25.4812 65.5056 25.5937Z" fill="#F8F8F8"/>
<path d="M76.7399 29.7562H76.8517C77.0753 29.7562 77.243 29.8125 77.3548 29.925C77.4665 30.0375 77.5224 30.2062 77.5224 30.4312C77.5224 30.6562 77.4665 30.825 77.3548 30.9375C77.243 31.05 77.0194 31.1062 76.7399 31.1062H76.181C75.9575 31.1062 75.8457 31.05 75.7339 30.9937C75.6221 30.8812 75.5662 30.7687 75.4544 30.5437C75.1191 30.7687 74.7278 30.9375 74.3366 31.05C73.9453 31.1625 73.5541 31.2187 73.1628 31.2187C72.4921 31.2187 71.9891 31.05 71.5979 30.7125C71.2066 30.375 71.0389 29.925 71.0389 29.3062C71.0389 28.6875 71.3184 28.1812 71.8214 27.8437C72.3245 27.5062 72.9952 27.3375 73.9453 27.3375C74.1689 27.3375 74.3366 27.3375 74.5601 27.3937C74.7837 27.45 75.0073 27.45 75.3426 27.5062V27.3937C75.3426 27 75.2309 26.7187 75.0632 26.55C74.8955 26.325 74.616 26.2687 74.2248 26.2687C73.9453 26.2687 73.61 26.3812 73.1628 26.6062C72.7157 26.8312 72.4362 26.9437 72.2127 26.9437C71.9891 26.9437 71.8773 26.8875 71.7655 26.775C71.6537 26.6625 71.5979 26.4937 71.5979 26.325C71.5979 25.9875 71.8214 25.7062 72.3245 25.4812C72.8275 25.2562 73.4982 25.2 74.3366 25.2C75.2309 25.2 75.8457 25.3687 76.2369 25.7062C76.6282 26.0437 76.7958 26.6625 76.7958 27.45V29.7562H76.7399ZM75.2309 28.5187C75.0073 28.4625 74.8396 28.4062 74.6719 28.4062C74.5043 28.35 74.3366 28.35 74.1689 28.35C73.7218 28.35 73.3305 28.4625 73.107 28.575C72.8834 28.6875 72.6598 28.9687 72.6598 29.25C72.6598 29.475 72.7716 29.7 72.9393 29.8125C73.1069 29.925 73.3305 30.0375 73.6659 30.0375C73.9453 30.0375 74.2248 29.9812 74.5043 29.925C74.7837 29.8125 75.0073 29.7 75.2867 29.5312L75.2309 28.5187Z" fill="#F8F8F8"/>
<path d="M83.5029 30.5437V32.2312H84.2854C84.5648 32.2312 84.7884 32.2875 84.9002 32.4C85.012 32.5125 85.0679 32.6812 85.0679 32.9062C85.0679 33.1312 85.012 33.3 84.9002 33.4125C84.7884 33.525 84.5648 33.5812 84.2854 33.5812H81.6026C81.3231 33.5812 81.0995 33.525 80.9877 33.4125C80.876 33.3 80.8201 33.1312 80.8201 32.9062C80.8201 32.6812 80.876 32.4562 80.9877 32.4C81.0995 32.2875 81.3231 32.2312 81.6026 32.2312H81.9938V26.6625H81.882C81.6584 26.6625 81.4908 26.6062 81.379 26.4937C81.2672 26.3812 81.2113 26.2125 81.2113 25.9875C81.2113 25.7625 81.2672 25.5937 81.379 25.4812C81.4908 25.3687 81.7143 25.3125 81.9938 25.3125H82.944C83.0557 25.3125 83.1675 25.3687 83.2234 25.3687C83.2793 25.425 83.3352 25.4812 83.3352 25.5937V26.0437C83.5588 25.7625 83.7824 25.5375 84.1177 25.425C84.3972 25.2562 84.7325 25.2 85.1238 25.2C85.9621 25.2 86.6887 25.4812 87.2477 26.0437C87.8066 26.6062 88.0861 27.2812 88.0861 28.125C88.0861 29.025 87.8066 29.7 87.2477 30.3187C86.6887 30.8812 86.018 31.1625 85.1797 31.1625C84.8443 31.1625 84.5648 31.1062 84.2295 30.9937C83.8941 30.8812 83.7265 30.7125 83.5029 30.5437ZM84.9561 26.4937C84.5648 26.4937 84.1736 26.6625 83.95 26.9437C83.6706 27.225 83.5588 27.675 83.5588 28.125C83.5588 28.575 83.7265 29.025 83.95 29.3062C84.1736 29.5875 84.5648 29.7562 84.9561 29.7562C85.3473 29.7562 85.7386 29.5875 85.9621 29.3062C86.2416 28.9687 86.3534 28.575 86.3534 28.125C86.3534 27.675 86.1857 27.225 85.9621 26.9437C85.6827 26.6625 85.3473 26.4937 84.9561 26.4937Z" fill="#F8F8F8"/>
<path d="M93.5076 28.575C93.6194 29.025 93.8429 29.4187 94.1224 29.6437C94.4578 29.8687 94.849 29.9812 95.352 29.9812C95.8551 29.9812 96.3581 29.8687 96.917 29.5875C97.42 29.3062 97.7554 29.1937 97.8113 29.1937C97.979 29.1937 98.0908 29.25 98.2025 29.3625C98.3143 29.475 98.3702 29.6437 98.3702 29.8125C98.3702 30.2062 98.0907 30.5437 97.4759 30.825C96.917 31.1062 96.1345 31.275 95.2961 31.275C94.2901 31.275 93.4517 30.9937 92.8369 30.4312C92.2221 29.8687 91.8867 29.0812 91.8867 28.2375C91.8867 27.3375 92.2221 26.6062 92.8369 26.0437C93.4517 25.4812 94.2901 25.2 95.2961 25.2C96.1904 25.2 96.9729 25.4812 97.5318 25.9875C98.0908 26.4937 98.4261 27.1687 98.4261 27.9562C98.4261 28.1812 98.3702 28.35 98.2584 28.4625C98.1466 28.575 97.9231 28.6312 97.5318 28.6312L93.5076 28.575ZM96.8611 27.5625C96.8052 27.1687 96.5817 26.8312 96.3022 26.6625C96.0227 26.4937 95.6315 26.325 95.1844 26.325C94.7372 26.325 94.346 26.4375 94.0665 26.6062C93.7871 26.775 93.6194 27.1125 93.5076 27.5062L96.8611 27.5625Z" fill="#F8F8F8"/>
<path d="M113.964 27.675C114.076 27.7312 114.188 27.8437 114.299 28.0125C114.355 28.0687 114.355 28.0687 114.355 28.0687L115.361 29.7H115.417H115.529C115.753 29.7 115.976 29.7562 116.088 29.8687C116.2 29.9812 116.256 30.15 116.256 30.375C116.256 30.6 116.2 30.825 116.088 30.8812C115.976 30.9937 115.753 31.05 115.473 31.05H114.691C114.411 31.05 114.188 30.9375 114.02 30.6562L112.455 28.2937C112.399 28.1812 112.343 28.125 112.231 28.0687C112.12 28.0125 112.064 28.0125 112.008 28.0125H111.449V29.7H111.561C111.784 29.7 111.952 29.7562 112.064 29.8687C112.176 29.9812 112.231 30.15 112.231 30.375C112.231 30.6 112.176 30.825 112.064 30.8812C111.952 30.9937 111.728 31.05 111.449 31.05H109.828C109.549 31.05 109.381 30.9937 109.213 30.8812C109.101 30.7687 109.046 30.6 109.046 30.375C109.046 30.15 109.101 29.9812 109.213 29.8687C109.325 29.7562 109.493 29.7 109.716 29.7H109.828V24.975H109.716C109.493 24.975 109.325 24.9187 109.213 24.8062C109.101 24.6937 109.046 24.525 109.046 24.3C109.046 24.075 109.101 23.9062 109.213 23.7937C109.325 23.6812 109.549 23.625 109.828 23.625H112.734C113.629 23.625 114.299 23.7938 114.747 24.1313C115.194 24.4688 115.417 24.975 115.417 25.65C115.417 26.1 115.306 26.55 115.026 26.8875C114.802 27.2812 114.467 27.5062 113.964 27.675ZM111.393 24.975V26.775H112.231C112.734 26.775 113.126 26.7187 113.349 26.55C113.573 26.3812 113.685 26.2125 113.685 25.875C113.685 25.5375 113.573 25.3125 113.405 25.2C113.182 25.0312 112.902 24.975 112.511 24.975H111.393Z" fill="#F8F8F8"/>
<path d="M122.907 25.1437C123.913 25.1437 124.751 25.425 125.366 25.9875C125.981 26.55 126.316 27.2812 126.316 28.1812C126.316 29.0812 125.981 29.8125 125.366 30.375C124.751 30.9375 123.913 31.2187 122.907 31.2187C121.901 31.2187 121.062 30.9375 120.448 30.375C119.833 29.8125 119.497 29.025 119.497 28.1812C119.497 27.2812 119.833 26.55 120.448 25.9875C121.062 25.425 121.901 25.1437 122.907 25.1437ZM122.907 26.4937C122.404 26.4937 122.013 26.6625 121.733 26.9437C121.454 27.2812 121.286 27.675 121.286 28.1812C121.286 28.6875 121.454 29.0812 121.733 29.4187C122.068 29.7562 122.46 29.925 122.907 29.925C123.354 29.925 123.801 29.7562 124.081 29.4187C124.416 29.0812 124.528 28.6875 124.528 28.1812C124.528 27.675 124.36 27.2812 124.081 26.9437C123.801 26.6062 123.41 26.4937 122.907 26.4937Z" fill="#F8F8F8"/>
<path d="M133.415 25.1437C134.421 25.1437 135.259 25.425 135.874 25.9875C136.489 26.55 136.824 27.2812 136.824 28.1812C136.824 29.0812 136.489 29.8125 135.874 30.375C135.259 30.9375 134.421 31.2187 133.415 31.2187C132.409 31.2187 131.57 30.9375 130.955 30.375C130.341 29.8125 130.005 29.025 130.005 28.1812C130.005 27.2812 130.341 26.55 130.955 25.9875C131.57 25.425 132.409 25.1437 133.415 25.1437ZM133.415 26.4937C132.912 26.4937 132.52 26.6625 132.241 26.9437C131.906 27.2812 131.794 27.675 131.794 28.1812C131.794 28.6875 131.961 29.0812 132.241 29.4187C132.576 29.7562 132.967 29.925 133.415 29.925C133.862 29.925 134.309 29.7562 134.588 29.4187C134.924 29.0812 135.035 28.6875 135.035 28.1812C135.035 27.675 134.868 27.2812 134.588 26.9437C134.365 26.6625 133.918 26.4937 133.415 26.4937Z" fill="#F8F8F8"/>
<path d="M144.369 25.7063C144.537 25.5375 144.761 25.3688 144.984 25.2563C145.208 25.1438 145.431 25.0875 145.711 25.0875C146.27 25.0875 146.717 25.2562 146.941 25.5937C147.22 25.9312 147.332 26.4937 147.332 27.2812V29.6437H147.444C147.667 29.6437 147.779 29.7 147.891 29.8125C148.002 29.925 148.058 30.0937 148.058 30.3187C148.058 30.6 148.002 30.7687 147.891 30.825C147.779 30.9375 147.611 30.9937 147.388 30.9937H146.326C146.214 30.9937 146.102 30.9375 146.046 30.9375C145.99 30.8812 145.934 30.825 145.934 30.7125V27.1687C145.934 26.8875 145.879 26.6625 145.767 26.55C145.655 26.4375 145.543 26.325 145.376 26.325C145.152 26.325 144.984 26.4375 144.873 26.6062C144.761 26.775 144.705 27.0562 144.705 27.3937V29.5875H144.817C145.04 29.5875 145.152 29.6437 145.264 29.7562C145.376 29.8687 145.431 30.0375 145.431 30.2625C145.431 30.5437 145.376 30.7125 145.264 30.7687C145.152 30.8812 144.984 30.9375 144.761 30.9375H143.699C143.587 30.9375 143.475 30.8812 143.419 30.8812C143.363 30.825 143.308 30.7687 143.308 30.6562V27.1125C143.308 26.8313 143.252 26.6062 143.196 26.4937C143.084 26.325 142.972 26.2688 142.805 26.2688C142.581 26.2688 142.413 26.3813 142.301 26.55C142.19 26.7188 142.134 27 142.134 27.3375V29.5312H142.246C142.469 29.5312 142.581 29.5875 142.693 29.7C142.805 29.8125 142.86 29.9812 142.86 30.2062C142.86 30.4875 142.805 30.6562 142.693 30.7125C142.581 30.825 142.413 30.8812 142.19 30.8812H140.792C140.569 30.8812 140.401 30.825 140.289 30.7125C140.178 30.6 140.122 30.4312 140.122 30.2062C140.122 29.9812 140.178 29.8125 140.289 29.7C140.401 29.5875 140.513 29.5312 140.737 29.5312H140.848V26.55H140.737C140.513 26.55 140.401 26.4938 140.289 26.3813C140.178 26.2688 140.122 26.1 140.122 25.875C140.122 25.65 140.178 25.4812 140.289 25.3687C140.401 25.2562 140.569 25.2 140.792 25.2H141.631C141.798 25.2 141.91 25.2562 141.966 25.3125C142.022 25.3687 142.078 25.5375 142.078 25.7063C142.246 25.4813 142.413 25.3125 142.637 25.2C142.86 25.0875 143.084 25.0312 143.363 25.0312C143.587 25.0312 143.811 25.0875 143.978 25.2C144.09 25.3687 144.202 25.5375 144.369 25.7063Z" fill="#F8F8F8"/>
<path d="M46.5023 8.38129V16.7063H48.3467C48.8497 16.7063 49.241 16.8188 49.4087 16.9875C49.6322 17.1563 49.744 17.4938 49.744 17.8875C49.744 18.3375 49.6322 18.6188 49.4087 18.8438C49.1851 19.0688 48.8497 19.125 48.3467 19.125H41.7514C41.2484 19.125 40.8572 19.0125 40.6895 18.8438C40.4659 18.6188 40.3541 18.3375 40.3541 17.8875C40.3541 17.4375 40.4659 17.1563 40.6895 16.9313C40.9131 16.7625 41.2484 16.65 41.7514 16.65H43.5959V8.32504H41.7514C41.2484 8.32504 40.8572 8.21254 40.6895 8.04379C40.4659 7.81879 40.3541 7.53754 40.3541 7.08754C40.3541 6.63754 40.4659 6.30004 40.6895 6.13129C40.9131 5.96254 41.2484 5.85004 41.7514 5.85004H48.3467C48.8497 5.85004 49.241 5.96254 49.4646 6.13129C49.6881 6.30004 49.7999 6.63754 49.7999 7.08754C49.7999 7.53754 49.6881 7.81879 49.4646 8.04379C49.241 8.26879 48.9056 8.32504 48.4026 8.32504L46.5023 8.38129Z" fill="#9F1F24"/>
<path d="M62.208 6.24376C62.3757 5.96251 62.4874 5.79376 62.6551 5.68126C62.8228 5.56876 62.9905 5.51251 63.214 5.51251C63.5494 5.51251 63.8289 5.62501 63.9965 5.79376C64.1642 6.01876 64.2201 6.30001 64.2201 6.80626L64.276 9.73126C64.276 10.2375 64.1642 10.575 63.9965 10.7438C63.8289 10.9125 63.5494 11.025 63.1023 11.025C62.7669 11.025 62.5433 10.9125 62.3757 10.8C62.208 10.6313 62.0403 10.35 61.9285 9.95626C61.705 9.22501 61.4255 8.71876 60.9784 8.43751C60.5312 8.15626 59.9723 7.98751 59.2457 7.98751C58.1279 7.98751 57.2336 8.38126 56.6188 9.16876C56.004 9.95626 55.7245 11.0813 55.7245 12.5438C55.7245 14.0063 56.0598 15.1313 56.6747 15.9188C57.2895 16.7063 58.1837 17.1 59.3016 17.1C60.0841 17.1 60.9225 16.8188 61.8726 16.3125C62.8228 15.8063 63.3817 15.525 63.6612 15.525C63.9406 15.525 64.1642 15.6375 64.3878 15.9188C64.6113 16.1438 64.6672 16.4813 64.6672 16.8188C64.6672 17.4375 64.1083 18.0563 62.9346 18.675C61.8167 19.2375 60.4753 19.575 59.0221 19.575C57.0659 19.575 55.5009 18.9563 54.3272 17.6625C53.1534 16.3688 52.5386 14.6813 52.5386 12.6C52.5386 10.575 53.1534 8.94376 54.3272 7.59376C55.5568 6.24376 57.0659 5.56876 58.9662 5.56876C59.4693 5.56876 60.0282 5.62501 60.5312 5.73751C61.0343 5.79376 61.6491 6.01876 62.208 6.24376Z" fill="#9F1F24"/>
<path d="M75.6221 8.26875H70.4241V11.1375H72.3803V10.9688C72.3803 10.575 72.4921 10.2375 72.6598 10.0125C72.8275 9.7875 73.1069 9.675 73.4982 9.675C73.8335 9.675 74.113 9.7875 74.3366 9.95625C74.5601 10.125 74.6719 10.4062 74.6719 10.6875C74.6719 10.7438 74.6719 10.7437 74.6719 10.8562C74.6719 10.9687 74.6719 11.025 74.6719 11.0813V13.3875C74.6719 13.8937 74.5601 14.2313 74.3925 14.4563C74.2248 14.6813 73.9453 14.7937 73.4982 14.7937C73.1069 14.7937 72.8275 14.6812 72.6598 14.5125C72.4362 14.2875 72.3803 14.0063 72.3803 13.6125V13.3875H70.4241V16.7625H75.5662V15.4125C75.5662 14.9062 75.678 14.5688 75.8456 14.3438C76.0133 14.1187 76.3487 14.0062 76.7958 14.0062C77.1871 14.0062 77.5224 14.1187 77.6901 14.3438C77.8578 14.5688 77.9696 14.9062 77.9696 15.4125V18.1125C77.9696 18.5063 77.8578 18.7875 77.746 18.9C77.5783 19.0125 77.2988 19.125 76.7958 19.125H67.6854C67.1824 19.125 66.847 19.0125 66.6234 18.8438C66.3999 18.6187 66.2881 18.3375 66.2881 17.8875C66.2881 17.4937 66.3999 17.1563 66.5675 16.9875C66.7911 16.7625 67.0706 16.7063 67.4618 16.7063H67.6295V8.38125H67.4618C67.0706 8.38125 66.7911 8.26875 66.5675 8.04375C66.344 7.81875 66.2881 7.5375 66.2881 7.14375C66.2881 6.69375 66.3999 6.4125 66.6234 6.1875C66.847 5.9625 67.1824 5.90625 67.6854 5.90625H76.7958C77.2429 5.90625 77.5783 5.9625 77.6901 6.13125C77.8578 6.3 77.9137 6.525 77.9137 6.975V9.45C77.9137 9.95625 77.8019 10.35 77.6342 10.5188C77.4665 10.7438 77.1312 10.8562 76.7399 10.8562C76.2928 10.8562 76.0133 10.7438 75.7898 10.5188C75.5662 10.2938 75.5103 9.95625 75.5103 9.45V8.26875H75.6221Z" fill="#9F1F24"/>
<path d="M89.8187 12.0938C90.6571 12.375 91.216 12.825 91.6073 13.3313C91.9985 13.8375 92.1662 14.5125 92.1662 15.3563C92.1662 16.0313 91.9985 16.65 91.6632 17.2125C91.3278 17.775 90.8807 18.225 90.2659 18.6188C89.9305 18.8438 89.4834 18.9563 89.0921 19.0688C88.645 19.1813 88.0302 19.2375 87.2477 19.2375H86.2975H81.4349C80.9319 19.2375 80.5965 19.125 80.373 18.9563C80.1494 18.7313 80.0376 18.45 80.0376 18C80.0376 17.6063 80.1494 17.2688 80.3171 17.1C80.4847 16.9313 80.8201 16.8188 81.2113 16.8188H81.4349V8.38125H81.2113C80.8201 8.38125 80.5406 8.26875 80.3171 8.04375C80.0935 7.81875 80.0376 7.5375 80.0376 7.14375C80.0376 6.69375 80.1494 6.4125 80.373 6.1875C80.5965 5.9625 80.9319 5.90625 81.4349 5.90625H86.5211C88.0861 5.90625 89.2598 6.1875 90.0982 6.80625C90.9366 7.425 91.3278 8.325 91.3278 9.50625C91.3278 10.0688 91.216 10.575 90.9366 11.025C90.6571 11.475 90.3218 11.8125 89.8187 12.0938ZM84.1736 8.325V11.1375H85.6827C86.577 11.1375 87.2477 11.025 87.583 10.8C87.9743 10.575 88.142 10.2375 88.142 9.73125C88.142 9.225 87.9743 8.8875 87.6389 8.6625C87.3036 8.4375 86.7447 8.325 86.0181 8.325H84.1736ZM84.1736 13.3313V16.7625H85.8504C87.0241 16.7625 87.8625 16.65 88.3096 16.3688C88.8127 16.0875 89.0362 15.6375 89.0362 15.0188C89.0362 14.4 88.8127 13.95 88.3096 13.6688C87.8625 13.3875 87.08 13.275 85.9063 13.275L84.1736 13.3313Z" fill="#9F1F24"/>
<path d="M102.506 13.05C102.73 13.1625 102.898 13.3875 103.065 13.6687C103.121 13.725 103.121 13.7812 103.177 13.7812L104.966 16.65H105.077H105.301C105.748 16.65 106.083 16.7625 106.251 16.9312C106.475 17.1562 106.586 17.4375 106.586 17.8313C106.586 18.2813 106.475 18.6188 106.251 18.7875C106.027 19.0125 105.692 19.0688 105.189 19.0688H103.848C103.345 19.0688 102.953 18.8437 102.674 18.45L102.618 18.3938L99.8793 14.175C99.7676 14.0063 99.6558 13.8938 99.544 13.7812C99.4322 13.6687 99.2645 13.6687 99.1527 13.6687H98.0908V16.65H98.2585C98.6497 16.65 98.9851 16.7625 99.1527 16.9312C99.3763 17.1562 99.4322 17.4375 99.4322 17.8313C99.4322 18.2813 99.3204 18.6188 99.0969 18.7875C98.8733 19.0125 98.5379 19.0688 98.0349 19.0688H95.1844C94.6814 19.0688 94.346 18.9563 94.1224 18.7875C93.8989 18.5625 93.7871 18.2813 93.7871 17.8313C93.7871 17.4375 93.8989 17.1 94.0666 16.9312C94.2901 16.7062 94.5696 16.65 94.9608 16.65H95.1285V8.38125H94.9608C94.5696 8.38125 94.2901 8.26875 94.0666 8.04375C93.843 7.81875 93.7312 7.5375 93.7312 7.14375C93.7312 6.69375 93.843 6.4125 94.0666 6.1875C94.2901 5.9625 94.6255 5.90625 95.1285 5.90625H100.271C101.836 5.90625 103.065 6.1875 103.848 6.80625C104.686 7.425 105.077 8.325 105.077 9.5625C105.077 10.4062 104.854 11.1375 104.407 11.7562C104.015 12.3187 103.401 12.7688 102.506 13.05ZM97.979 8.325V11.475H99.4881C100.438 11.475 101.053 11.3625 101.444 11.1375C101.836 10.9125 102.003 10.5188 102.003 9.95625C102.003 9.39375 101.836 9 101.5 8.775C101.165 8.49375 100.606 8.38125 99.8793 8.38125L97.979 8.325Z" fill="#9F1F24"/>
<path d="M116.591 8.26875H111.393V11.1375H113.349V10.9688C113.349 10.575 113.461 10.2375 113.629 10.0125C113.852 9.7875 114.076 9.675 114.467 9.675C114.803 9.675 115.082 9.7875 115.306 9.95625C115.529 10.125 115.641 10.4062 115.641 10.6875C115.641 10.7438 115.641 10.7437 115.641 10.8562C115.641 10.9687 115.641 11.025 115.641 11.0813V13.3875C115.641 13.8937 115.529 14.2313 115.361 14.4563C115.194 14.6813 114.914 14.7937 114.467 14.7937C114.076 14.7937 113.796 14.6812 113.629 14.5125C113.405 14.2875 113.349 14.0063 113.349 13.6125V13.3875H111.393V16.7625H116.591V15.4125C116.591 14.9062 116.703 14.5688 116.871 14.3438C117.038 14.1187 117.374 14.0062 117.821 14.0062C118.212 14.0062 118.547 14.1187 118.715 14.3438C118.883 14.5688 118.994 14.9062 118.994 15.4125V18.1125C118.994 18.5063 118.883 18.7875 118.771 18.9C118.603 19.0125 118.324 19.125 117.821 19.125H108.71C108.207 19.125 107.872 19.0125 107.648 18.8438C107.425 18.6187 107.313 18.3375 107.313 17.8875C107.313 17.4937 107.425 17.1563 107.592 16.9875C107.816 16.7625 108.095 16.7063 108.487 16.7063H108.654V8.38125H108.487C108.095 8.38125 107.816 8.26875 107.592 8.04375C107.369 7.81875 107.313 7.5375 107.313 7.14375C107.313 6.69375 107.425 6.4125 107.648 6.1875C107.872 5.9625 108.207 5.90625 108.71 5.90625H117.821C118.268 5.90625 118.603 5.9625 118.715 6.13125C118.883 6.3 118.939 6.525 118.939 6.975V9.45C118.939 9.95625 118.827 10.35 118.659 10.5188C118.491 10.7438 118.156 10.8562 117.765 10.8562C117.318 10.8562 117.038 10.7438 116.815 10.5188C116.647 10.2938 116.535 9.95625 116.535 9.45L116.591 8.26875Z" fill="#9F1F24"/>
<path d="M132.688 16.7063H132.856C133.247 16.7063 133.582 16.8188 133.75 16.9875C133.974 17.2125 134.085 17.4938 134.085 17.8875C134.085 18.3375 133.974 18.675 133.75 18.8438C133.526 19.0125 133.191 19.125 132.688 19.125H129.334C128.831 19.125 128.44 19.0125 128.273 18.8438C128.049 18.675 127.937 18.3375 127.937 17.8875C127.937 17.4375 128.049 17.1563 128.273 16.9313C128.496 16.7063 128.831 16.65 129.334 16.65H129.726L129.279 15.3H124.472L124.025 16.65H124.416C124.919 16.65 125.31 16.7625 125.478 16.9313C125.701 17.1 125.813 17.4375 125.813 17.8313C125.813 18.2813 125.701 18.6188 125.478 18.7875C125.254 19.0125 124.919 19.0688 124.416 19.0688H121.565C121.062 19.0688 120.671 18.9563 120.504 18.7875C120.336 18.6188 120.168 18.2813 120.168 17.8313C120.168 17.4375 120.28 17.1 120.504 16.9313C120.727 16.7063 121.007 16.65 121.398 16.65H121.565L124.528 8.32504H123.633C123.13 8.32504 122.739 8.21254 122.572 8.04379C122.404 7.87504 122.236 7.53754 122.236 7.08754C122.236 6.63754 122.348 6.30004 122.572 6.13129C122.795 5.90629 123.13 5.85004 123.633 5.85004H127.825C128.496 5.85004 128.943 6.18754 129.223 6.91879V6.97504L132.688 16.7063ZM126.875 8.38129L125.254 13.1063H128.44L126.875 8.38129Z" fill="#9F1F24"/>
<path d="M138.948 8.38126V11.7563L142.413 8.26876C142.022 8.21251 141.798 8.10001 141.575 7.93126C141.407 7.76251 141.351 7.48126 141.351 7.08751C141.351 6.63751 141.463 6.30001 141.687 6.13126C141.91 5.90626 142.246 5.85001 142.749 5.85001H145.487C145.99 5.85001 146.382 5.96251 146.549 6.13126C146.717 6.30001 146.885 6.63751 146.885 7.08751C146.885 7.48126 146.773 7.81876 146.549 7.98751C146.326 8.15626 146.046 8.26876 145.599 8.26876H145.32L142.078 11.475C142.693 11.925 143.196 12.4875 143.699 13.2188C144.202 13.95 144.761 15.075 145.431 16.5938H145.599H145.823C146.27 16.5938 146.605 16.7063 146.829 16.875C147.052 17.1 147.164 17.3813 147.164 17.775C147.164 18.225 147.052 18.5625 146.829 18.7313C146.605 18.9563 146.27 19.0125 145.767 19.0125H144.369C143.755 19.0125 143.308 18.6188 142.916 17.775C142.86 17.6063 142.804 17.4938 142.749 17.4375C142.246 16.3688 141.798 15.5813 141.407 15.0188C141.016 14.4563 140.513 13.95 139.954 13.4438L138.892 14.4563V16.5375H139.06C139.451 16.5375 139.786 16.65 139.954 16.8188C140.178 17.0438 140.289 17.325 140.289 17.7188C140.289 18.1688 140.178 18.5063 139.954 18.675C139.73 18.9 139.395 18.9563 138.892 18.9563H136.042C135.539 18.9563 135.147 18.8438 134.98 18.675C134.756 18.5063 134.644 18.1688 134.644 17.7188C134.644 17.325 134.756 16.9875 134.98 16.8188C135.203 16.65 135.483 16.5375 135.874 16.5375H136.042V8.26876H135.874C135.483 8.26876 135.147 8.15626 134.98 7.93126C134.812 7.70626 134.7 7.42501 134.7 7.03126C134.7 6.58126 134.812 6.24376 135.035 6.07501C135.259 5.85001 135.594 5.79376 136.097 5.79376H138.948C139.451 5.79376 139.786 5.90626 140.01 6.07501C140.233 6.30001 140.345 6.58126 140.345 7.03126C140.345 7.42501 140.233 7.76251 140.01 7.93126C139.786 8.15626 139.507 8.26876 139.116 8.26876H138.892L138.948 8.38126Z" fill="#9F1F24"/>
<path d="M43.9312 24.1875H41.0248V25.8188H42.1427V25.7063C42.1427 25.4813 42.1986 25.3125 42.3104 25.2C42.4221 25.0875 42.5898 25.0313 42.7575 25.0313C42.9252 25.0313 43.0929 25.0875 43.2046 25.2C43.3164 25.3125 43.3723 25.425 43.3723 25.5938C43.3723 25.5938 43.3723 25.65 43.3723 25.7063C43.3723 25.7625 43.3723 25.8188 43.3723 25.875V27.1688C43.3723 27.45 43.3164 27.6188 43.2046 27.7875C43.0929 27.9 42.9252 27.9563 42.7016 27.9563C42.478 27.9563 42.3104 27.9 42.1986 27.7875C42.0868 27.675 42.0309 27.5063 42.0309 27.2813V27.1688H40.9131V29.025H43.8195V28.2375C43.8195 27.9563 43.8753 27.7875 43.9871 27.6188C44.0989 27.5063 44.2666 27.45 44.4902 27.45C44.7137 27.45 44.8814 27.5063 44.9932 27.6188C45.105 27.7313 45.1609 27.9563 45.1609 28.2375V29.7563C45.1609 29.9813 45.105 30.15 44.9932 30.2063C44.8814 30.2625 44.7137 30.3188 44.4902 30.3188H39.404C39.1245 30.3188 38.9568 30.2625 38.845 30.15C38.7333 30.0375 38.6774 29.8688 38.6774 29.6438C38.6774 29.4188 38.7333 29.25 38.845 29.1375C38.9568 29.025 39.1245 28.9688 39.3481 28.9688H39.4599V24.1875H39.3481C39.1245 24.1875 38.9568 24.1313 38.845 24.0188C38.7333 23.9063 38.6774 23.7375 38.6774 23.5125C38.6774 23.2875 38.7333 23.1188 38.845 23.0063C38.9568 22.8938 39.1804 22.8375 39.404 22.8375H44.546C44.8255 22.8375 44.9932 22.8938 45.0491 22.95C45.1609 23.0625 45.2168 23.175 45.2168 23.4V24.8063C45.2168 25.0875 45.1609 25.3125 45.0491 25.425C44.9373 25.5375 44.7696 25.5938 44.546 25.5938C44.3225 25.5938 44.1548 25.5375 44.043 25.425C43.9312 25.3125 43.8753 25.0875 43.8753 24.8063L43.9312 24.1875Z" fill="#9F1F24"/>
<path d="M50.9178 30.2625C50.806 30.375 50.6942 30.4313 50.5824 30.4875C50.4706 30.5438 50.3588 30.5438 50.247 30.5438C50.0794 30.5438 49.9676 30.4875 49.8558 30.375C49.744 30.2625 49.744 30.0938 49.744 29.8688V29.025C49.744 28.7438 49.7999 28.575 49.9117 28.4625C50.0235 28.35 50.1912 28.2938 50.3588 28.2938C50.5824 28.2938 50.806 28.4063 50.9736 28.6313C51.0854 28.7438 51.1413 28.8563 51.1972 28.9125C51.4208 29.0813 51.6444 29.25 51.9238 29.3063C52.2033 29.4188 52.4827 29.475 52.874 29.475C53.1534 29.475 53.4329 29.4188 53.6006 29.3063C53.7683 29.1938 53.88 29.025 53.88 28.8563C53.88 28.5188 53.377 28.2938 52.4268 28.125C52.2033 28.0688 52.0356 28.0688 51.9238 28.0688C51.1972 27.9563 50.6942 27.7875 50.3029 27.5063C49.9676 27.225 49.7999 26.775 49.7999 26.325C49.7999 25.7625 50.0235 25.2563 50.4147 24.9188C50.8619 24.5813 51.4208 24.4125 52.2592 24.4125C52.5386 24.4125 52.8181 24.4688 53.0975 24.4688C53.377 24.525 53.6565 24.5813 53.9918 24.6938C54.1036 24.5813 54.1595 24.525 54.2713 24.4688C54.3831 24.4125 54.4949 24.3563 54.6066 24.3563C54.7743 24.3563 54.8861 24.4125 54.9979 24.525C55.1097 24.6375 55.1656 24.8063 55.1656 24.975V25.7625C55.1656 25.9313 55.1097 26.1 54.9979 26.1563C54.8861 26.2688 54.7743 26.325 54.6066 26.325C54.439 26.325 54.1595 26.1563 53.7124 25.875C53.2652 25.5938 52.874 25.425 52.4827 25.425C52.1474 25.425 51.9238 25.4813 51.7002 25.5938C51.5326 25.7063 51.4208 25.875 51.4208 26.0438C51.4208 26.325 51.812 26.55 52.5386 26.6063C52.7622 26.6625 52.9299 26.6625 53.0417 26.6625C53.9918 26.8313 54.6625 27 54.9979 27.2813C55.3332 27.5625 55.5009 27.9563 55.5009 28.5188C55.5009 29.1375 55.2773 29.6438 54.7743 29.9813C54.3272 30.3188 53.6565 30.4875 52.7622 30.4875C52.4268 30.4875 52.1474 30.4313 51.812 30.4313C51.5326 30.4313 51.2531 30.3188 50.9178 30.2625Z" fill="#9F1F24"/>
<path d="M65.0026 24.8625C65.0585 24.6938 65.1143 24.5813 65.2261 24.4688C65.3379 24.3563 65.4497 24.3563 65.6174 24.3563C65.8409 24.3563 66.0086 24.4125 66.1204 24.5813C66.2322 24.75 66.2881 24.975 66.2881 25.3125V26.325C66.2881 26.6063 66.2322 26.775 66.1204 26.8875C66.0086 27 65.8409 27.0563 65.6174 27.0563C65.4497 27.0563 65.3379 27 65.2261 26.9438C65.1143 26.8875 65.0026 26.7188 64.8908 26.55C64.7231 26.2688 64.4995 26.0438 64.2201 25.9313C63.9406 25.7625 63.6053 25.7063 63.214 25.7063C62.711 25.7063 62.3197 25.875 62.0403 26.1563C61.7049 26.4938 61.5931 26.8875 61.5931 27.3938C61.5931 27.9 61.7608 28.35 62.0962 28.6313C62.4315 28.9688 62.8787 29.0813 63.3817 29.0813C63.8847 29.0813 64.3877 28.9125 64.8349 28.6875C65.3379 28.4063 65.6174 28.2938 65.7292 28.2938C65.8968 28.2938 66.0086 28.35 66.1204 28.4625C66.2322 28.575 66.2881 28.7438 66.2881 28.9125C66.2881 29.3063 66.0086 29.6438 65.3938 29.9813C64.779 30.3188 64.0524 30.4313 63.2699 30.4313C62.2638 30.4313 61.4255 30.15 60.8106 29.5875C60.1958 29.025 59.8605 28.2375 59.8605 27.3938C59.8605 26.4938 60.1958 25.7625 60.8106 25.2C61.4255 24.6375 62.2638 24.3 63.1581 24.3C63.4935 24.3 63.7729 24.3563 64.1083 24.4125C64.3877 24.5813 64.6672 24.6938 65.0026 24.8625Z" fill="#9F1F24"/>
<path d="M76.181 28.9688H76.2928C76.5164 28.9688 76.6841 29.025 76.7959 29.1375C76.9076 29.25 76.9635 29.4188 76.9635 29.6438C76.9635 29.8688 76.9076 30.0375 76.7959 30.15C76.6841 30.2625 76.4605 30.3188 76.181 30.3188H75.6221C75.3986 30.3188 75.2868 30.2625 75.175 30.2063C75.0632 30.0938 75.0073 29.9813 74.8955 29.7563C74.5602 29.9813 74.1689 30.15 73.7777 30.2625C73.3864 30.375 72.9952 30.4313 72.6039 30.4313C71.9332 30.4313 71.4302 30.2625 71.039 29.925C70.6477 29.5875 70.48 29.1375 70.48 28.5188C70.48 27.9 70.7595 27.3938 71.2625 27.0563C71.7656 26.7188 72.4363 26.55 73.3864 26.55C73.61 26.55 73.7777 26.55 74.0012 26.6063C74.2248 26.6625 74.4484 26.6625 74.7837 26.7188V26.6063C74.7837 26.2125 74.672 25.9313 74.5043 25.7625C74.3366 25.5375 74.0571 25.4813 73.6659 25.4813C73.3864 25.4813 73.0511 25.5938 72.6039 25.8188C72.1568 26.0438 71.8773 26.1563 71.6538 26.1563C71.4302 26.1563 71.3184 26.1 71.2066 25.9875C71.0948 25.875 71.039 25.7063 71.039 25.5375C71.039 25.2 71.2625 24.9188 71.7656 24.6938C72.2686 24.4688 72.9393 24.4125 73.7777 24.4125C74.672 24.4125 75.2868 24.5813 75.678 24.9188C76.0693 25.2563 76.2369 25.875 76.2369 26.6625V28.9688H76.181ZM74.672 27.7313C74.4484 27.675 74.2807 27.6188 74.113 27.6188C73.9454 27.5625 73.7777 27.5625 73.61 27.5625C73.1629 27.5625 72.7716 27.675 72.5481 27.7875C72.2686 27.9563 72.1568 28.1813 72.1568 28.4063C72.1568 28.6313 72.2686 28.8563 72.4363 28.9688C72.6039 29.0813 72.8275 29.1938 73.1629 29.1938C73.4423 29.1938 73.7218 29.1375 74.0012 29.0813C74.2807 28.9688 74.5043 28.8563 74.7837 28.6875L74.672 27.7313Z" fill="#9F1F24"/>
<path d="M82.944 29.7563V31.4438H83.7265C84.0059 31.4438 84.2295 31.5 84.3413 31.6125C84.4531 31.725 84.509 31.8938 84.509 32.1188C84.509 32.3438 84.4531 32.5125 84.3413 32.625C84.2295 32.7375 84.0059 32.7938 83.7265 32.7938H81.0437C80.7642 32.7938 80.5406 32.7375 80.4288 32.625C80.3171 32.5125 80.2612 32.3438 80.2612 32.1188C80.2612 31.8938 80.3171 31.6688 80.4288 31.6125C80.5406 31.5 80.7642 31.4438 81.0437 31.4438H81.4349V25.875H81.3231C81.0995 25.875 80.9319 25.8188 80.8201 25.7063C80.7083 25.5938 80.6524 25.425 80.6524 25.2C80.6524 24.975 80.7083 24.8063 80.8201 24.6938C80.9319 24.5813 81.1554 24.525 81.4349 24.525H82.3851C82.4968 24.525 82.6086 24.5813 82.6645 24.5813C82.7204 24.6375 82.7763 24.6938 82.7763 24.8063V25.2563C82.9999 24.975 83.2235 24.75 83.5588 24.6375C83.8383 24.4688 84.1736 24.4125 84.5649 24.4125C85.4032 24.4125 86.1298 24.6938 86.6888 25.2563C87.2477 25.8188 87.5272 26.4938 87.5272 27.3375C87.5272 28.2375 87.2477 28.9125 86.6888 29.5313C86.1298 30.0938 85.4591 30.375 84.6208 30.375C84.2854 30.375 84.0059 30.3188 83.6706 30.2063C83.447 30.0375 83.1676 29.925 82.944 29.7563ZM84.3972 25.7063C84.0059 25.7063 83.6147 25.875 83.3911 26.1563C83.1117 26.4375 82.9999 26.8875 82.9999 27.3375C82.9999 27.7875 83.1676 28.2375 83.3911 28.5188C83.6147 28.8 84.0059 28.9688 84.3972 28.9688C84.7884 28.9688 85.1797 28.8 85.4032 28.5188C85.6268 28.2375 85.7945 27.7875 85.7945 27.3375C85.7945 26.8875 85.6268 26.4375 85.4032 26.1563C85.1797 25.875 84.8443 25.7063 84.3972 25.7063Z" fill="#9F1F24"/>
<path d="M92.9487 27.7875C93.0605 28.2375 93.284 28.6313 93.5635 28.8563C93.8989 29.0813 94.2901 29.1938 94.7931 29.1938C95.2962 29.1938 95.7992 29.0813 96.3581 28.8C96.8611 28.5188 97.1965 28.4063 97.2524 28.4063C97.4201 28.4063 97.5319 28.4625 97.6436 28.575C97.7554 28.6875 97.8113 28.8563 97.8113 29.025C97.8113 29.4188 97.5319 29.7563 96.917 30.0375C96.3581 30.3188 95.5756 30.4875 94.7372 30.4875C93.7312 30.4875 92.8928 30.2063 92.278 29.6438C91.6632 29.0813 91.3278 28.2938 91.3278 27.45C91.3278 26.55 91.6632 25.8188 92.278 25.2563C92.8928 24.6938 93.7312 24.4125 94.7372 24.4125C95.6315 24.4125 96.414 24.6938 96.9729 25.2C97.5319 25.7063 97.8672 26.3813 97.8672 27.1688C97.8672 27.3938 97.8113 27.5625 97.6995 27.675C97.5877 27.7875 97.3642 27.8438 96.9729 27.8438L92.9487 27.7875ZM96.3581 26.8313C96.3022 26.4375 96.0787 26.1 95.7992 25.9313C95.5197 25.7625 95.1285 25.5938 94.6813 25.5938C94.2342 25.5938 93.843 25.7063 93.5635 25.875C93.284 26.0438 93.1164 26.3813 93.0046 26.775L96.3581 26.8313Z" fill="#9F1F24"/>
<path d="M113.405 26.8875C113.517 26.9438 113.629 27.0563 113.741 27.225C113.796 27.2813 113.796 27.2813 113.796 27.2813L114.803 28.9125H114.858H114.97C115.194 28.9125 115.417 28.9688 115.529 29.0813C115.641 29.1938 115.697 29.3625 115.697 29.5875C115.697 29.8125 115.641 30.0375 115.529 30.0938C115.417 30.2063 115.194 30.2625 114.914 30.2625H114.132C113.852 30.2625 113.629 30.15 113.461 29.8688L111.896 27.5063C111.84 27.3938 111.784 27.3375 111.673 27.2813C111.561 27.225 111.505 27.225 111.449 27.225H110.89V28.9125H111.002C111.225 28.9125 111.393 28.9688 111.505 29.0813C111.617 29.1938 111.673 29.3625 111.673 29.5875C111.673 29.8125 111.617 30.0375 111.505 30.0938C111.393 30.2063 111.17 30.2625 110.89 30.2625H109.269C108.99 30.2625 108.822 30.2063 108.654 30.0938C108.543 29.9813 108.487 29.8125 108.487 29.5875C108.487 29.3625 108.543 29.1938 108.654 29.0813C108.766 28.9688 108.934 28.9125 109.157 28.9125H109.269V24.1875H109.157C108.934 24.1875 108.766 24.1313 108.654 24.0188C108.543 23.9063 108.487 23.7375 108.487 23.5125C108.487 23.2875 108.543 23.1188 108.654 23.0063C108.766 22.8938 108.99 22.8375 109.269 22.8375H112.176C113.07 22.8375 113.741 23.0063 114.188 23.3438C114.635 23.6813 114.858 24.1875 114.858 24.8625C114.858 25.3125 114.747 25.7625 114.467 26.1C114.244 26.4938 113.908 26.7188 113.405 26.8875ZM110.834 24.1875V25.9875H111.673C112.176 25.9875 112.567 25.9313 112.79 25.7625C113.014 25.5938 113.126 25.425 113.126 25.0875C113.126 24.75 113.014 24.525 112.846 24.4125C112.623 24.2438 112.343 24.1875 111.952 24.1875H110.834Z" fill="#9F1F24"/>
<path d="M122.404 24.3563C123.41 24.3563 124.248 24.6375 124.863 25.2C125.478 25.7625 125.813 26.4938 125.813 27.3938C125.813 28.2938 125.478 29.025 124.863 29.5875C124.248 30.15 123.41 30.4313 122.404 30.4313C121.398 30.4313 120.559 30.15 119.945 29.5875C119.33 29.025 118.994 28.2375 118.994 27.3938C118.994 26.4938 119.33 25.7625 119.945 25.2C120.559 24.6375 121.342 24.3563 122.404 24.3563ZM122.404 25.7063C121.901 25.7063 121.51 25.875 121.23 26.1563C120.951 26.4938 120.783 26.8875 120.783 27.3938C120.783 27.9 120.951 28.2938 121.23 28.6313C121.565 28.9688 121.957 29.1375 122.404 29.1375C122.851 29.1375 123.298 28.9688 123.578 28.6313C123.913 28.2938 124.025 27.9 124.025 27.3938C124.025 26.8875 123.857 26.4938 123.578 26.1563C123.298 25.8188 122.907 25.7063 122.404 25.7063Z" fill="#9F1F24"/>
<path d="M132.912 24.3563C133.918 24.3563 134.756 24.6375 135.371 25.2C135.986 25.7625 136.321 26.4938 136.321 27.3938C136.321 28.2938 135.986 29.025 135.371 29.5875C134.756 30.15 133.918 30.4313 132.912 30.4313C131.906 30.4313 131.067 30.15 130.452 29.5875C129.837 29.025 129.502 28.2375 129.502 27.3938C129.502 26.4938 129.837 25.7625 130.452 25.2C131.067 24.6375 131.906 24.3563 132.912 24.3563ZM132.912 25.7063C132.409 25.7063 132.017 25.875 131.738 26.1563C131.402 26.4938 131.291 26.8875 131.291 27.3938C131.291 27.9 131.458 28.2938 131.738 28.6313C132.073 28.9688 132.464 29.1375 132.912 29.1375C133.359 29.1375 133.806 28.9688 134.085 28.6313C134.421 28.2938 134.532 27.9 134.532 27.3938C134.532 26.8875 134.365 26.4938 134.085 26.1563C133.806 25.875 133.415 25.7063 132.912 25.7063Z" fill="#9F1F24"/>
<path d="M143.811 24.9188C143.978 24.75 144.202 24.5813 144.425 24.4688C144.649 24.3563 144.873 24.3 145.152 24.3C145.711 24.3 146.158 24.4688 146.382 24.8063C146.661 25.1438 146.773 25.7063 146.773 26.4938V28.8563H146.885C147.108 28.8563 147.22 28.9125 147.332 29.025C147.444 29.1375 147.499 29.3063 147.499 29.5313C147.499 29.8125 147.444 29.9813 147.332 30.0375C147.22 30.15 147.052 30.2063 146.829 30.2063H145.767C145.655 30.2063 145.543 30.15 145.487 30.15C145.431 30.0938 145.376 30.0375 145.376 29.925V26.3813C145.376 26.1 145.32 25.875 145.208 25.7625C145.096 25.65 144.984 25.5375 144.817 25.5375C144.593 25.5375 144.425 25.65 144.314 25.8188C144.202 25.9875 144.146 26.2688 144.146 26.6063V28.8H144.258C144.481 28.8 144.593 28.8563 144.705 28.9688C144.817 29.0813 144.873 29.25 144.873 29.475C144.873 29.7563 144.817 29.925 144.705 29.9813C144.593 30.0938 144.425 30.15 144.202 30.15H143.14C143.028 30.15 142.916 30.0938 142.86 30.0938C142.805 30.0375 142.749 29.9813 142.749 29.8688V26.325C142.749 26.0438 142.693 25.8188 142.637 25.7063C142.525 25.5375 142.413 25.4813 142.246 25.4813C142.022 25.4813 141.854 25.5938 141.743 25.7625C141.631 25.9875 141.575 26.2125 141.575 26.55V28.7438H141.687C141.91 28.7438 142.022 28.8 142.134 28.9125C142.246 29.025 142.302 29.1938 142.302 29.4188C142.302 29.7 142.246 29.8688 142.134 29.925C142.022 30.0375 141.854 30.0938 141.631 30.0938H140.178C139.954 30.0938 139.786 30.0375 139.675 29.925C139.563 29.8125 139.507 29.6438 139.507 29.4188C139.507 29.1938 139.563 29.025 139.675 28.9125C139.786 28.8 139.898 28.7438 140.122 28.7438H140.233V25.875H140.122C139.898 25.875 139.786 25.8188 139.675 25.7063C139.563 25.5938 139.507 25.425 139.507 25.2C139.507 24.975 139.563 24.8063 139.675 24.6938C139.786 24.5813 139.954 24.525 140.178 24.525H141.016C141.184 24.525 141.295 24.5813 141.351 24.6375C141.407 24.6938 141.463 24.8625 141.463 25.0313C141.631 24.8063 141.798 24.6375 142.022 24.525C142.246 24.4125 142.469 24.3563 142.749 24.3563C142.972 24.3563 143.196 24.4125 143.363 24.525C143.531 24.5813 143.699 24.75 143.811 24.9188Z" fill="#9F1F24"/>
</g>
<defs>
<clipPath id="clip0_1_7789">
<rect width="148.114" height="36" fill="white"/>
</clipPath>
</defs>
</svg>
