<svg xmlns="http://www.w3.org/2000/svg" xmlns:xlink="http://www.w3.org/1999/xlink" version="1.1" id="图层_1" x="0px" y="0px" viewBox="0 0 290 70" style="enable-background:new 0 0 290 70;" xml:space="preserve" width="290"  height="70" ><script xmlns="">window._wordtune_extension_installed = true;</script>
<style type="text/css">
	.st0{fill:#9F1F24;}
	.st1{fill:#FFFFFF;}
	.st2{fill:#A71F24;}
	.st3{fill:#767777;}
</style>
<g id="Logo">
	<g>
		<polygon class="st0" points="46.7,3.1 70.8,25.2 63.7,57.1 32.5,66.9 8.4,44.8 15.5,12.9   "/>
		<path class="st1" d="M23.6,10.3c-0.3,0.5-0.6,1.2-1,2c-0.5,1.3-0.7,2.3-0.9,3c-0.3,1.3-0.4,2.4-0.4,2.8c-0.2,1.9,0,3.3,0,3.8    c0.1,1.1,0.3,2,0.5,2.7c0.1,0.4,0.3,1.3,0.7,2.5c0.7,2,1.4,3.4,1.9,4.5c0.4,0.8,0.8,1.6,1.5,2.6c0.4,0.6,1.3,2,2.6,3.5    c1,1.2,2.1,2.2,3.1,3.1c0.4,0.4,0.7,0.7,0.9,1c0.3,0.3,0.8,0.8,1.5,1.4c0.5,0.4,0.8,0.6,0.9,0.7c0,0,0.6,0.4,1.1,0.7    c1.3,0.8,2.9,1.4,3.1,1.5c0.5,0.2,2,0.7,4.1,1c1.3,0.2,2.4,0.2,3.1,0.2c0.6,0,1.6,0,2.9-0.2c0.6-0.1,1.3-0.2,2.3-0.4    c0.9-0.2,1.7-0.5,2.3-0.7c0.2,0,0.4-0.1,0.7-0.1c0.9-0.1,2.5-0.5,4.3-1.1c1.1-0.4,2.1-0.9,2.9-1.3c0.9-0.5,1.6-0.9,2.2-1.3    c0.9-0.6,2.3-1.5,3.6-2.6c0.2-0.8,0.4-1.7,0.6-2.6c-0.1,0.1-0.5,0.5-0.7,0.7c-0.2,0.2-0.7,0.7-1.5,1.2c-0.4,0.3-0.8,0.6-1.6,1.2    c-0.7,0.5-1,0.7-1.4,1c-0.9,0.6-1.7,1-1.8,1.1c-0.5,0.3-0.9,0.5-1.3,0.6c0.2-0.2,0.5-0.4,0.8-0.7c0.3-0.2,0.7-0.6,1.2-1.1    c0.6-0.6,1-1,1.4-1.5c0.4-0.5,1-1.3,1.8-2.4c0.3-0.4,1.1-1.6,1.9-3.3c0.3-0.6,0.7-1.5,1.1-2.7c0.2-0.7,0.5-1.4,0.7-2.5    c0.1-0.6,0.3-1.5,0.3-2.7c0-1,0-1.8-0.1-2.5c-0.6-0.5-1.2-1.1-1.8-1.6c0.1,0.3,0.2,0.8,0.2,1.4c0,0.3,0.1,1.1,0.2,2.1    c0,0.8,0,1.4,0,1.6c0,0.3-0.1,0.9-0.2,1.6c-0.2,0.9-0.4,1.5-0.6,2.2c-0.4,1.1-0.8,1.9-1,2.5c-0.6,1.2-1,2-1.2,2.2    c-0.2,0.4-0.7,1.1-1.3,1.9c-0.5,0.6-1.2,1.7-2.4,2.9c-1,1-1.9,1.7-2.4,2c-1.1,0.8-2.1,1.3-2.6,1.6c-0.9,0.5-1.7,0.8-2.4,1    c-0.7,0.1-1.3,0.2-1.7,0.2c-0.7,0.1-1.3,0.1-1.8,0.1c-0.4,0-0.9,0-1.6,0c-0.6,0-1.2,0-1.6-0.1c0.4,0,0.8-0.1,1.3-0.2    c0.9-0.1,1.6-0.3,1.9-0.4c0.5-0.1,1.2-0.4,2-0.7c0.2-0.1,1-0.4,2-1c0.4-0.2,2-1.1,3.8-2.9c0.2-0.2,0.9-0.9,1.7-1.8    c0.3-0.4,0.9-1,1.5-2c1.1-1.6,1.7-3.1,1.9-3.8c0.5-1.4,0.7-2.5,0.8-2.9c0.5-2.4,0.3-4.4,0.1-5.8c-0.3-2-0.8-3.4-1-3.7    c-0.7-1.7-1.6-3-2.2-3.8c-1.1-1-2.2-2-3.2-3c-0.3-0.2-0.8-0.5-1.3-0.8c-0.1,0-0.8-0.4-1.6-0.8c-2-0.8-4-1-4.3-1    c-0.4,0-2-0.1-4,0.2c-1.2,0.2-2.1,0.5-2.7,0.7c-0.6,0.2-1.6,0.5-2.9,1.2c-0.8,0.4-2.2,1.1-3.7,2.5c-0.5,0.5-1.5,1.4-2.5,2.8    c-0.5,0.7-1.2,1.9-1.7,3.5c-0.5,1.5-0.6,2.6-0.6,3.3c-0.2,2.3,0.1,4,0.2,4.6c0.2,0.8,0.5,2.3,1.4,4c0.3,0.7,0.9,1.6,1.9,2.7    c1.1,1.1,2.2,1.7,2.5,1.9c0.3,0.1,1.4,0.7,3.2,1c0.7,0.1,2.5,0.3,4.8-0.2c3.3-0.9,5.2-2.8,5.6-3.2c0.3-0.4,1.6-1.7,2.4-3.8    c0.4-1.1,0.9-2.9,0.8-5.1c-0.1-2.1-0.8-3.6-1.1-4.3c-0.3-0.7-1.3-2.5-3.2-4.1c-1.5-1.2-2.8-1.7-3.2-1.8c-1.4-0.5-2.5-0.6-2.7-0.6    c-0.6,0-2.2-0.1-4,0.6c-1.4,0.5-2.3,1.2-2.7,1.6c-0.3,0.2-1.6,1.3-2.7,3.1c-0.7,1.1-1,2-1.2,2.5c-0.3,0.8-0.4,1.6-0.5,2.2    c0-0.6,0.1-1.5,0.3-2.5c0.1-0.4,0.2-1,0.5-1.8c0.1-0.3,0.6-1.5,1.6-2.9c1.1-1.5,2.2-2.3,2.8-2.8c1.4-1.1,2.7-1.6,3.7-2    c0.8-0.3,2.1-0.9,4-1.2c0.6-0.1,1.5-0.3,2.7-0.2c1.9,0,3.4,0.5,4,0.7c0.9,0.3,2.4,0.9,4.1,2.2c0.7,0.6,1.6,1.4,2.5,2.5    c0.4,0.5,1.2,1.7,1.9,3.5c0.8,2.1,0.8,3.8,0.9,4.8c0,1.1,0,3.1-0.7,5.4c-0.8,2.7-2.2,4.5-2.9,5.4c-0.4,0.6-1.3,1.6-2.5,2.8    c-1.5,1.3-2.7,2.1-3,2.2c-1.9,1.1-3.5,1.5-4,1.7c-0.8,0.2-2.3,0.5-4.1,0.5c-3.4,0-5.9-1.1-7-1.6c-1.6-0.7-2.7-1.5-3.5-2.1    c-2-1.5-3.2-2.8-3.5-3.1c-0.9-1-1.6-2-2.1-2.7c-0.1-0.3-0.3-0.7-0.4-1.3c-0.3-1-0.5-1.8-0.5-2.2c-0.1-0.6-0.2-1-0.2-1.6    c0-0.3,0-0.4,0-1c0-0.7,0-1.2,0-1.4c0-1,0.2-2.5,0.6-3.8c0.5-1.6,1.1-2.8,1.4-3.3c1-1.8,2.1-2.9,2.9-3.8c1.4-1.4,2.5-2.3,3.7-3.1    c2.6-1.9,4.9-2.9,5.5-3.2c2.4-1.1,4.3-1.6,5.1-1.8c1.4-0.3,2.6-0.6,3.5-0.7c-0.9-0.8-1.8-1.6-2.7-2.5c-0.5,0-1.1,0.1-1.7,0.1    c-0.5,0.1-1.6,0.2-2.8,0.4c-0.7,0.1-2,0.4-3.5,1C39.6,6,37.9,6.6,36,8c-1.3,0.9-2.2,1.8-3,2.5c-2,1.9-3.2,3.6-3.6,4.1    c-1.2,1.7-1.8,3-2,3.3c-0.6,1.2-0.9,2.1-1,2.4c-0.3,1.1-0.5,1.9-0.6,2.5c-0.3,1.5-0.3,2.8-0.3,3.2c0,1.1,0.1,2,0.2,2.5    c0.1,0.4,0.2,1.4,0.7,2.7c0.3,0.9,0.8,2.1,1.6,3.4c-0.4-0.5-0.8-1.2-1.3-1.9c-0.5-0.9-0.9-1.6-1.1-2.1c-0.4-0.8-0.9-1.9-1.4-3.3    c-0.5-1.4-0.8-2.4-0.8-2.8c-0.2-0.7-0.4-1.6-0.5-2.7c0-0.4-0.2-1.8,0-3.6c0.1-1.8,0.5-3.2,0.7-3.7c0.5-1.6,1-2.7,1.2-3.1    c0.4-0.7,0.7-1.3,1-1.7C25,9.9,24.3,10.1,23.6,10.3z"/>
		<path class="st0" d="M38,8.4c0.4-0.3,1.2-0.7,2.2-1.1C41,7,41.6,6.8,42.4,6.6c0.3-0.1,1.1-0.3,2.2-0.5c0.8-0.1,1.8-0.3,3-0.3    c-0.4,0.1-0.9,0.2-1.4,0.4c-1.3,0.4-2.2,0.7-2.4,0.8c-1,0.3-1.7,0.7-2.3,0.9c-0.6,0.3-1.6,0.8-2.9,1.5c-0.4,0.2-1.3,0.8-2.5,1.6    c-1.3,0.9-2.2,1.7-2.6,2c-0.6,0.5-1.2,1-2,1.8c-1,1-1.6,1.8-1.7,2c-0.4,0.5-0.7,1-0.8,1.3c0.4-0.7,0.9-1.6,1.6-2.6    c0.6-0.9,1.1-1.5,1.6-2c0.5-0.6,1.3-1.5,2.6-2.6c1.2-1.1,2.1-1.7,2.4-1.9C37.5,8.7,37.8,8.5,38,8.4z"/>
		<path class="st2" d="M53.3,27.8c0,0.4-0.2,1.8-0.8,3.4c-0.2,0.6-0.8,1.8-1.9,3c-0.3,0.4-1.7,1.8-3.9,2.6c-2.9,1-5.3,0.5-5.8,0.4    c-0.6-0.1-1.9-0.5-3.3-1.5c-1.7-1.2-2.5-2.8-2.9-3.7c-0.4-0.8-0.6-1.4-0.7-1.9c0.3,0.7,0.8,1.7,1.7,2.8c0.4,0.5,1,1.2,1.9,1.8    c0.5,0.3,1.8,1.2,3.6,1.3c2.5,0.2,4.4-1,4.9-1.4c1.2-0.9,1.9-1.9,2.3-2.5c0.8-1.3,1.2-2.4,1.3-2.7c0.8-2.7,0.2-5,0.1-5.5    c-0.3-0.9-0.8-2.6-2.4-4c-0.4-0.4-1.5-1.3-3.1-1.6c-0.5-0.1-2-0.3-3.5,0.4c-1,0.5-1.5,0.8-2.1,1.4c-0.4,0.4-0.9,1-1.2,1.6    c-0.1,0.1-0.4,0.9-0.5,1.9c0,0.4-0.1,1.1,0.2,1.9c0.1,0.2,0.3,0.9,1,1.6c0.4,0.4,0.8,0.7,1.1,0.8c0.9,0.5,1.7,0.7,2.2,0.8    c0.2,0,0.9,0.1,1.7,0c0.6-0.1,1.1-0.1,1.6-0.5c0.2-0.1,0.5-0.3,0.7-0.7c0.2-0.5,0.2-0.9,0.1-1.1c-0.1-0.6-0.4-1.1-0.7-1.5    c-0.4-0.5-0.8-0.8-1.3-1.2c-0.4-0.3-0.8-0.6-1-0.7c-0.2,0.4-0.5,0.9-0.7,1.3c0.2,0.1,0.4,0.2,0.7,0.5c0.5,0.4,0.8,0.7,1,0.8    c0,0,0.3,0.4,0.6,0.9c0,0.1,0.1,0.2,0,0.3c-0.1,0.2-0.3,0.2-0.4,0.3c-0.8,0.2-1.3,0.2-1.3,0.2c-0.3,0-0.9,0-1.7-0.3    c-0.4-0.2-0.9-0.4-1.4-0.9c-0.2-0.2-0.6-0.6-0.7-1.3c-0.1-0.5-0.1-1,0-1.3c0.1-0.6,0.3-1.1,0.4-1.3c0.2-0.5,0.5-0.8,0.8-1.1    c0.2-0.2,0.7-0.6,1.3-0.9c0.3-0.2,1.1-0.6,2.3-0.6c0.2,0,1.2,0,2.3,0.6c1.3,0.7,1.9,1.8,2.2,2.4c0.5,0.9,0.6,1.7,0.7,2.2    c0.3,1.7,0.1,3.1,0,3.4c-0.1,0.6-0.5,2.5-2.1,4.1c-0.6,0.6-2.1,2.1-4.4,2.2c-2,0.1-3.4-1-3.9-1.3c-0.9-0.7-1.5-1.5-1.8-2.1    c-0.3-0.5-1-1.6-1.3-3c-0.5-2.2,0.2-4,0.5-4.9c0.2-0.6,0.8-2,2.1-3.3c0.7-0.7,2-2.2,4.3-2.8c2.3-0.6,4.3,0,5,0.3    c3.2,1.1,4.7,3.6,5.2,4.3c0.8,1.4,1.2,2.8,1.3,3.6C53.4,26.4,53.3,27.3,53.3,27.8z"/>
	</g>
</g>
<g id="字体1_白底">
	<g>
		<g>
			<path class="st3" d="M92.1,19.3v14.8h3.3c0.9,0,1.6,0.2,1.9,0.5c0.4,0.3,0.6,0.9,0.6,1.6c0,0.8-0.2,1.3-0.6,1.7     c-0.4,0.4-1,0.5-1.9,0.5H83.7c-0.9,0-1.6-0.2-1.9-0.5c-0.4-0.4-0.6-0.9-0.6-1.7s0.2-1.3,0.6-1.7c0.4-0.3,1-0.5,1.9-0.5H87V19.2     h-3.3c-0.9,0-1.6-0.2-1.9-0.5c-0.4-0.4-0.6-0.9-0.6-1.7s0.2-1.4,0.6-1.7c0.4-0.3,1-0.5,1.9-0.5h11.8c0.9,0,1.6,0.2,2,0.5     c0.4,0.3,0.6,0.9,0.6,1.7s-0.2,1.3-0.6,1.7c-0.4,0.4-1,0.5-1.9,0.5L92.1,19.3C92.1,19.2,92.1,19.3,92.1,19.3z"/>
			<path class="st3" d="M120.3,15.5c0.3-0.5,0.5-0.8,0.8-1c0.3-0.2,0.6-0.3,1-0.3c0.6,0,1.1,0.2,1.4,0.5s0.4,0.9,0.4,1.8l0.1,5.2     c0,0.9-0.2,1.5-0.5,1.8c-0.3,0.3-0.8,0.5-1.6,0.5c-0.6,0-1-0.2-1.3-0.4c-0.3-0.3-0.6-0.8-0.8-1.5c-0.4-1.3-0.9-2.2-1.7-2.7     c-0.8-0.5-1.8-0.8-3.1-0.8c-2,0-3.6,0.7-4.7,2.1c-1.1,1.4-1.6,3.4-1.6,6s0.6,4.6,1.7,6c1.1,1.4,2.7,2.1,4.7,2.1     c1.4,0,2.9-0.5,4.6-1.4c1.7-0.9,2.7-1.4,3.2-1.4c0.5,0,0.9,0.2,1.3,0.7c0.4,0.4,0.5,1,0.5,1.6c0,1.1-1,2.2-3.1,3.3     c-2,1-4.4,1.6-7,1.6c-3.5,0-6.3-1.1-8.4-3.4c-2.1-2.3-3.2-5.3-3.2-9c0-3.6,1.1-6.5,3.2-8.9c2.2-2.4,4.9-3.6,8.3-3.6     c0.9,0,1.9,0.1,2.8,0.3C118.2,14.7,119.3,15.1,120.3,15.5z"/>
			<path class="st3" d="M144.2,19.1H135v5.1h3.5v-0.3c0-0.7,0.2-1.3,0.5-1.7c0.3-0.4,0.8-0.6,1.5-0.6c0.6,0,1.1,0.2,1.5,0.5     c0.4,0.3,0.6,0.8,0.6,1.3c0,0.1,0,0.1,0,0.3c0,0.2,0,0.3,0,0.4v4.1c0,0.9-0.2,1.5-0.5,1.9s-0.8,0.6-1.6,0.6     c-0.7,0-1.2-0.2-1.5-0.5c-0.4-0.4-0.5-0.9-0.5-1.6v-0.4H135v5.9h9.3v-2.4c0-0.9,0.2-1.5,0.5-1.9c0.4-0.4,0.9-0.6,1.7-0.6     c0.7,0,1.3,0.2,1.6,0.6c0.3,0.4,0.5,1,0.5,1.9v4.8c0,0.7-0.2,1.2-0.4,1.4c-0.3,0.2-0.8,0.4-1.7,0.4h-16.3c-0.9,0-1.5-0.2-1.9-0.5     s-0.6-0.9-0.6-1.7c0-0.7,0.2-1.3,0.5-1.6c0.4-0.4,0.9-0.5,1.6-0.5h0.3V19.3h-0.3c-0.7,0-1.2-0.2-1.6-0.6     c-0.4-0.4-0.5-0.9-0.5-1.6c0-0.8,0.2-1.3,0.6-1.7c0.4-0.4,1-0.5,1.9-0.5h16.3c0.8,0,1.4,0.1,1.6,0.4c0.3,0.3,0.4,0.7,0.4,1.5v4.4     c0,0.9-0.2,1.6-0.5,1.9c-0.3,0.4-0.9,0.6-1.6,0.6c-0.8,0-1.3-0.2-1.7-0.6c-0.4-0.4-0.5-1-0.5-1.9v-2.1H144.2z"/>
			<path class="st3" d="M169.6,26c1.5,0.5,2.5,1.3,3.2,2.2c0.7,0.9,1,2.1,1,3.6c0,1.2-0.3,2.3-0.9,3.3s-1.4,1.8-2.5,2.5     c-0.6,0.4-1.4,0.6-2.1,0.8c-0.8,0.2-1.9,0.3-3.3,0.3h-1.7h-8.7c-0.9,0-1.5-0.2-1.9-0.5s-0.6-0.9-0.6-1.7c0-0.7,0.2-1.3,0.5-1.6     c0.4-0.4,0.9-0.5,1.6-0.5h0.4V19.3h-0.4c-0.7,0-1.2-0.2-1.6-0.6c-0.4-0.4-0.5-0.9-0.5-1.6c0-0.8,0.2-1.3,0.6-1.7     c0.4-0.4,1-0.5,1.9-0.5h9.1c2.8,0,4.9,0.5,6.4,1.6s2.2,2.7,2.2,4.8c0,1-0.2,1.9-0.7,2.7C171.2,24.8,170.5,25.4,169.6,26z      M159.5,19.1v5h2.7c1.6,0,2.8-0.2,3.4-0.6c0.7-0.4,1-1,1-1.9c0-0.9-0.3-1.5-0.9-1.9c-0.6-0.4-1.6-0.6-2.9-0.6L159.5,19.1     L159.5,19.1z M159.5,28.2v6.1h3c2.1,0,3.6-0.2,4.4-0.7c0.9-0.5,1.3-1.3,1.3-2.4c0-1.1-0.4-1.9-1.3-2.4c-0.8-0.5-2.2-0.7-4.3-0.7     L159.5,28.2L159.5,28.2z"/>
			<path class="st3" d="M192.4,27.6c0.4,0.2,0.7,0.6,1,1.1c0.1,0.1,0.1,0.2,0.2,0.2l3.2,5.1h0.2h0.4c0.8,0,1.4,0.2,1.7,0.5     c0.4,0.4,0.6,0.9,0.6,1.6c0,0.8-0.2,1.4-0.6,1.7c-0.4,0.4-1,0.5-1.9,0.5h-2.5c-0.9,0-1.6-0.4-2.1-1.1l-0.1-0.1l-4.9-7.5     c-0.2-0.3-0.4-0.5-0.6-0.7c-0.2-0.2-0.5-0.2-0.7-0.2h-1.9v5.3h0.3c0.7,0,1.3,0.2,1.6,0.5c0.4,0.4,0.5,0.9,0.5,1.6     c0,0.8-0.2,1.4-0.6,1.7c-0.4,0.3-1,0.5-1.9,0.5h-5.1c-0.9,0-1.5-0.2-1.9-0.5c-0.4-0.4-0.6-0.9-0.6-1.7c0-0.7,0.2-1.3,0.5-1.6     s0.9-0.5,1.6-0.5h0.3V19.3H179c-0.7,0-1.2-0.2-1.6-0.6s-0.6-0.9-0.6-1.6c0-0.8,0.2-1.3,0.6-1.7s1-0.5,1.9-0.5h9.2     c2.8,0,5,0.5,6.4,1.6c1.5,1.1,2.2,2.7,2.2,4.9c0,1.5-0.4,2.8-1.2,3.9C195,26.3,193.9,27.1,192.4,27.6z M184.2,19.1v5.6h2.7     c1.7,0,2.8-0.2,3.5-0.6c0.7-0.4,1-1.1,1-2.1s-0.3-1.7-0.9-2.1c-0.6-0.5-1.6-0.7-2.9-0.7L184.2,19.1L184.2,19.1z"/>
			<path class="st3" d="M217.6,19.1h-9.3v5.1h3.5v-0.3c0-0.7,0.2-1.3,0.5-1.7c0.4-0.4,0.8-0.6,1.5-0.6c0.6,0,1.1,0.2,1.5,0.5     c0.4,0.3,0.6,0.8,0.6,1.3c0,0.1,0,0.1,0,0.3c0,0.2,0,0.3,0,0.4v4.1c0,0.9-0.2,1.5-0.5,1.9s-0.8,0.6-1.6,0.6     c-0.7,0-1.2-0.2-1.5-0.5c-0.3-0.4-0.5-0.9-0.5-1.6v-0.4h-3.5v5.9h9.3v-2.4c0-0.9,0.2-1.5,0.5-1.9c0.4-0.4,0.9-0.6,1.7-0.6     c0.7,0,1.3,0.2,1.6,0.6c0.3,0.4,0.5,1,0.5,1.9v4.8c0,0.7-0.2,1.2-0.4,1.4c-0.3,0.2-0.8,0.4-1.7,0.4h-16.3c-0.9,0-1.5-0.2-1.9-0.5     c-0.4-0.4-0.6-0.9-0.6-1.7c0-0.7,0.2-1.3,0.5-1.6c0.4-0.4,0.9-0.5,1.6-0.5h0.3V19.3h-0.3c-0.7,0-1.2-0.2-1.6-0.6     c-0.4-0.4-0.5-0.9-0.5-1.6c0-0.8,0.2-1.3,0.6-1.7c0.4-0.4,1-0.5,1.9-0.5h16.3c0.8,0,1.4,0.1,1.6,0.4c0.3,0.3,0.4,0.7,0.4,1.5v4.4     c0,0.9-0.2,1.6-0.5,1.9c-0.3,0.4-0.9,0.6-1.6,0.6c-0.8,0-1.3-0.2-1.7-0.6c-0.4-0.4-0.5-1-0.5-1.9v-2.1H217.6z"/>
			<path class="st3" d="M246.4,34.1h0.3c0.7,0,1.3,0.2,1.6,0.5s0.6,0.9,0.6,1.6c0,0.8-0.2,1.4-0.6,1.7c-0.4,0.3-1,0.5-1.9,0.5h-6     c-0.9,0-1.6-0.2-1.9-0.5c-0.4-0.3-0.6-0.9-0.6-1.7c0-0.8,0.2-1.3,0.6-1.7s1-0.5,1.9-0.5h0.7l-0.8-2.4h-8.6l-0.8,2.4h0.7     c0.9,0,1.6,0.2,1.9,0.5c0.4,0.3,0.6,0.9,0.6,1.6c0,0.8-0.2,1.4-0.6,1.7c-0.4,0.4-1,0.5-1.9,0.5h-5.1c-0.9,0-1.6-0.2-1.9-0.5     s-0.6-0.9-0.6-1.7c0-0.7,0.2-1.3,0.6-1.6s0.9-0.5,1.6-0.5h0.3l5.3-14.8h-1.6c-0.9,0-1.6-0.2-1.9-0.5s-0.6-0.9-0.6-1.7     s0.2-1.4,0.6-1.7c0.4-0.4,1-0.5,1.9-0.5h7.5c1.2,0,2,0.6,2.5,1.9v0.1L246.4,34.1z M236,19.3l-2.9,8.4h5.7L236,19.3z"/>
			<path class="st3" d="M257.6,19.3v6l6.2-6.2c-0.7-0.1-1.1-0.3-1.5-0.6c-0.3-0.3-0.4-0.8-0.4-1.5c0-0.8,0.2-1.4,0.6-1.7     c0.4-0.4,1-0.5,1.9-0.5h4.9c0.9,0,1.6,0.2,1.9,0.5c0.4,0.4,0.6,0.9,0.6,1.7c0,0.7-0.2,1.3-0.6,1.6c-0.4,0.4-0.9,0.5-1.7,0.5H269     l-5.8,5.7c1.1,0.8,2,1.8,2.9,3.1c0.9,1.3,1.9,3.3,3.1,6h0.3h0.4c0.8,0,1.4,0.2,1.8,0.5c0.4,0.4,0.6,0.9,0.6,1.6     c0,0.8-0.2,1.4-0.6,1.7c-0.4,0.4-1,0.5-1.9,0.5h-2.5c-1.1,0-1.9-0.7-2.6-2.2c-0.1-0.3-0.2-0.5-0.3-0.6c-0.9-1.9-1.7-3.3-2.4-4.3     c-0.7-1-1.6-1.9-2.6-2.8l-1.9,1.8V34h0.3c0.7,0,1.3,0.2,1.6,0.5c0.4,0.4,0.6,0.9,0.6,1.6c0,0.8-0.2,1.4-0.6,1.7     c-0.4,0.4-1,0.5-1.9,0.5h-5.1c-0.9,0-1.6-0.2-1.9-0.5c-0.4-0.3-0.6-0.9-0.6-1.7c0-0.7,0.2-1.3,0.6-1.6s0.9-0.5,1.6-0.5h0.3V19.1     h-0.3c-0.7,0-1.3-0.2-1.6-0.6s-0.5-0.9-0.5-1.6c0-0.8,0.2-1.4,0.6-1.7c0.4-0.4,1-0.5,1.9-0.5h5.1c0.9,0,1.5,0.2,1.9,0.5     s0.6,0.9,0.6,1.7c0,0.7-0.2,1.3-0.6,1.6c-0.4,0.4-0.9,0.6-1.6,0.6h-0.4V19.3z"/>
			<path class="st3" d="M87.5,47.4h-5.2v2.9h2v-0.2c0-0.4,0.1-0.7,0.3-0.9c0.2-0.2,0.5-0.3,0.8-0.3c0.3,0,0.6,0.1,0.8,0.3     c0.2,0.2,0.3,0.4,0.3,0.7c0,0,0,0.1,0,0.2s0,0.2,0,0.3v2.3c0,0.5-0.1,0.8-0.3,1.1c-0.2,0.2-0.5,0.3-0.9,0.3     c-0.4,0-0.7-0.1-0.9-0.3c-0.2-0.2-0.3-0.5-0.3-0.9v-0.2h-2v3.3h5.2v-1.3c0-0.5,0.1-0.8,0.3-1.1c0.2-0.2,0.5-0.3,0.9-0.3     s0.7,0.1,0.9,0.3c0.2,0.2,0.3,0.6,0.3,1.1v2.7c0,0.4-0.1,0.7-0.3,0.8s-0.5,0.2-0.9,0.2h-9c-0.5,0-0.8-0.1-1-0.3     c-0.2-0.2-0.3-0.5-0.3-0.9s0.1-0.7,0.3-0.9c0.2-0.2,0.5-0.3,0.9-0.3h0.2v-8.4h-0.2c-0.4,0-0.7-0.1-0.9-0.3     c-0.2-0.2-0.3-0.5-0.3-0.9c0-0.4,0.1-0.7,0.3-0.9c0.2-0.2,0.6-0.3,1-0.3h9.2c0.5,0,0.8,0.1,0.9,0.2c0.2,0.2,0.3,0.4,0.3,0.8v2.5     c0,0.5-0.1,0.9-0.3,1.1c-0.2,0.2-0.5,0.3-0.9,0.3c-0.4,0-0.7-0.1-0.9-0.3c-0.2-0.2-0.3-0.6-0.3-1.1v-1.1L87.5,47.4L87.5,47.4z"/>
			<path class="st3" d="M100.1,58.2c-0.2,0.2-0.4,0.3-0.6,0.4c-0.2,0.1-0.4,0.1-0.6,0.1c-0.3,0-0.5-0.1-0.7-0.3     c-0.2-0.2-0.2-0.5-0.2-0.9v-1.5c0-0.5,0.1-0.8,0.3-1c0.2-0.2,0.5-0.3,0.8-0.3c0.4,0,0.8,0.2,1.1,0.6c0.2,0.2,0.3,0.4,0.4,0.5     c0.4,0.3,0.8,0.6,1.3,0.7c0.5,0.2,1,0.3,1.7,0.3c0.5,0,1-0.1,1.3-0.3c0.3-0.2,0.5-0.5,0.5-0.8c0-0.6-0.9-1-2.6-1.3     c-0.4-0.1-0.7-0.1-0.9-0.1c-1.3-0.2-2.2-0.5-2.9-1c-0.6-0.5-0.9-1.3-0.9-2.1c0-1,0.4-1.9,1.1-2.5c0.8-0.6,1.8-0.9,3.3-0.9     c0.5,0,1,0.1,1.5,0.1c0.5,0.1,1,0.2,1.6,0.4c0.2-0.2,0.3-0.3,0.5-0.4c0.2-0.1,0.4-0.2,0.6-0.2c0.3,0,0.5,0.1,0.7,0.3     c0.2,0.2,0.3,0.5,0.3,0.8V50c0,0.3-0.1,0.6-0.3,0.7c-0.2,0.2-0.4,0.3-0.7,0.3c-0.3,0-0.8-0.3-1.6-0.8s-1.5-0.8-2.2-0.8     c-0.6,0-1,0.1-1.4,0.3c-0.3,0.2-0.5,0.5-0.5,0.8c0,0.5,0.7,0.9,2,1c0.4,0.1,0.7,0.1,0.9,0.1c1.7,0.3,2.9,0.6,3.5,1.1     c0.6,0.5,0.9,1.2,0.9,2.2c0,1.1-0.4,2-1.3,2.6c-0.8,0.6-2,0.9-3.6,0.9c-0.6,0-1.1-0.1-1.7-0.1C101.2,58.4,100.6,58.3,100.1,58.2z     "/>
			<path class="st3" d="M125.2,48.5c0.1-0.3,0.2-0.5,0.4-0.7c0.2-0.2,0.4-0.2,0.7-0.2c0.4,0,0.7,0.1,0.9,0.4     c0.2,0.3,0.3,0.7,0.3,1.3v1.8c0,0.5-0.1,0.8-0.3,1c-0.2,0.2-0.5,0.3-0.9,0.3c-0.3,0-0.5-0.1-0.7-0.2c-0.2-0.1-0.4-0.4-0.6-0.7     c-0.3-0.5-0.7-0.9-1.2-1.1c-0.5-0.3-1.1-0.4-1.8-0.4c-0.9,0-1.6,0.3-2.1,0.8c-0.6,0.6-0.8,1.3-0.8,2.2c0,0.9,0.3,1.7,0.9,2.2     c0.6,0.6,1.4,0.8,2.3,0.8c0.9,0,1.8-0.3,2.6-0.7c0.9-0.5,1.4-0.7,1.6-0.7c0.3,0,0.5,0.1,0.7,0.3c0.2,0.2,0.3,0.5,0.3,0.8     c0,0.7-0.5,1.3-1.6,1.9c-1.1,0.6-2.4,0.8-3.8,0.8c-1.8,0-3.3-0.5-4.4-1.5s-1.7-2.4-1.7-3.9s0.6-2.9,1.7-3.9     c1.1-1,2.6-1.6,4.2-1.6c0.6,0,1.1,0.1,1.7,0.2C124.1,48,124.7,48.3,125.2,48.5z"/>
			<path class="st3" d="M145.3,55.9h0.2c0.4,0,0.7,0.1,0.9,0.3c0.2,0.2,0.3,0.5,0.3,0.9s-0.1,0.7-0.3,0.9c-0.2,0.2-0.6,0.3-1.1,0.3     h-1c-0.4,0-0.6-0.1-0.8-0.2c-0.2-0.2-0.3-0.4-0.5-0.8c-0.6,0.4-1.3,0.7-2,0.9c-0.7,0.2-1.4,0.3-2.1,0.3c-1.2,0-2.1-0.3-2.8-0.9     c-0.7-0.6-1-1.4-1-2.5c0-1.1,0.5-2,1.4-2.6c0.9-0.6,2.1-0.9,3.8-0.9c0.4,0,0.7,0,1.1,0.1c0.4,0.1,0.8,0.1,1.4,0.2v-0.2     c0-0.7-0.2-1.2-0.5-1.5c-0.3-0.4-0.8-0.5-1.5-0.5c-0.5,0-1.1,0.2-1.9,0.6c-0.8,0.4-1.3,0.6-1.7,0.6s-0.6-0.1-0.8-0.3     c-0.2-0.2-0.3-0.5-0.3-0.8c0-0.6,0.4-1.1,1.3-1.5c0.9-0.4,2.1-0.5,3.6-0.5c1.6,0,2.7,0.3,3.4,0.9c0.7,0.6,1,1.7,1,3.1v4.1     L145.3,55.9L145.3,55.9z M142.6,53.7c-0.4-0.1-0.7-0.2-1-0.2c-0.3-0.1-0.6-0.1-0.9-0.1c-0.8,0-1.5,0.2-1.9,0.4S138,54.5,138,55     c0,0.4,0.2,0.8,0.5,1s0.7,0.4,1.3,0.4c0.5,0,1-0.1,1.5-0.2c0.5-0.2,0.9-0.4,1.4-0.7L142.6,53.7L142.6,53.7z"/>
			<path class="st3" d="M157.4,57.3v3h1.4c0.5,0,0.9,0.1,1.1,0.3c0.2,0.2,0.3,0.5,0.3,0.9s-0.1,0.7-0.3,0.9     c-0.2,0.2-0.6,0.3-1.1,0.3H154c-0.5,0-0.9-0.1-1.1-0.3c-0.2-0.2-0.3-0.5-0.3-0.9c0-0.4,0.1-0.8,0.3-0.9c0.2-0.2,0.6-0.3,1.1-0.3     h0.7v-9.9h-0.2c-0.4,0-0.7-0.1-0.9-0.3c-0.2-0.2-0.3-0.5-0.3-0.9c0-0.4,0.1-0.7,0.3-0.9c0.2-0.2,0.6-0.3,1.1-0.3h1.7     c0.2,0,0.4,0.1,0.5,0.1c0.1,0.1,0.2,0.2,0.2,0.4v0.8c0.4-0.5,0.8-0.9,1.4-1.1c0.5-0.3,1.1-0.4,1.8-0.4c1.5,0,2.8,0.5,3.8,1.5     c1,1,1.5,2.2,1.5,3.7c0,1.6-0.5,2.8-1.5,3.9c-1,1-2.2,1.5-3.7,1.5c-0.6,0-1.1-0.1-1.7-0.3S157.8,57.6,157.4,57.3z M160,50.1     c-0.7,0-1.4,0.3-1.8,0.8c-0.5,0.5-0.7,1.3-0.7,2.1s0.3,1.6,0.7,2.1s1.1,0.8,1.8,0.8c0.7,0,1.4-0.3,1.8-0.8     c0.5-0.6,0.7-1.3,0.7-2.1s-0.3-1.6-0.7-2.1C161.3,50.4,160.7,50.1,160,50.1z"/>
			<path class="st3" d="M175.3,53.8c0.2,0.8,0.6,1.5,1.1,1.9c0.6,0.4,1.3,0.6,2.2,0.6c0.9,0,1.8-0.2,2.8-0.7     c0.9-0.5,1.5-0.7,1.6-0.7c0.3,0,0.5,0.1,0.7,0.3c0.2,0.2,0.3,0.5,0.3,0.8c0,0.7-0.5,1.3-1.6,1.8c-1,0.5-2.4,0.8-3.9,0.8     c-1.8,0-3.3-0.5-4.4-1.5c-1.1-1-1.7-2.4-1.7-3.9c0-1.6,0.6-2.9,1.7-3.9c1.1-1,2.6-1.5,4.4-1.5c1.6,0,3,0.5,4,1.4     c1,0.9,1.6,2.1,1.6,3.5c0,0.4-0.1,0.7-0.3,0.9c-0.2,0.2-0.6,0.3-1.3,0.3L175.3,53.8L175.3,53.8z M181.3,52     c-0.1-0.7-0.5-1.3-1-1.6s-1.2-0.6-2-0.6c-0.8,0-1.5,0.2-2,0.5s-0.8,0.9-1,1.6L181.3,52L181.3,52z"/>
			<path class="st3" d="M211.9,52.2c0.2,0.1,0.4,0.3,0.6,0.6c0.1,0.1,0.1,0.1,0.1,0.1l1.8,2.9h0.1h0.2c0.4,0,0.8,0.1,1,0.3     c0.2,0.2,0.3,0.5,0.3,0.9c0,0.4-0.1,0.8-0.3,0.9c-0.2,0.2-0.6,0.3-1.1,0.3h-1.4c-0.5,0-0.9-0.2-1.2-0.7H212l-2.8-4.2     c-0.1-0.2-0.2-0.3-0.4-0.4c-0.2-0.1-0.3-0.1-0.4-0.1h-1v3h0.2c0.4,0,0.7,0.1,0.9,0.3c0.2,0.2,0.3,0.5,0.3,0.9     c0,0.4-0.1,0.8-0.3,0.9c-0.2,0.2-0.6,0.3-1.1,0.3h-2.9c-0.5,0-0.8-0.1-1.1-0.3c-0.2-0.2-0.3-0.5-0.3-0.9c0-0.4,0.1-0.7,0.3-0.9     c0.2-0.2,0.5-0.3,0.9-0.3h0.2v-8.4h-0.2c-0.4,0-0.7-0.1-0.9-0.3c-0.2-0.2-0.3-0.5-0.3-0.9c0-0.4,0.1-0.7,0.3-0.9     c0.2-0.2,0.6-0.3,1.1-0.3h5.2c1.6,0,2.8,0.3,3.6,0.9c0.8,0.6,1.2,1.5,1.2,2.7c0,0.8-0.2,1.6-0.7,2.2     C213.4,51.5,212.8,51.9,211.9,52.2z M207.3,47.4v3.2h1.5c0.9,0,1.6-0.1,2-0.4c0.4-0.3,0.6-0.6,0.6-1.2c0-0.6-0.2-1-0.5-1.2     c-0.4-0.3-0.9-0.4-1.6-0.4L207.3,47.4L207.3,47.4z"/>
			<path class="st3" d="M227.9,47.7c1.8,0,3.3,0.5,4.4,1.5c1.1,1,1.7,2.3,1.7,3.9c0,1.6-0.6,2.9-1.7,3.9c-1.1,1-2.6,1.5-4.4,1.5     c-1.8,0-3.3-0.5-4.4-1.5c-1.1-1-1.7-2.4-1.7-3.9c0-1.6,0.6-2.9,1.7-3.9C224.6,48.2,226.1,47.7,227.9,47.7z M227.9,50.1     c-0.9,0-1.6,0.3-2.1,0.8c-0.5,0.6-0.8,1.3-0.8,2.2c0,0.9,0.3,1.6,0.8,2.2c0.6,0.6,1.3,0.9,2.1,0.9c0.8,0,1.6-0.3,2.1-0.9     c0.6-0.6,0.8-1.3,0.8-2.2c0-0.9-0.3-1.6-0.8-2.2S228.8,50.1,227.9,50.1z"/>
			<path class="st3" d="M246.7,47.7c1.8,0,3.3,0.5,4.4,1.5c1.1,1,1.7,2.3,1.7,3.9c0,1.6-0.6,2.9-1.7,3.9c-1.1,1-2.6,1.5-4.4,1.5     s-3.3-0.5-4.4-1.5c-1.1-1-1.7-2.4-1.7-3.9c0-1.6,0.6-2.9,1.7-3.9C243.4,48.2,244.9,47.7,246.7,47.7z M246.7,50.1     c-0.9,0-1.6,0.3-2.1,0.8c-0.6,0.6-0.8,1.3-0.8,2.2c0,0.9,0.3,1.6,0.8,2.2c0.6,0.6,1.3,0.9,2.1,0.9s1.6-0.3,2.1-0.9     c0.6-0.6,0.8-1.3,0.8-2.2c0-0.9-0.3-1.6-0.8-2.2C248.4,50.4,247.6,50.1,246.7,50.1z"/>
			<path class="st3" d="M266.3,48.7c0.3-0.3,0.7-0.6,1.1-0.8c0.4-0.2,0.8-0.3,1.3-0.3c1,0,1.8,0.3,2.2,0.9c0.5,0.6,0.7,1.6,0.7,3     v4.2h0.2c0.4,0,0.6,0.1,0.8,0.3c0.2,0.2,0.3,0.5,0.3,0.9c0,0.5-0.1,0.8-0.3,0.9c-0.2,0.2-0.5,0.3-0.9,0.3h-1.9     c-0.2,0-0.4-0.1-0.5-0.1c-0.1-0.1-0.2-0.2-0.2-0.4v-6.3c0-0.5-0.1-0.9-0.3-1.1c-0.2-0.2-0.4-0.4-0.7-0.4c-0.4,0-0.7,0.2-0.9,0.5     c-0.2,0.3-0.3,0.8-0.3,1.4v3.9h0.2c0.4,0,0.6,0.1,0.8,0.3c0.2,0.2,0.3,0.5,0.3,0.9c0,0.5-0.1,0.8-0.3,0.9     c-0.2,0.2-0.5,0.3-0.9,0.3h-1.9c-0.2,0-0.4-0.1-0.5-0.1c-0.1-0.1-0.2-0.2-0.2-0.4v-6.3c0-0.5-0.1-0.9-0.2-1.1     c-0.2-0.3-0.4-0.4-0.7-0.4c-0.4,0-0.7,0.2-0.9,0.5s-0.3,0.8-0.3,1.4v3.9h0.2c0.4,0,0.6,0.1,0.8,0.3c0.2,0.2,0.3,0.5,0.3,0.9     c0,0.5-0.1,0.8-0.3,0.9c-0.2,0.2-0.5,0.3-0.9,0.3h-2.5c-0.4,0-0.7-0.1-0.9-0.3c-0.2-0.2-0.3-0.5-0.3-0.9c0-0.4,0.1-0.7,0.3-0.9     s0.4-0.3,0.8-0.3h0.2v-5.3h-0.2c-0.4,0-0.6-0.1-0.8-0.3c-0.2-0.2-0.3-0.5-0.3-0.9s0.1-0.7,0.3-0.9c0.2-0.2,0.5-0.3,0.9-0.3h1.5     c0.3,0,0.5,0.1,0.6,0.2c0.1,0.1,0.2,0.4,0.2,0.7c0.3-0.4,0.6-0.7,1-0.9s0.8-0.3,1.3-0.3c0.4,0,0.8,0.1,1.1,0.3     C265.8,48.1,266,48.4,266.3,48.7z"/>
		</g>
		<g>
			<path class="st2" d="M91.2,17.9v14.8h3.3c0.9,0,1.6,0.2,1.9,0.5c0.4,0.3,0.6,0.9,0.6,1.6c0,0.8-0.2,1.3-0.6,1.7     c-0.4,0.4-1,0.5-1.9,0.5H82.7c-0.9,0-1.6-0.2-1.9-0.5c-0.4-0.4-0.6-0.9-0.6-1.7c0-0.8,0.2-1.3,0.6-1.7c0.4-0.3,1-0.5,1.9-0.5h3.3     V17.8h-3.3c-0.9,0-1.6-0.2-1.9-0.5c-0.4-0.4-0.6-0.9-0.6-1.7s0.2-1.4,0.6-1.7c0.4-0.3,1-0.5,1.9-0.5h11.8c0.9,0,1.6,0.2,2,0.5     c0.4,0.3,0.6,0.9,0.6,1.7s-0.2,1.3-0.6,1.7c-0.4,0.4-1,0.5-1.9,0.5L91.2,17.9C91.2,17.8,91.2,17.9,91.2,17.9z"/>
			<path class="st2" d="M119.3,14.1c0.3-0.5,0.5-0.8,0.8-1c0.3-0.2,0.6-0.3,1-0.3c0.6,0,1.1,0.2,1.4,0.5c0.3,0.4,0.4,0.9,0.4,1.8     l0.1,5.2c0,0.9-0.2,1.5-0.5,1.8c-0.3,0.3-0.8,0.5-1.6,0.5c-0.6,0-1-0.2-1.3-0.4c-0.3-0.3-0.6-0.8-0.8-1.5     c-0.4-1.3-0.9-2.2-1.7-2.7c-0.8-0.5-1.8-0.8-3.1-0.8c-2,0-3.6,0.7-4.7,2.1c-1.1,1.4-1.6,3.4-1.6,6s0.6,4.6,1.7,6     c1.1,1.4,2.7,2.1,4.7,2.1c1.4,0,2.9-0.5,4.6-1.4c1.7-0.9,2.7-1.4,3.2-1.4c0.5,0,0.9,0.2,1.3,0.7c0.4,0.4,0.5,1,0.5,1.6     c0,1.1-1,2.2-3.1,3.3c-2,1-4.4,1.6-7,1.6c-3.5,0-6.3-1.1-8.4-3.4c-2.1-2.3-3.2-5.3-3.2-9c0-3.6,1.1-6.5,3.2-8.9     c2.2-2.4,4.9-3.6,8.3-3.6c0.9,0,1.9,0.1,2.8,0.3C117.2,13.3,118.3,13.7,119.3,14.1z"/>
			<path class="st2" d="M143.3,17.7H134v5.1h3.5v-0.3c0-0.7,0.2-1.3,0.5-1.7c0.3-0.4,0.8-0.6,1.5-0.6c0.6,0,1.1,0.2,1.5,0.5     c0.4,0.3,0.6,0.8,0.6,1.3c0,0.1,0,0.1,0,0.3c0,0.2,0,0.3,0,0.4v4.1c0,0.9-0.2,1.5-0.5,1.9c-0.3,0.4-0.8,0.6-1.6,0.6     c-0.7,0-1.2-0.2-1.5-0.5c-0.4-0.4-0.5-0.9-0.5-1.6v-0.4H134v6h9.2v-2.4c0-0.9,0.2-1.5,0.5-1.9s0.9-0.6,1.7-0.6     c0.7,0,1.3,0.2,1.6,0.6c0.3,0.4,0.5,1,0.5,1.9v4.8c0,0.7-0.2,1.2-0.4,1.4c-0.3,0.2-0.8,0.4-1.7,0.4h-16.3c-0.9,0-1.5-0.2-1.9-0.5     c-0.4-0.4-0.6-0.9-0.6-1.7c0-0.7,0.2-1.3,0.5-1.6c0.4-0.4,0.9-0.5,1.6-0.5h0.3V17.9h-0.3c-0.7,0-1.2-0.2-1.6-0.6     c-0.4-0.4-0.5-0.9-0.5-1.6c0-0.8,0.2-1.3,0.6-1.7c0.4-0.4,1-0.5,1.9-0.5h16.3c0.8,0,1.4,0.1,1.6,0.4c0.3,0.3,0.4,0.7,0.4,1.5v4.4     c0,0.9-0.2,1.6-0.5,1.9c-0.3,0.4-0.9,0.6-1.6,0.6c-0.8,0-1.3-0.2-1.7-0.6c-0.4-0.4-0.5-1-0.5-1.9v-2.1H143.3z"/>
			<path class="st2" d="M168.7,24.5c1.5,0.5,2.5,1.3,3.2,2.2c0.7,0.9,1,2.1,1,3.6c0,1.2-0.3,2.3-0.9,3.3s-1.4,1.8-2.5,2.5     c-0.6,0.4-1.4,0.6-2.1,0.8c-0.8,0.2-1.9,0.3-3.3,0.3h-1.7h-8.7c-0.9,0-1.5-0.2-1.9-0.5c-0.4-0.4-0.6-0.9-0.6-1.7     c0-0.7,0.2-1.3,0.5-1.6s0.9-0.5,1.6-0.5h0.4V17.9h-0.4c-0.7,0-1.2-0.2-1.6-0.6s-0.5-0.9-0.5-1.6c0-0.8,0.2-1.3,0.6-1.7     c0.4-0.4,1-0.5,1.9-0.5h9.1c2.8,0,4.9,0.5,6.4,1.6s2.2,2.7,2.2,4.8c0,1-0.2,1.9-0.7,2.7C170.2,23.4,169.6,24,168.7,24.5z      M158.6,17.8v5h2.7c1.6,0,2.8-0.2,3.4-0.6c0.7-0.4,1-1,1-1.9s-0.3-1.5-0.9-1.9c-0.6-0.4-1.6-0.6-2.9-0.6L158.6,17.8L158.6,17.8z      M158.6,26.7v6.1h3c2.1,0,3.6-0.2,4.4-0.7c0.9-0.5,1.3-1.3,1.3-2.4s-0.4-1.9-1.3-2.4c-0.8-0.5-2.2-0.7-4.3-0.7L158.6,26.7     L158.6,26.7z"/>
			<path class="st2" d="M191.4,26.2c0.4,0.2,0.7,0.6,1,1.1c0.1,0.1,0.1,0.2,0.2,0.2l3.2,5.1h0.2h0.4c0.8,0,1.4,0.2,1.7,0.5     c0.4,0.4,0.6,0.9,0.6,1.6c0,0.8-0.2,1.4-0.6,1.7c-0.4,0.4-1,0.5-1.9,0.5h-2.4c-0.9,0-1.6-0.4-2.1-1.1l-0.1-0.1l-4.9-7.5     c-0.2-0.3-0.4-0.5-0.6-0.7c-0.2-0.2-0.5-0.2-0.7-0.2h-1.9v5.3h0.3c0.7,0,1.3,0.2,1.6,0.5c0.4,0.4,0.5,0.9,0.5,1.6     c0,0.8-0.2,1.4-0.6,1.7c-0.4,0.4-1,0.5-1.9,0.5h-5.1c-0.9,0-1.5-0.2-1.9-0.5c-0.4-0.4-0.6-0.9-0.6-1.7c0-0.7,0.2-1.3,0.5-1.6     c0.4-0.4,0.9-0.5,1.6-0.5h0.3V17.9h-0.3c-0.7,0-1.2-0.2-1.6-0.6s-0.6-0.9-0.6-1.6c0-0.8,0.2-1.3,0.6-1.7s1-0.5,1.9-0.5h9.2     c2.8,0,5,0.5,6.4,1.6c1.5,1.1,2.2,2.7,2.2,4.9c0,1.5-0.4,2.8-1.2,3.9C194.1,24.9,193,25.7,191.4,26.2z M183.3,17.8v5.6h2.7     c1.7,0,2.8-0.2,3.5-0.6c0.7-0.4,1-1.1,1-2.1s-0.3-1.7-0.9-2.1c-0.6-0.5-1.6-0.7-2.9-0.7L183.3,17.8L183.3,17.8z"/>
			<path class="st2" d="M216.6,17.7h-9.3v5.1h3.5v-0.3c0-0.7,0.2-1.3,0.5-1.7c0.4-0.4,0.8-0.6,1.5-0.6c0.6,0,1.1,0.2,1.5,0.5     c0.4,0.3,0.6,0.8,0.6,1.3c0,0.1,0,0.1,0,0.3c0,0.2,0,0.3,0,0.4v4.1c0,0.9-0.2,1.5-0.5,1.9s-0.8,0.6-1.6,0.6     c-0.7,0-1.2-0.2-1.5-0.5c-0.4-0.4-0.5-0.9-0.5-1.6v-0.4h-3.5v6h9.3v-2.4c0-0.9,0.2-1.5,0.5-1.9c0.3-0.4,0.9-0.6,1.7-0.6     c0.7,0,1.3,0.2,1.6,0.6s0.5,1,0.5,1.9v4.8c0,0.7-0.2,1.2-0.4,1.4c-0.3,0.2-0.8,0.4-1.7,0.4h-16.3c-0.9,0-1.5-0.2-1.9-0.5     c-0.4-0.4-0.6-0.9-0.6-1.7c0-0.7,0.2-1.3,0.5-1.6c0.4-0.4,0.9-0.5,1.6-0.5h0.3V17.9h-0.3c-0.7,0-1.2-0.2-1.6-0.6     c-0.4-0.4-0.5-0.9-0.5-1.6c0-0.8,0.2-1.3,0.6-1.7c0.4-0.4,1-0.5,1.9-0.5h16.3c0.8,0,1.4,0.1,1.6,0.4c0.3,0.3,0.4,0.7,0.4,1.5v4.4     c0,0.9-0.2,1.6-0.5,1.9c-0.3,0.4-0.9,0.6-1.6,0.6c-0.8,0-1.3-0.2-1.7-0.6c-0.3-0.4-0.5-1-0.5-1.9L216.6,17.7L216.6,17.7z"/>
			<path class="st2" d="M245.4,32.7h0.3c0.7,0,1.3,0.2,1.6,0.5c0.4,0.4,0.6,0.9,0.6,1.6c0,0.8-0.2,1.4-0.6,1.7     c-0.4,0.3-1,0.5-1.9,0.5h-6c-0.9,0-1.6-0.2-1.9-0.5c-0.4-0.3-0.6-0.9-0.6-1.7c0-0.8,0.2-1.3,0.6-1.7c0.4-0.4,1-0.5,1.9-0.5h0.7     l-0.8-2.4h-8.6l-0.8,2.4h0.7c0.9,0,1.6,0.2,1.9,0.5c0.4,0.3,0.6,0.9,0.6,1.6c0,0.8-0.2,1.4-0.6,1.7c-0.4,0.4-1,0.5-1.9,0.5h-5.1     c-0.9,0-1.6-0.2-1.9-0.5s-0.6-0.9-0.6-1.7c0-0.7,0.2-1.3,0.6-1.6c0.4-0.4,0.9-0.5,1.6-0.5h0.3l5.3-14.8h-1.6     c-0.9,0-1.6-0.2-1.9-0.5s-0.6-0.9-0.6-1.7c0-0.8,0.2-1.4,0.6-1.7c0.4-0.4,1-0.5,1.9-0.5h7.5c1.2,0,2,0.6,2.5,1.9v0.1L245.4,32.7z      M235,17.9l-2.9,8.4h5.7L235,17.9z"/>
			<path class="st2" d="M256.6,17.9v6l6.2-6.2c-0.7-0.1-1.1-0.3-1.5-0.6c-0.3-0.3-0.4-0.8-0.4-1.5c0-0.8,0.2-1.4,0.6-1.7     c0.4-0.4,1-0.5,1.9-0.5h4.9c0.9,0,1.6,0.2,1.9,0.5s0.6,0.9,0.6,1.7c0,0.7-0.2,1.3-0.6,1.6s-0.9,0.5-1.7,0.5h-0.5l-5.8,5.7     c1.1,0.8,2,1.8,2.9,3.1s1.9,3.3,3.1,6h0.3h0.4c0.8,0,1.4,0.2,1.8,0.5c0.4,0.4,0.6,0.9,0.6,1.6c0,0.8-0.2,1.4-0.6,1.7     c-0.4,0.4-1,0.5-1.9,0.5h-2.5c-1.1,0-1.9-0.7-2.6-2.2c-0.1-0.3-0.2-0.5-0.3-0.6c-0.9-1.9-1.7-3.3-2.4-4.3c-0.7-1-1.6-1.9-2.6-2.8     l-1.9,1.8v3.7h0.3c0.7,0,1.3,0.2,1.6,0.5c0.4,0.4,0.6,0.9,0.6,1.6c0,0.8-0.2,1.4-0.6,1.7c-0.4,0.4-1,0.5-1.9,0.5h-5.1     c-0.9,0-1.6-0.2-1.9-0.5c-0.4-0.3-0.6-0.9-0.6-1.7c0-0.7,0.2-1.3,0.6-1.6s0.9-0.5,1.6-0.5h0.3V17.7h-0.3c-0.7,0-1.3-0.2-1.6-0.6     s-0.5-0.9-0.5-1.6c0-0.8,0.2-1.4,0.6-1.7c0.4-0.4,1-0.5,1.9-0.5h5.1c0.9,0,1.5,0.2,1.9,0.5c0.4,0.4,0.6,0.9,0.6,1.7     c0,0.7-0.2,1.3-0.6,1.6c-0.4,0.4-0.9,0.6-1.6,0.6h-0.4L256.6,17.9L256.6,17.9z"/>
			<path class="st2" d="M86.6,46h-5.2v2.9h2v-0.2c0-0.4,0.1-0.7,0.3-0.9c0.2-0.2,0.5-0.3,0.8-0.3c0.3,0,0.6,0.1,0.8,0.3     c0.2,0.2,0.3,0.4,0.3,0.7c0,0,0,0.1,0,0.2c0,0.1,0,0.2,0,0.3v2.3c0,0.5-0.1,0.8-0.3,1.1c-0.2,0.2-0.5,0.3-0.9,0.3     c-0.4,0-0.7-0.1-0.9-0.3c-0.2-0.2-0.3-0.5-0.3-0.9v-0.2h-2v3.3h5.2v-1.4c0-0.5,0.1-0.8,0.3-1.1c0.2-0.2,0.5-0.3,0.9-0.3     s0.7,0.1,0.9,0.3c0.2,0.2,0.3,0.6,0.3,1.1v2.7c0,0.4-0.1,0.7-0.3,0.8s-0.5,0.2-0.9,0.2h-9.1c-0.5,0-0.8-0.1-1-0.3     c-0.2-0.2-0.3-0.5-0.3-0.9c0-0.4,0.1-0.7,0.3-0.9c0.2-0.2,0.5-0.3,0.9-0.3h0.2V46h-0.2c-0.4,0-0.7-0.1-0.9-0.3     c-0.2-0.2-0.3-0.5-0.3-0.9s0.1-0.7,0.3-0.9c0.2-0.2,0.6-0.3,1-0.3h9.2c0.5,0,0.8,0.1,0.9,0.2c0.2,0.2,0.3,0.4,0.3,0.8v2.5     c0,0.5-0.1,0.9-0.3,1.1c-0.2,0.2-0.5,0.3-0.9,0.3c-0.4,0-0.7-0.1-0.9-0.3c-0.2-0.2-0.3-0.6-0.3-1.1L86.6,46L86.6,46L86.6,46z"/>
			<path class="st2" d="M99.1,56.8c-0.2,0.2-0.4,0.3-0.6,0.4c-0.2,0.1-0.4,0.1-0.6,0.1c-0.3,0-0.5-0.1-0.7-0.3     c-0.2-0.2-0.2-0.5-0.2-0.9v-1.5c0-0.5,0.1-0.8,0.3-1c0.2-0.2,0.5-0.3,0.8-0.3c0.4,0,0.8,0.2,1.1,0.6c0.2,0.2,0.3,0.4,0.4,0.5     c0.4,0.3,0.8,0.6,1.3,0.7c0.5,0.2,1,0.3,1.7,0.3c0.5,0,1-0.1,1.3-0.3c0.3-0.2,0.5-0.5,0.5-0.8c0-0.6-0.9-1-2.6-1.3     c-0.4-0.1-0.7-0.1-0.9-0.1c-1.3-0.2-2.2-0.5-2.9-1c-0.6-0.5-0.9-1.3-0.9-2.1c0-1,0.4-1.9,1.1-2.5c0.8-0.6,1.8-0.9,3.3-0.9     c0.5,0,1,0.1,1.5,0.1c0.5,0.1,1,0.2,1.6,0.4c0.2-0.2,0.3-0.3,0.5-0.4c0.2-0.1,0.4-0.2,0.6-0.2c0.3,0,0.5,0.1,0.7,0.3     c0.2,0.2,0.3,0.5,0.3,0.8v1.4c0,0.3-0.1,0.6-0.3,0.7c-0.2,0.2-0.4,0.3-0.7,0.3c-0.3,0-0.8-0.3-1.6-0.8s-1.5-0.8-2.2-0.8     c-0.6,0-1,0.1-1.4,0.3c-0.3,0.2-0.5,0.5-0.5,0.8c0,0.5,0.7,0.9,2,1c0.4,0.1,0.7,0.1,0.9,0.1c1.7,0.3,2.9,0.6,3.5,1.1     c0.6,0.5,0.9,1.2,0.9,2.2c0,1.1-0.4,2-1.3,2.6c-0.8,0.6-2,0.9-3.6,0.9c-0.6,0-1.1-0.1-1.7-0.1C100.2,57.1,99.7,56.9,99.1,56.8z"/>
			<path class="st2" d="M124.3,47.2c0.1-0.3,0.2-0.5,0.4-0.7s0.4-0.2,0.7-0.2c0.4,0,0.7,0.1,0.9,0.4c0.2,0.3,0.3,0.7,0.3,1.3v1.8     c0,0.5-0.1,0.8-0.3,1c-0.2,0.2-0.5,0.3-0.9,0.3c-0.3,0-0.5-0.1-0.7-0.2c-0.2-0.1-0.4-0.4-0.6-0.7c-0.3-0.5-0.7-0.9-1.2-1.1     c-0.5-0.3-1.1-0.4-1.8-0.4c-0.9,0-1.6,0.3-2.1,0.8c-0.6,0.6-0.8,1.3-0.8,2.2c0,0.9,0.3,1.7,0.9,2.2c0.6,0.6,1.4,0.8,2.3,0.8     c0.9,0,1.8-0.3,2.6-0.7c0.9-0.5,1.4-0.7,1.6-0.7c0.3,0,0.5,0.1,0.7,0.3c0.2,0.2,0.3,0.5,0.3,0.8c0,0.7-0.5,1.3-1.6,1.9     c-1.1,0.6-2.4,0.8-3.8,0.8c-1.8,0-3.3-0.5-4.4-1.5c-1.1-1-1.7-2.4-1.7-3.9c0-1.6,0.6-2.9,1.7-3.9c1.1-1,2.6-1.6,4.2-1.6     c0.6,0,1.1,0.1,1.7,0.2C123.2,46.7,123.7,46.9,124.3,47.2z"/>
			<path class="st2" d="M144.3,54.5h0.2c0.4,0,0.7,0.1,0.9,0.3c0.2,0.2,0.3,0.5,0.3,0.9c0,0.4-0.1,0.7-0.3,0.9     c-0.2,0.2-0.6,0.3-1.1,0.3h-1c-0.4,0-0.6-0.1-0.8-0.2c-0.2-0.2-0.3-0.4-0.5-0.8c-0.6,0.4-1.3,0.7-2,0.9c-0.7,0.2-1.4,0.3-2.1,0.3     c-1.2,0-2.1-0.3-2.8-0.9c-0.7-0.6-1-1.4-1-2.5c0-1.1,0.5-2,1.4-2.6c0.9-0.6,2.1-0.9,3.8-0.9c0.4,0,0.7,0,1.1,0.1     c0.4,0.1,0.8,0.1,1.4,0.2v-0.2c0-0.7-0.2-1.2-0.5-1.5c-0.3-0.4-0.8-0.5-1.5-0.5c-0.5,0-1.1,0.2-1.9,0.6c-0.8,0.4-1.3,0.6-1.7,0.6     c-0.4,0-0.6-0.1-0.8-0.3c-0.2-0.2-0.3-0.5-0.3-0.8c0-0.6,0.4-1.1,1.3-1.5c0.9-0.4,2.1-0.5,3.6-0.5c1.6,0,2.7,0.3,3.4,0.9     c0.7,0.6,1,1.7,1,3.1v4.1L144.3,54.5L144.3,54.5z M141.6,52.3c-0.4-0.1-0.7-0.2-1-0.2c-0.3-0.1-0.6-0.1-0.9-0.1     c-0.8,0-1.5,0.2-1.9,0.4c-0.5,0.3-0.7,0.7-0.7,1.1c0,0.4,0.2,0.8,0.5,1c0.3,0.2,0.7,0.4,1.3,0.4c0.5,0,1-0.1,1.5-0.2     c0.5-0.2,0.9-0.4,1.4-0.7L141.6,52.3L141.6,52.3z"/>
			<path class="st2" d="M156.4,55.9v3h1.4c0.5,0,0.9,0.1,1.1,0.3c0.2,0.2,0.3,0.5,0.3,0.9c0,0.4-0.1,0.7-0.3,0.9     c-0.2,0.2-0.6,0.3-1.1,0.3h-4.8c-0.5,0-0.9-0.1-1.1-0.3c-0.2-0.2-0.3-0.5-0.3-0.9c0-0.4,0.1-0.8,0.3-0.9c0.2-0.2,0.6-0.3,1.1-0.3     h0.7V49h-0.2c-0.4,0-0.7-0.1-0.9-0.3c-0.2-0.2-0.3-0.5-0.3-0.9c0-0.4,0.1-0.7,0.3-0.9c0.2-0.2,0.6-0.3,1.1-0.3h1.7     c0.2,0,0.4,0.1,0.5,0.1c0.1,0.1,0.2,0.2,0.2,0.4v0.8c0.4-0.5,0.8-0.9,1.4-1.1c0.5-0.3,1.1-0.4,1.8-0.4c1.5,0,2.8,0.5,3.8,1.5     c1,1,1.5,2.2,1.5,3.7c0,1.6-0.5,2.8-1.5,3.9c-1,1-2.2,1.5-3.7,1.5c-0.6,0-1.1-0.1-1.7-0.3C157.3,56.4,156.8,56.2,156.4,55.9z      M159,48.7c-0.7,0-1.4,0.3-1.8,0.8c-0.5,0.5-0.7,1.3-0.7,2.1s0.3,1.6,0.7,2.1s1.1,0.8,1.8,0.8c0.7,0,1.4-0.3,1.8-0.8     s0.7-1.3,0.7-2.1s-0.3-1.6-0.7-2.1C160.4,49,159.8,48.7,159,48.7z"/>
			<path class="st2" d="M174.3,52.4c0.2,0.8,0.6,1.5,1.1,1.9c0.6,0.4,1.3,0.6,2.2,0.6c0.9,0,1.8-0.2,2.8-0.7     c0.9-0.5,1.5-0.7,1.6-0.7c0.3,0,0.5,0.1,0.7,0.3c0.2,0.2,0.3,0.5,0.3,0.8c0,0.7-0.5,1.3-1.6,1.8c-1,0.5-2.4,0.8-3.9,0.8     c-1.8,0-3.3-0.5-4.4-1.5c-1.1-1-1.7-2.4-1.7-3.9c0-1.6,0.6-2.9,1.7-3.9c1.1-1,2.6-1.5,4.4-1.5c1.6,0,3,0.5,4,1.4     c1,0.9,1.6,2.1,1.6,3.5c0,0.4-0.1,0.7-0.3,0.9c-0.2,0.2-0.6,0.3-1.3,0.3L174.3,52.4L174.3,52.4z M180.4,50.7     c-0.1-0.7-0.5-1.3-1-1.6s-1.2-0.6-2-0.6s-1.5,0.2-2,0.5s-0.8,0.9-1,1.6L180.4,50.7L180.4,50.7z"/>
			<path class="st2" d="M210.9,50.8c0.2,0.1,0.4,0.3,0.6,0.6c0.1,0.1,0.1,0.1,0.1,0.1l1.8,2.9h0.1h0.2c0.4,0,0.8,0.1,1,0.3     c0.2,0.2,0.3,0.5,0.3,0.9c0,0.4-0.1,0.8-0.3,0.9c-0.2,0.2-0.6,0.3-1.1,0.3h-1.4c-0.5,0-0.9-0.2-1.2-0.7H211l-2.8-4.2     c-0.1-0.2-0.2-0.3-0.4-0.4c-0.2-0.1-0.3-0.1-0.4-0.1h-1v3h0.2c0.4,0,0.7,0.1,0.9,0.3c0.2,0.2,0.3,0.5,0.3,0.9     c0,0.4-0.1,0.8-0.3,0.9c-0.2,0.2-0.6,0.3-1.1,0.3h-2.9c-0.5,0-0.8-0.1-1.1-0.3c-0.2-0.2-0.3-0.5-0.3-0.9c0-0.4,0.1-0.7,0.3-0.9     c0.2-0.2,0.5-0.3,0.9-0.3h0.2v-8.4h-0.2c-0.4,0-0.7-0.1-0.9-0.3c-0.2-0.2-0.3-0.5-0.3-0.9s0.1-0.7,0.3-0.9     c0.2-0.2,0.6-0.3,1.1-0.3h5.2c1.6,0,2.8,0.3,3.6,0.9c0.8,0.6,1.2,1.5,1.2,2.7c0,0.8-0.2,1.6-0.7,2.2     C212.4,50.1,211.8,50.5,210.9,50.8z M206.3,46v3.2h1.5c0.9,0,1.6-0.1,2-0.4c0.4-0.3,0.6-0.6,0.6-1.2c0-0.6-0.2-1-0.5-1.2     c-0.4-0.3-0.9-0.4-1.6-0.4L206.3,46L206.3,46z"/>
			<path class="st2" d="M227,46.3c1.8,0,3.3,0.5,4.4,1.5c1.1,1,1.7,2.3,1.7,3.9s-0.6,2.9-1.7,3.9c-1.1,1-2.6,1.5-4.4,1.5     c-1.8,0-3.3-0.5-4.4-1.5c-1.1-1-1.7-2.4-1.7-3.9c0-1.6,0.6-2.9,1.7-3.9C223.7,46.8,225.1,46.3,227,46.3z M227,48.7     c-0.9,0-1.6,0.3-2.1,0.8c-0.5,0.6-0.8,1.3-0.8,2.2c0,0.9,0.3,1.6,0.8,2.2c0.6,0.6,1.3,0.9,2.1,0.9c0.8,0,1.6-0.3,2.1-0.9     c0.6-0.6,0.8-1.3,0.8-2.2c0-0.9-0.3-1.6-0.8-2.2S227.9,48.7,227,48.7z"/>
			<path class="st2" d="M245.8,46.3c1.8,0,3.3,0.5,4.4,1.5c1.1,1,1.7,2.3,1.7,3.9s-0.6,2.9-1.7,3.9c-1.1,1-2.6,1.5-4.4,1.5     s-3.3-0.5-4.4-1.5c-1.1-1-1.7-2.4-1.7-3.9c0-1.6,0.6-2.9,1.7-3.9C242.5,46.8,244,46.3,245.8,46.3z M245.8,48.7     c-0.9,0-1.6,0.3-2.1,0.8c-0.6,0.6-0.8,1.3-0.8,2.2c0,0.9,0.3,1.6,0.8,2.2c0.6,0.6,1.3,0.9,2.1,0.9s1.6-0.3,2.1-0.9     c0.6-0.6,0.8-1.3,0.8-2.2c0-0.9-0.3-1.6-0.8-2.2C247.4,49,246.7,48.7,245.8,48.7z"/>
			<path class="st2" d="M265.3,47.3c0.3-0.3,0.7-0.6,1.1-0.8c0.4-0.2,0.8-0.3,1.3-0.3c1,0,1.8,0.3,2.2,0.9c0.5,0.6,0.7,1.6,0.7,3     v4.2h0.2c0.4,0,0.6,0.1,0.8,0.3c0.2,0.2,0.3,0.5,0.3,0.9c0,0.5-0.1,0.8-0.3,0.9c-0.2,0.2-0.5,0.3-0.9,0.3h-1.9     c-0.2,0-0.4-0.1-0.5-0.1c-0.1-0.1-0.2-0.2-0.2-0.4v-6.3c0-0.5-0.1-0.9-0.3-1.1c-0.2-0.2-0.4-0.4-0.7-0.4c-0.4,0-0.7,0.2-0.9,0.5     c-0.2,0.3-0.3,0.8-0.3,1.4v3.9h0.2c0.4,0,0.6,0.1,0.8,0.3c0.2,0.2,0.3,0.5,0.3,0.9c0,0.5-0.1,0.8-0.3,0.9     c-0.2,0.2-0.5,0.3-0.9,0.3h-1.9c-0.2,0-0.4-0.1-0.5-0.1c-0.1-0.1-0.2-0.2-0.2-0.4v-6.3c0-0.5-0.1-0.9-0.2-1.1     c-0.2-0.3-0.4-0.4-0.7-0.4c-0.4,0-0.7,0.2-0.9,0.5c-0.2,0.4-0.3,0.8-0.3,1.4v3.9h0.2c0.4,0,0.6,0.1,0.8,0.3     c0.2,0.2,0.3,0.5,0.3,0.9c0,0.5-0.1,0.8-0.3,0.9c-0.2,0.2-0.5,0.3-0.9,0.3h-2.6c-0.4,0-0.7-0.1-0.9-0.3c-0.2-0.2-0.3-0.5-0.3-0.9     c0-0.4,0.1-0.7,0.3-0.9s0.4-0.3,0.8-0.3h0.2V49h-0.2c-0.4,0-0.6-0.1-0.8-0.3c-0.2-0.2-0.3-0.5-0.3-0.9c0-0.4,0.1-0.7,0.3-0.9     c0.2-0.2,0.5-0.3,0.9-0.3h1.5c0.3,0,0.5,0.1,0.6,0.2c0.1,0.1,0.2,0.4,0.2,0.7c0.3-0.4,0.6-0.7,1-0.9s0.8-0.3,1.3-0.3     c0.4,0,0.8,0.1,1.1,0.3C264.8,46.7,265.1,47,265.3,47.3z"/>
		</g>
	</g>
</g>
</svg>