<?xml version="1.0" encoding="utf-8"?>
<!-- Generator: Adobe Illustrator 25.2.3, SVG Export Plug-In . SVG Version: 6.00 Build 0)  -->
<svg version="1.1" xmlns="http://www.w3.org/2000/svg" xmlns:xlink="http://www.w3.org/1999/xlink" x="0px" y="0px"
	 viewBox="0 0 75 71" style="enable-background:new 0 0 75 71;" xml:space="preserve">
<style type="text/css">
	.st0{fill:#8B151A;}
	.st1{fill:#9F1F24;}
	.st2{opacity:0.5;}
	.st3{fill:#9F1F24;stroke:#F8F8F8;}
	.st4{fill:none;stroke:#FFFFFF;}
	.st5{fill:url(#SVGID_1_);}
	.st6{fill:url(#SVGID_2_);}
	.st7{fill:url(#SVGID_3_);}
	.st8{fill:url(#SVGID_4_);}
	.st9{fill:url(#SVGID_5_);}
	.st10{fill:url(#SVGID_6_);}
	.st11{fill:#FFC93E;}
	.st12{fill:#ECAB28;stroke:#ECAB28;stroke-miterlimit:10;}
	.st13{font-family:'ArialRoundedMTBold';}
	.st14{font-size:15.5249px;}
</style>
<g id="图层_1">
	<path class="st0" d="M62,35c0,13.25-10.75,24-24,24S14,48.25,14,35c0-5.99,2.19-11.46,5.82-15.67C24.22,14.23,30.73,11,38,11
		C51.25,11,62,21.75,62,35z"/>
	<g>
		<path class="st1" d="M44.47,6.83l-6.32,4.73c-0.29,0.22-0.68,0.26-1.01,0.11l-5.56-2.54c-0.46-0.21-1-0.05-1.27,0.38l-3.3,5.3
			c-0.23,0.37-0.66,0.54-1.08,0.44L16.51,13c-0.73-0.17-1.39,0.49-1.2,1.22l2.8,11.1c0.14,0.53-0.19,1.08-0.72,1.21l-1.98,0.5
			c-0.62,0.16-0.93,0.84-0.65,1.41l1.92,3.9c0.18,0.36,0.12,0.8-0.15,1.1l-7.47,8.46c-0.49,0.56-0.23,1.43,0.49,1.63l11.64,3.17
			c0.53,0.14,0.84,0.69,0.7,1.22l-1.14,4.39c-0.17,0.65,0.34,1.28,1.01,1.25l5.63-0.26c0.37-0.02,0.72,0.17,0.91,0.5l3.66,6.3
			c0.28,0.49,0.92,0.65,1.4,0.34l10.18-6.39c0.39-0.25,0.91-0.19,1.24,0.14l2.57,2.55c0.49,0.49,1.32,0.34,1.61-0.29l1.49-3.18
			c0.19-0.41,0.63-0.64,1.08-0.56l9.71,1.69c0.74,0.13,1.35-0.57,1.13-1.28l-3.34-10.74c-0.17-0.55,0.16-1.13,0.72-1.27l3.36-0.8
			c0.7-0.17,1-0.99,0.57-1.57l-3.78-5.13c-0.29-0.39-0.25-0.93,0.08-1.28l5.91-6.28c0.51-0.54,0.27-1.43-0.44-1.64l-9.05-2.7
			c-0.59-0.18-0.88-0.84-0.61-1.4l1.33-2.71c0.29-0.58-0.05-1.27-0.68-1.42l-7.53-1.7c-0.34-0.08-0.62-0.33-0.73-0.66l-2.17-6.52
			C45.8,6.67,45.02,6.42,44.47,6.83z"/>
	</g>
	<g class="st2">
		<path class="st3" d="M52.47,21.78l0.05,0.06l0.06,0.04l8.54,5.47l-4.88,11.33l-0.04,0.09l0,0.1l-0.19,11.3L44.1,52.08l-0.07,0.01
			l-0.07,0.03l-10.35,5.04l-6.22-7.81l-0.04-0.05l-0.06-0.04L16.3,41.38l4.89-11.35l0.04-0.09l0-0.1l0.19-11.28l11.08-1.13l0.1-0.01
			l0.09-0.04l11.16-5.84L52.47,21.78z"/>
		<path class="st3" d="M48,25.78l0.05,0.06l0.06,0.04l5.73,3.7l-3.29,7.69l-0.04,0.09l0,0.1l-0.13,7.66l-8.02,1.3l-0.07,0.01
			l-0.07,0.03l-6.96,3.42l-4.18-5.28l-0.04-0.05l-0.06-0.04l-7.42-5.37l3.3-7.71l0.04-0.09l0-0.1l0.13-7.64l7.44-0.77l0.1-0.01
			l0.09-0.05l7.52-3.97L48,25.78z"/>
		<path class="st3" d="M43.53,29.78l0.05,0.06l0.06,0.04l2.93,1.93l-1.7,4.06l-0.04,0.09l0,0.1l-0.07,4.03l-4.13,0.68l-0.07,0.01
			l-0.07,0.03l-3.58,1.79l-2.13-2.75l-0.04-0.05l-0.06-0.04l-3.86-2.85l1.71-4.08l0.04-0.09l0-0.1l0.07-4l3.8-0.4l0.1-0.01
			l0.09-0.05l3.88-2.09L43.53,29.78z"/>
		<path class="st4" d="M38.71,34.76L44.77,9.3 M38.71,34.76l25.05-8.89 M38.71,34.76l21.42,18.18 M38.71,34.76L33.46,58.2
			 M38.71,34.76l-25.86,7.68 M38.71,34.76l-19.4-18.59"/>
	</g>
	
		<linearGradient id="SVGID_1_" gradientUnits="userSpaceOnUse" x1="34.2672" y1="15.8219" x2="34.2672" y2="13.3972" gradientTransform="matrix(1 0 0 -1 0 72)">
		<stop  offset="0" style="stop-color:#9F1F24;stop-opacity:0"/>
		<stop  offset="0.8229" style="stop-color:#9F1F24"/>
	</linearGradient>
	<rect x="32.25" y="56.18" class="st5" width="4.04" height="2.42"/>
	
		<linearGradient id="SVGID_2_" gradientUnits="userSpaceOnUse" x1="-1326.5254" y1="-133.3744" x2="-1326.5254" y2="-138.2238" gradientTransform="matrix(-0.2588 -0.9659 -0.9659 0.2588 -412.1201 -1219.7217)">
		<stop  offset="0" style="stop-color:#9F1F24;stop-opacity:0"/>
		<stop  offset="0.8229" style="stop-color:#9F1F24"/>
	</linearGradient>
	<polygon class="st6" points="60.35,28.25 59.73,25.91 64.41,24.66 65.04,27 	"/>
	
		<linearGradient id="SVGID_3_" gradientUnits="userSpaceOnUse" x1="-1565.9803" y1="735.7159" x2="-1565.9803" y2="733.1494" gradientTransform="matrix(-0.9659 -0.2588 -0.2588 0.9659 -1278.2711 -1104.4174)">
		<stop  offset="0" style="stop-color:#9F1F24;stop-opacity:0"/>
		<stop  offset="0.8229" style="stop-color:#9F1F24"/>
	</linearGradient>
	<polygon class="st7" points="45.43,11.94 42.44,11.14 43.1,8.66 46.09,9.46 	"/>
	
		<linearGradient id="SVGID_4_" gradientUnits="userSpaceOnUse" x1="-962.6794" y1="1350.3827" x2="-962.6794" y2="1345.5333" gradientTransform="matrix(-0.7071 0.7071 0.7071 0.7071 -1613.5601 -254.8653)">
		<stop  offset="0" style="stop-color:#9F1F24;stop-opacity:0"/>
		<stop  offset="0.8229" style="stop-color:#9F1F24"/>
	</linearGradient>
	<polygon class="st8" points="22.92,18.39 21.13,20.18 17.7,16.75 19.49,14.96 	"/>
	
		<linearGradient id="SVGID_5_" gradientUnits="userSpaceOnUse" x1="-479.4345" y1="-387.3895" x2="-479.4345" y2="-392.2388" gradientTransform="matrix(0.7071 -0.7071 -0.7071 -0.7071 122.4361 -563.1757)">
		<stop  offset="0" style="stop-color:#9F1F24;stop-opacity:0"/>
		<stop  offset="0.8229" style="stop-color:#9F1F24"/>
	</linearGradient>
	<polygon class="st9" points="56.49,50.62 58.21,48.9 61.64,52.33 59.92,54.05 	"/>
	
		<linearGradient id="SVGID_6_" gradientUnits="userSpaceOnUse" x1="-117.5673" y1="1097.9142" x2="-117.5673" y2="1093.0649" gradientTransform="matrix(0.2588 0.9659 0.9659 -0.2588 -1013.2311 438.8797)">
		<stop  offset="0" style="stop-color:#9F1F24;stop-opacity:0"/>
		<stop  offset="0.8229" style="stop-color:#9F1F24"/>
	</linearGradient>
	<polygon class="st10" points="16.32,39.21 17.37,43.11 12.68,44.36 11.64,40.46 	"/>
	<g>
		<path class="st11" d="M30.71,27.96c0.22,0.05,0.38,0.14,0.5,0.29c0.11,0.13,0.14,0.32,0.09,0.56l-0.15,0.69
			c-0.05,0.24-0.16,0.4-0.32,0.49c-0.16,0.09-0.35,0.11-0.57,0.06l-0.23-0.05l-1.72,8.09c-0.05,0.23-0.17,0.4-0.35,0.51
			c-0.18,0.12-0.38,0.15-0.59,0.1l-1.17-0.25c-0.11-0.02-0.22-0.07-0.31-0.15c-0.08-0.07-0.15-0.16-0.19-0.27l-2.57-7.17l-0.97,4.55
			l0.25,0.05c0.22,0.05,0.38,0.14,0.5,0.29s0.14,0.34,0.09,0.58l-0.15,0.69c-0.05,0.24-0.16,0.4-0.32,0.49
			c-0.16,0.08-0.35,0.09-0.57,0.04L19.38,37c-0.23-0.05-0.4-0.14-0.51-0.27c-0.11-0.14-0.14-0.34-0.09-0.58l0.15-0.69
			c0.05-0.24,0.16-0.4,0.32-0.49c0.16-0.09,0.35-0.1,0.58-0.06l0.23,0.05l1.44-6.79l-0.23-0.05c-0.23-0.05-0.4-0.15-0.51-0.29
			c-0.11-0.14-0.14-0.34-0.09-0.58l0.15-0.69c0.05-0.24,0.16-0.4,0.31-0.47c0.16-0.09,0.35-0.1,0.58-0.06l2.18,0.46
			c0.24,0.05,0.41,0.19,0.5,0.42l2.57,7.15l0.96-4.54l-0.23-0.05c-0.22-0.05-0.39-0.14-0.51-0.29c-0.11-0.14-0.14-0.34-0.09-0.58
			l0.15-0.69c0.05-0.24,0.16-0.4,0.31-0.47c0.17-0.08,0.37-0.1,0.58-0.06L30.71,27.96z M39.22,37.21c0.24,0.05,0.4,0.16,0.47,0.31
			c0.09,0.16,0.1,0.35,0.06,0.58l-0.47,2.19c-0.06,0.26-0.19,0.46-0.4,0.59c-0.2,0.13-0.44,0.17-0.71,0.11l-6.9-1.47
			c-0.23-0.05-0.4-0.14-0.51-0.27c-0.11-0.14-0.14-0.34-0.09-0.58l0.15-0.69c0.05-0.24,0.16-0.4,0.32-0.49s0.35-0.1,0.58-0.06
			l0.23,0.05l1.44-6.79l-0.23-0.05c-0.23-0.05-0.4-0.14-0.51-0.29c-0.11-0.14-0.14-0.34-0.09-0.58l0.15-0.69
			c0.05-0.24,0.16-0.4,0.31-0.47c0.16-0.09,0.35-0.1,0.58-0.06l6.81,1.45c0.27,0.06,0.47,0.19,0.6,0.41
			c0.14,0.2,0.18,0.44,0.13,0.71l-0.41,1.91c-0.05,0.23-0.15,0.4-0.29,0.51c-0.13,0.11-0.32,0.14-0.56,0.09l-0.69-0.15
			c-0.46-0.1-0.64-0.4-0.53-0.9l0.16-0.75l-2.93-0.62l-0.46,2.18l2.28,0.49c0.22,0.05,0.39,0.16,0.5,0.34
			c0.11,0.18,0.15,0.38,0.1,0.59l-0.11,0.53c-0.05,0.22-0.16,0.39-0.34,0.5c-0.18,0.12-0.38,0.15-0.59,0.1L35,35.48l-0.54,2.55
			l3,0.64l0.21-1c0.05-0.23,0.14-0.4,0.29-0.51c0.14-0.11,0.34-0.14,0.58-0.09L39.22,37.21z M57.64,33.68
			c0.23,0.05,0.4,0.15,0.51,0.29c0.11,0.13,0.14,0.32,0.09,0.56l-0.15,0.69c-0.05,0.24-0.16,0.4-0.32,0.49
			c-0.16,0.09-0.35,0.1-0.58,0.06l-0.23-0.05l-3.98,7.86c-0.08,0.16-0.2,0.27-0.37,0.35c-0.17,0.06-0.34,0.08-0.52,0.04l-1.22-0.26
			c-0.19-0.04-0.34-0.12-0.47-0.25c-0.11-0.13-0.18-0.29-0.2-0.47l-0.58-5.96l-2.96,5.21c-0.09,0.16-0.22,0.27-0.38,0.34
			c-0.17,0.06-0.34,0.07-0.53,0.03l-1.24-0.26c-0.18-0.04-0.33-0.12-0.46-0.24c-0.12-0.14-0.19-0.29-0.2-0.47l-0.44-8.8l-0.23-0.05
			c-0.22-0.05-0.38-0.14-0.5-0.29c-0.11-0.14-0.14-0.34-0.09-0.58l0.15-0.69c0.05-0.24,0.16-0.4,0.31-0.47
			c0.16-0.09,0.35-0.11,0.57-0.06l3.02,0.64c0.22,0.05,0.38,0.14,0.5,0.29c0.11,0.13,0.14,0.32,0.09,0.56l-0.15,0.69
			c-0.05,0.24-0.16,0.4-0.32,0.49c-0.16,0.09-0.35,0.11-0.57,0.06l-0.23-0.05l0.22,5.64l2.82-4.95c0.09-0.16,0.2-0.27,0.35-0.33
			c0.15-0.08,0.3-0.1,0.47-0.06l1.39,0.3c0.16,0.03,0.29,0.12,0.39,0.25c0.11,0.12,0.17,0.27,0.18,0.45l0.56,5.6l2.47-5l-0.23-0.05
			c-0.23-0.05-0.4-0.15-0.51-0.29c-0.11-0.14-0.14-0.34-0.09-0.58l0.15-0.69c0.05-0.24,0.16-0.4,0.31-0.47
			c0.16-0.09,0.35-0.1,0.58-0.06L57.64,33.68z"/>
		<path class="st1" d="M31.2,28.24l-2.37,1.84l0.04,0.06l0.05,0.05L31.2,28.24z M30.83,29.98l1.42,2.64l0,0L30.83,29.98z
			 M30.03,29.99l0.62-2.93l-2.93-0.62l-0.62,2.93L30.03,29.99z M27.96,38.6l-1.55-2.57l-0.04,0.03l-0.04,0.03L27.96,38.6z
			 M25.88,38.3l-1.97,2.26l0.05,0.04l0.05,0.04L25.88,38.3z M25.69,38.03l-2.82,1.01l0.02,0.05l0.02,0.05L25.69,38.03z M23.12,30.86
			l2.82-1.01l-3.56-9.95l-2.2,10.34L23.12,30.86z M22.16,35.42l-2.93-0.62l-0.62,2.93l2.93,0.62L22.16,35.42z M22.9,35.75
			l-2.37,1.84l0,0L22.9,35.75z M22.53,37.51l1.29,2.71l0.06-0.03l0.06-0.03L22.53,37.51z M18.87,36.73l-2.37,1.84l0.04,0.06
			l0.05,0.05L18.87,36.73z M19.24,34.98l-1.42-2.64l0,0L19.24,34.98z M20.06,34.97l-0.62,2.93l2.93,0.62l0.62-2.93L20.06,34.97z
			 M21.5,28.18l2.93,0.62l0.62-2.93l-2.93-0.62L21.5,28.18z M20.76,27.84l-2.37,1.84l0,0L20.76,27.84z M21.13,26.1l1.29,2.71
			l0.06-0.03l0.06-0.03L21.13,26.1z M24.39,26.93l2.82-1.01l-0.02-0.06l-0.03-0.06L24.39,26.93z M26.95,34.08l-2.82,1.01l3.56,9.93
			l2.19-10.32L26.95,34.08z M27.92,29.54l2.93,0.62l0.62-2.93l-2.93-0.62L27.92,29.54z M27.17,29.2l-2.37,1.84l0.03,0.04l0.03,0.04
			L27.17,29.2z M27.54,27.47l1.29,2.71l0.01-0.01l0.01-0.01L27.54,27.47z M30.08,30.89c-0.31-0.07-0.83-0.27-1.25-0.81l4.74-3.67
			c-0.64-0.83-1.5-1.22-2.24-1.38L30.08,30.89z M28.92,30.19c-0.71-0.83-0.62-1.73-0.56-2.01l5.87,1.25
			c0.16-0.76,0.19-2.03-0.74-3.13L28.92,30.19z M28.36,28.18l-0.15,0.69l5.87,1.25l0.15-0.69L28.36,28.18z M28.22,28.87
			c0.06-0.3,0.33-1.07,1.2-1.53l2.84,5.29c1.19-0.64,1.67-1.72,1.83-2.51L28.22,28.87z M29.42,27.34c0.6-0.32,1.17-0.3,1.47-0.23
			l-1.25,5.87c0.75,0.16,1.69,0.14,2.61-0.35L29.42,27.34z M30.89,27.11l-0.23-0.05l-1.25,5.87l0.23,0.05L30.89,27.11z M27.1,29.37
			l-1.72,8.09l5.87,1.25l1.72-8.09L27.1,29.37z M25.38,37.46c0.05-0.22,0.15-0.5,0.34-0.78c0.2-0.28,0.44-0.5,0.69-0.65l3.09,5.14
			c0.96-0.57,1.53-1.48,1.74-2.46L25.38,37.46z M26.32,36.08c0.23-0.15,0.52-0.27,0.84-0.33c0.32-0.05,0.6-0.03,0.82,0.01
			l-1.25,5.87c0.94,0.2,1.96,0.06,2.85-0.52L26.32,36.08z M27.99,35.76l-1.17-0.25l-1.25,5.87l1.17,0.25L27.99,35.76z M26.81,35.51
			c0.35,0.07,0.67,0.23,0.93,0.44l-3.74,4.69c0.45,0.36,0.98,0.61,1.56,0.74L26.81,35.51z M27.85,36.04c0.3,0.26,0.5,0.57,0.63,0.88
			l-5.58,2.22c0.21,0.53,0.54,1.02,1.01,1.42L27.85,36.04z M28.51,37.02l-2.57-7.17l-5.65,2.02l2.57,7.17L28.51,37.02z M20.19,30.24
			l-0.97,4.55l5.87,1.25l0.97-4.55L20.19,30.24z M21.53,38.35l0.25,0.05l1.25-5.87l-0.25-0.05L21.53,38.35z M21.78,38.4
			c-0.31-0.07-0.83-0.27-1.25-0.81l4.74-3.67c-0.64-0.83-1.5-1.22-2.24-1.38L21.78,38.4z M20.53,37.59
			c-0.6-0.78-0.54-1.58-0.47-1.89l5.87,1.25c0.17-0.78,0.17-1.97-0.65-3.04L20.53,37.59z M20.06,35.71l-0.15,0.69l5.87,1.25
			l0.15-0.69L20.06,35.71z M19.91,36.39c0.06-0.3,0.33-1.07,1.2-1.53l2.84,5.29c1.19-0.64,1.67-1.72,1.83-2.51L19.91,36.39z
			 M21.23,34.8c0.59-0.28,1.11-0.24,1.35-0.18l-1.25,5.87c0.68,0.15,1.58,0.16,2.48-0.27L21.23,34.8z M22.59,34.62L20,34.07
			l-1.25,5.87l2.58,0.55L22.59,34.62z M20,34.07c0.2,0.04,0.7,0.2,1.15,0.72l-4.57,3.89c0.67,0.78,1.52,1.12,2.17,1.26L20,34.07z
			 M21.24,34.89c0.6,0.78,0.54,1.58,0.47,1.89l-5.87-1.25c-0.17,0.78-0.17,1.97,0.65,3.04L21.24,34.89z M21.71,36.78l0.15-0.69
			l-5.87-1.25l-0.15,0.69L21.71,36.78z M21.86,36.09c-0.06,0.3-0.33,1.07-1.2,1.53l-2.84-5.29c-1.19,0.64-1.67,1.72-1.83,2.51
			L21.86,36.09z M20.66,37.62c-0.63,0.34-1.2,0.29-1.46,0.24l1.25-5.87c-0.72-0.15-1.68-0.16-2.63,0.35L20.66,37.62z M19.2,37.85
			l0.23,0.05l1.25-5.87l-0.23-0.05L19.2,37.85z M22.99,35.59l1.44-6.79l-5.87-1.25l-1.44,6.79L22.99,35.59z M22.13,25.24l-0.23-0.05
			l-1.25,5.87l0.23,0.05L22.13,25.24z M21.89,25.19c0.26,0.05,0.8,0.24,1.24,0.81l-4.74,3.67c0.66,0.85,1.54,1.23,2.26,1.39
			L21.89,25.19z M23.13,26c0.6,0.78,0.54,1.58,0.47,1.89l-5.87-1.25c-0.17,0.78-0.17,1.97,0.65,3.04L23.13,26z M23.6,27.89
			l0.15-0.69l-5.87-1.25l-0.15,0.69L23.6,27.89z M23.75,27.2c-0.06,0.28-0.34,1.14-1.33,1.61l-2.59-5.41
			c-1.3,0.62-1.79,1.79-1.95,2.56L23.75,27.2z M22.54,28.75c-0.63,0.34-1.2,0.29-1.46,0.24l1.25-5.87
			c-0.72-0.15-1.68-0.16-2.63,0.35L22.54,28.75z M21.09,28.98l2.18,0.46l1.25-5.87l-2.18-0.46L21.09,28.98z M23.26,29.44
			c-0.29-0.06-0.65-0.21-0.99-0.49c-0.34-0.28-0.54-0.61-0.66-0.89l5.55-2.28c-0.47-1.14-1.44-1.95-2.65-2.21L23.26,29.44z
			 M21.56,27.94l2.57,7.15l5.65-2.03l-2.57-7.15L21.56,27.94z M29.89,34.7l0.96-4.54l-5.87-1.25l-0.96,4.54L29.89,34.7z
			 M28.54,26.61l-0.23-0.05l-1.25,5.87l0.23,0.05L28.54,26.61z M28.31,26.56c0.32,0.07,0.79,0.26,1.17,0.72l-4.61,3.84
			c0.63,0.75,1.44,1.14,2.19,1.3L28.31,26.56z M29.54,27.37c0.6,0.78,0.54,1.58,0.47,1.89L24.15,28c-0.17,0.78-0.17,1.97,0.65,3.04
			L29.54,27.37z M30.02,29.25l0.15-0.69l-5.87-1.25L24.15,28L30.02,29.25z M30.16,28.56c-0.06,0.28-0.34,1.14-1.33,1.61l-2.59-5.41
			c-1.3,0.62-1.79,1.79-1.95,2.56L30.16,28.56z M28.86,30.16c-0.54,0.26-1.05,0.25-1.36,0.19l1.25-5.87
			c-0.75-0.16-1.65-0.13-2.53,0.3L28.86,30.16z M27.5,30.34l2.58,0.55l1.25-5.87l-2.58-0.55L27.5,30.34z M39.7,37.52l-2.71,1.29
			l0.03,0.06l0.03,0.06L39.7,37.52z M38.88,40.89l-1.56-2.56l-0.04,0.02l-0.04,0.02L38.88,40.89z M30.76,39.26l-2.37,1.84l0.04,0.06
			l0.05,0.05L30.76,39.26z M31.13,37.5l-1.42-2.64l0,0L31.13,37.5z M31.95,37.5l-0.62,2.93l2.93,0.62l0.62-2.93L31.95,37.5z
			 M33.39,30.71l2.93,0.62l0.62-2.93l-2.93-0.62L33.39,30.71z M32.65,30.37l-2.37,1.84v0L32.65,30.37z M33.02,28.63l1.29,2.71
			l0.06-0.03l0.06-0.03L33.02,28.63z M41.01,30.43l-2.56,1.56l0.05,0.08l0.05,0.07L41.01,30.43z M40.44,33.56l-1.84-2.37l-0.06,0.04
			l-0.05,0.05L40.44,33.56z M38.82,31.86l2.93,0.62l0.62-2.93l-2.93-0.62L38.82,31.86z M35.9,31.24l0.62-2.93l-2.93-0.62l-0.62,2.93
			L35.9,31.24z M35.43,33.41l-2.93-0.62l-0.62,2.93l2.93,0.62L35.43,33.41z M38.22,34.23l2.52-1.63l0,0L38.22,34.23z M35,35.48
			l0.62-2.93l-2.93-0.62l-0.62,2.93L35,35.48z M34.45,38.03l-2.93-0.62l-0.62,2.93l2.93,0.62L34.45,38.03z M37.46,38.67l-0.62,2.93
			l2.93,0.62l0.62-2.93L37.46,38.67z M38.6,40.15c-0.28-0.06-1.14-0.34-1.61-1.33l5.41-2.59c-0.62-1.3-1.79-1.79-2.56-1.95
			L38.6,40.15z M37.05,38.94c-0.34-0.63-0.29-1.2-0.24-1.46l5.87,1.25c0.15-0.72,0.16-1.68-0.35-2.63L37.05,38.94z M36.82,37.49
			l-0.47,2.19l5.87,1.25l0.47-2.19L36.82,37.49z M36.35,39.68c0.04-0.21,0.14-0.47,0.32-0.73c0.19-0.27,0.42-0.48,0.65-0.62
			l3.11,5.13c0.97-0.59,1.57-1.52,1.78-2.53L36.35,39.68z M37.25,38.37c0.25-0.16,0.54-0.27,0.84-0.32c0.29-0.05,0.54-0.02,0.7,0.01
			l-1.25,5.87c0.92,0.2,2,0.1,2.97-0.53L37.25,38.37z M38.8,38.06l-6.9-1.47l-1.25,5.87l6.9,1.47L38.8,38.06z M31.9,36.59
			c0.2,0.04,0.7,0.2,1.15,0.72l-4.57,3.89c0.67,0.78,1.52,1.12,2.17,1.26L31.9,36.59z M33.13,37.42c0.6,0.78,0.54,1.58,0.47,1.89
			l-5.87-1.25c-0.17,0.78-0.17,1.97,0.65,3.04L33.13,37.42z M33.6,39.3l0.15-0.69l-5.87-1.25l-0.15,0.69L33.6,39.3z M33.75,38.62
			c-0.06,0.3-0.33,1.07-1.2,1.53l-2.84-5.29c-1.19,0.64-1.67,1.72-1.83,2.51L33.75,38.62z M32.55,40.15
			c-0.63,0.34-1.2,0.29-1.46,0.24l1.25-5.87c-0.72-0.15-1.68-0.16-2.63,0.35L32.55,40.15z M31.09,40.38l0.23,0.05l1.25-5.87
			l-0.23-0.05L31.09,40.38z M34.88,38.12l1.44-6.79l-5.87-1.25l-1.44,6.79L34.88,38.12z M34.02,27.77l-0.23-0.05l-1.25,5.87
			l0.23,0.05L34.02,27.77z M33.78,27.72c0.26,0.05,0.8,0.24,1.24,0.81l-4.74,3.67c0.66,0.85,1.54,1.23,2.26,1.39L33.78,27.72z
			 M35.02,28.53c0.6,0.78,0.54,1.58,0.47,1.89l-5.87-1.25c-0.17,0.78-0.17,1.97,0.65,3.04L35.02,28.53z M35.49,30.42l0.15-0.69
			l-5.87-1.25l-0.15,0.69L35.49,30.42z M35.64,29.73c-0.06,0.28-0.34,1.14-1.33,1.61l-2.59-5.41c-1.3,0.62-1.79,1.79-1.95,2.56
			L35.64,29.73z M34.44,31.27c-0.63,0.34-1.2,0.29-1.46,0.24l1.25-5.87c-0.72-0.15-1.68-0.16-2.63,0.35L34.44,31.27z M32.98,31.51
			l6.81,1.45l1.25-5.87l-6.81-1.45L32.98,31.51z M39.78,32.96c-0.19-0.04-0.44-0.13-0.7-0.3c-0.27-0.18-0.49-0.42-0.64-0.67
			l5.13-3.11c-0.61-1-1.56-1.58-2.54-1.78L39.78,32.96z M38.54,32.14c-0.17-0.24-0.29-0.53-0.35-0.85
			c-0.06-0.31-0.03-0.58,0.01-0.76l5.87,1.25c0.21-0.98,0.07-2.08-0.6-3.05L38.54,32.14z M38.2,30.52l-0.41,1.91l5.87,1.25
			l0.41-1.91L38.2,30.52z M37.79,32.43c0.05-0.26,0.24-0.8,0.81-1.24l3.67,4.74c0.85-0.66,1.23-1.54,1.39-2.26L37.79,32.43z
			 M38.5,31.28c0.83-0.71,1.73-0.62,2.01-0.56l-1.25,5.87c0.76,0.16,2.03,0.19,3.13-0.74L38.5,31.28z M40.5,30.72l-0.69-0.15
			l-1.25,5.87l0.69,0.15L40.5,30.72z M39.82,30.57c0.29,0.06,1.01,0.31,1.48,1.11c0.44,0.75,0.33,1.41,0.3,1.55l-5.87-1.25
			c-0.14,0.64-0.21,1.7,0.4,2.75c0.65,1.1,1.69,1.55,2.44,1.71L39.82,30.57z M41.6,33.23l0.16-0.75l-5.87-1.25l-0.16,0.75
			L41.6,33.23z M39.45,28.92l-2.93-0.62l-1.25,5.87l2.93,0.62L39.45,28.92z M32.96,30.61l-0.46,2.18l5.87,1.25l0.46-2.18
			L32.96,30.61z M34.81,36.35l2.28,0.49l1.25-5.87l-2.28-0.49L34.81,36.35z M37.1,36.83c-0.22-0.05-0.49-0.14-0.76-0.32
			c-0.27-0.18-0.48-0.41-0.64-0.64l5.03-3.27c-0.58-0.89-1.45-1.44-2.39-1.64L37.1,36.83z M35.7,35.87
			c-0.15-0.23-0.27-0.52-0.33-0.84c-0.05-0.32-0.03-0.6,0.01-0.82l5.87,1.25c0.2-0.94,0.06-1.96-0.52-2.85L35.7,35.87z M35.39,34.2
			l-0.11,0.53l5.87,1.25l0.11-0.53L35.39,34.2z M35.28,34.74c0.05-0.22,0.14-0.49,0.32-0.76c0.18-0.27,0.41-0.48,0.64-0.64
			l3.27,5.03c0.89-0.58,1.44-1.45,1.64-2.39L35.28,34.74z M36.24,33.35c0.23-0.15,0.52-0.27,0.84-0.33c0.32-0.05,0.6-0.03,0.82,0.01
			l-1.25,5.87c0.94,0.2,1.96,0.06,2.85-0.52L36.24,33.35z M37.9,33.03l-2.28-0.49l-1.25,5.87l2.28,0.49L37.9,33.03z M32.06,34.85
			l-0.54,2.55l5.87,1.25l0.54-2.55L32.06,34.85z M33.83,40.96l3,0.64l1.25-5.87l-3-0.64L33.83,40.96z M40.39,39.29l0.21-1
			l-5.87-1.25l-0.21,1L40.39,39.29z M40.61,38.29c-0.05,0.26-0.24,0.8-0.81,1.24l-3.67-4.74c-0.85,0.66-1.23,1.54-1.39,2.26
			L40.61,38.29z M39.8,39.53c-0.78,0.6-1.58,0.54-1.89,0.47l1.25-5.87c-0.78-0.17-1.97-0.17-3.04,0.65L39.8,39.53z M37.91,40
			l0.69,0.15l1.25-5.87l-0.69-0.15L37.91,40z M58.15,33.97l-2.37,1.84l0.04,0.06l0.05,0.05L58.15,33.97z M57.78,35.71l1.42,2.64l0,0
			L57.78,35.71z M56.96,35.72l0.62-2.93l-2.26-0.48l-1.04,2.06L56.96,35.72z M52.99,43.57l-2.68-1.35l-0.01,0.02l-0.01,0.02
			L52.99,43.57z M52.62,43.92l1.06,2.81l0.07-0.03l0.07-0.03L52.62,43.92z M50.41,43.45l-2.28,1.95l0.08,0.1l0.09,0.09L50.41,43.45z
			 M50.22,42.98l2.99-0.28l0-0.01L50.22,42.98z M49.64,37.02l2.99-0.29L51.7,27.3l-4.68,8.24L49.64,37.02z M46.68,42.23l-2.61-1.48
			l-0.01,0.01L46.68,42.23z M46.3,42.58l1.06,2.81l0.07-0.03l0.07-0.03L46.3,42.58z M44.07,42.1l-2.21,2.03l0.05,0.05l0.05,0.05
			L44.07,42.1z M43.88,41.64l3-0.11l0-0.02l0-0.02L43.88,41.64z M43.44,32.84l3-0.15l-0.11-2.31l-2.26-0.48L43.44,32.84z
			 M42.71,32.51l-2.37,1.84l0,0L42.71,32.51z M43.08,30.77l1.29,2.71l0.06-0.03l0.06-0.03L43.08,30.77z M47.17,31.64l-2.37,1.84
			l0.04,0.06l0.05,0.05L47.17,31.64z M46.8,33.37l1.42,2.64l0,0L46.8,33.37z M45.99,33.38l0.62-2.93l-3.77-0.8l0.15,3.86
			L45.99,33.38z M46.22,39.03l-3,0.12l0.42,10.47l5.19-9.11L46.22,39.03z M49.03,34.08l2.61,1.49l0-0.01l0-0.01L49.03,34.08z
			 M49.38,33.74l1.26,2.72l0.07-0.03l0.07-0.04L49.38,33.74z M51.64,34.22l-2.36,1.85l0.05,0.06l0.05,0.06L51.64,34.22z
			 M51.82,34.67l-2.99,0.28l0,0.01l0,0.01L51.82,34.67z M52.38,40.27l-2.99,0.3l1.04,10.41l4.63-9.38L52.38,40.27z M54.85,35.27
			l2.69,1.33l1.71-3.46l-3.77-0.8L54.85,35.27z M54.1,34.93l-2.37,1.84l0,0L54.1,34.93z M54.47,33.19l1.29,2.71l0.06-0.03l0.06-0.03
			L54.47,33.19z M57.02,36.62c-0.26-0.05-0.8-0.24-1.24-0.81l4.74-3.67c-0.66-0.85-1.54-1.23-2.26-1.39L57.02,36.62z M55.87,35.92
			c-0.71-0.83-0.62-1.73-0.56-2.01l5.87,1.25c0.16-0.76,0.19-2.03-0.74-3.13L55.87,35.92z M55.31,33.91l-0.15,0.69l5.87,1.25
			l0.15-0.69L55.31,33.91z M55.16,34.6c0.06-0.3,0.33-1.07,1.2-1.53l2.84,5.29c1.19-0.64,1.67-1.72,1.83-2.51L55.16,34.6z
			 M56.36,33.07c0.63-0.34,1.2-0.29,1.46-0.24l-1.25,5.87c0.72,0.15,1.68,0.16,2.63-0.35L56.36,33.07z M57.82,32.83l-0.23-0.05
			l-1.25,5.87l0.23,0.05L57.82,32.83z M54.29,34.36l-3.98,7.86l5.35,2.71l3.98-7.86L54.29,34.36z M50.29,42.26
			c0.11-0.23,0.27-0.46,0.49-0.66c0.21-0.2,0.44-0.34,0.64-0.43l2.4,5.5c0.79-0.34,1.46-0.95,1.87-1.78L50.29,42.26z M51.56,41.11
			c0.38-0.15,0.8-0.17,1.17-0.09l-1.25,5.87c0.73,0.15,1.48,0.1,2.2-0.17L51.56,41.11z M52.73,41.02l-1.22-0.26l-1.25,5.87
			l1.22,0.26L52.73,41.02z M51.51,40.76c0.33,0.07,0.7,0.24,1.02,0.56l-4.22,4.26c0.57,0.56,1.26,0.9,1.96,1.05L51.51,40.76z
			 M52.7,41.5c0.3,0.35,0.47,0.78,0.51,1.2l-5.97,0.56c0.07,0.78,0.38,1.52,0.9,2.13L52.7,41.5z M53.2,42.69l-0.58-5.96l-5.97,0.58
			l0.58,5.96L53.2,42.69z M47.03,35.54l-2.96,5.21l5.22,2.96l2.96-5.21L47.03,35.54z M44.06,40.76c0.24-0.43,0.62-0.76,1.03-0.94
			l2.4,5.5c0.75-0.33,1.38-0.88,1.8-1.62L44.06,40.76z M45.23,39.77c0.42-0.16,0.83-0.16,1.16-0.09l-1.25,5.87
			c0.7,0.15,1.47,0.12,2.22-0.16L45.23,39.77z M46.39,39.68l-1.24-0.26l-1.25,5.87l1.24,0.26L46.39,39.68z M45.15,39.41
			c0.37,0.08,0.74,0.27,1.03,0.56l-4.22,4.26c0.54,0.54,1.22,0.89,1.94,1.05L45.15,39.41z M46.29,40.08
			c0.15,0.17,0.3,0.38,0.41,0.65c0.11,0.27,0.17,0.54,0.18,0.8l-6,0.21c0.03,0.92,0.4,1.75,0.98,2.39L46.29,40.08z M46.87,41.49
			l-0.44-8.8l-5.99,0.3l0.44,8.8L46.87,41.49z M44.07,29.91l-0.23-0.05l-1.25,5.87l0.23,0.05L44.07,29.91z M43.83,29.86
			c0.31,0.07,0.83,0.27,1.25,0.81l-4.74,3.67c0.64,0.83,1.5,1.22,2.24,1.38L43.83,29.86z M45.08,30.67c0.6,0.78,0.54,1.58,0.47,1.89
			l-5.87-1.25c-0.17,0.78-0.17,1.97,0.65,3.04L45.08,30.67z M45.56,32.55l0.15-0.69l-5.87-1.25l-0.15,0.69L45.56,32.55z M45.7,31.87
			c-0.06,0.28-0.34,1.14-1.33,1.61l-2.59-5.41c-1.3,0.62-1.79,1.79-1.95,2.56L45.7,31.87z M44.5,33.41c-0.6,0.32-1.17,0.3-1.47,0.23
			l1.25-5.87c-0.75-0.16-1.69-0.14-2.61,0.35L44.5,33.41z M43.03,33.64l3.02,0.64l1.25-5.87l-3.02-0.64L43.03,33.64z M46.05,34.29
			c-0.31-0.07-0.83-0.27-1.25-0.81l4.74-3.67c-0.64-0.83-1.5-1.22-2.24-1.38L46.05,34.29z M44.88,33.58
			c-0.71-0.83-0.62-1.73-0.56-2.01l5.87,1.25c0.16-0.76,0.19-2.03-0.74-3.13L44.88,33.58z M44.32,31.57l-0.15,0.69l5.87,1.25
			l0.15-0.69L44.32,31.57z M44.18,32.26c0.06-0.3,0.33-1.07,1.2-1.53l2.84,5.29c1.19-0.64,1.67-1.72,1.83-2.51L44.18,32.26z
			 M45.38,30.73c0.6-0.32,1.17-0.3,1.47-0.23l-1.25,5.87c0.75,0.16,1.69,0.14,2.61-0.35L45.38,30.73z M46.85,30.5l-0.23-0.05
			l-1.25,5.87l0.23,0.05L46.85,30.5z M42.99,33.5l0.22,5.64l6-0.24l-0.22-5.64L42.99,33.5z M48.82,40.51l2.82-4.95l-5.21-2.97
			l-2.82,4.95L48.82,40.51z M51.65,35.55c-0.18,0.33-0.51,0.69-1,0.92l-2.52-5.44c-0.78,0.36-1.34,0.95-1.7,1.59L51.65,35.55z
			 M50.78,36.4c-0.22,0.12-0.48,0.21-0.77,0.25c-0.29,0.04-0.55,0.02-0.78-0.03l1.25-5.87c-0.84-0.18-1.71-0.07-2.49,0.34
			L50.78,36.4z M49.23,36.62l1.39,0.3l1.25-5.87l-1.39-0.3L49.23,36.62z M50.62,36.91c-0.25-0.05-0.52-0.16-0.77-0.31
			c-0.25-0.16-0.44-0.34-0.58-0.52l4.72-3.71c-0.52-0.66-1.25-1.14-2.12-1.33L50.62,36.91z M49.38,36.2
			c-0.36-0.41-0.51-0.87-0.54-1.25l5.97-0.56c-0.07-0.73-0.34-1.49-0.91-2.14L49.38,36.2z M48.83,34.97l0.56,5.6l5.97-0.6l-0.56-5.6
			L48.83,34.97z M55.07,41.6l2.47-5l-5.38-2.66l-2.47,5L55.07,41.6z M55.47,32.33l-0.23-0.05l-1.25,5.87l0.23,0.05L55.47,32.33z
			 M55.24,32.28c0.26,0.05,0.8,0.24,1.24,0.81l-4.74,3.67c0.66,0.85,1.54,1.23,2.26,1.39L55.24,32.28z M56.48,33.09
			c0.6,0.78,0.54,1.58,0.47,1.89l-5.87-1.25c-0.17,0.78-0.17,1.97,0.65,3.04L56.48,33.09z M56.95,34.98l0.15-0.69l-5.87-1.25
			l-0.15,0.69L56.95,34.98z M57.1,34.29c-0.06,0.28-0.34,1.14-1.33,1.61l-2.59-5.41c-1.3,0.62-1.79,1.79-1.95,2.56L57.1,34.29z
			 M55.89,35.83c-0.63,0.34-1.2,0.29-1.46,0.24l1.25-5.87c-0.72-0.15-1.68-0.16-2.63,0.35L55.89,35.83z M54.43,36.07l2.58,0.55
			l1.25-5.87l-2.58-0.55L54.43,36.07z"/>
	</g>
</g>
<g id="图层_2">
	<text transform="matrix(1.0453 0.297 -0.2733 0.9619 17.0966 35.1053)" class="st12 st13 st14">NEW</text>
</g>
</svg>
