<svg width="48" height="48" viewBox="0 0 48 48" fill="none" xmlns="http://www.w3.org/2000/svg">
<path d="M18.5455 2C21.2121 1.99926 23.803 2.87877 25.9092 4.49966C28.0153 6.12055 29.5166 8.39047 30.1761 10.951C30.8355 13.5116 30.6156 16.2168 29.5509 18.6397C28.4863 21.0626 26.6376 23.065 24.2967 24.3308C31.7236 26.2011 37.0909 31.4962 37.0909 36.8714C37.0909 42 26.1818 42 18.5455 42C8.72727 42 0 42 0 37.5811C0 32.0114 5.34764 26.1319 12.7636 24.3113C10.4306 23.0395 8.59073 21.0349 7.53362 18.6131C6.47651 16.1912 6.26224 13.4897 6.92455 10.9339C7.58686 8.37817 9.08813 6.11327 11.192 4.49587C13.2958 2.87847 15.8828 2.00043 18.5455 2ZM33.8182 6.32432C38.8866 6.32432 42.9949 10.5276 42.9949 15.7124C42.9949 19.2692 41.0618 22.3632 38.2124 23.9568C43.8938 25.4292 48 29.6108 48 33.853C48 35.9719 44.9826 37.4205 40.9069 38.1665C40.9789 37.7514 41.0182 37.3189 41.0182 36.8692L41.0073 36.3654C40.7935 31.1762 37.272 26.4022 32.0313 23.3146L31.5316 23.0292L31.7607 22.7049C33.5308 20.1007 34.4752 17.0317 34.4727 13.8919C34.4727 11.1849 33.7855 8.63784 32.5745 6.41081C32.9866 6.3539 33.4021 6.32501 33.8182 6.32432Z" fill="#9F1F24"/>
</svg>
