<svg width="168" height="172" viewBox="0 0 168 172" fill="none" xmlns="http://www.w3.org/2000/svg">
<path d="M103.104 0L168 59.5686L148.876 145.569L64.8957 172L0 112.431L19.1239 26.4314L103.104 0Z" fill="#9F1F24"/>
<path d="M102.334 58.9167C102.334 69.272 93.9393 77.6667 83.584 77.6667C73.2286 77.6667 64.834 69.272 64.834 58.9167C64.834 48.5613 73.2286 40.1667 83.584 40.1667C93.9393 40.1667 102.334 48.5613 102.334 58.9167Z" fill="#9F1F24"/>
<path fill-rule="evenodd" clip-rule="evenodd" d="M106.499 58.9167C106.499 71.5732 96.2392 81.8333 83.5827 81.8333C70.9262 81.8333 60.666 71.5732 60.666 58.9167C60.666 46.2601 70.9262 36 83.5827 36C96.2392 36 106.499 46.2601 106.499 58.9167ZM83.5827 77.6667C93.938 77.6667 102.333 69.272 102.333 58.9167C102.333 48.5613 93.938 40.1667 83.5827 40.1667C73.2273 40.1667 64.8327 48.5613 64.8327 58.9167C64.8327 69.272 73.2273 77.6667 83.5827 77.6667Z" fill="white"/>
<path d="M124 123.083C124 131.833 105.687 131.833 83.596 131.833C61.5046 131.833 44 131.833 44 123.083C44 100.302 61.9086 81.8333 84 81.8333C106.091 81.8333 124 100.302 124 123.083Z" fill="#9F1F24"/>
<path fill-rule="evenodd" clip-rule="evenodd" d="M83.896 136H83.2788C72.4849 136 62.336 136 54.8832 134.858C51.1447 134.285 47.596 133.362 44.8866 131.684C41.9514 129.866 39.834 127.012 39.834 123.083C39.834 98.1222 59.4881 77.6667 84.0006 77.6667C108.513 77.6667 128.167 98.1222 128.167 123.083C128.167 127.099 125.907 129.943 122.929 131.72C120.158 133.374 116.528 134.29 112.697 134.861C105.051 136 94.7067 136 83.896 136ZM83.5966 131.833C105.688 131.833 124.001 131.833 124.001 123.083C124.001 100.302 106.092 81.8333 84.0006 81.8333C61.9093 81.8333 44.0007 100.302 44.0007 123.083C44.0007 131.833 61.5052 131.833 83.5966 131.833Z" fill="white"/>
<path fill-rule="evenodd" clip-rule="evenodd" d="M84.0007 94.75C80.5732 94.75 77.7507 97.5704 77.7507 101.104C77.7507 102.255 76.8179 103.187 75.6673 103.187C74.5167 103.187 73.584 102.255 73.584 101.104C73.584 95.3181 78.2234 90.5833 84.0007 90.5833C89.7779 90.5833 94.4173 95.3181 94.4173 101.104C94.4173 103.591 93.7915 105.461 92.7226 106.946C91.7164 108.343 90.4019 109.261 89.3933 109.966L89.3603 109.989C88.2618 110.756 87.513 111.289 86.9665 112.014C86.4861 112.652 86.084 113.557 86.084 115.167C86.084 116.317 85.1512 117.25 84.0007 117.25C82.8501 117.25 81.9173 116.317 81.9173 115.167C81.9173 112.752 82.5569 110.942 83.639 109.507C84.6063 108.223 85.8625 107.348 86.8306 106.673C86.8792 106.639 86.9272 106.606 86.9743 106.573C88.0448 105.825 88.7959 105.268 89.3412 104.511C89.8348 103.825 90.2507 102.835 90.2507 101.104C90.2507 97.5704 87.4281 94.75 84.0007 94.75Z" fill="white"/>
<path d="M86.9173 122.25C86.9173 123.861 85.6115 125.167 84.0007 125.167C82.3898 125.167 81.084 123.861 81.084 122.25C81.084 120.639 82.3898 119.333 84.0007 119.333C85.6115 119.333 86.9173 120.639 86.9173 122.25Z" fill="white"/>
<path fill-rule="evenodd" clip-rule="evenodd" d="M84.0007 124.333C85.1512 124.333 86.084 123.401 86.084 122.25C86.084 121.099 85.1512 120.167 84.0007 120.167C82.8501 120.167 81.9173 121.099 81.9173 122.25C81.9173 123.401 82.8501 124.333 84.0007 124.333ZM84.0007 125.167C85.6115 125.167 86.9173 123.861 86.9173 122.25C86.9173 120.639 85.6115 119.333 84.0007 119.333C82.3898 119.333 81.084 120.639 81.084 122.25C81.084 123.861 82.3898 125.167 84.0007 125.167Z" fill="white"/>
</svg>
