<svg width="482" height="494" viewBox="0 0 482 494" fill="none" xmlns="http://www.w3.org/2000/svg">
<path d="M295.843 0L482 171.119L427.157 418.119L186.157 494L0 322.881L54.8429 75.8809L295.843 0Z" fill="#9F1F24"/>
<path d="M117.568 235.69C118.595 235.69 119.411 235.947 120.018 236.46C120.625 236.973 120.928 237.767 120.928 238.84V241.92C120.928 242.993 120.625 243.787 120.018 244.3C119.411 244.767 118.595 245 117.568 245H108.748C108.188 245 107.651 244.86 107.138 244.58C106.671 244.3 106.298 243.903 106.018 243.39L99.578 231.56C98.738 230.02 98.0147 228.877 97.408 228.13C96.8013 227.383 96.148 226.87 95.448 226.59C94.748 226.31 93.8147 226.17 92.648 226.17H91.388V235.69H92.438C93.418 235.69 94.2113 235.947 94.818 236.46C95.4247 236.973 95.728 237.767 95.728 238.84V241.92C95.728 242.993 95.4247 243.787 94.818 244.3C94.2113 244.767 93.418 245 92.438 245H79.138C78.1113 245 77.2947 244.767 76.688 244.3C76.0813 243.787 75.778 242.993 75.778 241.92V238.84C75.778 237.767 76.0813 236.973 76.688 236.46C77.2947 235.947 78.1113 235.69 79.138 235.69H80.188V205.31H79.138C78.1113 205.31 77.2947 205.053 76.688 204.54C76.0813 204.027 75.778 203.233 75.778 202.16V199.08C75.778 198.007 76.0813 197.237 76.688 196.77C77.2947 196.257 78.1113 196 79.138 196H96.778C102.751 196 107.278 197.237 110.358 199.71C113.438 202.137 114.978 205.707 114.978 210.42C114.978 213.5 114.161 216.137 112.528 218.33C110.941 220.523 108.678 222.133 105.738 223.16C106.578 223.487 107.348 224.047 108.048 224.84C108.795 225.633 109.541 226.73 110.288 228.13L114.348 235.69H117.568ZM95.588 216.93C98.388 216.93 100.395 216.44 101.608 215.46C102.868 214.433 103.498 212.823 103.498 210.63C103.498 208.857 102.891 207.527 101.678 206.64C100.511 205.753 98.7147 205.31 96.288 205.31H91.388V216.93H95.588ZM161.849 227.85C162.922 227.85 163.692 228.153 164.159 228.76C164.672 229.367 164.929 230.183 164.929 231.21V241.01C164.929 242.177 164.532 243.133 163.739 243.88C162.992 244.627 162.012 245 160.799 245H129.929C128.902 245 128.086 244.767 127.479 244.3C126.872 243.787 126.569 242.993 126.569 241.92V238.84C126.569 237.767 126.872 236.973 127.479 236.46C128.086 235.947 128.902 235.69 129.929 235.69H130.979V205.31H129.929C128.902 205.31 128.086 205.053 127.479 204.54C126.872 204.027 126.569 203.233 126.569 202.16V199.08C126.569 198.007 126.872 197.237 127.479 196.77C128.086 196.257 128.902 196 129.929 196H160.379C161.592 196 162.572 196.397 163.319 197.19C164.112 197.937 164.509 198.917 164.509 200.13V208.67C164.509 209.697 164.252 210.513 163.739 211.12C163.272 211.727 162.502 212.03 161.429 212.03H158.349C156.296 212.03 155.269 210.91 155.269 208.67V205.31H142.179V215.04H152.399C153.379 215.04 154.196 215.367 154.849 216.02C155.502 216.673 155.829 217.49 155.829 218.47V220.85C155.829 221.83 155.502 222.647 154.849 223.3C154.196 223.953 153.379 224.28 152.399 224.28H142.179V235.69H155.619V231.21C155.619 230.183 155.876 229.367 156.389 228.76C156.902 228.153 157.696 227.85 158.769 227.85H161.849ZM215.195 196C216.175 196 216.968 196.257 217.575 196.77C218.182 197.237 218.485 198.007 218.485 199.08V202.16C218.485 203.233 218.182 204.027 217.575 204.54C216.968 205.053 216.175 205.31 215.195 205.31H214.145L201.195 242.55C200.962 243.297 200.518 243.903 199.865 244.37C199.258 244.79 198.558 245 197.765 245H192.305C191.512 245 190.788 244.79 190.135 244.37C189.528 243.903 189.108 243.297 188.875 242.55L175.925 205.31H174.875C173.895 205.31 173.102 205.053 172.495 204.54C171.888 204.027 171.585 203.233 171.585 202.16V199.08C171.585 198.007 171.888 197.237 172.495 196.77C173.102 196.257 173.895 196 174.875 196H188.595C189.575 196 190.368 196.257 190.975 196.77C191.582 197.237 191.885 198.007 191.885 199.08V202.16C191.885 203.233 191.582 204.027 190.975 204.54C190.368 205.053 189.575 205.31 188.595 205.31H187.475L196.015 230.72L204.485 205.31H203.435C202.408 205.31 201.592 205.053 200.985 204.54C200.378 204.027 200.075 203.233 200.075 202.16V199.08C200.075 198.007 200.378 197.237 200.985 196.77C201.592 196.257 202.408 196 203.435 196H215.195ZM227.615 245C226.588 245 225.771 244.767 225.165 244.3C224.558 243.787 224.255 242.993 224.255 241.92V238.84C224.255 237.767 224.558 236.973 225.165 236.46C225.771 235.947 226.588 235.69 227.615 235.69H228.665V205.31H227.615C226.588 205.31 225.771 205.053 225.165 204.54C224.558 204.027 224.255 203.233 224.255 202.16V199.08C224.255 198.007 224.558 197.237 225.165 196.77C225.771 196.257 226.588 196 227.615 196H240.915C241.895 196 242.688 196.257 243.295 196.77C243.901 197.237 244.205 198.007 244.205 199.08V202.16C244.205 203.233 243.901 204.027 243.295 204.54C242.688 205.053 241.895 205.31 240.915 205.31H239.865V235.69H240.915C241.895 235.69 242.688 235.947 243.295 236.46C243.901 236.973 244.205 237.767 244.205 238.84V241.92C244.205 242.993 243.901 243.787 243.295 244.3C242.688 244.767 241.895 245 240.915 245H227.615ZM286.605 227.85C287.678 227.85 288.448 228.153 288.915 228.76C289.428 229.367 289.685 230.183 289.685 231.21V241.01C289.685 242.177 289.288 243.133 288.495 243.88C287.748 244.627 286.768 245 285.555 245H254.685C253.658 245 252.842 244.767 252.235 244.3C251.628 243.787 251.325 242.993 251.325 241.92V238.84C251.325 237.767 251.628 236.973 252.235 236.46C252.842 235.947 253.658 235.69 254.685 235.69H255.735V205.31H254.685C253.658 205.31 252.842 205.053 252.235 204.54C251.628 204.027 251.325 203.233 251.325 202.16V199.08C251.325 198.007 251.628 197.237 252.235 196.77C252.842 196.257 253.658 196 254.685 196H285.135C286.348 196 287.328 196.397 288.075 197.19C288.868 197.937 289.265 198.917 289.265 200.13V208.67C289.265 209.697 289.008 210.513 288.495 211.12C288.028 211.727 287.258 212.03 286.185 212.03H283.105C281.052 212.03 280.025 210.91 280.025 208.67V205.31H266.935V215.04H277.155C278.135 215.04 278.952 215.367 279.605 216.02C280.258 216.673 280.585 217.49 280.585 218.47V220.85C280.585 221.83 280.258 222.647 279.605 223.3C278.952 223.953 278.135 224.28 277.155 224.28H266.935V235.69H280.375V231.21C280.375 230.183 280.632 229.367 281.145 228.76C281.658 228.153 282.452 227.85 283.525 227.85H286.605ZM362.211 196C363.238 196 364.054 196.257 364.661 196.77C365.268 197.237 365.571 198.007 365.571 199.08V202.16C365.571 203.233 365.268 204.027 364.661 204.54C364.054 205.053 363.238 205.31 362.211 205.31H361.161L351.291 242.55C351.104 243.297 350.684 243.903 350.031 244.37C349.378 244.79 348.654 245 347.861 245H342.401C341.561 245 340.814 244.79 340.161 244.37C339.554 243.903 339.134 243.297 338.901 242.55L330.991 217.56L323.081 242.55C322.848 243.297 322.404 243.903 321.751 244.37C321.098 244.79 320.351 245 319.511 245H313.981C313.188 245 312.464 244.79 311.811 244.37C311.158 243.903 310.738 243.297 310.551 242.55L300.681 205.31H299.631C298.651 205.31 297.858 205.053 297.251 204.54C296.644 204.027 296.341 203.233 296.341 202.16V199.08C296.341 198.007 296.644 197.237 297.251 196.77C297.858 196.257 298.651 196 299.631 196H313.141C314.121 196 314.914 196.257 315.521 196.77C316.128 197.237 316.431 198.007 316.431 199.08V202.16C316.431 203.233 316.128 204.027 315.521 204.54C314.914 205.053 314.121 205.31 313.141 205.31H312.091L318.181 229.25L325.741 205.52C325.974 204.773 326.371 204.19 326.931 203.77C327.491 203.303 328.144 203.07 328.891 203.07H335.121C335.821 203.07 336.451 203.303 337.011 203.77C337.571 204.19 337.968 204.773 338.201 205.52L345.691 228.97L351.711 205.31H350.661C349.634 205.31 348.818 205.053 348.211 204.54C347.604 204.027 347.301 203.233 347.301 202.16V199.08C347.301 198.007 347.604 197.237 348.211 196.77C348.818 196.257 349.634 196 350.661 196H362.211ZM391.039 215.39C395.286 216.743 398.529 218.073 400.769 219.38C403.056 220.687 404.666 222.25 405.599 224.07C406.579 225.843 407.069 228.13 407.069 230.93C407.069 233.73 406.299 236.25 404.759 238.49C403.219 240.73 401.072 242.503 398.319 243.81C395.612 245.07 392.579 245.7 389.219 245.7C385.672 245.7 382.546 245.233 379.839 244.3C377.132 243.32 375.009 241.967 373.469 240.24C371.976 238.513 371.229 236.53 371.229 234.29C371.229 232.237 371.836 230.557 373.049 229.25C374.309 227.943 375.919 227.29 377.879 227.29C379.886 227.29 381.472 227.85 382.639 228.97C383.852 230.043 384.459 231.467 384.459 233.24C384.459 233.94 384.342 234.687 384.109 235.48C385.462 236.087 386.956 236.39 388.589 236.39C393.442 236.39 395.869 234.78 395.869 231.56C395.869 230.673 395.682 229.973 395.309 229.46C394.936 228.9 394.259 228.387 393.279 227.92C392.299 227.453 390.782 226.917 388.729 226.31C384.622 225.003 381.356 223.65 378.929 222.25C376.502 220.803 374.706 219.147 373.539 217.28C372.419 215.367 371.859 213.057 371.859 210.35C371.859 207.41 372.629 204.797 374.169 202.51C375.756 200.223 377.949 198.45 380.749 197.19C383.596 195.93 386.862 195.3 390.549 195.3C393.582 195.3 396.289 195.813 398.669 196.84C401.096 197.82 402.986 199.197 404.339 200.97C405.739 202.697 406.439 204.657 406.439 206.85C406.439 208.95 405.832 210.653 404.619 211.96C403.406 213.22 401.796 213.85 399.789 213.85C397.829 213.85 396.242 213.313 395.029 212.24C393.816 211.167 393.209 209.72 393.209 207.9C393.209 207.013 393.349 206.22 393.629 205.52C392.836 204.913 391.459 204.61 389.499 204.61C387.446 204.61 385.859 205.03 384.739 205.87C383.619 206.71 383.059 207.877 383.059 209.37C383.059 210.35 383.269 211.167 383.689 211.82C384.156 212.427 384.926 213.01 385.999 213.57C387.119 214.083 388.799 214.69 391.039 215.39ZM148.687 296.616C149.391 296.616 149.951 296.792 150.367 297.144C150.783 297.496 150.991 298.04 150.991 298.776V300.888C150.991 301.624 150.783 302.168 150.367 302.52C149.951 302.84 149.391 303 148.687 303H139.375C138.671 303 138.111 302.84 137.695 302.52C137.279 302.168 137.071 301.624 137.071 300.888V298.776C137.071 298.04 137.279 297.496 137.695 297.144C138.111 296.792 138.671 296.616 139.375 296.616H140.095L138.751 292.68H129.103L127.759 296.616H128.527C129.199 296.616 129.743 296.792 130.159 297.144C130.575 297.496 130.783 298.04 130.783 298.776V300.888C130.783 301.624 130.575 302.168 130.159 302.52C129.743 302.84 129.199 303 128.527 303H120.463C119.791 303 119.231 302.84 118.783 302.52C118.367 302.168 118.159 301.624 118.159 300.888V298.776C118.159 298.04 118.367 297.496 118.783 297.144C119.231 296.792 119.791 296.616 120.463 296.616H121.183L130.351 271.08C130.511 270.568 130.799 270.168 131.215 269.88C131.663 269.56 132.159 269.4 132.703 269.4H136.447C136.991 269.4 137.471 269.56 137.887 269.88C138.335 270.168 138.639 270.568 138.799 271.08L147.967 296.616H148.687ZM136.543 286.296L133.951 278.616L131.311 286.296H136.543ZM175.622 284.568C177.798 285.048 179.494 286.008 180.71 287.448C181.926 288.888 182.534 290.648 182.534 292.728C182.534 295.928 181.286 298.44 178.79 300.264C176.294 302.088 172.854 303 168.47 303H157.19C156.486 303 155.926 302.84 155.51 302.52C155.094 302.168 154.886 301.624 154.886 300.888V298.776C154.886 298.04 155.094 297.496 155.51 297.144C155.926 296.792 156.486 296.616 157.19 296.616H157.91V275.784H157.19C156.486 275.784 155.926 275.608 155.51 275.256C155.094 274.904 154.886 274.36 154.886 273.624V271.512C154.886 270.776 155.094 270.248 155.51 269.928C155.926 269.576 156.486 269.4 157.19 269.4H168.422C172.678 269.4 175.83 270.04 177.878 271.32C179.926 272.6 180.95 274.584 180.95 277.272C180.95 278.968 180.486 280.44 179.557 281.688C178.661 282.936 177.35 283.896 175.622 284.568ZM165.59 275.784V282.648H167.606C169.526 282.648 170.918 282.36 171.782 281.784C172.646 281.208 173.078 280.28 173.078 279C173.078 277.816 172.694 276.984 171.926 276.504C171.158 276.024 169.814 275.784 167.894 275.784H165.59ZM167.942 296.616C170.406 296.616 172.134 296.312 173.126 295.704C174.15 295.096 174.662 294.056 174.662 292.584C174.662 291.304 174.214 290.392 173.318 289.848C172.454 289.304 171.03 289.032 169.046 289.032H165.59V296.616H167.942ZM202.493 303.48C199.325 303.48 196.605 302.808 194.333 301.464C192.061 300.12 190.317 298.184 189.101 295.656C187.917 293.128 187.325 290.12 187.325 286.632C187.325 283.016 187.949 279.88 189.197 277.224C190.477 274.536 192.301 272.488 194.669 271.08C197.069 269.64 199.885 268.92 203.117 268.92C206.253 268.92 208.957 269.592 211.229 270.936C213.501 272.28 215.229 274.216 216.413 276.744C217.629 279.272 218.237 282.28 218.237 285.768C218.237 289.384 217.597 292.52 216.317 295.176C215.037 297.832 213.213 299.88 210.845 301.32C208.477 302.76 205.693 303.48 202.493 303.48ZM202.541 297.096C207.757 297.096 210.365 293.336 210.365 285.816C210.365 282.232 209.757 279.592 208.541 277.896C207.325 276.168 205.485 275.304 203.021 275.304C197.773 275.304 195.149 279.048 195.149 286.536C195.149 290.152 195.757 292.824 196.973 294.552C198.189 296.248 200.045 297.096 202.541 297.096ZM251.652 269.4C252.324 269.4 252.868 269.576 253.284 269.928C253.732 270.248 253.956 270.776 253.956 271.512V273.624C253.956 274.36 253.732 274.904 253.284 275.256C252.868 275.608 252.324 275.784 251.652 275.784H250.932V290.28C250.932 294.408 249.812 297.64 247.572 299.976C245.332 302.312 242.148 303.48 238.02 303.48C233.956 303.48 230.804 302.328 228.564 300.024C226.324 297.688 225.204 294.456 225.204 290.328V275.784H224.484C223.812 275.784 223.252 275.608 222.804 275.256C222.388 274.904 222.18 274.36 222.18 273.624V271.512C222.18 270.776 222.388 270.248 222.804 269.928C223.252 269.576 223.812 269.4 224.484 269.4H233.604C234.308 269.4 234.868 269.576 235.284 269.928C235.7 270.248 235.908 270.776 235.908 271.512V273.624C235.908 274.36 235.7 274.904 235.284 275.256C234.868 275.608 234.308 275.784 233.604 275.784H232.884V290.232C232.884 294.808 234.612 297.096 238.068 297.096C241.524 297.096 243.252 294.84 243.252 290.328V275.784H242.532C241.828 275.784 241.268 275.608 240.852 275.256C240.436 274.904 240.228 274.36 240.228 273.624V271.512C240.228 270.776 240.436 270.248 240.852 269.928C241.268 269.576 241.828 269.4 242.532 269.4H251.652ZM283.112 269.4C283.944 269.4 284.616 269.672 285.128 270.216C285.672 270.728 285.944 271.4 285.944 272.232V278.232C285.944 278.936 285.768 279.496 285.416 279.912C285.096 280.328 284.568 280.536 283.832 280.536H281.72C280.984 280.536 280.44 280.328 280.088 279.912C279.736 279.496 279.56 278.936 279.56 278.232V275.784H275.624V296.616H276.344C277.016 296.616 277.56 296.792 277.976 297.144C278.392 297.496 278.6 298.04 278.6 298.776V300.888C278.6 301.624 278.392 302.168 277.976 302.52C277.56 302.84 277.016 303 276.344 303H267.224C266.52 303 265.96 302.84 265.544 302.52C265.128 302.168 264.92 301.624 264.92 300.888V298.776C264.92 298.04 265.128 297.496 265.544 297.144C265.96 296.792 266.52 296.616 267.224 296.616H267.944V275.784H263.96V278.232C263.96 278.936 263.784 279.496 263.432 279.912C263.112 280.328 262.584 280.536 261.848 280.536H259.688C258.952 280.536 258.408 280.328 258.056 279.912C257.736 279.496 257.576 278.936 257.576 278.232V272.232C257.576 271.4 257.848 270.728 258.392 270.216C258.936 269.672 259.608 269.4 260.408 269.4H283.112ZM332.652 269.4C333.324 269.4 333.868 269.576 334.284 269.928C334.732 270.248 334.956 270.776 334.956 271.512V273.624C334.956 274.36 334.732 274.904 334.284 275.256C333.868 275.608 333.324 275.784 332.652 275.784H331.932V290.28C331.932 294.408 330.812 297.64 328.572 299.976C326.332 302.312 323.148 303.48 319.02 303.48C314.956 303.48 311.804 302.328 309.564 300.024C307.324 297.688 306.204 294.456 306.204 290.328V275.784H305.484C304.812 275.784 304.252 275.608 303.804 275.256C303.388 274.904 303.18 274.36 303.18 273.624V271.512C303.18 270.776 303.388 270.248 303.804 269.928C304.252 269.576 304.812 269.4 305.484 269.4H314.604C315.308 269.4 315.868 269.576 316.284 269.928C316.7 270.248 316.908 270.776 316.908 271.512V273.624C316.908 274.36 316.7 274.904 316.284 275.256C315.868 275.608 315.308 275.784 314.604 275.784H313.884V290.232C313.884 294.808 315.612 297.096 319.068 297.096C322.524 297.096 324.252 294.84 324.252 290.328V275.784H323.532C322.828 275.784 322.268 275.608 321.852 275.256C321.436 274.904 321.228 274.36 321.228 273.624V271.512C321.228 270.776 321.436 270.248 321.852 269.928C322.268 269.576 322.828 269.4 323.532 269.4H332.652ZM352.736 282.696C355.648 283.624 357.872 284.536 359.408 285.432C360.976 286.328 362.08 287.4 362.72 288.648C363.392 289.864 363.728 291.432 363.728 293.352C363.728 295.272 363.2 297 362.144 298.536C361.088 300.072 359.616 301.288 357.728 302.184C355.872 303.048 353.792 303.48 351.488 303.48C349.056 303.48 346.912 303.16 345.056 302.52C343.2 301.848 341.744 300.92 340.688 299.736C339.664 298.552 339.152 297.192 339.152 295.656C339.152 294.248 339.568 293.096 340.4 292.2C341.264 291.304 342.368 290.856 343.712 290.856C345.088 290.856 346.176 291.24 346.976 292.008C347.808 292.744 348.224 293.72 348.224 294.936C348.224 295.416 348.144 295.928 347.984 296.472C348.912 296.888 349.936 297.096 351.056 297.096C354.384 297.096 356.048 295.992 356.048 293.784C356.048 293.176 355.92 292.696 355.664 292.344C355.408 291.96 354.944 291.608 354.272 291.288C353.6 290.968 352.56 290.6 351.152 290.184C348.336 289.288 346.096 288.36 344.432 287.4C342.768 286.408 341.536 285.272 340.736 283.992C339.968 282.68 339.584 281.096 339.584 279.24C339.584 277.224 340.112 275.432 341.168 273.864C342.256 272.296 343.76 271.08 345.68 270.216C347.632 269.352 349.872 268.92 352.4 268.92C354.48 268.92 356.336 269.272 357.968 269.976C359.632 270.648 360.928 271.592 361.856 272.808C362.816 273.992 363.296 275.336 363.296 276.84C363.296 278.28 362.88 279.448 362.048 280.344C361.216 281.208 360.112 281.64 358.736 281.64C357.392 281.64 356.304 281.272 355.472 280.536C354.64 279.8 354.224 278.808 354.224 277.56C354.224 276.952 354.32 276.408 354.512 275.928C353.968 275.512 353.024 275.304 351.68 275.304C350.272 275.304 349.184 275.592 348.416 276.168C347.648 276.744 347.264 277.544 347.264 278.568C347.264 279.24 347.408 279.8 347.696 280.248C348.016 280.664 348.544 281.064 349.28 281.448C350.048 281.8 351.2 282.216 352.736 282.696Z" fill="white"/>
</svg>
