<svg width="285" height="254" viewBox="0 0 285 254" fill="none" xmlns="http://www.w3.org/2000/svg">
<path d="M170.218 0L266 87.9843L237.782 214.984L113.782 254L18 166.016L46.2179 39.0157L170.218 0Z" fill="#9F1F24"/>
<path fill-rule="evenodd" clip-rule="evenodd" d="M166 83C166 80.7909 164.209 79 162 79H122C119.791 79 118 80.7909 118 83V95C118 97.2091 116.209 99 114 99H91C88.7909 99 87 100.791 87 103V165C87 167.209 88.7909 169 91 169H193C195.209 169 197 167.209 197 165V103C197 100.791 195.209 99 193 99H170C167.791 99 166 97.2091 166 95V83Z" fill="#9F1F24"/>
<path fill-rule="evenodd" clip-rule="evenodd" d="M122 74H162C166.971 74 171 78.0294 171 83V94H193C197.971 94 202 98.0294 202 103V165C202 169.971 197.971 174 193 174H91C86.0294 174 82 169.971 82 165V103C82 98.0294 86.0294 94 91 94H113V83C113 78.0294 117.029 74 122 74ZM162 79C164.209 79 166 80.7909 166 83V95C166 97.2091 167.791 99 170 99H193C195.209 99 197 100.791 197 103V165C197 167.209 195.209 169 193 169H91C88.7909 169 87 167.209 87 165V103C87 100.791 88.7909 99 91 99H114C116.209 99 118 97.2091 118 95V83C118 80.7909 119.791 79 122 79H162Z" fill="white"/>
<path d="M124 86C124 84.8954 124.895 84 126 84H158C159.105 84 160 84.8954 160 86V97C160 98.1046 159.105 99 158 99H126C124.895 99 124 98.1046 124 97V86Z" fill="#9F1F24"/>
<path fill-rule="evenodd" clip-rule="evenodd" d="M129 89V94H155V89H129ZM126 84C124.895 84 124 84.8954 124 86V97C124 98.1046 124.895 99 126 99H158C159.105 99 160 98.1046 160 97V86C160 84.8954 159.105 84 158 84H126Z" fill="white"/>
<path d="M119 114.806C119 114.336 119.328 113.929 119.788 113.829L141.788 109.046C141.928 109.016 142.072 109.016 142.212 109.046L164.212 113.829C164.672 113.929 165 114.336 165 114.806V125.582C165 137.072 159.197 147.785 149.573 154.061L142.546 158.644C142.214 158.86 141.786 158.86 141.454 158.644L134.427 154.061C124.803 147.785 119 137.072 119 125.582V114.806Z" fill="#9F1F24"/>
<path fill-rule="evenodd" clip-rule="evenodd" d="M170 114.806V125.582C170 138.762 163.344 151.05 152.304 158.249L145.278 162.832C143.286 164.131 140.714 164.131 138.722 162.832L131.696 158.249C120.656 151.05 114 138.762 114 125.582V114.806C114 111.984 115.967 109.543 118.725 108.943L140.725 104.16C141.565 103.978 142.435 103.978 143.275 104.16L165.275 108.943C168.033 109.543 170 111.984 170 114.806ZM119.788 113.829C119.328 113.929 119 114.336 119 114.806V125.582C119 137.072 124.803 147.785 134.427 154.061L141.454 158.644C141.786 158.86 142.214 158.86 142.546 158.644L149.573 154.061C159.197 147.785 165 137.072 165 125.582V114.806C165 114.336 164.672 113.929 164.212 113.829L142.212 109.046C142.072 109.016 141.928 109.016 141.788 109.046L119.788 113.829Z" fill="white"/>
<path fill-rule="evenodd" clip-rule="evenodd" d="M146 129C145.448 129 145 128.552 145 128V122C145 121.448 144.552 121 144 121H140C139.448 121 139 121.448 139 122L139 128C139 128.552 138.552 129 138 129H133C132.448 129 132 129.448 132 130V133C132 133.552 132.448 134 133 134H138C138.552 134 139 134.448 139 135L139 141C139 141.552 139.448 142 140 142H144C144.552 142 145 141.552 145 141V135C145 134.448 145.448 134 146 134H151C151.552 134 152 133.552 152 133V130C152 129.448 151.552 129 151 129H146Z" fill="#9F1F24"/>
<path fill-rule="evenodd" clip-rule="evenodd" d="M138 134H133C132.448 134 132 133.552 132 133V130C132 129.448 132.448 129 133 129H138C138.552 129 139 128.552 139 128L139 122C139 121.448 139.448 121 140 121H144C144.552 121 145 121.448 145 122V128C145 128.552 145.448 129 146 129H151C151.552 129 152 129.448 152 130V133C152 133.552 151.552 134 151 134H146C145.448 134 145 134.448 145 135V141C145 141.552 144.552 142 144 142H140C139.448 142 139 141.552 139 141V135C139 134.448 138.552 134 138 134ZM150 122V124H151C154.314 124 157 126.686 157 130V133C157 136.314 154.314 139 151 139H150V141C150 144.314 147.314 147 144 147H140C136.686 147 134 144.314 134 141V139H133C129.686 139 127 136.314 127 133V130C127 126.686 129.686 124 133 124H134V122C134 118.686 136.686 116 140 116H144C147.314 116 150 118.686 150 122Z" fill="white"/>
</svg>
