<svg width="168" height="172" viewBox="0 0 168 172" fill="none" xmlns="http://www.w3.org/2000/svg">
<path d="M103.104 0L168 59.5686L148.876 145.569L64.8957 172L0 112.431L19.1239 26.4314L103.104 0Z" fill="#9F1F24"/>
<g clip-path="url(#clip0_707_8947)">
<path fill-rule="evenodd" clip-rule="evenodd" d="M52.0891 123.575C52.5337 123.694 52.9906 123.43 53.1098 122.986L59.4507 99.3212C59.4996 99.1384 59.4849 98.9444 59.409 98.7711L51.1214 79.8554C50.841 79.2154 51.4254 78.5352 52.1004 78.7161L80.9484 86.4459C81.6233 86.6267 81.7894 87.508 81.2265 87.9221L64.5914 100.16C64.439 100.272 64.3293 100.433 64.2803 100.615L57.9394 124.28C57.8203 124.724 58.0841 125.181 58.5286 125.3L65.3706 127.134C66.482 127.432 67.1416 128.574 66.8438 129.685C66.546 130.797 65.4036 131.456 64.2922 131.158L44.1688 125.766C43.0574 125.469 42.3978 124.326 42.6956 123.215C42.9934 122.103 44.1358 121.444 45.2472 121.742L52.0891 123.575Z" fill="#9F1F24"/>
<path fill-rule="evenodd" clip-rule="evenodd" d="M55.1231 99.3722L47.3047 81.5275C45.6222 77.6874 49.1289 73.6063 53.1785 74.6914L82.0265 82.4212C86.0762 83.5063 87.0725 88.794 83.6953 91.2784L68.0021 102.823L62.8265 122.139L66.4488 123.109C69.7829 124.002 71.7616 127.43 70.8682 130.764C69.9748 134.098 66.5477 136.077 63.2135 135.183L43.0901 129.791C39.7559 128.898 37.7773 125.471 38.6707 122.136C39.564 118.802 42.9911 116.824 46.3253 117.717L49.9475 118.688L55.1231 99.3722ZM64.5911 100.16C64.4387 100.272 64.329 100.433 64.28 100.615L57.9391 124.28C57.82 124.724 58.0838 125.181 58.5284 125.3L65.3703 127.134C66.4817 127.432 67.1413 128.574 66.8435 129.685C66.5457 130.797 65.4033 131.456 64.2919 131.158L44.1685 125.766C43.0571 125.469 42.3975 124.326 42.6953 123.215C42.9931 122.103 44.1355 121.444 45.2469 121.742L52.0889 123.575C52.5334 123.694 52.9904 123.43 53.1095 122.986L59.4504 99.3212C59.4994 99.1384 59.4847 98.9444 59.4087 98.7711L51.1212 79.8554C50.8407 79.2154 51.4252 78.5352 52.1001 78.7161L80.9481 86.4459C81.623 86.6267 81.7891 87.508 81.2262 87.9221L64.5911 100.16Z" fill="white"/>
<path fill-rule="evenodd" clip-rule="evenodd" d="M115.913 123.575C115.468 123.694 115.011 123.43 114.892 122.986L108.551 99.3212C108.502 99.1384 108.517 98.9444 108.593 98.7711L116.881 79.8554C117.161 79.2154 116.577 78.5352 115.902 78.7161L87.0536 86.4459C86.3786 86.6267 86.2126 87.508 86.7754 87.9221L103.411 100.16C103.563 100.272 103.673 100.433 103.722 100.615L110.063 124.28C110.182 124.724 109.918 125.181 109.473 125.3L102.631 127.134C101.52 127.432 100.86 128.574 101.158 129.685C101.456 130.797 102.598 131.456 103.71 131.158L123.833 125.766C124.945 125.469 125.604 124.326 125.306 123.215C125.009 122.103 123.866 121.444 122.755 121.742L115.913 123.575Z" fill="#9F1F24"/>
<path fill-rule="evenodd" clip-rule="evenodd" d="M112.879 99.3722L120.697 81.5275C122.38 77.6874 118.873 73.6063 114.823 74.6914L85.9754 82.4212C81.9258 83.5063 80.9295 88.794 84.3066 91.2784L99.9999 102.823L105.175 122.139L101.553 123.109C98.219 124.002 96.2404 127.43 97.1338 130.764C98.0272 134.098 101.454 136.077 104.788 135.183L124.912 129.791C128.246 128.898 130.225 125.471 129.331 122.136C128.438 118.802 125.011 116.824 121.677 117.717L118.054 118.688L112.879 99.3722ZM103.411 100.16C103.563 100.272 103.673 100.433 103.722 100.615L110.063 124.28C110.182 124.724 109.918 125.181 109.474 125.3L102.632 127.134C101.52 127.432 100.861 128.574 101.158 129.685C101.456 130.797 102.599 131.456 103.71 131.158L123.833 125.766C124.945 125.469 125.604 124.326 125.307 123.215C125.009 122.103 123.866 121.444 122.755 121.742L115.913 123.575C115.469 123.694 115.012 123.43 114.892 122.986L108.552 99.3212C108.503 99.1384 108.517 98.9444 108.593 98.7711L116.881 79.8554C117.161 79.2154 116.577 78.5352 115.902 78.7161L87.0538 86.4459C86.3789 86.6267 86.2129 87.508 86.7757 87.9221L103.411 100.16Z" fill="white"/>
<path d="M89.833 67.25C89.833 70.7018 87.0348 73.5 83.583 73.5C80.1312 73.5 77.333 70.7018 77.333 67.25C77.333 63.7982 80.1312 61 83.583 61C87.0348 61 89.833 63.7982 89.833 67.25Z" fill="#9F1F24"/>
<path fill-rule="evenodd" clip-rule="evenodd" d="M94.0003 67.25C94.0003 73.003 89.3366 77.6667 83.5837 77.6667C77.8307 77.6667 73.167 73.003 73.167 67.25C73.167 61.497 77.8307 56.8333 83.5837 56.8333C89.3366 56.8333 94.0003 61.497 94.0003 67.25ZM83.5837 73.5C87.0354 73.5 89.8337 70.7018 89.8337 67.25C89.8337 63.7982 87.0354 61 83.5837 61C80.1319 61 77.3337 63.7982 77.3337 67.25C77.3337 70.7018 80.1319 73.5 83.5837 73.5Z" fill="white"/>
<path d="M81.917 42.25C81.917 41.0994 82.8497 40.1667 84.0003 40.1667C85.1509 40.1667 86.0837 41.0994 86.0837 42.25V46.4167C86.0837 47.5673 85.1509 48.5 84.0003 48.5C82.8497 48.5 81.917 47.5673 81.917 46.4167V42.25Z" fill="#9F1F24"/>
<path fill-rule="evenodd" clip-rule="evenodd" d="M77.75 46.4167V42.25C77.75 38.7982 80.5482 36 84 36C87.4518 36 90.25 38.7982 90.25 42.25V46.4167C90.25 49.8684 87.4518 52.6667 84 52.6667C80.5482 52.6667 77.75 49.8684 77.75 46.4167ZM86.0833 42.25C86.0833 41.0994 85.1506 40.1667 84 40.1667C82.8494 40.1667 81.9167 41.0994 81.9167 42.25V46.4167C81.9167 47.5673 82.8494 48.5 84 48.5C85.1506 48.5 86.0833 47.5673 86.0833 46.4167V42.25Z" fill="white"/>
<path d="M103.029 46.7906C103.604 45.7942 104.878 45.4528 105.875 46.0281C106.871 46.6034 107.212 47.8775 106.637 48.8739L104.554 52.4824C103.978 53.4788 102.704 53.8202 101.708 53.2449C100.711 52.6696 100.37 51.3955 100.945 50.399L103.029 46.7906Z" fill="#9F1F24"/>
<path fill-rule="evenodd" clip-rule="evenodd" d="M97.3376 48.3157L99.4209 44.7073C101.147 41.7179 104.969 40.6937 107.959 42.4196C110.948 44.1455 111.972 47.9679 110.246 50.9573L108.163 54.5657C106.437 57.555 102.615 58.5793 99.6252 56.8534C96.6359 55.1275 95.6117 51.305 97.3376 48.3157ZM106.638 48.8739C107.213 47.8775 106.872 46.6034 105.875 46.0281C104.879 45.4528 103.605 45.7942 103.029 46.7906L100.946 50.399C100.371 51.3955 100.712 52.6696 101.709 53.2449C102.705 53.8202 103.979 53.4788 104.554 52.4824L106.638 48.8739Z" fill="white"/>
<path d="M119.042 61.2791C120.039 60.7038 121.313 61.0452 121.888 62.0417C122.464 63.0381 122.122 64.3123 121.126 64.8876L117.517 66.9709C116.521 67.5462 115.247 67.2048 114.671 66.2083C114.096 65.2119 114.438 63.9378 115.434 63.3625L119.042 61.2791Z" fill="#9F1F24"/>
<path fill-rule="evenodd" clip-rule="evenodd" d="M113.351 59.754L116.959 57.6707C119.949 55.9448 123.771 56.969 125.497 59.9583C127.223 62.9477 126.199 66.7701 123.209 68.496L119.601 70.5793C116.612 72.3052 112.789 71.281 111.063 68.2917C109.337 65.3023 110.362 61.4799 113.351 59.754ZM121.126 64.8876C122.123 64.3123 122.464 63.0381 121.889 62.0417C121.313 61.0452 120.039 60.7038 119.043 61.2791L115.434 63.3625C114.438 63.9378 114.096 65.2119 114.672 66.2083C115.247 67.2048 116.521 67.5462 117.518 66.9709L121.126 64.8876Z" fill="white"/>
<path d="M64.9714 46.7906C64.3961 45.7942 63.1219 45.4528 62.1255 46.0281C61.129 46.6034 60.7876 47.8775 61.3629 48.8739L63.4462 52.4824C64.0215 53.4788 65.2957 53.8202 66.2921 53.2449C67.2886 52.6696 67.63 51.3955 67.0547 50.399L64.9714 46.7906Z" fill="#9F1F24"/>
<path fill-rule="evenodd" clip-rule="evenodd" d="M70.6624 48.3157L68.5791 44.7073C66.8532 41.7179 63.0308 40.6937 60.0414 42.4196C57.0521 44.1455 56.0279 47.9679 57.7538 50.9573L59.8371 54.5657C61.563 57.555 65.3854 58.5793 68.3748 56.8534C71.3641 55.1275 72.3883 51.305 70.6624 48.3157ZM61.3622 48.8739C60.7869 47.8775 61.1283 46.6034 62.1248 46.0281C63.1212 45.4528 64.3954 45.7942 64.9707 46.7906L67.054 50.399C67.6293 51.3955 67.2879 52.6696 66.2914 53.2449C65.295 53.8202 64.0209 53.4788 63.4456 52.4824L61.3622 48.8739Z" fill="white"/>
<path d="M48.9575 61.2791C47.9611 60.7038 46.687 61.0452 46.1117 62.0417C45.5364 63.0381 45.8778 64.3123 46.8742 64.8876L50.4826 66.9709C51.4791 67.5462 52.7532 67.2048 53.3285 66.2083C53.9038 65.2119 53.5624 63.9378 52.566 63.3625L48.9575 61.2791Z" fill="#9F1F24"/>
<path fill-rule="evenodd" clip-rule="evenodd" d="M54.649 59.754L51.0406 57.6707C48.0513 55.9448 44.2288 56.969 42.5029 59.9583C40.777 62.9477 41.8013 66.7701 44.7906 68.496L48.399 70.5793C51.3884 72.3052 55.2108 71.281 56.9367 68.2917C58.6626 65.3023 57.6384 61.4799 54.649 59.754ZM46.8739 64.8876C45.8775 64.3123 45.5361 63.0381 46.1114 62.0417C46.6867 61.0452 47.9608 60.7038 48.9573 61.2791L52.5657 63.3625C53.5621 63.9378 53.9035 65.2119 53.3282 66.2083C52.753 67.2048 51.4788 67.5462 50.4824 66.9709L46.8739 64.8876Z" fill="white"/>
</g>
<defs>
<clipPath id="clip0_707_8947">
<rect width="100" height="100" fill="white" transform="translate(34 36)"/>
</clipPath>
</defs>
</svg>
