<svg width="48" height="48" viewBox="0 0 48 48" fill="none" xmlns="http://www.w3.org/2000/svg">
<path fill-rule="evenodd" clip-rule="evenodd" d="M9.89474 2C8.8483 2 8 2.89543 8 4C8 5.10457 8.8483 6 9.89474 6H11.4239C14.116 17.9947 18.308 23.9947 24 24C29.6922 24.0053 33.8844 18.0053 36.5765 6H38.1053C39.1517 6 40 5.10457 40 4C40 2.89543 39.1517 2 38.1053 2H9.89474ZM9.89474 42C8.8483 42 8 42.8954 8 44C8 45.1046 8.8483 46 9.89474 46H38.1053C39.1517 46 40 45.1046 40 44C40 42.8954 39.1517 42 38.1053 42H36.5761C33.884 30.0053 29.692 24.0053 24 24C18.3078 23.9947 14.1156 29.9947 11.4235 42H9.89474Z" fill="#9F1F24"/>
</svg>
