<svg width="343" height="77" viewBox="0 0 343 77" fill="none" xmlns="http://www.w3.org/2000/svg">
<path d="M65.1795 9.79603L82 0.57027L98.8205 9.79603V28.204L82 37.4297L65.1795 28.204V9.79603Z" stroke="#DEDEE0"/>
<path fill-rule="evenodd" clip-rule="evenodd" d="M82.0002 11.5C80.1592 11.5 78.6668 12.9924 78.6668 14.8333V15.6667H85.3335V14.8333C85.3335 12.9924 83.8411 11.5 82.0002 11.5ZM77.0002 14.8333V15.6667H74.5928C73.5735 15.6667 72.8335 16.5299 72.8335 17.4848V25.5152C72.8335 26.4692 73.572 27.3316 74.5898 27.3333L74.5928 27.3333H89.4076L89.4106 27.3333C90.4283 27.3316 91.1668 26.4692 91.1668 25.5152V17.4848C91.1668 16.5299 90.4269 15.6667 89.4076 15.6667H87.0002V14.8333C87.0002 12.0719 84.7616 9.83333 82.0002 9.83333C79.2388 9.83333 77.0002 12.0719 77.0002 14.8333ZM76.1668 20.3095C76.1668 20.0465 75.7937 19.8333 75.3335 19.8333C74.8733 19.8333 74.5002 20.0465 74.5002 20.3095V22.6905C74.5002 22.9535 74.8733 23.1667 75.3335 23.1667C75.7937 23.1667 76.1668 22.9535 76.1668 22.6905V20.3095ZM78.6668 19.8333C79.1271 19.8333 79.5002 20.0465 79.5002 20.3095V22.6905C79.5002 22.9535 79.1271 23.1667 78.6668 23.1667C78.2066 23.1667 77.8335 22.9535 77.8335 22.6905V20.3095C77.8335 20.0465 78.2066 19.8333 78.6668 19.8333ZM82.8335 20.3095C82.8335 20.0465 82.4604 19.8333 82.0002 19.8333C81.5399 19.8333 81.1668 20.0465 81.1668 20.3095V22.6905C81.1668 22.9535 81.5399 23.1667 82.0002 23.1667C82.4604 23.1667 82.8335 22.9535 82.8335 22.6905V20.3095ZM85.3335 19.8333C85.7937 19.8333 86.1668 20.0465 86.1668 20.3095V22.6905C86.1668 22.9535 85.7937 23.1667 85.3335 23.1667C84.8733 23.1667 84.5002 22.9535 84.5002 22.6905V20.3095C84.5002 20.0465 84.8733 19.8333 85.3335 19.8333ZM89.5002 20.3095C89.5002 20.0465 89.1271 19.8333 88.6668 19.8333C88.2066 19.8333 87.8335 20.0465 87.8335 20.3095V22.6905C87.8335 22.9535 88.2066 23.1667 88.6668 23.1667C89.1271 23.1667 89.5002 22.9535 89.5002 22.6905V20.3095Z" fill="#DEDEE0"/>
<path d="M77.4094 50.832C77.6334 50.832 77.82 50.9067 77.9694 51.056C78.1187 51.2053 78.1934 51.392 78.1934 51.616V52.176C78.1934 52.4 78.1187 52.5867 77.9694 52.736C77.82 52.8853 77.6334 52.96 77.4094 52.96H76.4014V53.872H76.6414C76.8654 53.872 77.0467 53.9307 77.1854 54.048C77.324 54.1653 77.3934 54.3467 77.3934 54.592V55.296C77.3934 55.5413 77.324 55.7227 77.1854 55.84C77.0467 55.9467 76.8654 56 76.6414 56H73.6014C73.3667 56 73.18 55.9467 73.0414 55.84C72.9027 55.7227 72.8334 55.5413 72.8334 55.296V54.592C72.8334 54.3467 72.9027 54.1653 73.0414 54.048C73.18 53.9307 73.3667 53.872 73.6014 53.872H73.8414V52.96H69.8734C69.6494 52.96 69.4627 52.8853 69.3134 52.736C69.164 52.5867 69.0894 52.4 69.0894 52.176V51.712C69.0894 51.4453 69.116 51.232 69.1694 51.072C69.2334 50.912 69.3347 50.7307 69.4734 50.528L72.9294 45.424C73.0787 45.2 73.2334 45.04 73.3934 44.944C73.5534 44.848 73.7454 44.8 73.9694 44.8H75.6014C75.8254 44.8 76.012 44.8747 76.1614 45.024C76.3214 45.1733 76.4014 45.3653 76.4014 45.6V50.832H77.4094ZM73.8414 50.832V47.28L71.4254 50.832H73.8414ZM82.9595 53.312C83.2902 53.6107 83.4555 54.0053 83.4555 54.496C83.4555 54.9867 83.2902 55.3867 82.9595 55.696C82.6395 56.0053 82.2288 56.16 81.7275 56.16C81.2262 56.16 80.8102 56.0053 80.4795 55.696C80.1488 55.3867 79.9835 54.9867 79.9835 54.496C79.9835 54.0053 80.1488 53.6107 80.4795 53.312C80.8102 53.0027 81.2262 52.848 81.7275 52.848C82.2288 52.848 82.6395 53.0027 82.9595 53.312ZM89.7736 48.576C91.0216 48.576 91.971 48.9013 92.6216 49.552C93.283 50.2027 93.6136 51.104 93.6136 52.256C93.6136 53.0347 93.4323 53.7227 93.0696 54.32C92.7176 54.9067 92.2163 55.36 91.5656 55.68C90.915 56 90.1576 56.16 89.2936 56.16C88.579 56.16 87.9336 56.0587 87.3576 55.856C86.7923 55.6427 86.3496 55.3493 86.0296 54.976C85.7096 54.6027 85.5496 54.1867 85.5496 53.728C85.5496 53.2587 85.6883 52.8747 85.9656 52.576C86.2536 52.2773 86.6216 52.128 87.0696 52.128C87.5283 52.128 87.891 52.256 88.1576 52.512C88.435 52.7573 88.5736 53.0827 88.5736 53.488C88.5736 53.6267 88.5576 53.76 88.5256 53.888C88.6963 53.984 88.9576 54.032 89.3096 54.032C89.8323 54.032 90.243 53.8827 90.5416 53.584C90.851 53.2747 91.0056 52.864 91.0056 52.352C91.0056 51.8293 90.8456 51.424 90.5256 51.136C90.2056 50.848 89.747 50.704 89.1496 50.704C88.6803 50.704 88.211 50.816 87.7416 51.04C87.3896 51.1787 87.1123 51.248 86.9096 51.248C86.5896 51.248 86.3603 51.1893 86.2216 51.072C86.083 50.9547 86.0136 50.7733 86.0136 50.528C86.0136 50.144 86.099 48.608 86.2696 45.92C86.323 45.1733 86.707 44.8 87.4216 44.8H92.3816C92.6483 44.8 92.8723 44.8853 93.0536 45.056C93.235 45.2267 93.3256 45.44 93.3256 45.696V46.032C93.3256 46.2987 93.235 46.5173 93.0536 46.688C92.883 46.8587 92.659 46.944 92.3816 46.944L88.7016 46.912L88.5896 48.752C88.963 48.6347 89.3576 48.576 89.7736 48.576Z" fill="white"/>
<path d="M53.9303 73.14C53.053 73.14 52.2923 72.944 51.6483 72.552C51.0137 72.1507 50.5237 71.5813 50.1783 70.844C49.833 70.0973 49.6603 69.2247 49.6603 68.226C49.6603 67.19 49.8423 66.2847 50.2063 65.51C50.5703 64.726 51.0883 64.124 51.7603 63.704C52.4323 63.2747 53.2163 63.06 54.1123 63.06C54.9803 63.06 55.7363 63.2607 56.3803 63.662C57.0243 64.054 57.519 64.6187 57.8643 65.356C58.2097 66.0933 58.3823 66.9613 58.3823 67.96C58.3823 69.0053 58.2003 69.92 57.8363 70.704C57.4723 71.4787 56.9543 72.0807 56.2823 72.51C55.6103 72.93 54.8263 73.14 53.9303 73.14ZM53.9443 72.034C54.943 72.034 55.7177 71.6793 56.2683 70.97C56.819 70.2607 57.0943 69.262 57.0943 67.974C57.0943 66.742 56.8377 65.7993 56.3243 65.146C55.811 64.4927 55.069 64.166 54.0983 64.166C53.0997 64.166 52.325 64.5207 51.7743 65.23C51.2237 65.93 50.9483 66.924 50.9483 68.212C50.9483 69.4533 51.205 70.4007 51.7183 71.054C52.2317 71.7073 52.9737 72.034 53.9443 72.034ZM68.4171 63.2C68.7251 63.2 68.8791 63.326 68.8791 63.578V63.928C68.8791 64.18 68.7251 64.306 68.4171 64.306H68.0531V68.968C68.0531 70.3213 67.7451 71.3573 67.1291 72.076C66.5224 72.7853 65.6311 73.14 64.4551 73.14C63.2884 73.14 62.3971 72.7993 61.7811 72.118C61.1651 71.4273 60.8571 70.4427 60.8571 69.164V64.306H60.4931C60.1851 64.306 60.0311 64.18 60.0311 63.928V63.578C60.0311 63.326 60.1851 63.2 60.4931 63.2H62.4811C62.7891 63.2 62.9431 63.326 62.9431 63.578V63.928C62.9431 64.18 62.7891 64.306 62.4811 64.306H62.1171V69.15C62.1171 70.13 62.3037 70.858 62.6771 71.334C63.0597 71.8007 63.6524 72.034 64.4551 72.034C65.2577 72.034 65.8457 71.7867 66.2191 71.292C66.6017 70.788 66.7931 70.0133 66.7931 68.968V64.306H66.4291C66.1211 64.306 65.9671 64.18 65.9671 63.928V63.578C65.9671 63.326 66.1211 63.2 66.4291 63.2H68.4171ZM77.453 63.2C77.6116 63.2 77.7423 63.256 77.845 63.368C77.957 63.4707 78.013 63.6013 78.013 63.76V65.258C78.013 65.566 77.887 65.72 77.635 65.72H77.285C77.033 65.72 76.907 65.566 76.907 65.258V64.306H74.793V71.894H75.157C75.465 71.894 75.619 72.02 75.619 72.272V72.622C75.619 72.874 75.465 73 75.157 73H73.169C72.8703 73 72.721 72.874 72.721 72.622V72.272C72.721 72.02 72.8703 71.894 73.169 71.894H73.533V64.306H71.419V65.258C71.419 65.566 71.293 65.72 71.041 65.72H70.691C70.439 65.72 70.313 65.566 70.313 65.258V63.76C70.313 63.6013 70.3643 63.4707 70.467 63.368C70.5696 63.256 70.7003 63.2 70.859 63.2H77.453ZM87.8229 73.14C86.9456 73.14 86.1849 72.944 85.5409 72.552C84.9062 72.1507 84.4162 71.5813 84.0709 70.844C83.7256 70.0973 83.5529 69.2247 83.5529 68.226C83.5529 67.19 83.7349 66.2847 84.0989 65.51C84.4629 64.726 84.9809 64.124 85.6529 63.704C86.3249 63.2747 87.1089 63.06 88.0049 63.06C88.8729 63.06 89.6289 63.2607 90.2729 63.662C90.9169 64.054 91.4116 64.6187 91.7569 65.356C92.1022 66.0933 92.2749 66.9613 92.2749 67.96C92.2749 69.0053 92.0929 69.92 91.7289 70.704C91.3649 71.4787 90.8469 72.0807 90.1749 72.51C89.5029 72.93 88.7189 73.14 87.8229 73.14ZM87.8369 72.034C88.8356 72.034 89.6102 71.6793 90.1609 70.97C90.7116 70.2607 90.9869 69.262 90.9869 67.974C90.9869 66.742 90.7302 65.7993 90.2169 65.146C89.7036 64.4927 88.9616 64.166 87.9909 64.166C86.9922 64.166 86.2176 64.5207 85.6669 65.23C85.1162 65.93 84.8409 66.924 84.8409 68.212C84.8409 69.4533 85.0976 70.4007 85.6109 71.054C86.1242 71.7073 86.8662 72.034 87.8369 72.034ZM100.714 63.2C100.872 63.2 101.003 63.256 101.106 63.368C101.208 63.4707 101.26 63.6013 101.26 63.76V65.062C101.26 65.37 101.138 65.524 100.896 65.524H100.532C100.289 65.524 100.168 65.37 100.168 65.062V64.306H96.1776V67.54H99.2576C99.3696 67.54 99.463 67.582 99.5376 67.666C99.6216 67.7407 99.6636 67.834 99.6636 67.946V68.24C99.6636 68.352 99.6216 68.45 99.5376 68.534C99.463 68.6087 99.3696 68.646 99.2576 68.646H96.1776V71.894H97.2976C97.5963 71.894 97.7456 72.02 97.7456 72.272V72.622C97.7456 72.874 97.5963 73 97.2976 73H94.5536C94.2456 73 94.0916 72.874 94.0916 72.622V72.272C94.0916 72.02 94.2456 71.894 94.5536 71.894H94.9176V64.306H94.5536C94.2456 64.306 94.0916 64.18 94.0916 63.928V63.578C94.0916 63.326 94.2456 63.2 94.5536 63.2H100.714ZM110.226 66.574C110.879 66.574 111.448 66.7093 111.934 66.98C112.428 67.2413 112.806 67.6147 113.068 68.1C113.338 68.5853 113.474 69.15 113.474 69.794C113.474 70.4567 113.324 71.04 113.026 71.544C112.736 72.048 112.321 72.44 111.78 72.72C111.248 73 110.636 73.14 109.946 73.14C109.32 73.14 108.756 73.0373 108.252 72.832C107.748 72.6173 107.351 72.328 107.062 71.964C106.782 71.6 106.642 71.194 106.642 70.746C106.642 70.438 106.716 70.1953 106.866 70.018C107.024 69.8407 107.239 69.752 107.51 69.752C107.752 69.752 107.948 69.8267 108.098 69.976C108.256 70.1253 108.336 70.312 108.336 70.536C108.336 70.8067 108.242 71.0213 108.056 71.18C108.196 71.4507 108.429 71.6607 108.756 71.81C109.082 71.9593 109.474 72.034 109.932 72.034C110.632 72.034 111.182 71.838 111.584 71.446C111.985 71.054 112.186 70.5127 112.186 69.822C112.186 69.15 111.985 68.6273 111.584 68.254C111.192 67.8713 110.646 67.68 109.946 67.68C109.544 67.68 109.208 67.736 108.938 67.848C108.667 67.96 108.382 68.114 108.084 68.31C107.944 68.394 107.836 68.4547 107.762 68.492C107.687 68.52 107.612 68.534 107.538 68.534C107.398 68.534 107.295 68.506 107.23 68.45C107.174 68.394 107.146 68.3053 107.146 68.184C107.146 68.1653 107.216 66.9147 107.356 64.432L107.398 63.746C107.416 63.578 107.472 63.4473 107.566 63.354C107.668 63.2513 107.808 63.2 107.986 63.2H112.648C112.769 63.2 112.872 63.242 112.956 63.326C113.049 63.41 113.096 63.5127 113.096 63.634V63.872C113.096 63.9933 113.054 64.096 112.97 64.18C112.886 64.264 112.778 64.306 112.648 64.306H108.588L108.42 67.05C108.933 66.7327 109.535 66.574 110.226 66.574Z" fill="#DEDEE0"/>
<path d="M154.679 9.79603L171.5 0.57027L188.321 9.79603V28.204L171.5 37.4297L154.679 28.204V9.79603Z" stroke="#DEDEE0"/>
<g clip-path="url(#clip0_632_8897)">
<path d="M169.227 9.83333C170.338 9.83303 171.418 10.1995 172.295 10.8749C173.173 11.5502 173.799 12.496 174.073 13.5629C174.348 14.6298 174.256 15.757 173.813 16.7665C173.369 17.7761 172.599 18.6104 171.624 19.1378C174.718 19.9171 176.955 22.1234 176.955 24.3631C176.955 26.5 172.409 26.5 169.227 26.5C165.136 26.5 161.5 26.5 161.5 24.6588C161.5 22.3381 163.728 19.8883 166.818 19.1297C165.846 18.5998 165.079 17.7645 164.639 16.7554C164.199 15.7463 164.109 14.6207 164.385 13.5558C164.661 12.4909 165.287 11.5472 166.163 10.8733C167.04 10.1994 168.118 9.83351 169.227 9.83333ZM175.591 11.6351C177.703 11.6351 179.415 13.3865 179.415 15.5468C179.415 17.0288 178.609 18.318 177.422 18.982C179.789 19.5955 181.5 21.3378 181.5 23.1054C181.5 23.9883 180.243 24.5919 178.545 24.9027C178.575 24.7297 178.591 24.5495 178.591 24.3622L178.586 24.1523C178.497 21.9901 177.03 20.0009 174.846 18.7144L174.638 18.5955L174.734 18.4604C175.471 17.3753 175.865 16.0966 175.864 14.7883C175.864 13.6604 175.577 12.5991 175.073 11.6712C175.244 11.6475 175.418 11.6354 175.591 11.6351Z" fill="#DEDEE0"/>
</g>
<path d="M162.042 49.832C162.266 49.832 162.453 49.9067 162.602 50.056C162.752 50.2053 162.826 50.392 162.826 50.616V51.176C162.826 51.4 162.752 51.5867 162.602 51.736C162.453 51.8853 162.266 51.96 162.042 51.96H161.034V52.872H161.274C161.498 52.872 161.68 52.9307 161.818 53.048C161.957 53.1653 162.026 53.3467 162.026 53.592V54.296C162.026 54.5413 161.957 54.7227 161.818 54.84C161.68 54.9467 161.498 55 161.274 55H158.234C158 55 157.813 54.9467 157.674 54.84C157.536 54.7227 157.466 54.5413 157.466 54.296V53.592C157.466 53.3467 157.536 53.1653 157.674 53.048C157.813 52.9307 158 52.872 158.234 52.872H158.474V51.96H154.506C154.282 51.96 154.096 51.8853 153.946 51.736C153.797 51.5867 153.722 51.4 153.722 51.176V50.712C153.722 50.4453 153.749 50.232 153.802 50.072C153.866 49.912 153.968 49.7307 154.106 49.528L157.562 44.424C157.712 44.2 157.866 44.04 158.026 43.944C158.186 43.848 158.378 43.8 158.602 43.8H160.234C160.458 43.8 160.645 43.8747 160.794 44.024C160.954 44.1733 161.034 44.3653 161.034 44.6V49.832H162.042ZM158.474 49.832V46.28L156.058 49.832H158.474ZM165.16 50.936C164.926 50.936 164.734 50.8613 164.584 50.712C164.435 50.5627 164.36 50.376 164.36 50.152V49.608C164.36 49.384 164.435 49.1973 164.584 49.048C164.734 48.8987 164.926 48.824 165.16 48.824H170.472C170.707 48.824 170.899 48.8987 171.048 49.048C171.198 49.1973 171.272 49.384 171.272 49.608V50.152C171.272 50.376 171.198 50.5627 171.048 50.712C170.899 50.8613 170.707 50.936 170.472 50.936H165.16ZM177.601 52.872C177.825 52.872 178.006 52.9307 178.145 53.048C178.283 53.1653 178.353 53.3467 178.353 53.592V54.296C178.353 54.5413 178.283 54.7227 178.145 54.84C178.006 54.9467 177.825 55 177.601 55H174.561C174.326 55 174.139 54.9467 174.001 54.84C173.862 54.7227 173.793 54.5413 173.793 54.296V53.592C173.793 53.3467 173.862 53.1653 174.001 53.048C174.139 52.9307 174.326 52.872 174.561 52.872H174.801V47.752H173.537C173.313 47.752 173.126 47.6773 172.977 47.528C172.827 47.368 172.753 47.1813 172.753 46.968V46.408C172.753 46.184 172.827 45.9973 172.977 45.848C173.126 45.6987 173.313 45.624 173.537 45.624H174.033C174.257 45.624 174.438 45.5653 174.577 45.448C174.726 45.3307 174.801 45.1493 174.801 44.904V44.6C174.801 44.3653 174.875 44.1733 175.025 44.024C175.174 43.8747 175.361 43.8 175.585 43.8H176.561C176.785 43.8 176.971 43.8747 177.121 44.024C177.281 44.1733 177.361 44.3653 177.361 44.6V52.872H177.601ZM184.338 55.16C183.378 55.16 182.551 54.936 181.858 54.488C181.175 54.0293 180.647 53.3787 180.274 52.536C179.911 51.6933 179.73 50.696 179.73 49.544C179.73 48.3173 179.911 47.2613 180.274 46.376C180.637 45.4907 181.159 44.8133 181.842 44.344C182.535 43.8747 183.367 43.64 184.338 43.64C185.298 43.64 186.119 43.8693 186.802 44.328C187.495 44.776 188.023 45.4213 188.386 46.264C188.759 47.1067 188.946 48.104 188.946 49.256C188.946 50.4827 188.765 51.5387 188.402 52.424C188.039 53.3093 187.511 53.9867 186.818 54.456C186.135 54.9253 185.309 55.16 184.338 55.16ZM184.338 53.032C185.031 53.032 185.533 52.7333 185.842 52.136C186.162 51.528 186.322 50.5787 186.322 49.288C186.322 48.104 186.162 47.224 185.842 46.648C185.522 46.0613 185.021 45.768 184.338 45.768C183.645 45.768 183.138 46.072 182.818 46.68C182.498 47.288 182.338 48.232 182.338 49.512C182.338 50.696 182.498 51.5813 182.818 52.168C183.149 52.744 183.655 53.032 184.338 53.032Z" fill="white"/>
<path d="M148.431 62.2C149.635 62.2 150.545 62.4427 151.161 62.928C151.777 63.404 152.085 64.1133 152.085 65.056C152.085 66.0173 151.745 66.7687 151.063 67.31C150.391 67.842 149.449 68.108 148.235 68.108H146.905V70.894H147.269C147.577 70.894 147.731 71.02 147.731 71.272V71.622C147.731 71.874 147.577 72 147.269 72H145.281C144.973 72 144.819 71.874 144.819 71.622V71.272C144.819 71.02 144.973 70.894 145.281 70.894H145.645V63.306H145.281C144.973 63.306 144.819 63.18 144.819 62.928V62.578C144.819 62.326 144.973 62.2 145.281 62.2H148.431ZM148.137 67.002C149.08 67.002 149.757 66.8527 150.167 66.554C150.587 66.246 150.797 65.756 150.797 65.084C150.797 64.468 150.606 64.02 150.223 63.74C149.841 63.4507 149.229 63.306 148.389 63.306H146.905V67.002H148.137ZM160.607 69.41C160.729 69.41 160.822 69.452 160.887 69.536C160.953 69.6107 160.985 69.7227 160.985 69.872V71.454C160.985 71.6033 160.929 71.734 160.817 71.846C160.715 71.9487 160.584 72 160.425 72H154.195C153.887 72 153.733 71.874 153.733 71.622V71.272C153.733 71.02 153.887 70.894 154.195 70.894H154.559V63.306H154.195C153.887 63.306 153.733 63.18 153.733 62.928V62.578C153.733 62.326 153.887 62.2 154.195 62.2H160.355C160.514 62.2 160.645 62.256 160.747 62.368C160.85 62.4707 160.901 62.6013 160.901 62.76V64.062C160.901 64.37 160.78 64.524 160.537 64.524H160.173C159.931 64.524 159.809 64.37 159.809 64.062V63.306H155.819V66.372H158.899C159.011 66.372 159.105 66.414 159.179 66.498C159.263 66.5727 159.305 66.666 159.305 66.778V67.072C159.305 67.184 159.263 67.282 159.179 67.366C159.105 67.4407 159.011 67.478 158.899 67.478H155.819V70.894H159.879V69.872C159.879 69.564 160.005 69.41 160.257 69.41H160.607ZM167.138 72.14C166.261 72.14 165.5 71.944 164.856 71.552C164.222 71.1507 163.732 70.5813 163.386 69.844C163.041 69.0973 162.868 68.2247 162.868 67.226C162.868 66.19 163.05 65.2847 163.414 64.51C163.778 63.726 164.296 63.124 164.968 62.704C165.64 62.2747 166.424 62.06 167.32 62.06C168.188 62.06 168.944 62.2607 169.588 62.662C170.232 63.054 170.727 63.6187 171.072 64.356C171.418 65.0933 171.59 65.9613 171.59 66.96C171.59 68.0053 171.408 68.92 171.044 69.704C170.68 70.4787 170.162 71.0807 169.49 71.51C168.818 71.93 168.034 72.14 167.138 72.14ZM167.152 71.034C168.151 71.034 168.926 70.6793 169.476 69.97C170.027 69.2607 170.302 68.262 170.302 66.974C170.302 65.742 170.046 64.7993 169.532 64.146C169.019 63.4927 168.277 63.166 167.306 63.166C166.308 63.166 165.533 63.5207 164.982 64.23C164.432 64.93 164.156 65.924 164.156 67.212C164.156 68.4533 164.413 69.4007 164.926 70.054C165.44 70.7073 166.182 71.034 167.152 71.034ZM177.019 62.2C178.223 62.2 179.133 62.4427 179.749 62.928C180.365 63.404 180.673 64.1133 180.673 65.056C180.673 66.0173 180.332 66.7687 179.651 67.31C178.979 67.842 178.036 68.108 176.823 68.108H175.493V70.894H175.857C176.165 70.894 176.319 71.02 176.319 71.272V71.622C176.319 71.874 176.165 72 175.857 72H173.869C173.561 72 173.407 71.874 173.407 71.622V71.272C173.407 71.02 173.561 70.894 173.869 70.894H174.233V63.306H173.869C173.561 63.306 173.407 63.18 173.407 62.928V62.578C173.407 62.326 173.561 62.2 173.869 62.2H177.019ZM176.725 67.002C177.668 67.002 178.344 66.8527 178.755 66.554C179.175 66.246 179.385 65.756 179.385 65.084C179.385 64.468 179.194 64.02 178.811 63.74C178.428 63.4507 177.817 63.306 176.977 63.306H175.493V67.002H176.725ZM188.831 69.424C188.952 69.424 189.046 69.466 189.111 69.55C189.176 69.6247 189.209 69.7367 189.209 69.886V71.454C189.209 71.6033 189.153 71.734 189.041 71.846C188.938 71.9487 188.808 72 188.649 72H182.783C182.475 72 182.321 71.874 182.321 71.622V71.272C182.321 71.02 182.475 70.894 182.783 70.894H183.147V63.306H182.783C182.475 63.306 182.321 63.18 182.321 62.928V62.578C182.321 62.326 182.475 62.2 182.783 62.2H185.415C185.723 62.2 185.877 62.326 185.877 62.578V62.928C185.877 63.18 185.723 63.306 185.415 63.306H184.407V70.894H188.103V69.886C188.103 69.578 188.229 69.424 188.481 69.424H188.831ZM197.685 69.41C197.807 69.41 197.9 69.452 197.965 69.536C198.031 69.6107 198.063 69.7227 198.063 69.872V71.454C198.063 71.6033 198.007 71.734 197.895 71.846C197.793 71.9487 197.662 72 197.503 72H191.273C190.965 72 190.811 71.874 190.811 71.622V71.272C190.811 71.02 190.965 70.894 191.273 70.894H191.637V63.306H191.273C190.965 63.306 190.811 63.18 190.811 62.928V62.578C190.811 62.326 190.965 62.2 191.273 62.2H197.433C197.592 62.2 197.723 62.256 197.825 62.368C197.928 62.4707 197.979 62.6013 197.979 62.76V64.062C197.979 64.37 197.858 64.524 197.615 64.524H197.251C197.009 64.524 196.887 64.37 196.887 64.062V63.306H192.897V66.372H195.977C196.089 66.372 196.183 66.414 196.257 66.498C196.341 66.5727 196.383 66.666 196.383 66.778V67.072C196.383 67.184 196.341 67.282 196.257 67.366C196.183 67.4407 196.089 67.478 195.977 67.478H192.897V70.894H196.957V69.872C196.957 69.564 197.083 69.41 197.335 69.41H197.685Z" fill="#DEDEE0"/>
<path d="M244.679 9.79603L261.5 0.57027L278.321 9.79603V28.204L261.5 37.4297L244.679 28.204V9.79603Z" stroke="#DEDEE0"/>
<path fill-rule="evenodd" clip-rule="evenodd" d="M255.623 9.83333C255.187 9.83333 254.833 10.2064 254.833 10.6667C254.833 11.1269 255.187 11.5 255.623 11.5H256.26C257.382 16.4978 259.129 18.9978 261.5 19C263.872 19.0022 265.619 16.5022 266.74 11.5H267.377C267.813 11.5 268.167 11.1269 268.167 10.6667C268.167 10.2064 267.813 9.83333 267.377 9.83333H255.623ZM255.623 26.5C255.187 26.5 254.833 26.8731 254.833 27.3333C254.833 27.7936 255.187 28.1667 255.623 28.1667H267.377C267.813 28.1667 268.167 27.7936 268.167 27.3333C268.167 26.8731 267.813 26.5 267.377 26.5H266.74C265.618 21.5022 263.872 19.0022 261.5 19C259.128 18.9978 257.382 21.4978 256.26 26.5H255.623Z" fill="#DEDEE0"/>
<path d="M258.609 49.016C259.195 49.2507 259.643 49.608 259.953 50.088C260.262 50.5573 260.417 51.1173 260.417 51.768C260.417 52.4293 260.235 53.016 259.873 53.528C259.51 54.04 258.998 54.44 258.337 54.728C257.686 55.016 256.934 55.16 256.081 55.16C255.227 55.16 254.47 55.016 253.809 54.728C253.158 54.44 252.651 54.04 252.289 53.528C251.926 53.016 251.745 52.4293 251.745 51.768C251.745 51.1173 251.899 50.5573 252.209 50.088C252.518 49.608 252.966 49.2507 253.553 49.016C253.051 48.7707 252.683 48.4613 252.449 48.088C252.214 47.7147 252.097 47.2507 252.097 46.696C252.097 46.12 252.267 45.5973 252.609 45.128C252.95 44.6587 253.419 44.296 254.017 44.04C254.625 43.7733 255.313 43.64 256.081 43.64C256.849 43.64 257.531 43.7733 258.129 44.04C258.737 44.296 259.211 44.6587 259.553 45.128C259.894 45.5973 260.065 46.12 260.065 46.696C260.065 47.2507 259.947 47.7147 259.713 48.088C259.478 48.4613 259.11 48.7707 258.609 49.016ZM256.081 45.768C255.654 45.768 255.318 45.8853 255.073 46.12C254.838 46.344 254.721 46.6427 254.721 47.016C254.721 47.4 254.838 47.6987 255.073 47.912C255.307 48.1147 255.643 48.216 256.081 48.216C256.529 48.216 256.865 48.1147 257.089 47.912C257.323 47.7093 257.441 47.4107 257.441 47.016C257.441 46.6427 257.318 46.344 257.073 46.12C256.827 45.8853 256.497 45.768 256.081 45.768ZM256.081 53.032C256.625 53.032 257.046 52.9147 257.345 52.68C257.643 52.4347 257.793 52.0987 257.793 51.672C257.793 51.2347 257.643 50.904 257.345 50.68C257.057 50.456 256.635 50.344 256.081 50.344C255.515 50.344 255.083 50.456 254.785 50.68C254.497 50.904 254.353 51.2347 254.353 51.672C254.353 52.0987 254.502 52.4347 254.801 52.68C255.11 52.9147 255.537 53.032 256.081 53.032ZM266.604 55.16C265.644 55.16 264.817 54.936 264.124 54.488C263.441 54.0293 262.913 53.3787 262.54 52.536C262.177 51.6933 261.996 50.696 261.996 49.544C261.996 48.3173 262.177 47.2613 262.54 46.376C262.902 45.4907 263.425 44.8133 264.108 44.344C264.801 43.8747 265.633 43.64 266.604 43.64C267.564 43.64 268.385 43.8693 269.068 44.328C269.761 44.776 270.289 45.4213 270.652 46.264C271.025 47.1067 271.212 48.104 271.212 49.256C271.212 50.4827 271.03 51.5387 270.668 52.424C270.305 53.3093 269.777 53.9867 269.084 54.456C268.401 54.9253 267.574 55.16 266.604 55.16ZM266.604 53.032C267.297 53.032 267.798 52.7333 268.108 52.136C268.428 51.528 268.588 50.5787 268.588 49.288C268.588 48.104 268.428 47.224 268.108 46.648C267.788 46.0613 267.286 45.768 266.604 45.768C265.91 45.768 265.404 46.072 265.084 46.68C264.764 47.288 264.604 48.232 264.604 49.512C264.604 50.696 264.764 51.5813 265.084 52.168C265.414 52.744 265.921 53.032 266.604 53.032Z" fill="white"/>
<path d="M258.378 63.306V70.894H258.742C259.041 70.894 259.19 71.02 259.19 71.272V71.622C259.19 71.874 259.041 72 258.742 72H256.754C256.446 72 256.292 71.874 256.292 71.622V71.272C256.292 71.02 256.446 70.894 256.754 70.894H257.118V63.95L254.402 69.088C254.318 69.2653 254.183 69.354 253.996 69.354H253.744C253.558 69.354 253.422 69.2653 253.338 69.088L250.622 63.95V70.894H250.986C251.294 70.894 251.448 71.02 251.448 71.272V71.622C251.448 71.874 251.294 72 250.986 72H249.11C248.802 72 248.648 71.874 248.648 71.622V71.272C248.648 71.02 248.802 70.894 249.11 70.894H249.474V63.306H249.11C248.802 63.306 248.648 63.18 248.648 62.928V62.578C248.648 62.326 248.802 62.2 249.11 62.2H250.734C250.93 62.2 251.07 62.2887 251.154 62.466L253.94 67.744L256.712 62.466C256.796 62.2887 256.932 62.2 257.118 62.2H258.742C259.041 62.2 259.19 62.326 259.19 62.578V62.928C259.19 63.18 259.041 63.306 258.742 63.306H258.378ZM261.401 72C261.093 72 260.939 71.874 260.939 71.622V71.272C260.939 71.02 261.093 70.894 261.401 70.894H261.765V63.306H261.401C261.093 63.306 260.939 63.18 260.939 62.928V62.578C260.939 62.326 261.093 62.2 261.401 62.2H263.389C263.697 62.2 263.851 62.326 263.851 62.578V62.928C263.851 63.18 263.697 63.306 263.389 63.306H263.025V70.894H263.389C263.697 70.894 263.851 71.02 263.851 71.272V71.622C263.851 71.874 263.697 72 263.389 72H261.401ZM274.002 62.2C274.3 62.2 274.45 62.326 274.45 62.578V62.928C274.45 63.18 274.3 63.306 274.002 63.306H273.638V71.482C273.638 71.6313 273.591 71.7573 273.498 71.86C273.404 71.9533 273.283 72 273.134 72H272.658C272.518 72 272.396 71.9347 272.294 71.804L267.562 64.37V70.894H267.926C268.234 70.894 268.388 71.02 268.388 71.272V71.622C268.388 71.874 268.234 72 267.926 72H266.05C265.742 72 265.588 71.874 265.588 71.622V71.272C265.588 71.02 265.742 70.894 266.05 70.894H266.414V63.306H266.05C265.742 63.306 265.588 63.18 265.588 62.928V62.578C265.588 62.326 265.742 62.2 266.05 62.2H267.38C267.529 62.2 267.655 62.2653 267.758 62.396L272.49 69.83V63.306H272.112C271.813 63.306 271.664 63.18 271.664 62.928V62.578C271.664 62.326 271.813 62.2 272.112 62.2H274.002Z" fill="#DEDEE0"/>
<defs>
<clipPath id="clip0_632_8897">
<rect width="20" height="20" fill="white" transform="translate(161.5 9)"/>
</clipPath>
</defs>
</svg>
