<svg width="66" height="277" viewBox="0 0 66 277" fill="none" xmlns="http://www.w3.org/2000/svg">
<path d="M28.9094 50.832C29.1334 50.832 29.32 50.9067 29.4694 51.056C29.6187 51.2053 29.6934 51.392 29.6934 51.616V52.176C29.6934 52.4 29.6187 52.5867 29.4694 52.736C29.32 52.8853 29.1334 52.96 28.9094 52.96H27.9014V53.872H28.1414C28.3654 53.872 28.5467 53.9307 28.6854 54.048C28.824 54.1653 28.8934 54.3467 28.8934 54.592V55.296C28.8934 55.5413 28.824 55.7227 28.6854 55.84C28.5467 55.9467 28.3654 56 28.1414 56H25.1014C24.8667 56 24.68 55.9467 24.5414 55.84C24.4027 55.7227 24.3334 55.5413 24.3334 55.296V54.592C24.3334 54.3467 24.4027 54.1653 24.5414 54.048C24.68 53.9307 24.8667 53.872 25.1014 53.872H25.3414V52.96H21.3734C21.1494 52.96 20.9627 52.8853 20.8134 52.736C20.664 52.5867 20.5894 52.4 20.5894 52.176V51.712C20.5894 51.4453 20.616 51.232 20.6694 51.072C20.7334 50.912 20.8347 50.7307 20.9734 50.528L24.4294 45.424C24.5787 45.2 24.7334 45.04 24.8934 44.944C25.0534 44.848 25.2454 44.8 25.4694 44.8H27.1014C27.3254 44.8 27.512 44.8747 27.6614 45.024C27.8214 45.1733 27.9014 45.3653 27.9014 45.6V50.832H28.9094ZM25.3414 50.832V47.28L22.9254 50.832H25.3414ZM34.4595 53.312C34.7902 53.6107 34.9555 54.0053 34.9555 54.496C34.9555 54.9867 34.7902 55.3867 34.4595 55.696C34.1395 56.0053 33.7288 56.16 33.2275 56.16C32.7262 56.16 32.3102 56.0053 31.9795 55.696C31.6488 55.3867 31.4835 54.9867 31.4835 54.496C31.4835 54.0053 31.6488 53.6107 31.9795 53.312C32.3102 53.0027 32.7262 52.848 33.2275 52.848C33.7288 52.848 34.1395 53.0027 34.4595 53.312ZM41.2736 48.576C42.5216 48.576 43.471 48.9013 44.1216 49.552C44.783 50.2027 45.1136 51.104 45.1136 52.256C45.1136 53.0347 44.9323 53.7227 44.5696 54.32C44.2176 54.9067 43.7163 55.36 43.0656 55.68C42.415 56 41.6576 56.16 40.7936 56.16C40.079 56.16 39.4336 56.0587 38.8576 55.856C38.2923 55.6427 37.8496 55.3493 37.5296 54.976C37.2096 54.6027 37.0496 54.1867 37.0496 53.728C37.0496 53.2587 37.1883 52.8747 37.4656 52.576C37.7536 52.2773 38.1216 52.128 38.5696 52.128C39.0283 52.128 39.391 52.256 39.6576 52.512C39.935 52.7573 40.0736 53.0827 40.0736 53.488C40.0736 53.6267 40.0576 53.76 40.0256 53.888C40.1963 53.984 40.4576 54.032 40.8096 54.032C41.3323 54.032 41.743 53.8827 42.0416 53.584C42.351 53.2747 42.5056 52.864 42.5056 52.352C42.5056 51.8293 42.3456 51.424 42.0256 51.136C41.7056 50.848 41.247 50.704 40.6496 50.704C40.1803 50.704 39.711 50.816 39.2416 51.04C38.8896 51.1787 38.6123 51.248 38.4096 51.248C38.0896 51.248 37.8603 51.1893 37.7216 51.072C37.583 50.9547 37.5136 50.7733 37.5136 50.528C37.5136 50.144 37.599 48.608 37.7696 45.92C37.823 45.1733 38.207 44.8 38.9216 44.8H43.8816C44.1483 44.8 44.3723 44.8853 44.5536 45.056C44.735 45.2267 44.8256 45.44 44.8256 45.696V46.032C44.8256 46.2987 44.735 46.5173 44.5536 46.688C44.383 46.8587 44.159 46.944 43.8816 46.944L40.2016 46.912L40.0896 48.752C40.463 48.6347 40.8576 48.576 41.2736 48.576Z" fill="white"/>
<path d="M5.43034 73.14C4.553 73.14 3.79234 72.944 3.14834 72.552C2.51367 72.1507 2.02367 71.5813 1.67834 70.844C1.333 70.0973 1.16034 69.2247 1.16034 68.226C1.16034 67.19 1.34234 66.2847 1.70634 65.51C2.07034 64.726 2.58834 64.124 3.26034 63.704C3.93234 63.2747 4.71634 63.06 5.61234 63.06C6.48034 63.06 7.23634 63.2607 7.88034 63.662C8.52434 64.054 9.019 64.6187 9.36434 65.356C9.70967 66.0933 9.88234 66.9613 9.88234 67.96C9.88234 69.0053 9.70034 69.92 9.33634 70.704C8.97234 71.4787 8.45434 72.0807 7.78234 72.51C7.11034 72.93 6.32634 73.14 5.43034 73.14ZM5.44434 72.034C6.443 72.034 7.21767 71.6793 7.76834 70.97C8.319 70.2607 8.59434 69.262 8.59434 67.974C8.59434 66.742 8.33767 65.7993 7.82434 65.146C7.311 64.4927 6.569 64.166 5.59834 64.166C4.59967 64.166 3.825 64.5207 3.27434 65.23C2.72367 65.93 2.44834 66.924 2.44834 68.212C2.44834 69.4533 2.705 70.4007 3.21834 71.054C3.73167 71.7073 4.47367 72.034 5.44434 72.034ZM19.9171 63.2C20.2251 63.2 20.3791 63.326 20.3791 63.578V63.928C20.3791 64.18 20.2251 64.306 19.9171 64.306H19.5531V68.968C19.5531 70.3213 19.2451 71.3573 18.6291 72.076C18.0224 72.7853 17.1311 73.14 15.9551 73.14C14.7884 73.14 13.8971 72.7993 13.2811 72.118C12.6651 71.4273 12.3571 70.4427 12.3571 69.164V64.306H11.9931C11.6851 64.306 11.5311 64.18 11.5311 63.928V63.578C11.5311 63.326 11.6851 63.2 11.9931 63.2H13.9811C14.2891 63.2 14.4431 63.326 14.4431 63.578V63.928C14.4431 64.18 14.2891 64.306 13.9811 64.306H13.6171V69.15C13.6171 70.13 13.8037 70.858 14.1771 71.334C14.5597 71.8007 15.1524 72.034 15.9551 72.034C16.7577 72.034 17.3457 71.7867 17.7191 71.292C18.1017 70.788 18.2931 70.0133 18.2931 68.968V64.306H17.9291C17.6211 64.306 17.4671 64.18 17.4671 63.928V63.578C17.4671 63.326 17.6211 63.2 17.9291 63.2H19.9171ZM28.953 63.2C29.1116 63.2 29.2423 63.256 29.345 63.368C29.457 63.4707 29.513 63.6013 29.513 63.76V65.258C29.513 65.566 29.387 65.72 29.135 65.72H28.785C28.533 65.72 28.407 65.566 28.407 65.258V64.306H26.293V71.894H26.657C26.965 71.894 27.119 72.02 27.119 72.272V72.622C27.119 72.874 26.965 73 26.657 73H24.669C24.3703 73 24.221 72.874 24.221 72.622V72.272C24.221 72.02 24.3703 71.894 24.669 71.894H25.033V64.306H22.919V65.258C22.919 65.566 22.793 65.72 22.541 65.72H22.191C21.939 65.72 21.813 65.566 21.813 65.258V63.76C21.813 63.6013 21.8643 63.4707 21.967 63.368C22.0696 63.256 22.2003 63.2 22.359 63.2H28.953ZM39.3229 73.14C38.4456 73.14 37.6849 72.944 37.0409 72.552C36.4062 72.1507 35.9162 71.5813 35.5709 70.844C35.2256 70.0973 35.0529 69.2247 35.0529 68.226C35.0529 67.19 35.2349 66.2847 35.5989 65.51C35.9629 64.726 36.4809 64.124 37.1529 63.704C37.8249 63.2747 38.6089 63.06 39.5049 63.06C40.3729 63.06 41.1289 63.2607 41.7729 63.662C42.4169 64.054 42.9116 64.6187 43.2569 65.356C43.6022 66.0933 43.7749 66.9613 43.7749 67.96C43.7749 69.0053 43.5929 69.92 43.2289 70.704C42.8649 71.4787 42.3469 72.0807 41.6749 72.51C41.0029 72.93 40.2189 73.14 39.3229 73.14ZM39.3369 72.034C40.3356 72.034 41.1102 71.6793 41.6609 70.97C42.2116 70.2607 42.4869 69.262 42.4869 67.974C42.4869 66.742 42.2302 65.7993 41.7169 65.146C41.2036 64.4927 40.4616 64.166 39.4909 64.166C38.4922 64.166 37.7176 64.5207 37.1669 65.23C36.6162 65.93 36.3409 66.924 36.3409 68.212C36.3409 69.4533 36.5976 70.4007 37.1109 71.054C37.6242 71.7073 38.3662 72.034 39.3369 72.034ZM52.2136 63.2C52.3723 63.2 52.503 63.256 52.6056 63.368C52.7083 63.4707 52.7596 63.6013 52.7596 63.76V65.062C52.7596 65.37 52.6383 65.524 52.3956 65.524H52.0316C51.789 65.524 51.6676 65.37 51.6676 65.062V64.306H47.6776V67.54H50.7576C50.8696 67.54 50.963 67.582 51.0376 67.666C51.1216 67.7407 51.1636 67.834 51.1636 67.946V68.24C51.1636 68.352 51.1216 68.45 51.0376 68.534C50.963 68.6087 50.8696 68.646 50.7576 68.646H47.6776V71.894H48.7976C49.0963 71.894 49.2456 72.02 49.2456 72.272V72.622C49.2456 72.874 49.0963 73 48.7976 73H46.0536C45.7456 73 45.5916 72.874 45.5916 72.622V72.272C45.5916 72.02 45.7456 71.894 46.0536 71.894H46.4176V64.306H46.0536C45.7456 64.306 45.5916 64.18 45.5916 63.928V63.578C45.5916 63.326 45.7456 63.2 46.0536 63.2H52.2136ZM61.7258 66.574C62.3791 66.574 62.9484 66.7093 63.4338 66.98C63.9284 67.2413 64.3064 67.6147 64.5678 68.1C64.8384 68.5853 64.9738 69.15 64.9738 69.794C64.9738 70.4567 64.8244 71.04 64.5258 71.544C64.2364 72.048 63.8211 72.44 63.2798 72.72C62.7478 73 62.1364 73.14 61.4458 73.14C60.8204 73.14 60.2558 73.0373 59.7518 72.832C59.2478 72.6173 58.8511 72.328 58.5618 71.964C58.2818 71.6 58.1418 71.194 58.1418 70.746C58.1418 70.438 58.2164 70.1953 58.3658 70.018C58.5244 69.8407 58.7391 69.752 59.0098 69.752C59.2524 69.752 59.4484 69.8267 59.5978 69.976C59.7564 70.1253 59.8358 70.312 59.8358 70.536C59.8358 70.8067 59.7424 71.0213 59.5558 71.18C59.6958 71.4507 59.9291 71.6607 60.2558 71.81C60.5824 71.9593 60.9744 72.034 61.4318 72.034C62.1318 72.034 62.6824 71.838 63.0838 71.446C63.4851 71.054 63.6858 70.5127 63.6858 69.822C63.6858 69.15 63.4851 68.6273 63.0838 68.254C62.6918 67.8713 62.1458 67.68 61.4458 67.68C61.0444 67.68 60.7084 67.736 60.4378 67.848C60.1671 67.96 59.8824 68.114 59.5838 68.31C59.4438 68.394 59.3364 68.4547 59.2618 68.492C59.1871 68.52 59.1124 68.534 59.0378 68.534C58.8978 68.534 58.7951 68.506 58.7298 68.45C58.6738 68.394 58.6458 68.3053 58.6458 68.184C58.6458 68.1653 58.7158 66.9147 58.8558 64.432L58.8978 63.746C58.9164 63.578 58.9724 63.4473 59.0658 63.354C59.1684 63.2513 59.3084 63.2 59.4858 63.2H64.1478C64.2691 63.2 64.3718 63.242 64.4558 63.326C64.5491 63.41 64.5958 63.5127 64.5958 63.634V63.872C64.5958 63.9933 64.5538 64.096 64.4698 64.18C64.3858 64.264 64.2784 64.306 64.1478 64.306H60.0878L59.9198 67.05C60.4331 66.7327 61.0351 66.574 61.7258 66.574Z" fill="#DEDEE0"/>
<path d="M17.1795 9.79603L34 0.57027L50.8205 9.79603V28.204L34 37.4297L17.1795 28.204V9.79603Z" stroke="#DEDEE0"/>
<path fill-rule="evenodd" clip-rule="evenodd" d="M33.9999 11.5C32.159 11.5 30.6666 12.9924 30.6666 14.8334V15.6667H37.3333V14.8334C37.3333 12.9924 35.8409 11.5 33.9999 11.5ZM28.9999 14.8334V15.6667H26.5925C25.5732 15.6667 24.8333 16.5299 24.8333 17.4849V25.5152C24.8333 26.4692 25.5718 27.3317 26.5895 27.3334L26.5925 27.3334H41.4073L41.4103 27.3334C42.4281 27.3317 43.1666 26.4692 43.1666 25.5152V17.4849C43.1666 16.5299 42.4266 15.6667 41.4073 15.6667H38.9999V14.8334C38.9999 12.0719 36.7613 9.83337 33.9999 9.83337C31.2385 9.83337 28.9999 12.0719 28.9999 14.8334ZM28.1666 20.3096C28.1666 20.0466 27.7935 19.8334 27.3333 19.8334C26.873 19.8334 26.4999 20.0466 26.4999 20.3096V22.6905C26.4999 22.9535 26.873 23.1667 27.3333 23.1667C27.7935 23.1667 28.1666 22.9535 28.1666 22.6905V20.3096ZM30.6666 19.8334C31.1268 19.8334 31.4999 20.0466 31.4999 20.3096V22.6905C31.4999 22.9535 31.1268 23.1667 30.6666 23.1667C30.2063 23.1667 29.8333 22.9535 29.8333 22.6905V20.3096C29.8333 20.0466 30.2063 19.8334 30.6666 19.8334ZM34.8333 20.3096C34.8333 20.0466 34.4602 19.8334 33.9999 19.8334C33.5397 19.8334 33.1666 20.0466 33.1666 20.3096V22.6905C33.1666 22.9535 33.5397 23.1667 33.9999 23.1667C34.4602 23.1667 34.8333 22.9535 34.8333 22.6905V20.3096ZM37.3333 19.8334C37.7935 19.8334 38.1666 20.0466 38.1666 20.3096V22.6905C38.1666 22.9535 37.7935 23.1667 37.3333 23.1667C36.873 23.1667 36.4999 22.9535 36.4999 22.6905V20.3096C36.4999 20.0466 36.873 19.8334 37.3333 19.8334ZM41.4999 20.3096C41.4999 20.0466 41.1268 19.8334 40.6666 19.8334C40.2063 19.8334 39.8333 20.0466 39.8333 20.3096V22.6905C39.8333 22.9535 40.2063 23.1667 40.6666 23.1667C41.1268 23.1667 41.4999 22.9535 41.4999 22.6905V20.3096Z" fill="#DEDEE0"/>
<path d="M23.5422 150.832C23.7662 150.832 23.9529 150.907 24.1022 151.056C24.2515 151.205 24.3262 151.392 24.3262 151.616V152.176C24.3262 152.4 24.2515 152.587 24.1022 152.736C23.9529 152.885 23.7662 152.96 23.5422 152.96H22.5342V153.872H22.7742C22.9982 153.872 23.1795 153.931 23.3182 154.048C23.4569 154.165 23.5262 154.347 23.5262 154.592V155.296C23.5262 155.541 23.4569 155.723 23.3182 155.84C23.1795 155.947 22.9982 156 22.7742 156H19.7342C19.4995 156 19.3129 155.947 19.1742 155.84C19.0355 155.723 18.9662 155.541 18.9662 155.296V154.592C18.9662 154.347 19.0355 154.165 19.1742 154.048C19.3129 153.931 19.4995 153.872 19.7342 153.872H19.9742V152.96H16.0062C15.7822 152.96 15.5955 152.885 15.4462 152.736C15.2969 152.587 15.2222 152.4 15.2222 152.176V151.712C15.2222 151.445 15.2489 151.232 15.3022 151.072C15.3662 150.912 15.4675 150.731 15.6062 150.528L19.0622 145.424C19.2115 145.2 19.3662 145.04 19.5262 144.944C19.6862 144.848 19.8782 144.8 20.1022 144.8H21.7342C21.9582 144.8 22.1449 144.875 22.2942 145.024C22.4542 145.173 22.5342 145.365 22.5342 145.6V150.832H23.5422ZM19.9742 150.832V147.28L17.5582 150.832H19.9742ZM26.6603 151.936C26.4256 151.936 26.2336 151.861 26.0843 151.712C25.935 151.563 25.8603 151.376 25.8603 151.152V150.608C25.8603 150.384 25.935 150.197 26.0843 150.048C26.2336 149.899 26.4256 149.824 26.6603 149.824H31.9723C32.207 149.824 32.399 149.899 32.5483 150.048C32.6976 150.197 32.7723 150.384 32.7723 150.608V151.152C32.7723 151.376 32.6976 151.563 32.5483 151.712C32.399 151.861 32.207 151.936 31.9723 151.936H26.6603ZM39.1007 153.872C39.3247 153.872 39.506 153.931 39.6447 154.048C39.7834 154.165 39.8527 154.347 39.8527 154.592V155.296C39.8527 155.541 39.7834 155.723 39.6447 155.84C39.506 155.947 39.3247 156 39.1007 156H36.0607C35.826 156 35.6394 155.947 35.5007 155.84C35.362 155.723 35.2927 155.541 35.2927 155.296V154.592C35.2927 154.347 35.362 154.165 35.5007 154.048C35.6394 153.931 35.826 153.872 36.0607 153.872H36.3007V148.752H35.0367C34.8127 148.752 34.626 148.677 34.4767 148.528C34.3274 148.368 34.2527 148.181 34.2527 147.968V147.408C34.2527 147.184 34.3274 146.997 34.4767 146.848C34.626 146.699 34.8127 146.624 35.0367 146.624H35.5327C35.7567 146.624 35.938 146.565 36.0767 146.448C36.226 146.331 36.3007 146.149 36.3007 145.904V145.6C36.3007 145.365 36.3754 145.173 36.5247 145.024C36.674 144.875 36.8607 144.8 37.0847 144.8H38.0607C38.2847 144.8 38.4714 144.875 38.6207 145.024C38.7807 145.173 38.8607 145.365 38.8607 145.6V153.872H39.1007ZM45.8381 156.16C44.8781 156.16 44.0514 155.936 43.3581 155.488C42.6754 155.029 42.1474 154.379 41.7741 153.536C41.4114 152.693 41.2301 151.696 41.2301 150.544C41.2301 149.317 41.4114 148.261 41.7741 147.376C42.1367 146.491 42.6594 145.813 43.3421 145.344C44.0354 144.875 44.8674 144.64 45.8381 144.64C46.7981 144.64 47.6194 144.869 48.3021 145.328C48.9954 145.776 49.5234 146.421 49.8861 147.264C50.2594 148.107 50.4461 149.104 50.4461 150.256C50.4461 151.483 50.2647 152.539 49.9021 153.424C49.5394 154.309 49.0114 154.987 48.3181 155.456C47.6354 155.925 46.8087 156.16 45.8381 156.16ZM45.8381 154.032C46.5314 154.032 47.0327 153.733 47.3421 153.136C47.6621 152.528 47.8221 151.579 47.8221 150.288C47.8221 149.104 47.6621 148.224 47.3421 147.648C47.0221 147.061 46.5207 146.768 45.8381 146.768C45.1447 146.768 44.6381 147.072 44.3181 147.68C43.9981 148.288 43.8381 149.232 43.8381 150.512C43.8381 151.696 43.9981 152.581 44.3181 153.168C44.6487 153.744 45.1554 154.032 45.8381 154.032Z" fill="white"/>
<path d="M9.93117 163.2C11.1352 163.2 12.0452 163.443 12.6612 163.928C13.2772 164.404 13.5852 165.113 13.5852 166.056C13.5852 167.017 13.2445 167.769 12.5632 168.31C11.8912 168.842 10.9485 169.108 9.73517 169.108H8.40517V171.894H8.76917C9.07717 171.894 9.23117 172.02 9.23117 172.272V172.622C9.23117 172.874 9.07717 173 8.76917 173H6.78117C6.47317 173 6.31917 172.874 6.31917 172.622V172.272C6.31917 172.02 6.47317 171.894 6.78117 171.894H7.14517V164.306H6.78117C6.47317 164.306 6.31917 164.18 6.31917 163.928V163.578C6.31917 163.326 6.47317 163.2 6.78117 163.2H9.93117ZM9.63717 168.002C10.5798 168.002 11.2565 167.853 11.6672 167.554C12.0872 167.246 12.2972 166.756 12.2972 166.084C12.2972 165.468 12.1058 165.02 11.7232 164.74C11.3405 164.451 10.7292 164.306 9.88917 164.306H8.40517V168.002H9.63717ZM22.1072 170.41C22.2286 170.41 22.3219 170.452 22.3872 170.536C22.4526 170.611 22.4852 170.723 22.4852 170.872V172.454C22.4852 172.603 22.4292 172.734 22.3172 172.846C22.2146 172.949 22.0839 173 21.9252 173H15.6952C15.3872 173 15.2332 172.874 15.2332 172.622V172.272C15.2332 172.02 15.3872 171.894 15.6952 171.894H16.0592V164.306H15.6952C15.3872 164.306 15.2332 164.18 15.2332 163.928V163.578C15.2332 163.326 15.3872 163.2 15.6952 163.2H21.8552C22.0139 163.2 22.1446 163.256 22.2472 163.368C22.3499 163.471 22.4012 163.601 22.4012 163.76V165.062C22.4012 165.37 22.2799 165.524 22.0372 165.524H21.6732C21.4306 165.524 21.3092 165.37 21.3092 165.062V164.306H17.3192V167.372H20.3992C20.5112 167.372 20.6046 167.414 20.6792 167.498C20.7632 167.573 20.8052 167.666 20.8052 167.778V168.072C20.8052 168.184 20.7632 168.282 20.6792 168.366C20.6046 168.441 20.5112 168.478 20.3992 168.478H17.3192V171.894H21.3792V170.872C21.3792 170.564 21.5052 170.41 21.7572 170.41H22.1072ZM28.6383 173.14C27.761 173.14 27.0003 172.944 26.3563 172.552C25.7217 172.151 25.2317 171.581 24.8863 170.844C24.541 170.097 24.3683 169.225 24.3683 168.226C24.3683 167.19 24.5503 166.285 24.9143 165.51C25.2783 164.726 25.7963 164.124 26.4683 163.704C27.1403 163.275 27.9243 163.06 28.8203 163.06C29.6883 163.06 30.4443 163.261 31.0883 163.662C31.7323 164.054 32.227 164.619 32.5723 165.356C32.9177 166.093 33.0903 166.961 33.0903 167.96C33.0903 169.005 32.9083 169.92 32.5443 170.704C32.1803 171.479 31.6623 172.081 30.9903 172.51C30.3183 172.93 29.5343 173.14 28.6383 173.14ZM28.6523 172.034C29.651 172.034 30.4257 171.679 30.9763 170.97C31.527 170.261 31.8023 169.262 31.8023 167.974C31.8023 166.742 31.5457 165.799 31.0323 165.146C30.519 164.493 29.777 164.166 28.8063 164.166C27.8077 164.166 27.033 164.521 26.4823 165.23C25.9317 165.93 25.6563 166.924 25.6563 168.212C25.6563 169.453 25.913 170.401 26.4263 171.054C26.9397 171.707 27.6817 172.034 28.6523 172.034ZM38.5191 163.2C39.7231 163.2 40.6331 163.443 41.2491 163.928C41.8651 164.404 42.1731 165.113 42.1731 166.056C42.1731 167.017 41.8324 167.769 41.1511 168.31C40.4791 168.842 39.5364 169.108 38.3231 169.108H36.9931V171.894H37.3571C37.6651 171.894 37.8191 172.02 37.8191 172.272V172.622C37.8191 172.874 37.6651 173 37.3571 173H35.3691C35.0611 173 34.9071 172.874 34.9071 172.622V172.272C34.9071 172.02 35.0611 171.894 35.3691 171.894H35.7331V164.306H35.3691C35.0611 164.306 34.9071 164.18 34.9071 163.928V163.578C34.9071 163.326 35.0611 163.2 35.3691 163.2H38.5191ZM38.2251 168.002C39.1677 168.002 39.8444 167.853 40.2551 167.554C40.6751 167.246 40.8851 166.756 40.8851 166.084C40.8851 165.468 40.6937 165.02 40.3111 164.74C39.9284 164.451 39.3171 164.306 38.4771 164.306H36.9931V168.002H38.2251ZM50.3311 170.424C50.4525 170.424 50.5458 170.466 50.6111 170.55C50.6765 170.625 50.7091 170.737 50.7091 170.886V172.454C50.7091 172.603 50.6531 172.734 50.5411 172.846C50.4385 172.949 50.3078 173 50.1491 173H44.2831C43.9751 173 43.8211 172.874 43.8211 172.622V172.272C43.8211 172.02 43.9751 171.894 44.2831 171.894H44.6471V164.306H44.2831C43.9751 164.306 43.8211 164.18 43.8211 163.928V163.578C43.8211 163.326 43.9751 163.2 44.2831 163.2H46.9151C47.2231 163.2 47.3771 163.326 47.3771 163.578V163.928C47.3771 164.18 47.2231 164.306 46.9151 164.306H45.9071V171.894H49.6031V170.886C49.6031 170.578 49.7291 170.424 49.9811 170.424H50.3311ZM59.1854 170.41C59.3067 170.41 59.4 170.452 59.4654 170.536C59.5307 170.611 59.5634 170.723 59.5634 170.872V172.454C59.5634 172.603 59.5074 172.734 59.3954 172.846C59.2927 172.949 59.162 173 59.0034 173H52.7734C52.4654 173 52.3114 172.874 52.3114 172.622V172.272C52.3114 172.02 52.4654 171.894 52.7734 171.894H53.1374V164.306H52.7734C52.4654 164.306 52.3114 164.18 52.3114 163.928V163.578C52.3114 163.326 52.4654 163.2 52.7734 163.2H58.9334C59.092 163.2 59.2227 163.256 59.3254 163.368C59.428 163.471 59.4794 163.601 59.4794 163.76V165.062C59.4794 165.37 59.358 165.524 59.1154 165.524H58.7514C58.5087 165.524 58.3874 165.37 58.3874 165.062V164.306H54.3974V167.372H57.4774C57.5894 167.372 57.6827 167.414 57.7574 167.498C57.8414 167.573 57.8834 167.666 57.8834 167.778V168.072C57.8834 168.184 57.8414 168.282 57.7574 168.366C57.6827 168.441 57.5894 168.478 57.4774 168.478H54.3974V171.894H58.4574V170.872C58.4574 170.564 58.5834 170.41 58.8354 170.41H59.1854Z" fill="#DEDEE0"/>
<path d="M16.1795 110.796L33 101.57L49.8205 110.796V129.204L33 138.43L16.1795 129.204V110.796Z" stroke="#DEDEE0"/>
<path d="M30.7273 110.833C31.8384 110.833 32.9179 111.2 33.7955 111.875C34.673 112.55 35.2986 113.496 35.5734 114.563C35.8481 115.63 35.7565 116.757 35.3129 117.767C34.8693 118.776 34.099 119.61 33.1236 120.138C36.2182 120.917 38.4545 123.123 38.4545 125.363C38.4545 127.5 33.9091 127.5 30.7273 127.5C26.6364 127.5 23 127.5 23 125.659C23 123.338 25.2282 120.888 28.3182 120.13C27.3461 119.6 26.5795 118.765 26.139 117.755C25.6985 116.746 25.6093 115.621 25.8852 114.556C26.1612 113.491 26.7867 112.547 27.6633 111.873C28.5399 111.199 29.6178 110.834 30.7273 110.833ZM37.0909 112.635C39.2027 112.635 40.9145 114.387 40.9145 116.547C40.9145 118.029 40.1091 119.318 38.9218 119.982C41.2891 120.596 43 122.338 43 124.105C43 124.988 41.7427 125.592 40.0445 125.903C40.0745 125.73 40.0909 125.55 40.0909 125.362L40.0864 125.152C39.9973 122.99 38.53 121.001 36.3464 119.714L36.1382 119.596L36.2336 119.46C36.9712 118.375 37.3647 117.097 37.3636 115.788C37.3636 114.66 37.0773 113.599 36.5727 112.671C36.7444 112.648 36.9176 112.635 37.0909 112.635Z" fill="#DEDEE0"/>
<path d="M29.1086 250.016C29.6952 250.251 30.1432 250.608 30.4526 251.088C30.7619 251.557 30.9166 252.117 30.9166 252.768C30.9166 253.429 30.7352 254.016 30.3726 254.528C30.0099 255.04 29.4979 255.44 28.8366 255.728C28.1859 256.016 27.4339 256.16 26.5806 256.16C25.7272 256.16 24.9699 256.016 24.3086 255.728C23.6579 255.44 23.1512 255.04 22.7886 254.528C22.4259 254.016 22.2446 253.429 22.2446 252.768C22.2446 252.117 22.3992 251.557 22.7086 251.088C23.0179 250.608 23.4659 250.251 24.0526 250.016C23.5512 249.771 23.1832 249.461 22.9486 249.088C22.7139 248.715 22.5966 248.251 22.5966 247.696C22.5966 247.12 22.7672 246.597 23.1086 246.128C23.4499 245.659 23.9192 245.296 24.5166 245.04C25.1246 244.773 25.8126 244.64 26.5806 244.64C27.3486 244.64 28.0312 244.773 28.6286 245.04C29.2366 245.296 29.7112 245.659 30.0526 246.128C30.3939 246.597 30.5646 247.12 30.5646 247.696C30.5646 248.251 30.4472 248.715 30.2126 249.088C29.9779 249.461 29.6099 249.771 29.1086 250.016ZM26.5806 246.768C26.1539 246.768 25.8179 246.885 25.5726 247.12C25.3379 247.344 25.2206 247.643 25.2206 248.016C25.2206 248.4 25.3379 248.699 25.5726 248.912C25.8072 249.115 26.1432 249.216 26.5806 249.216C27.0286 249.216 27.3646 249.115 27.5886 248.912C27.8232 248.709 27.9406 248.411 27.9406 248.016C27.9406 247.643 27.8179 247.344 27.5726 247.12C27.3272 246.885 26.9966 246.768 26.5806 246.768ZM26.5806 254.032C27.1246 254.032 27.5459 253.915 27.8446 253.68C28.1432 253.435 28.2926 253.099 28.2926 252.672C28.2926 252.235 28.1432 251.904 27.8446 251.68C27.5566 251.456 27.1352 251.344 26.5806 251.344C26.0152 251.344 25.5832 251.456 25.2846 251.68C24.9966 251.904 24.8526 252.235 24.8526 252.672C24.8526 253.099 25.0019 253.435 25.3006 253.68C25.6099 253.915 26.0366 254.032 26.5806 254.032ZM37.1037 256.16C36.1437 256.16 35.317 255.936 34.6237 255.488C33.941 255.029 33.413 254.379 33.0397 253.536C32.677 252.693 32.4957 251.696 32.4957 250.544C32.4957 249.317 32.677 248.261 33.0397 247.376C33.4024 246.491 33.925 245.813 34.6077 245.344C35.301 244.875 36.133 244.64 37.1037 244.64C38.0637 244.64 38.885 244.869 39.5677 245.328C40.261 245.776 40.789 246.421 41.1517 247.264C41.525 248.107 41.7117 249.104 41.7117 250.256C41.7117 251.483 41.5304 252.539 41.1677 253.424C40.805 254.309 40.277 254.987 39.5837 255.456C38.901 255.925 38.0744 256.16 37.1037 256.16ZM37.1037 254.032C37.797 254.032 38.2984 253.733 38.6077 253.136C38.9277 252.528 39.0877 251.579 39.0877 250.288C39.0877 249.104 38.9277 248.224 38.6077 247.648C38.2877 247.061 37.7864 246.768 37.1037 246.768C36.4104 246.768 35.9037 247.072 35.5837 247.68C35.2637 248.288 35.1037 249.232 35.1037 250.512C35.1037 251.696 35.2637 252.581 35.5837 253.168C35.9144 253.744 36.421 254.032 37.1037 254.032Z" fill="white"/>
<path d="M28.8783 264.306V271.894H29.2423C29.5409 271.894 29.6903 272.02 29.6903 272.272V272.622C29.6903 272.874 29.5409 273 29.2423 273H27.2543C26.9463 273 26.7923 272.874 26.7923 272.622V272.272C26.7923 272.02 26.9463 271.894 27.2543 271.894H27.6183V264.95L24.9023 270.088C24.8183 270.265 24.6829 270.354 24.4963 270.354H24.2443C24.0576 270.354 23.9223 270.265 23.8383 270.088L21.1223 264.95V271.894H21.4863C21.7943 271.894 21.9483 272.02 21.9483 272.272V272.622C21.9483 272.874 21.7943 273 21.4863 273H19.6103C19.3023 273 19.1483 272.874 19.1483 272.622V272.272C19.1483 272.02 19.3023 271.894 19.6103 271.894H19.9743V264.306H19.6103C19.3023 264.306 19.1483 264.18 19.1483 263.928V263.578C19.1483 263.326 19.3023 263.2 19.6103 263.2H21.2343C21.4303 263.2 21.5703 263.289 21.6543 263.466L24.4403 268.744L27.2123 263.466C27.2963 263.289 27.4316 263.2 27.6183 263.2H29.2423C29.5409 263.2 29.6903 263.326 29.6903 263.578V263.928C29.6903 264.18 29.5409 264.306 29.2423 264.306H28.8783ZM31.9013 273C31.5933 273 31.4393 272.874 31.4393 272.622V272.272C31.4393 272.02 31.5933 271.894 31.9013 271.894H32.2653V264.306H31.9013C31.5933 264.306 31.4393 264.18 31.4393 263.928V263.578C31.4393 263.326 31.5933 263.2 31.9013 263.2H33.8893C34.1973 263.2 34.3513 263.326 34.3513 263.578V263.928C34.3513 264.18 34.1973 264.306 33.8893 264.306H33.5253V271.894H33.8893C34.1973 271.894 34.3513 272.02 34.3513 272.272V272.622C34.3513 272.874 34.1973 273 33.8893 273H31.9013ZM44.5017 263.2C44.8004 263.2 44.9497 263.326 44.9497 263.578V263.928C44.9497 264.18 44.8004 264.306 44.5017 264.306H44.1377V272.482C44.1377 272.631 44.0911 272.757 43.9977 272.86C43.9044 272.953 43.7831 273 43.6337 273H43.1577C43.0177 273 42.8964 272.935 42.7937 272.804L38.0617 265.37V271.894H38.4257C38.7337 271.894 38.8877 272.02 38.8877 272.272V272.622C38.8877 272.874 38.7337 273 38.4257 273H36.5497C36.2417 273 36.0877 272.874 36.0877 272.622V272.272C36.0877 272.02 36.2417 271.894 36.5497 271.894H36.9137V264.306H36.5497C36.2417 264.306 36.0877 264.18 36.0877 263.928V263.578C36.0877 263.326 36.2417 263.2 36.5497 263.2H37.8797C38.0291 263.2 38.1551 263.265 38.2577 263.396L42.9897 270.83V264.306H42.6117C42.3131 264.306 42.1637 264.18 42.1637 263.928V263.578C42.1637 263.326 42.3131 263.2 42.6117 263.2H44.5017Z" fill="#DEDEE0"/>
<path d="M16.1795 210.796L33 201.57L49.8205 210.796V229.204L33 238.43L16.1795 229.204V210.796Z" stroke="#DEDEE0"/>
<path fill-rule="evenodd" clip-rule="evenodd" d="M27.1227 210.833C26.6867 210.833 26.3333 211.206 26.3333 211.667C26.3333 212.127 26.6867 212.5 27.1227 212.5H27.7599C28.8816 217.498 30.6283 219.998 32.9999 220C35.3717 220.002 37.1184 217.502 38.2401 212.5H38.8771C39.3131 212.5 39.6666 212.127 39.6666 211.667C39.6666 211.206 39.3131 210.833 38.8771 210.833H27.1227ZM27.1227 227.5C26.6867 227.5 26.3333 227.873 26.3333 228.333C26.3333 228.793 26.6867 229.167 27.1227 229.167H38.8771C39.3131 229.167 39.6666 228.793 39.6666 228.333C39.6666 227.873 39.3131 227.5 38.8771 227.5H38.24C37.1182 222.502 35.3716 220.002 32.9999 220C30.6282 219.998 28.8814 222.498 27.7597 227.5H27.1227Z" fill="#DEDEE0"/>
</svg>
