<svg width="343" height="77" viewBox="0 0 343 77" fill="none" xmlns="http://www.w3.org/2000/svg">
<path d="M65.1795 9.79603L82 0.57027L98.8205 9.79603V28.204L82 37.4297L65.1795 28.204V9.79603Z" stroke="#DEDEE0"/>
<path fill-rule="evenodd" clip-rule="evenodd" d="M82.0002 11.5C80.1592 11.5 78.6668 12.9924 78.6668 14.8333V15.6667H85.3335V14.8333C85.3335 12.9924 83.8411 11.5 82.0002 11.5ZM77.0002 14.8333V15.6667H74.5928C73.5735 15.6667 72.8335 16.5299 72.8335 17.4848V25.5152C72.8335 26.4692 73.572 27.3316 74.5898 27.3333L74.5928 27.3333H89.4076L89.4106 27.3333C90.4283 27.3316 91.1668 26.4692 91.1668 25.5152V17.4848C91.1668 16.5299 90.4269 15.6667 89.4076 15.6667H87.0002V14.8333C87.0002 12.0719 84.7616 9.83333 82.0002 9.83333C79.2388 9.83333 77.0002 12.0719 77.0002 14.8333ZM76.1668 20.3095C76.1668 20.0465 75.7937 19.8333 75.3335 19.8333C74.8733 19.8333 74.5002 20.0465 74.5002 20.3095V22.6905C74.5002 22.9535 74.8733 23.1667 75.3335 23.1667C75.7937 23.1667 76.1668 22.9535 76.1668 22.6905V20.3095ZM78.6668 19.8333C79.1271 19.8333 79.5002 20.0465 79.5002 20.3095V22.6905C79.5002 22.9535 79.1271 23.1667 78.6668 23.1667C78.2066 23.1667 77.8335 22.9535 77.8335 22.6905V20.3095C77.8335 20.0465 78.2066 19.8333 78.6668 19.8333ZM82.8335 20.3095C82.8335 20.0465 82.4604 19.8333 82.0002 19.8333C81.5399 19.8333 81.1668 20.0465 81.1668 20.3095V22.6905C81.1668 22.9535 81.5399 23.1667 82.0002 23.1667C82.4604 23.1667 82.8335 22.9535 82.8335 22.6905V20.3095ZM85.3335 19.8333C85.7937 19.8333 86.1668 20.0465 86.1668 20.3095V22.6905C86.1668 22.9535 85.7937 23.1667 85.3335 23.1667C84.8733 23.1667 84.5002 22.9535 84.5002 22.6905V20.3095C84.5002 20.0465 84.8733 19.8333 85.3335 19.8333ZM89.5002 20.3095C89.5002 20.0465 89.1271 19.8333 88.6668 19.8333C88.2066 19.8333 87.8335 20.0465 87.8335 20.3095V22.6905C87.8335 22.9535 88.2066 23.1667 88.6668 23.1667C89.1271 23.1667 89.5002 22.9535 89.5002 22.6905V20.3095Z" fill="#DEDEE0"/>
<path d="M85.2609 50.832C85.4849 50.832 85.6716 50.9067 85.8209 51.056C85.9703 51.2053 86.0449 51.392 86.0449 51.616V52.176C86.0449 52.4 85.9703 52.5867 85.8209 52.736C85.6716 52.8853 85.4849 52.96 85.2609 52.96H84.2529V53.872H84.4929C84.7169 53.872 84.8983 53.9307 85.0369 54.048C85.1756 54.1653 85.2449 54.3467 85.2449 54.592V55.296C85.2449 55.5413 85.1756 55.7227 85.0369 55.84C84.8983 55.9467 84.7169 56 84.4929 56H81.4529C81.2183 56 81.0316 55.9467 80.8929 55.84C80.7543 55.7227 80.6849 55.5413 80.6849 55.296V54.592C80.6849 54.3467 80.7543 54.1653 80.8929 54.048C81.0316 53.9307 81.2183 53.872 81.4529 53.872H81.6929V52.96H77.7249C77.5009 52.96 77.3143 52.8853 77.1649 52.736C77.0156 52.5867 76.9409 52.4 76.9409 52.176V51.712C76.9409 51.4453 76.9676 51.232 77.0209 51.072C77.0849 50.912 77.1863 50.7307 77.3249 50.528L80.7809 45.424C80.9303 45.2 81.0849 45.04 81.2449 44.944C81.4049 44.848 81.5969 44.8 81.8209 44.8H83.4529C83.6769 44.8 83.8636 44.8747 84.0129 45.024C84.1729 45.1733 84.2529 45.3653 84.2529 45.6V50.832H85.2609ZM81.6929 50.832V47.28L79.2769 50.832H81.6929Z" fill="white"/>
<path d="M53.9303 73.14C53.053 73.14 52.2923 72.944 51.6483 72.552C51.0137 72.1507 50.5237 71.5813 50.1783 70.844C49.833 70.0973 49.6603 69.2247 49.6603 68.226C49.6603 67.19 49.8423 66.2847 50.2063 65.51C50.5703 64.726 51.0883 64.124 51.7603 63.704C52.4323 63.2747 53.2163 63.06 54.1123 63.06C54.9803 63.06 55.7363 63.2607 56.3803 63.662C57.0243 64.054 57.519 64.6187 57.8643 65.356C58.2097 66.0933 58.3823 66.9613 58.3823 67.96C58.3823 69.0053 58.2003 69.92 57.8363 70.704C57.4723 71.4787 56.9543 72.0807 56.2823 72.51C55.6103 72.93 54.8263 73.14 53.9303 73.14ZM53.9443 72.034C54.943 72.034 55.7177 71.6793 56.2683 70.97C56.819 70.2607 57.0943 69.262 57.0943 67.974C57.0943 66.742 56.8377 65.7993 56.3243 65.146C55.811 64.4927 55.069 64.166 54.0983 64.166C53.0997 64.166 52.325 64.5207 51.7743 65.23C51.2237 65.93 50.9483 66.924 50.9483 68.212C50.9483 69.4533 51.205 70.4007 51.7183 71.054C52.2317 71.7073 52.9737 72.034 53.9443 72.034ZM68.4171 63.2C68.7251 63.2 68.8791 63.326 68.8791 63.578V63.928C68.8791 64.18 68.7251 64.306 68.4171 64.306H68.0531V68.968C68.0531 70.3213 67.7451 71.3573 67.1291 72.076C66.5224 72.7853 65.6311 73.14 64.4551 73.14C63.2884 73.14 62.3971 72.7993 61.7811 72.118C61.1651 71.4273 60.8571 70.4427 60.8571 69.164V64.306H60.4931C60.1851 64.306 60.0311 64.18 60.0311 63.928V63.578C60.0311 63.326 60.1851 63.2 60.4931 63.2H62.4811C62.7891 63.2 62.9431 63.326 62.9431 63.578V63.928C62.9431 64.18 62.7891 64.306 62.4811 64.306H62.1171V69.15C62.1171 70.13 62.3037 70.858 62.6771 71.334C63.0597 71.8007 63.6524 72.034 64.4551 72.034C65.2577 72.034 65.8457 71.7867 66.2191 71.292C66.6017 70.788 66.7931 70.0133 66.7931 68.968V64.306H66.4291C66.1211 64.306 65.9671 64.18 65.9671 63.928V63.578C65.9671 63.326 66.1211 63.2 66.4291 63.2H68.4171ZM77.453 63.2C77.6116 63.2 77.7423 63.256 77.845 63.368C77.957 63.4707 78.013 63.6013 78.013 63.76V65.258C78.013 65.566 77.887 65.72 77.635 65.72H77.285C77.033 65.72 76.907 65.566 76.907 65.258V64.306H74.793V71.894H75.157C75.465 71.894 75.619 72.02 75.619 72.272V72.622C75.619 72.874 75.465 73 75.157 73H73.169C72.8703 73 72.721 72.874 72.721 72.622V72.272C72.721 72.02 72.8703 71.894 73.169 71.894H73.533V64.306H71.419V65.258C71.419 65.566 71.293 65.72 71.041 65.72H70.691C70.439 65.72 70.313 65.566 70.313 65.258V63.76C70.313 63.6013 70.3643 63.4707 70.467 63.368C70.5696 63.256 70.7003 63.2 70.859 63.2H77.453ZM87.8229 73.14C86.9456 73.14 86.1849 72.944 85.5409 72.552C84.9062 72.1507 84.4162 71.5813 84.0709 70.844C83.7256 70.0973 83.5529 69.2247 83.5529 68.226C83.5529 67.19 83.7349 66.2847 84.0989 65.51C84.4629 64.726 84.9809 64.124 85.6529 63.704C86.3249 63.2747 87.1089 63.06 88.0049 63.06C88.8729 63.06 89.6289 63.2607 90.2729 63.662C90.9169 64.054 91.4116 64.6187 91.7569 65.356C92.1022 66.0933 92.2749 66.9613 92.2749 67.96C92.2749 69.0053 92.0929 69.92 91.7289 70.704C91.3649 71.4787 90.8469 72.0807 90.1749 72.51C89.5029 72.93 88.7189 73.14 87.8229 73.14ZM87.8369 72.034C88.8356 72.034 89.6102 71.6793 90.1609 70.97C90.7116 70.2607 90.9869 69.262 90.9869 67.974C90.9869 66.742 90.7302 65.7993 90.2169 65.146C89.7036 64.4927 88.9616 64.166 87.9909 64.166C86.9922 64.166 86.2176 64.5207 85.6669 65.23C85.1162 65.93 84.8409 66.924 84.8409 68.212C84.8409 69.4533 85.0976 70.4007 85.6109 71.054C86.1242 71.7073 86.8662 72.034 87.8369 72.034ZM100.714 63.2C100.872 63.2 101.003 63.256 101.106 63.368C101.208 63.4707 101.26 63.6013 101.26 63.76V65.062C101.26 65.37 101.138 65.524 100.896 65.524H100.532C100.289 65.524 100.168 65.37 100.168 65.062V64.306H96.1776V67.54H99.2576C99.3696 67.54 99.463 67.582 99.5376 67.666C99.6216 67.7407 99.6636 67.834 99.6636 67.946V68.24C99.6636 68.352 99.6216 68.45 99.5376 68.534C99.463 68.6087 99.3696 68.646 99.2576 68.646H96.1776V71.894H97.2976C97.5963 71.894 97.7456 72.02 97.7456 72.272V72.622C97.7456 72.874 97.5963 73 97.2976 73H94.5536C94.2456 73 94.0916 72.874 94.0916 72.622V72.272C94.0916 72.02 94.2456 71.894 94.5536 71.894H94.9176V64.306H94.5536C94.2456 64.306 94.0916 64.18 94.0916 63.928V63.578C94.0916 63.326 94.2456 63.2 94.5536 63.2H100.714ZM110.226 66.574C110.879 66.574 111.448 66.7093 111.934 66.98C112.428 67.2413 112.806 67.6147 113.068 68.1C113.338 68.5853 113.474 69.15 113.474 69.794C113.474 70.4567 113.324 71.04 113.026 71.544C112.736 72.048 112.321 72.44 111.78 72.72C111.248 73 110.636 73.14 109.946 73.14C109.32 73.14 108.756 73.0373 108.252 72.832C107.748 72.6173 107.351 72.328 107.062 71.964C106.782 71.6 106.642 71.194 106.642 70.746C106.642 70.438 106.716 70.1953 106.866 70.018C107.024 69.8407 107.239 69.752 107.51 69.752C107.752 69.752 107.948 69.8267 108.098 69.976C108.256 70.1253 108.336 70.312 108.336 70.536C108.336 70.8067 108.242 71.0213 108.056 71.18C108.196 71.4507 108.429 71.6607 108.756 71.81C109.082 71.9593 109.474 72.034 109.932 72.034C110.632 72.034 111.182 71.838 111.584 71.446C111.985 71.054 112.186 70.5127 112.186 69.822C112.186 69.15 111.985 68.6273 111.584 68.254C111.192 67.8713 110.646 67.68 109.946 67.68C109.544 67.68 109.208 67.736 108.938 67.848C108.667 67.96 108.382 68.114 108.084 68.31C107.944 68.394 107.836 68.4547 107.762 68.492C107.687 68.52 107.612 68.534 107.538 68.534C107.398 68.534 107.295 68.506 107.23 68.45C107.174 68.394 107.146 68.3053 107.146 68.184C107.146 68.1653 107.216 66.9147 107.356 64.432L107.398 63.746C107.416 63.578 107.472 63.4473 107.566 63.354C107.668 63.2513 107.808 63.2 107.986 63.2H112.648C112.769 63.2 112.872 63.242 112.956 63.326C113.049 63.41 113.096 63.5127 113.096 63.634V63.872C113.096 63.9933 113.054 64.096 112.97 64.18C112.886 64.264 112.778 64.306 112.648 64.306H108.588L108.42 67.05C108.933 66.7327 109.535 66.574 110.226 66.574Z" fill="#DEDEE0"/>
<path d="M154.679 9.79603L171.5 0.57027L188.321 9.79603V28.204L171.5 37.4297L154.679 28.204V9.79603Z" stroke="#DEDEE0"/>
<g clip-path="url(#clip0_632_8897)">
<path d="M169.227 9.83333C170.338 9.83303 171.418 10.1995 172.295 10.8749C173.173 11.5502 173.799 12.496 174.073 13.5629C174.348 14.6298 174.256 15.757 173.813 16.7665C173.369 17.7761 172.599 18.6104 171.624 19.1378C174.718 19.9171 176.955 22.1234 176.955 24.3631C176.955 26.5 172.409 26.5 169.227 26.5C165.136 26.5 161.5 26.5 161.5 24.6588C161.5 22.3381 163.728 19.8883 166.818 19.1297C165.846 18.5998 165.079 17.7645 164.639 16.7554C164.199 15.7463 164.109 14.6207 164.385 13.5558C164.661 12.4909 165.287 11.5472 166.163 10.8733C167.04 10.1994 168.118 9.83351 169.227 9.83333ZM175.591 11.6351C177.703 11.6351 179.415 13.3865 179.415 15.5468C179.415 17.0288 178.609 18.318 177.422 18.982C179.789 19.5955 181.5 21.3378 181.5 23.1054C181.5 23.9883 180.243 24.5919 178.545 24.9027C178.575 24.7297 178.591 24.5495 178.591 24.3622L178.586 24.1523C178.497 21.9901 177.03 20.0009 174.846 18.7144L174.638 18.5955L174.734 18.4604C175.471 17.3753 175.865 16.0966 175.864 14.7883C175.864 13.6604 175.577 12.5991 175.073 11.6712C175.244 11.6475 175.418 11.6354 175.591 11.6351Z" fill="#DEDEE0"/>
</g>
<path d="M164.559 48.92C165.103 49.1547 165.519 49.512 165.807 49.992C166.105 50.4613 166.255 51.0213 166.255 51.672C166.255 52.3547 166.079 52.9627 165.727 53.496C165.375 54.0187 164.873 54.4293 164.223 54.728C163.583 55.016 162.836 55.16 161.983 55.16C161.183 55.16 160.463 55.0427 159.823 54.808C159.193 54.5627 158.697 54.2267 158.335 53.8C157.972 53.3627 157.791 52.8613 157.791 52.296C157.791 51.8267 157.929 51.4427 158.207 51.144C158.495 50.8453 158.863 50.696 159.311 50.696C159.769 50.696 160.132 50.824 160.399 51.08C160.676 51.3253 160.815 51.6507 160.815 52.056C160.815 52.2693 160.783 52.456 160.719 52.616C160.964 52.8933 161.401 53.032 162.031 53.032C162.553 53.032 162.953 52.904 163.231 52.648C163.508 52.392 163.647 52.024 163.647 51.544C163.647 51.128 163.519 50.824 163.263 50.632C163.007 50.44 162.607 50.344 162.063 50.344H161.551C161.327 50.344 161.14 50.2693 160.991 50.12C160.841 49.96 160.767 49.7733 160.767 49.56V49C160.767 48.776 160.841 48.5893 160.991 48.44C161.14 48.2907 161.327 48.216 161.551 48.216H161.999C162.425 48.216 162.735 48.1253 162.927 47.944C163.129 47.752 163.231 47.4427 163.231 47.016C163.231 46.6533 163.103 46.3547 162.847 46.12C162.601 45.8853 162.26 45.768 161.823 45.768C161.321 45.768 160.969 45.8747 160.767 46.088C160.863 46.28 160.911 46.4987 160.911 46.744C160.911 47.1493 160.772 47.48 160.495 47.736C160.217 47.9813 159.849 48.104 159.391 48.104C158.943 48.104 158.58 47.9547 158.303 47.656C158.025 47.3573 157.887 46.9733 157.887 46.504C157.887 45.96 158.057 45.4693 158.399 45.032C158.74 44.5947 159.209 44.2533 159.807 44.008C160.404 43.7627 161.076 43.64 161.823 43.64C162.644 43.64 163.359 43.768 163.967 44.024C164.575 44.2693 165.039 44.6213 165.359 45.08C165.689 45.528 165.855 46.0507 165.855 46.648C165.855 47.1387 165.743 47.5813 165.519 47.976C165.295 48.36 164.975 48.6747 164.559 48.92ZM168.848 50.936C168.613 50.936 168.421 50.8613 168.272 50.712C168.122 50.5627 168.048 50.376 168.048 50.152V49.608C168.048 49.384 168.122 49.1973 168.272 49.048C168.421 48.8987 168.613 48.824 168.848 48.824H174.16C174.394 48.824 174.586 48.8987 174.736 49.048C174.885 49.1973 174.96 49.384 174.96 49.608V50.152C174.96 50.376 174.885 50.5627 174.736 50.712C174.586 50.8613 174.394 50.936 174.16 50.936H168.848ZM181.848 47.912C182.51 47.912 183.091 48.056 183.592 48.344C184.104 48.632 184.494 49.0427 184.76 49.576C185.038 50.0987 185.176 50.7067 185.176 51.4C185.176 52.1467 185.011 52.8027 184.68 53.368C184.35 53.9333 183.88 54.376 183.272 54.696C182.675 55.0053 181.987 55.16 181.208 55.16C179.779 55.16 178.696 54.7227 177.96 53.848C177.224 52.9733 176.856 51.688 176.856 49.992C176.856 45.7573 178.456 43.64 181.656 43.64C182.606 43.64 183.368 43.8267 183.944 44.2C184.52 44.5627 184.808 45.048 184.808 45.656C184.808 46.1253 184.664 46.5093 184.376 46.808C184.099 47.1067 183.736 47.256 183.288 47.256C182.83 47.256 182.462 47.1333 182.184 46.888C181.918 46.632 181.784 46.3013 181.784 45.896V45.784C181.742 45.7733 181.667 45.768 181.56 45.768C180.846 45.768 180.328 46.0133 180.008 46.504C179.688 46.9947 179.512 47.816 179.48 48.968C179.768 48.5947 180.104 48.328 180.488 48.168C180.872 47.9973 181.326 47.912 181.848 47.912ZM181.032 53.032C181.502 53.032 181.87 52.904 182.136 52.648C182.414 52.3813 182.552 52.008 182.552 51.528C182.552 51.048 182.419 50.68 182.152 50.424C181.886 50.168 181.512 50.04 181.032 50.04C180.552 50.04 180.174 50.168 179.896 50.424C179.619 50.68 179.48 51.0427 179.48 51.512C179.48 51.9813 179.624 52.3547 179.912 52.632C180.2 52.8987 180.574 53.032 181.032 53.032Z" fill="white"/>
<path d="M148.431 62.2C149.635 62.2 150.545 62.4427 151.161 62.928C151.777 63.404 152.085 64.1133 152.085 65.056C152.085 66.0173 151.745 66.7687 151.063 67.31C150.391 67.842 149.449 68.108 148.235 68.108H146.905V70.894H147.269C147.577 70.894 147.731 71.02 147.731 71.272V71.622C147.731 71.874 147.577 72 147.269 72H145.281C144.973 72 144.819 71.874 144.819 71.622V71.272C144.819 71.02 144.973 70.894 145.281 70.894H145.645V63.306H145.281C144.973 63.306 144.819 63.18 144.819 62.928V62.578C144.819 62.326 144.973 62.2 145.281 62.2H148.431ZM148.137 67.002C149.08 67.002 149.757 66.8527 150.167 66.554C150.587 66.246 150.797 65.756 150.797 65.084C150.797 64.468 150.606 64.02 150.223 63.74C149.841 63.4507 149.229 63.306 148.389 63.306H146.905V67.002H148.137ZM160.607 69.41C160.729 69.41 160.822 69.452 160.887 69.536C160.953 69.6107 160.985 69.7227 160.985 69.872V71.454C160.985 71.6033 160.929 71.734 160.817 71.846C160.715 71.9487 160.584 72 160.425 72H154.195C153.887 72 153.733 71.874 153.733 71.622V71.272C153.733 71.02 153.887 70.894 154.195 70.894H154.559V63.306H154.195C153.887 63.306 153.733 63.18 153.733 62.928V62.578C153.733 62.326 153.887 62.2 154.195 62.2H160.355C160.514 62.2 160.645 62.256 160.747 62.368C160.85 62.4707 160.901 62.6013 160.901 62.76V64.062C160.901 64.37 160.78 64.524 160.537 64.524H160.173C159.931 64.524 159.809 64.37 159.809 64.062V63.306H155.819V66.372H158.899C159.011 66.372 159.105 66.414 159.179 66.498C159.263 66.5727 159.305 66.666 159.305 66.778V67.072C159.305 67.184 159.263 67.282 159.179 67.366C159.105 67.4407 159.011 67.478 158.899 67.478H155.819V70.894H159.879V69.872C159.879 69.564 160.005 69.41 160.257 69.41H160.607ZM167.138 72.14C166.261 72.14 165.5 71.944 164.856 71.552C164.222 71.1507 163.732 70.5813 163.386 69.844C163.041 69.0973 162.868 68.2247 162.868 67.226C162.868 66.19 163.05 65.2847 163.414 64.51C163.778 63.726 164.296 63.124 164.968 62.704C165.64 62.2747 166.424 62.06 167.32 62.06C168.188 62.06 168.944 62.2607 169.588 62.662C170.232 63.054 170.727 63.6187 171.072 64.356C171.418 65.0933 171.59 65.9613 171.59 66.96C171.59 68.0053 171.408 68.92 171.044 69.704C170.68 70.4787 170.162 71.0807 169.49 71.51C168.818 71.93 168.034 72.14 167.138 72.14ZM167.152 71.034C168.151 71.034 168.926 70.6793 169.476 69.97C170.027 69.2607 170.302 68.262 170.302 66.974C170.302 65.742 170.046 64.7993 169.532 64.146C169.019 63.4927 168.277 63.166 167.306 63.166C166.308 63.166 165.533 63.5207 164.982 64.23C164.432 64.93 164.156 65.924 164.156 67.212C164.156 68.4533 164.413 69.4007 164.926 70.054C165.44 70.7073 166.182 71.034 167.152 71.034ZM177.019 62.2C178.223 62.2 179.133 62.4427 179.749 62.928C180.365 63.404 180.673 64.1133 180.673 65.056C180.673 66.0173 180.332 66.7687 179.651 67.31C178.979 67.842 178.036 68.108 176.823 68.108H175.493V70.894H175.857C176.165 70.894 176.319 71.02 176.319 71.272V71.622C176.319 71.874 176.165 72 175.857 72H173.869C173.561 72 173.407 71.874 173.407 71.622V71.272C173.407 71.02 173.561 70.894 173.869 70.894H174.233V63.306H173.869C173.561 63.306 173.407 63.18 173.407 62.928V62.578C173.407 62.326 173.561 62.2 173.869 62.2H177.019ZM176.725 67.002C177.668 67.002 178.344 66.8527 178.755 66.554C179.175 66.246 179.385 65.756 179.385 65.084C179.385 64.468 179.194 64.02 178.811 63.74C178.428 63.4507 177.817 63.306 176.977 63.306H175.493V67.002H176.725ZM188.831 69.424C188.952 69.424 189.046 69.466 189.111 69.55C189.176 69.6247 189.209 69.7367 189.209 69.886V71.454C189.209 71.6033 189.153 71.734 189.041 71.846C188.938 71.9487 188.808 72 188.649 72H182.783C182.475 72 182.321 71.874 182.321 71.622V71.272C182.321 71.02 182.475 70.894 182.783 70.894H183.147V63.306H182.783C182.475 63.306 182.321 63.18 182.321 62.928V62.578C182.321 62.326 182.475 62.2 182.783 62.2H185.415C185.723 62.2 185.877 62.326 185.877 62.578V62.928C185.877 63.18 185.723 63.306 185.415 63.306H184.407V70.894H188.103V69.886C188.103 69.578 188.229 69.424 188.481 69.424H188.831ZM197.685 69.41C197.807 69.41 197.9 69.452 197.965 69.536C198.031 69.6107 198.063 69.7227 198.063 69.872V71.454C198.063 71.6033 198.007 71.734 197.895 71.846C197.793 71.9487 197.662 72 197.503 72H191.273C190.965 72 190.811 71.874 190.811 71.622V71.272C190.811 71.02 190.965 70.894 191.273 70.894H191.637V63.306H191.273C190.965 63.306 190.811 63.18 190.811 62.928V62.578C190.811 62.326 190.965 62.2 191.273 62.2H197.433C197.592 62.2 197.723 62.256 197.825 62.368C197.928 62.4707 197.979 62.6013 197.979 62.76V64.062C197.979 64.37 197.858 64.524 197.615 64.524H197.251C197.009 64.524 196.887 64.37 196.887 64.062V63.306H192.897V66.372H195.977C196.089 66.372 196.183 66.414 196.257 66.498C196.341 66.5727 196.383 66.666 196.383 66.778V67.072C196.383 67.184 196.341 67.282 196.257 67.366C196.183 67.4407 196.089 67.478 195.977 67.478H192.897V70.894H196.957V69.872C196.957 69.564 197.083 69.41 197.335 69.41H197.685Z" fill="#DEDEE0"/>
<path d="M244.679 9.79603L261.5 0.57027L278.321 9.79603V28.204L261.5 37.4297L244.679 28.204V9.79603Z" stroke="#DEDEE0"/>
<path fill-rule="evenodd" clip-rule="evenodd" d="M255.623 9.83333C255.187 9.83333 254.833 10.2064 254.833 10.6667C254.833 11.1269 255.187 11.5 255.623 11.5H256.26C257.382 16.4978 259.129 18.9978 261.5 19C263.872 19.0022 265.619 16.5022 266.74 11.5H267.377C267.813 11.5 268.167 11.1269 268.167 10.6667C268.167 10.2064 267.813 9.83333 267.377 9.83333H255.623ZM255.623 26.5C255.187 26.5 254.833 26.8731 254.833 27.3333C254.833 27.7936 255.187 28.1667 255.623 28.1667H267.377C267.813 28.1667 268.167 27.7936 268.167 27.3333C268.167 26.8731 267.813 26.5 267.377 26.5H266.74C265.618 21.5022 263.872 19.0022 261.5 19C259.128 18.9978 257.382 21.4978 256.26 26.5H255.623Z" fill="#DEDEE0"/>
<path d="M256.958 47.912C257.619 47.912 258.2 48.056 258.702 48.344C259.214 48.632 259.603 49.0427 259.87 49.576C260.147 50.0987 260.286 50.7067 260.286 51.4C260.286 52.1467 260.12 52.8027 259.79 53.368C259.459 53.9333 258.99 54.376 258.382 54.696C257.784 55.0053 257.096 55.16 256.318 55.16C254.888 55.16 253.806 54.7227 253.07 53.848C252.334 52.9733 251.966 51.688 251.966 49.992C251.966 45.7573 253.566 43.64 256.766 43.64C257.715 43.64 258.478 43.8267 259.054 44.2C259.63 44.5627 259.918 45.048 259.918 45.656C259.918 46.1253 259.774 46.5093 259.486 46.808C259.208 47.1067 258.846 47.256 258.398 47.256C257.939 47.256 257.571 47.1333 257.294 46.888C257.027 46.632 256.894 46.3013 256.894 45.896V45.784C256.851 45.7733 256.776 45.768 256.67 45.768C255.955 45.768 255.438 46.0133 255.118 46.504C254.798 46.9947 254.622 47.816 254.59 48.968C254.878 48.5947 255.214 48.328 255.598 48.168C255.982 47.9973 256.435 47.912 256.958 47.912ZM256.142 53.032C256.611 53.032 256.979 52.904 257.246 52.648C257.523 52.3813 257.662 52.008 257.662 51.528C257.662 51.048 257.528 50.68 257.262 50.424C256.995 50.168 256.622 50.04 256.142 50.04C255.662 50.04 255.283 50.168 255.006 50.424C254.728 50.68 254.59 51.0427 254.59 51.512C254.59 51.9813 254.734 52.3547 255.022 52.632C255.31 52.8987 255.683 53.032 256.142 53.032ZM266.479 55.16C265.519 55.16 264.692 54.936 263.999 54.488C263.316 54.0293 262.788 53.3787 262.415 52.536C262.052 51.6933 261.871 50.696 261.871 49.544C261.871 48.3173 262.052 47.2613 262.415 46.376C262.777 45.4907 263.3 44.8133 263.983 44.344C264.676 43.8747 265.508 43.64 266.479 43.64C267.439 43.64 268.26 43.8693 268.943 44.328C269.636 44.776 270.164 45.4213 270.527 46.264C270.9 47.1067 271.087 48.104 271.087 49.256C271.087 50.4827 270.905 51.5387 270.543 52.424C270.18 53.3093 269.652 53.9867 268.959 54.456C268.276 54.9253 267.449 55.16 266.479 55.16ZM266.479 53.032C267.172 53.032 267.673 52.7333 267.983 52.136C268.303 51.528 268.463 50.5787 268.463 49.288C268.463 48.104 268.303 47.224 267.983 46.648C267.663 46.0613 267.161 45.768 266.479 45.768C265.785 45.768 265.279 46.072 264.959 46.68C264.639 47.288 264.479 48.232 264.479 49.512C264.479 50.696 264.639 51.5813 264.959 52.168C265.289 52.744 265.796 53.032 266.479 53.032Z" fill="white"/>
<path d="M258.378 63.306V70.894H258.742C259.041 70.894 259.19 71.02 259.19 71.272V71.622C259.19 71.874 259.041 72 258.742 72H256.754C256.446 72 256.292 71.874 256.292 71.622V71.272C256.292 71.02 256.446 70.894 256.754 70.894H257.118V63.95L254.402 69.088C254.318 69.2653 254.183 69.354 253.996 69.354H253.744C253.558 69.354 253.422 69.2653 253.338 69.088L250.622 63.95V70.894H250.986C251.294 70.894 251.448 71.02 251.448 71.272V71.622C251.448 71.874 251.294 72 250.986 72H249.11C248.802 72 248.648 71.874 248.648 71.622V71.272C248.648 71.02 248.802 70.894 249.11 70.894H249.474V63.306H249.11C248.802 63.306 248.648 63.18 248.648 62.928V62.578C248.648 62.326 248.802 62.2 249.11 62.2H250.734C250.93 62.2 251.07 62.2887 251.154 62.466L253.94 67.744L256.712 62.466C256.796 62.2887 256.932 62.2 257.118 62.2H258.742C259.041 62.2 259.19 62.326 259.19 62.578V62.928C259.19 63.18 259.041 63.306 258.742 63.306H258.378ZM261.401 72C261.093 72 260.939 71.874 260.939 71.622V71.272C260.939 71.02 261.093 70.894 261.401 70.894H261.765V63.306H261.401C261.093 63.306 260.939 63.18 260.939 62.928V62.578C260.939 62.326 261.093 62.2 261.401 62.2H263.389C263.697 62.2 263.851 62.326 263.851 62.578V62.928C263.851 63.18 263.697 63.306 263.389 63.306H263.025V70.894H263.389C263.697 70.894 263.851 71.02 263.851 71.272V71.622C263.851 71.874 263.697 72 263.389 72H261.401ZM274.002 62.2C274.3 62.2 274.45 62.326 274.45 62.578V62.928C274.45 63.18 274.3 63.306 274.002 63.306H273.638V71.482C273.638 71.6313 273.591 71.7573 273.498 71.86C273.404 71.9533 273.283 72 273.134 72H272.658C272.518 72 272.396 71.9347 272.294 71.804L267.562 64.37V70.894H267.926C268.234 70.894 268.388 71.02 268.388 71.272V71.622C268.388 71.874 268.234 72 267.926 72H266.05C265.742 72 265.588 71.874 265.588 71.622V71.272C265.588 71.02 265.742 70.894 266.05 70.894H266.414V63.306H266.05C265.742 63.306 265.588 63.18 265.588 62.928V62.578C265.588 62.326 265.742 62.2 266.05 62.2H267.38C267.529 62.2 267.655 62.2653 267.758 62.396L272.49 69.83V63.306H272.112C271.813 63.306 271.664 63.18 271.664 62.928V62.578C271.664 62.326 271.813 62.2 272.112 62.2H274.002Z" fill="#DEDEE0"/>
<defs>
<clipPath id="clip0_632_8897">
<rect width="20" height="20" fill="white" transform="translate(161.5 9)"/>
</clipPath>
</defs>
</svg>
