<svg width="66" height="277" viewBox="0 0 66 277" fill="none" xmlns="http://www.w3.org/2000/svg">
<path d="M36.7609 50.832C36.9849 50.832 37.1716 50.9067 37.3209 51.056C37.4703 51.2053 37.5449 51.392 37.5449 51.616V52.176C37.5449 52.4 37.4703 52.5867 37.3209 52.736C37.1716 52.8853 36.9849 52.96 36.7609 52.96H35.7529V53.872H35.9929C36.2169 53.872 36.3983 53.9307 36.5369 54.048C36.6756 54.1653 36.7449 54.3467 36.7449 54.592V55.296C36.7449 55.5413 36.6756 55.7227 36.5369 55.84C36.3983 55.9467 36.2169 56 35.9929 56H32.9529C32.7183 56 32.5316 55.9467 32.3929 55.84C32.2543 55.7227 32.1849 55.5413 32.1849 55.296V54.592C32.1849 54.3467 32.2543 54.1653 32.3929 54.048C32.5316 53.9307 32.7183 53.872 32.9529 53.872H33.1929V52.96H29.2249C29.0009 52.96 28.8143 52.8853 28.6649 52.736C28.5156 52.5867 28.4409 52.4 28.4409 52.176V51.712C28.4409 51.4453 28.4676 51.232 28.5209 51.072C28.5849 50.912 28.6863 50.7307 28.8249 50.528L32.2809 45.424C32.4303 45.2 32.5849 45.04 32.7449 44.944C32.9049 44.848 33.0969 44.8 33.3209 44.8H34.9529C35.1769 44.8 35.3636 44.8747 35.5129 45.024C35.6729 45.1733 35.7529 45.3653 35.7529 45.6V50.832H36.7609ZM33.1929 50.832V47.28L30.7769 50.832H33.1929Z" fill="white"/>
<path d="M5.43034 73.14C4.553 73.14 3.79234 72.944 3.14834 72.552C2.51367 72.1507 2.02367 71.5813 1.67834 70.844C1.333 70.0973 1.16034 69.2247 1.16034 68.226C1.16034 67.19 1.34234 66.2847 1.70634 65.51C2.07034 64.726 2.58834 64.124 3.26034 63.704C3.93234 63.2747 4.71634 63.06 5.61234 63.06C6.48034 63.06 7.23634 63.2607 7.88034 63.662C8.52434 64.054 9.019 64.6187 9.36434 65.356C9.70967 66.0933 9.88234 66.9613 9.88234 67.96C9.88234 69.0053 9.70034 69.92 9.33634 70.704C8.97234 71.4787 8.45434 72.0807 7.78234 72.51C7.11034 72.93 6.32634 73.14 5.43034 73.14ZM5.44434 72.034C6.443 72.034 7.21767 71.6793 7.76834 70.97C8.319 70.2607 8.59434 69.262 8.59434 67.974C8.59434 66.742 8.33767 65.7993 7.82434 65.146C7.311 64.4927 6.569 64.166 5.59834 64.166C4.59967 64.166 3.825 64.5207 3.27434 65.23C2.72367 65.93 2.44834 66.924 2.44834 68.212C2.44834 69.4533 2.705 70.4007 3.21834 71.054C3.73167 71.7073 4.47367 72.034 5.44434 72.034ZM19.9171 63.2C20.2251 63.2 20.3791 63.326 20.3791 63.578V63.928C20.3791 64.18 20.2251 64.306 19.9171 64.306H19.5531V68.968C19.5531 70.3213 19.2451 71.3573 18.6291 72.076C18.0224 72.7853 17.1311 73.14 15.9551 73.14C14.7884 73.14 13.8971 72.7993 13.2811 72.118C12.6651 71.4273 12.3571 70.4427 12.3571 69.164V64.306H11.9931C11.6851 64.306 11.5311 64.18 11.5311 63.928V63.578C11.5311 63.326 11.6851 63.2 11.9931 63.2H13.9811C14.2891 63.2 14.4431 63.326 14.4431 63.578V63.928C14.4431 64.18 14.2891 64.306 13.9811 64.306H13.6171V69.15C13.6171 70.13 13.8037 70.858 14.1771 71.334C14.5597 71.8007 15.1524 72.034 15.9551 72.034C16.7577 72.034 17.3457 71.7867 17.7191 71.292C18.1017 70.788 18.2931 70.0133 18.2931 68.968V64.306H17.9291C17.6211 64.306 17.4671 64.18 17.4671 63.928V63.578C17.4671 63.326 17.6211 63.2 17.9291 63.2H19.9171ZM28.953 63.2C29.1116 63.2 29.2423 63.256 29.345 63.368C29.457 63.4707 29.513 63.6013 29.513 63.76V65.258C29.513 65.566 29.387 65.72 29.135 65.72H28.785C28.533 65.72 28.407 65.566 28.407 65.258V64.306H26.293V71.894H26.657C26.965 71.894 27.119 72.02 27.119 72.272V72.622C27.119 72.874 26.965 73 26.657 73H24.669C24.3703 73 24.221 72.874 24.221 72.622V72.272C24.221 72.02 24.3703 71.894 24.669 71.894H25.033V64.306H22.919V65.258C22.919 65.566 22.793 65.72 22.541 65.72H22.191C21.939 65.72 21.813 65.566 21.813 65.258V63.76C21.813 63.6013 21.8643 63.4707 21.967 63.368C22.0696 63.256 22.2003 63.2 22.359 63.2H28.953ZM39.3229 73.14C38.4456 73.14 37.6849 72.944 37.0409 72.552C36.4062 72.1507 35.9162 71.5813 35.5709 70.844C35.2256 70.0973 35.0529 69.2247 35.0529 68.226C35.0529 67.19 35.2349 66.2847 35.5989 65.51C35.9629 64.726 36.4809 64.124 37.1529 63.704C37.8249 63.2747 38.6089 63.06 39.5049 63.06C40.3729 63.06 41.1289 63.2607 41.7729 63.662C42.4169 64.054 42.9116 64.6187 43.2569 65.356C43.6022 66.0933 43.7749 66.9613 43.7749 67.96C43.7749 69.0053 43.5929 69.92 43.2289 70.704C42.8649 71.4787 42.3469 72.0807 41.6749 72.51C41.0029 72.93 40.2189 73.14 39.3229 73.14ZM39.3369 72.034C40.3356 72.034 41.1102 71.6793 41.6609 70.97C42.2116 70.2607 42.4869 69.262 42.4869 67.974C42.4869 66.742 42.2302 65.7993 41.7169 65.146C41.2036 64.4927 40.4616 64.166 39.4909 64.166C38.4922 64.166 37.7176 64.5207 37.1669 65.23C36.6162 65.93 36.3409 66.924 36.3409 68.212C36.3409 69.4533 36.5976 70.4007 37.1109 71.054C37.6242 71.7073 38.3662 72.034 39.3369 72.034ZM52.2136 63.2C52.3723 63.2 52.503 63.256 52.6056 63.368C52.7083 63.4707 52.7596 63.6013 52.7596 63.76V65.062C52.7596 65.37 52.6383 65.524 52.3956 65.524H52.0316C51.789 65.524 51.6676 65.37 51.6676 65.062V64.306H47.6776V67.54H50.7576C50.8696 67.54 50.963 67.582 51.0376 67.666C51.1216 67.7407 51.1636 67.834 51.1636 67.946V68.24C51.1636 68.352 51.1216 68.45 51.0376 68.534C50.963 68.6087 50.8696 68.646 50.7576 68.646H47.6776V71.894H48.7976C49.0963 71.894 49.2456 72.02 49.2456 72.272V72.622C49.2456 72.874 49.0963 73 48.7976 73H46.0536C45.7456 73 45.5916 72.874 45.5916 72.622V72.272C45.5916 72.02 45.7456 71.894 46.0536 71.894H46.4176V64.306H46.0536C45.7456 64.306 45.5916 64.18 45.5916 63.928V63.578C45.5916 63.326 45.7456 63.2 46.0536 63.2H52.2136ZM61.7258 66.574C62.3791 66.574 62.9484 66.7093 63.4338 66.98C63.9284 67.2413 64.3064 67.6147 64.5678 68.1C64.8384 68.5853 64.9738 69.15 64.9738 69.794C64.9738 70.4567 64.8244 71.04 64.5258 71.544C64.2364 72.048 63.8211 72.44 63.2798 72.72C62.7478 73 62.1364 73.14 61.4458 73.14C60.8204 73.14 60.2558 73.0373 59.7518 72.832C59.2478 72.6173 58.8511 72.328 58.5618 71.964C58.2818 71.6 58.1418 71.194 58.1418 70.746C58.1418 70.438 58.2164 70.1953 58.3658 70.018C58.5244 69.8407 58.7391 69.752 59.0098 69.752C59.2524 69.752 59.4484 69.8267 59.5978 69.976C59.7564 70.1253 59.8358 70.312 59.8358 70.536C59.8358 70.8067 59.7424 71.0213 59.5558 71.18C59.6958 71.4507 59.9291 71.6607 60.2558 71.81C60.5824 71.9593 60.9744 72.034 61.4318 72.034C62.1318 72.034 62.6824 71.838 63.0838 71.446C63.4851 71.054 63.6858 70.5127 63.6858 69.822C63.6858 69.15 63.4851 68.6273 63.0838 68.254C62.6918 67.8713 62.1458 67.68 61.4458 67.68C61.0444 67.68 60.7084 67.736 60.4378 67.848C60.1671 67.96 59.8824 68.114 59.5838 68.31C59.4438 68.394 59.3364 68.4547 59.2618 68.492C59.1871 68.52 59.1124 68.534 59.0378 68.534C58.8978 68.534 58.7951 68.506 58.7298 68.45C58.6738 68.394 58.6458 68.3053 58.6458 68.184C58.6458 68.1653 58.7158 66.9147 58.8558 64.432L58.8978 63.746C58.9164 63.578 58.9724 63.4473 59.0658 63.354C59.1684 63.2513 59.3084 63.2 59.4858 63.2H64.1478C64.2691 63.2 64.3718 63.242 64.4558 63.326C64.5491 63.41 64.5958 63.5127 64.5958 63.634V63.872C64.5958 63.9933 64.5538 64.096 64.4698 64.18C64.3858 64.264 64.2784 64.306 64.1478 64.306H60.0878L59.9198 67.05C60.4331 66.7327 61.0351 66.574 61.7258 66.574Z" fill="#DEDEE0"/>
<path d="M17.1795 9.79603L34 0.57027L50.8205 9.79603V28.204L34 37.4297L17.1795 28.204V9.79603Z" stroke="#DEDEE0"/>
<path fill-rule="evenodd" clip-rule="evenodd" d="M34 11.5C32.1591 11.5 30.6667 12.9924 30.6667 14.8334V15.6667H37.3333V14.8334C37.3333 12.9924 35.8409 11.5 34 11.5ZM29 14.8334V15.6667H26.5926C25.5733 15.6667 24.8333 16.5299 24.8333 17.4849V25.5152C24.8333 26.4692 25.5719 27.3317 26.5896 27.3334L26.5926 27.3334H41.4074L41.4104 27.3334C42.4282 27.3317 43.1667 26.4692 43.1667 25.5152V17.4849C43.1667 16.5299 42.4267 15.6667 41.4074 15.6667H39V14.8334C39 12.0719 36.7614 9.83337 34 9.83337C31.2386 9.83337 29 12.0719 29 14.8334ZM28.1667 20.3096C28.1667 20.0466 27.7936 19.8334 27.3333 19.8334C26.8731 19.8334 26.5 20.0466 26.5 20.3096V22.6905C26.5 22.9535 26.8731 23.1667 27.3333 23.1667C27.7936 23.1667 28.1667 22.9535 28.1667 22.6905V20.3096ZM30.6667 19.8334C31.1269 19.8334 31.5 20.0466 31.5 20.3096V22.6905C31.5 22.9535 31.1269 23.1667 30.6667 23.1667C30.2064 23.1667 29.8333 22.9535 29.8333 22.6905V20.3096C29.8333 20.0466 30.2064 19.8334 30.6667 19.8334ZM34.8333 20.3096C34.8333 20.0466 34.4602 19.8334 34 19.8334C33.5398 19.8334 33.1667 20.0466 33.1667 20.3096V22.6905C33.1667 22.9535 33.5398 23.1667 34 23.1667C34.4602 23.1667 34.8333 22.9535 34.8333 22.6905V20.3096ZM37.3333 19.8334C37.7936 19.8334 38.1667 20.0466 38.1667 20.3096V22.6905C38.1667 22.9535 37.7936 23.1667 37.3333 23.1667C36.8731 23.1667 36.5 22.9535 36.5 22.6905V20.3096C36.5 20.0466 36.8731 19.8334 37.3333 19.8334ZM41.5 20.3096C41.5 20.0466 41.1269 19.8334 40.6667 19.8334C40.2064 19.8334 39.8333 20.0466 39.8333 20.3096V22.6905C39.8333 22.9535 40.2064 23.1667 40.6667 23.1667C41.1269 23.1667 41.5 22.9535 41.5 22.6905V20.3096Z" fill="#DEDEE0"/>
<path d="M26.0587 149.92C26.6027 150.155 27.0187 150.512 27.3067 150.992C27.6054 151.461 27.7547 152.021 27.7547 152.672C27.7547 153.355 27.5787 153.963 27.2267 154.496C26.8747 155.019 26.3734 155.429 25.7227 155.728C25.0827 156.016 24.336 156.16 23.4827 156.16C22.6827 156.16 21.9627 156.043 21.3227 155.808C20.6934 155.563 20.1974 155.227 19.8347 154.8C19.472 154.363 19.2907 153.861 19.2907 153.296C19.2907 152.827 19.4294 152.443 19.7067 152.144C19.9947 151.845 20.3627 151.696 20.8107 151.696C21.2694 151.696 21.632 151.824 21.8987 152.08C22.176 152.325 22.3147 152.651 22.3147 153.056C22.3147 153.269 22.2827 153.456 22.2187 153.616C22.464 153.893 22.9014 154.032 23.5307 154.032C24.0534 154.032 24.4534 153.904 24.7307 153.648C25.008 153.392 25.1467 153.024 25.1467 152.544C25.1467 152.128 25.0187 151.824 24.7627 151.632C24.5067 151.44 24.1067 151.344 23.5627 151.344H23.0507C22.8267 151.344 22.64 151.269 22.4907 151.12C22.3414 150.96 22.2667 150.773 22.2667 150.56V150C22.2667 149.776 22.3414 149.589 22.4907 149.44C22.64 149.291 22.8267 149.216 23.0507 149.216H23.4987C23.9254 149.216 24.2347 149.125 24.4267 148.944C24.6294 148.752 24.7307 148.443 24.7307 148.016C24.7307 147.653 24.6027 147.355 24.3467 147.12C24.1014 146.885 23.76 146.768 23.3227 146.768C22.8214 146.768 22.4694 146.875 22.2667 147.088C22.3627 147.28 22.4107 147.499 22.4107 147.744C22.4107 148.149 22.272 148.48 21.9947 148.736C21.7174 148.981 21.3494 149.104 20.8907 149.104C20.4427 149.104 20.08 148.955 19.8027 148.656C19.5254 148.357 19.3867 147.973 19.3867 147.504C19.3867 146.96 19.5574 146.469 19.8987 146.032C20.24 145.595 20.7094 145.253 21.3067 145.008C21.904 144.763 22.576 144.64 23.3227 144.64C24.144 144.64 24.8587 144.768 25.4667 145.024C26.0747 145.269 26.5387 145.621 26.8587 146.08C27.1894 146.528 27.3547 147.051 27.3547 147.648C27.3547 148.139 27.2427 148.581 27.0187 148.976C26.7947 149.36 26.4747 149.675 26.0587 149.92ZM30.3478 151.936C30.1131 151.936 29.9211 151.861 29.7718 151.712C29.6225 151.563 29.5478 151.376 29.5478 151.152V150.608C29.5478 150.384 29.6225 150.197 29.7718 150.048C29.9211 149.899 30.1131 149.824 30.3478 149.824H35.6598C35.8945 149.824 36.0865 149.899 36.2358 150.048C36.3851 150.197 36.4598 150.384 36.4598 150.608V151.152C36.4598 151.376 36.3851 151.563 36.2358 151.712C36.0865 151.861 35.8945 151.936 35.6598 151.936H30.3478ZM43.3482 148.912C44.0095 148.912 44.5909 149.056 45.0922 149.344C45.6042 149.632 45.9935 150.043 46.2602 150.576C46.5375 151.099 46.6762 151.707 46.6762 152.4C46.6762 153.147 46.5109 153.803 46.1802 154.368C45.8495 154.933 45.3802 155.376 44.7722 155.696C44.1749 156.005 43.4869 156.16 42.7082 156.16C41.2789 156.16 40.1962 155.723 39.4602 154.848C38.7242 153.973 38.3562 152.688 38.3562 150.992C38.3562 146.757 39.9562 144.64 43.1562 144.64C44.1055 144.64 44.8682 144.827 45.4442 145.2C46.0202 145.563 46.3082 146.048 46.3082 146.656C46.3082 147.125 46.1642 147.509 45.8762 147.808C45.5989 148.107 45.2362 148.256 44.7882 148.256C44.3295 148.256 43.9615 148.133 43.6842 147.888C43.4175 147.632 43.2842 147.301 43.2842 146.896V146.784C43.2415 146.773 43.1669 146.768 43.0602 146.768C42.3455 146.768 41.8282 147.013 41.5082 147.504C41.1882 147.995 41.0122 148.816 40.9802 149.968C41.2682 149.595 41.6042 149.328 41.9882 149.168C42.3722 148.997 42.8255 148.912 43.3482 148.912ZM42.5322 154.032C43.0015 154.032 43.3695 153.904 43.6362 153.648C43.9135 153.381 44.0522 153.008 44.0522 152.528C44.0522 152.048 43.9189 151.68 43.6522 151.424C43.3855 151.168 43.0122 151.04 42.5322 151.04C42.0522 151.04 41.6735 151.168 41.3962 151.424C41.1189 151.68 40.9802 152.043 40.9802 152.512C40.9802 152.981 41.1242 153.355 41.4122 153.632C41.7002 153.899 42.0735 154.032 42.5322 154.032Z" fill="white"/>
<path d="M9.93117 163.2C11.1352 163.2 12.0452 163.443 12.6612 163.928C13.2772 164.404 13.5852 165.113 13.5852 166.056C13.5852 167.017 13.2445 167.769 12.5632 168.31C11.8912 168.842 10.9485 169.108 9.73517 169.108H8.40517V171.894H8.76917C9.07717 171.894 9.23117 172.02 9.23117 172.272V172.622C9.23117 172.874 9.07717 173 8.76917 173H6.78117C6.47317 173 6.31917 172.874 6.31917 172.622V172.272C6.31917 172.02 6.47317 171.894 6.78117 171.894H7.14517V164.306H6.78117C6.47317 164.306 6.31917 164.18 6.31917 163.928V163.578C6.31917 163.326 6.47317 163.2 6.78117 163.2H9.93117ZM9.63717 168.002C10.5798 168.002 11.2565 167.853 11.6672 167.554C12.0872 167.246 12.2972 166.756 12.2972 166.084C12.2972 165.468 12.1058 165.02 11.7232 164.74C11.3405 164.451 10.7292 164.306 9.88917 164.306H8.40517V168.002H9.63717ZM22.1072 170.41C22.2286 170.41 22.3219 170.452 22.3872 170.536C22.4526 170.611 22.4852 170.723 22.4852 170.872V172.454C22.4852 172.603 22.4292 172.734 22.3172 172.846C22.2146 172.949 22.0839 173 21.9252 173H15.6952C15.3872 173 15.2332 172.874 15.2332 172.622V172.272C15.2332 172.02 15.3872 171.894 15.6952 171.894H16.0592V164.306H15.6952C15.3872 164.306 15.2332 164.18 15.2332 163.928V163.578C15.2332 163.326 15.3872 163.2 15.6952 163.2H21.8552C22.0139 163.2 22.1446 163.256 22.2472 163.368C22.3499 163.471 22.4012 163.601 22.4012 163.76V165.062C22.4012 165.37 22.2799 165.524 22.0372 165.524H21.6732C21.4306 165.524 21.3092 165.37 21.3092 165.062V164.306H17.3192V167.372H20.3992C20.5112 167.372 20.6046 167.414 20.6792 167.498C20.7632 167.573 20.8052 167.666 20.8052 167.778V168.072C20.8052 168.184 20.7632 168.282 20.6792 168.366C20.6046 168.441 20.5112 168.478 20.3992 168.478H17.3192V171.894H21.3792V170.872C21.3792 170.564 21.5052 170.41 21.7572 170.41H22.1072ZM28.6383 173.14C27.761 173.14 27.0003 172.944 26.3563 172.552C25.7217 172.151 25.2317 171.581 24.8863 170.844C24.541 170.097 24.3683 169.225 24.3683 168.226C24.3683 167.19 24.5503 166.285 24.9143 165.51C25.2783 164.726 25.7963 164.124 26.4683 163.704C27.1403 163.275 27.9243 163.06 28.8203 163.06C29.6883 163.06 30.4443 163.261 31.0883 163.662C31.7323 164.054 32.227 164.619 32.5723 165.356C32.9177 166.093 33.0903 166.961 33.0903 167.96C33.0903 169.005 32.9083 169.92 32.5443 170.704C32.1803 171.479 31.6623 172.081 30.9903 172.51C30.3183 172.93 29.5343 173.14 28.6383 173.14ZM28.6523 172.034C29.651 172.034 30.4257 171.679 30.9763 170.97C31.527 170.261 31.8023 169.262 31.8023 167.974C31.8023 166.742 31.5457 165.799 31.0323 165.146C30.519 164.493 29.777 164.166 28.8063 164.166C27.8077 164.166 27.033 164.521 26.4823 165.23C25.9317 165.93 25.6563 166.924 25.6563 168.212C25.6563 169.453 25.913 170.401 26.4263 171.054C26.9397 171.707 27.6817 172.034 28.6523 172.034ZM38.5191 163.2C39.7231 163.2 40.6331 163.443 41.2491 163.928C41.8651 164.404 42.1731 165.113 42.1731 166.056C42.1731 167.017 41.8324 167.769 41.1511 168.31C40.4791 168.842 39.5364 169.108 38.3231 169.108H36.9931V171.894H37.3571C37.6651 171.894 37.8191 172.02 37.8191 172.272V172.622C37.8191 172.874 37.6651 173 37.3571 173H35.3691C35.0611 173 34.9071 172.874 34.9071 172.622V172.272C34.9071 172.02 35.0611 171.894 35.3691 171.894H35.7331V164.306H35.3691C35.0611 164.306 34.9071 164.18 34.9071 163.928V163.578C34.9071 163.326 35.0611 163.2 35.3691 163.2H38.5191ZM38.2251 168.002C39.1677 168.002 39.8444 167.853 40.2551 167.554C40.6751 167.246 40.8851 166.756 40.8851 166.084C40.8851 165.468 40.6937 165.02 40.3111 164.74C39.9284 164.451 39.3171 164.306 38.4771 164.306H36.9931V168.002H38.2251ZM50.3311 170.424C50.4525 170.424 50.5458 170.466 50.6111 170.55C50.6765 170.625 50.7091 170.737 50.7091 170.886V172.454C50.7091 172.603 50.6531 172.734 50.5411 172.846C50.4385 172.949 50.3078 173 50.1491 173H44.2831C43.9751 173 43.8211 172.874 43.8211 172.622V172.272C43.8211 172.02 43.9751 171.894 44.2831 171.894H44.6471V164.306H44.2831C43.9751 164.306 43.8211 164.18 43.8211 163.928V163.578C43.8211 163.326 43.9751 163.2 44.2831 163.2H46.9151C47.2231 163.2 47.3771 163.326 47.3771 163.578V163.928C47.3771 164.18 47.2231 164.306 46.9151 164.306H45.9071V171.894H49.6031V170.886C49.6031 170.578 49.7291 170.424 49.9811 170.424H50.3311ZM59.1854 170.41C59.3067 170.41 59.4 170.452 59.4654 170.536C59.5307 170.611 59.5634 170.723 59.5634 170.872V172.454C59.5634 172.603 59.5074 172.734 59.3954 172.846C59.2927 172.949 59.162 173 59.0034 173H52.7734C52.4654 173 52.3114 172.874 52.3114 172.622V172.272C52.3114 172.02 52.4654 171.894 52.7734 171.894H53.1374V164.306H52.7734C52.4654 164.306 52.3114 164.18 52.3114 163.928V163.578C52.3114 163.326 52.4654 163.2 52.7734 163.2H58.9334C59.092 163.2 59.2227 163.256 59.3254 163.368C59.428 163.471 59.4794 163.601 59.4794 163.76V165.062C59.4794 165.37 59.358 165.524 59.1154 165.524H58.7514C58.5087 165.524 58.3874 165.37 58.3874 165.062V164.306H54.3974V167.372H57.4774C57.5894 167.372 57.6827 167.414 57.7574 167.498C57.8414 167.573 57.8834 167.666 57.8834 167.778V168.072C57.8834 168.184 57.8414 168.282 57.7574 168.366C57.6827 168.441 57.5894 168.478 57.4774 168.478H54.3974V171.894H58.4574V170.872C58.4574 170.564 58.5834 170.41 58.8354 170.41H59.1854Z" fill="#DEDEE0"/>
<path d="M16.1795 110.796L33 101.57L49.8205 110.796V129.204L33 138.43L16.1795 129.204V110.796Z" stroke="#DEDEE0"/>
<path d="M30.7273 110.833C31.8384 110.833 32.9179 111.2 33.7955 111.875C34.673 112.55 35.2986 113.496 35.5734 114.563C35.8481 115.63 35.7565 116.757 35.3129 117.767C34.8693 118.776 34.099 119.61 33.1236 120.138C36.2182 120.917 38.4545 123.123 38.4545 125.363C38.4545 127.5 33.9091 127.5 30.7273 127.5C26.6364 127.5 23 127.5 23 125.659C23 123.338 25.2282 120.888 28.3182 120.13C27.3461 119.6 26.5795 118.765 26.139 117.755C25.6985 116.746 25.6093 115.621 25.8852 114.556C26.1612 113.491 26.7867 112.547 27.6633 111.873C28.5399 111.199 29.6178 110.834 30.7273 110.833ZM37.0909 112.635C39.2027 112.635 40.9145 114.387 40.9145 116.547C40.9145 118.029 40.1091 119.318 38.9218 119.982C41.2891 120.596 43 122.338 43 124.105C43 124.988 41.7427 125.592 40.0445 125.903C40.0745 125.73 40.0909 125.55 40.0909 125.362L40.0864 125.152C39.9973 122.99 38.53 121.001 36.3464 119.714L36.1382 119.596L36.2336 119.46C36.9712 118.375 37.3647 117.097 37.3636 115.788C37.3636 114.66 37.0773 113.599 36.5727 112.671C36.7444 112.648 36.9176 112.635 37.0909 112.635Z" fill="#DEDEE0"/>
<path d="M27.4576 248.912C28.1189 248.912 28.7002 249.056 29.2016 249.344C29.7136 249.632 30.1029 250.043 30.3696 250.576C30.6469 251.099 30.7856 251.707 30.7856 252.4C30.7856 253.147 30.6202 253.803 30.2896 254.368C29.9589 254.933 29.4896 255.376 28.8816 255.696C28.2842 256.005 27.5962 256.16 26.8176 256.16C25.3882 256.16 24.3056 255.723 23.5696 254.848C22.8336 253.973 22.4656 252.688 22.4656 250.992C22.4656 246.757 24.0656 244.64 27.2656 244.64C28.2149 244.64 28.9776 244.827 29.5536 245.2C30.1296 245.563 30.4176 246.048 30.4176 246.656C30.4176 247.125 30.2736 247.509 29.9856 247.808C29.7082 248.107 29.3456 248.256 28.8976 248.256C28.4389 248.256 28.0709 248.133 27.7936 247.888C27.5269 247.632 27.3936 247.301 27.3936 246.896V246.784C27.3509 246.773 27.2762 246.768 27.1696 246.768C26.4549 246.768 25.9376 247.013 25.6176 247.504C25.2976 247.995 25.1216 248.816 25.0896 249.968C25.3776 249.595 25.7136 249.328 26.0976 249.168C26.4816 248.997 26.9349 248.912 27.4576 248.912ZM26.6416 254.032C27.1109 254.032 27.4789 253.904 27.7456 253.648C28.0229 253.381 28.1616 253.008 28.1616 252.528C28.1616 252.048 28.0282 251.68 27.7616 251.424C27.4949 251.168 27.1216 251.04 26.6416 251.04C26.1616 251.04 25.7829 251.168 25.5056 251.424C25.2282 251.68 25.0896 252.043 25.0896 252.512C25.0896 252.981 25.2336 253.355 25.5216 253.632C25.8096 253.899 26.1829 254.032 26.6416 254.032ZM36.9787 256.16C36.0187 256.16 35.192 255.936 34.4987 255.488C33.816 255.029 33.288 254.379 32.9147 253.536C32.552 252.693 32.3707 251.696 32.3707 250.544C32.3707 249.317 32.552 248.261 32.9147 247.376C33.2774 246.491 33.8 245.813 34.4827 245.344C35.176 244.875 36.008 244.64 36.9787 244.64C37.9387 244.64 38.76 244.869 39.4427 245.328C40.136 245.776 40.664 246.421 41.0267 247.264C41.4 248.107 41.5867 249.104 41.5867 250.256C41.5867 251.483 41.4054 252.539 41.0427 253.424C40.68 254.309 40.152 254.987 39.4587 255.456C38.776 255.925 37.9494 256.16 36.9787 256.16ZM36.9787 254.032C37.672 254.032 38.1734 253.733 38.4827 253.136C38.8027 252.528 38.9627 251.579 38.9627 250.288C38.9627 249.104 38.8027 248.224 38.4827 247.648C38.1627 247.061 37.6614 246.768 36.9787 246.768C36.2854 246.768 35.7787 247.072 35.4587 247.68C35.1387 248.288 34.9787 249.232 34.9787 250.512C34.9787 251.696 35.1387 252.581 35.4587 253.168C35.7894 253.744 36.296 254.032 36.9787 254.032Z" fill="white"/>
<path d="M28.8783 264.306V271.894H29.2423C29.5409 271.894 29.6903 272.02 29.6903 272.272V272.622C29.6903 272.874 29.5409 273 29.2423 273H27.2543C26.9463 273 26.7923 272.874 26.7923 272.622V272.272C26.7923 272.02 26.9463 271.894 27.2543 271.894H27.6183V264.95L24.9023 270.088C24.8183 270.265 24.6829 270.354 24.4963 270.354H24.2443C24.0576 270.354 23.9223 270.265 23.8383 270.088L21.1223 264.95V271.894H21.4863C21.7943 271.894 21.9483 272.02 21.9483 272.272V272.622C21.9483 272.874 21.7943 273 21.4863 273H19.6103C19.3023 273 19.1483 272.874 19.1483 272.622V272.272C19.1483 272.02 19.3023 271.894 19.6103 271.894H19.9743V264.306H19.6103C19.3023 264.306 19.1483 264.18 19.1483 263.928V263.578C19.1483 263.326 19.3023 263.2 19.6103 263.2H21.2343C21.4303 263.2 21.5703 263.289 21.6543 263.466L24.4403 268.744L27.2123 263.466C27.2963 263.289 27.4316 263.2 27.6183 263.2H29.2423C29.5409 263.2 29.6903 263.326 29.6903 263.578V263.928C29.6903 264.18 29.5409 264.306 29.2423 264.306H28.8783ZM31.9013 273C31.5933 273 31.4393 272.874 31.4393 272.622V272.272C31.4393 272.02 31.5933 271.894 31.9013 271.894H32.2653V264.306H31.9013C31.5933 264.306 31.4393 264.18 31.4393 263.928V263.578C31.4393 263.326 31.5933 263.2 31.9013 263.2H33.8893C34.1973 263.2 34.3513 263.326 34.3513 263.578V263.928C34.3513 264.18 34.1973 264.306 33.8893 264.306H33.5253V271.894H33.8893C34.1973 271.894 34.3513 272.02 34.3513 272.272V272.622C34.3513 272.874 34.1973 273 33.8893 273H31.9013ZM44.5017 263.2C44.8004 263.2 44.9497 263.326 44.9497 263.578V263.928C44.9497 264.18 44.8004 264.306 44.5017 264.306H44.1377V272.482C44.1377 272.631 44.0911 272.757 43.9977 272.86C43.9044 272.953 43.7831 273 43.6337 273H43.1577C43.0177 273 42.8964 272.935 42.7937 272.804L38.0617 265.37V271.894H38.4257C38.7337 271.894 38.8877 272.02 38.8877 272.272V272.622C38.8877 272.874 38.7337 273 38.4257 273H36.5497C36.2417 273 36.0877 272.874 36.0877 272.622V272.272C36.0877 272.02 36.2417 271.894 36.5497 271.894H36.9137V264.306H36.5497C36.2417 264.306 36.0877 264.18 36.0877 263.928V263.578C36.0877 263.326 36.2417 263.2 36.5497 263.2H37.8797C38.0291 263.2 38.1551 263.265 38.2577 263.396L42.9897 270.83V264.306H42.6117C42.3131 264.306 42.1637 264.18 42.1637 263.928V263.578C42.1637 263.326 42.3131 263.2 42.6117 263.2H44.5017Z" fill="#DEDEE0"/>
<path d="M16.1795 210.796L33 201.57L49.8205 210.796V229.204L33 238.43L16.1795 229.204V210.796Z" stroke="#DEDEE0"/>
<path fill-rule="evenodd" clip-rule="evenodd" d="M27.1228 210.833C26.6868 210.833 26.3333 211.206 26.3333 211.667C26.3333 212.127 26.6868 212.5 27.1228 212.5H27.76C28.8817 217.498 30.6284 219.998 33 220C35.3718 220.002 37.1185 217.502 38.2402 212.5H38.8772C39.3132 212.5 39.6667 212.127 39.6667 211.667C39.6667 211.206 39.3132 210.833 38.8772 210.833H27.1228ZM27.1228 227.5C26.6868 227.5 26.3333 227.873 26.3333 228.333C26.3333 228.793 26.6868 229.167 27.1228 229.167H38.8772C39.3132 229.167 39.6667 228.793 39.6667 228.333C39.6667 227.873 39.3132 227.5 38.8772 227.5H38.2401C37.1183 222.502 35.3717 220.002 33 220C30.6282 219.998 28.8815 222.498 27.7598 227.5H27.1228Z" fill="#DEDEE0"/>
</svg>
